/* XPM */
static char * kde_32_xpm[] = {
"32 32 745 2",
"  	c None",
". 	c #13459E",
"+ 	c #1B4BA7",
"@ 	c #2351B1",
"# 	c #2B57BA",
"$ 	c #335DC5",
"% 	c #3B64CE",
"& 	c #426AD7",
"* 	c #4A70E0",
"= 	c #5175EA",
"- 	c #587BF3",
"; 	c #5F80FB",
"> 	c #6081FC",
", 	c #6080FC",
"' 	c #5F7FFA",
") 	c #5D7EF8",
"! 	c #5A7CF3",
"~ 	c #5477EC",
"{ 	c #4C71E2",
"] 	c #4168D4",
"^ 	c #335DC4",
"/ 	c #0C3F94",
"( 	c #2052AA",
"_ 	c #2558AE",
": 	c #194EA1",
"< 	c #0C4293",
"[ 	c #073E8F",
"} 	c #0E4497",
"| 	c #154CA0",
"1 	c #1B52A8",
"2 	c #2157AF",
"3 	c #245CB5",
"4 	c #285FB9",
"5 	c #2A61BC",
"6 	c #2C62BD",
"7 	c #2C62BE",
"8 	c #2B61BC",
"9 	c #295FBA",
"0 	c #255DB6",
"a 	c #2258B1",
"b 	c #1C53AA",
"c 	c #164DA2",
"d 	c #10479A",
"e 	c #083F90",
"f 	c #094090",
"g 	c #154A9D",
"h 	c #2658AF",
"i 	c #305DBC",
"j 	c #2150AE",
"k 	c #043988",
"l 	c #1C4FA4",
"m 	c #265AB0",
"n 	c #174DA0",
"o 	c #1A4D99",
"p 	c #3060A4",
"q 	c #4E78B6",
"r 	c #678CC5",
"s 	c #7A9BD0",
"t 	c #8BA9D9",
"u 	c #9BB5E1",
"v 	c #A4BCE6",
"w 	c #AAC1E8",
"x 	c #AFC5EB",
"y 	c #B4C9ED",
"z 	c #B3C8EC",
"A 	c #AEC5EB",
"B 	c #A9C1E9",
"C 	c #A3BCE6",
"D 	c #98B4E1",
"E 	c #88A7D9",
"F 	c #779AD0",
"G 	c #648AC5",
"H 	c #4A75B6",
"I 	c #2D5DA4",
"J 	c #134895",
"K 	c #13499B",
"L 	c #2257AC",
"M 	c #2455AF",
"N 	c #0F4095",
"O 	c #043989",
"P 	c #2457AD",
"Q 	c #3564AD",
"R 	c #839FC9",
"S 	c #93ADD2",
"T 	c #98B1D7",
"U 	c #9BB5DC",
"V 	c #9FB8E0",
"W 	c #A2BBE4",
"X 	c #A4BEE7",
"Y 	c #A6C0EA",
"Z 	c #A8C1EC",
"` 	c #A9C3EE",
" .	c #ABC4EF",
"..	c #ABC4F0",
"+.	c #AAC3EE",
"@.	c #A8C2ED",
"#.	c #A7C0EA",
"$.	c #A5BEE8",
"%.	c #A2BCE5",
"&.	c #A0B9E1",
"*.	c #9CB6DD",
"=.	c #99B2D8",
"-.	c #94AED3",
";.	c #7393C1",
">.	c #2054A2",
",.	c #2155AB",
"'.	c #0C3F93",
").	c #043A8B",
"!.	c #1A4FA3",
"~.	c #7393C2",
"{.	c #819FCB",
"].	c #86A5D2",
"^.	c #8BA9D8",
"/.	c #8FAEDD",
"(.	c #93B1E2",
"_.	c #96B5E6",
":.	c #99B8EA",
"<.	c #9CBAEC",
"[.	c #9EBCEF",
"}.	c #9FBDF1",
"|.	c #BBD0F3",
"1.	c #C5D7F4",
"2.	c #CEDCF5",
"3.	c #C6D8F5",
"4.	c #9CBAED",
"5.	c #9AB8EA",
"6.	c #B1C7EA",
"7.	c #ABC1E6",
"8.	c #94B1DE",
"9.	c #8CABD9",
"0.	c #88A6D3",
"a.	c #82A1CC",
"b.	c #567DB5",
"c.	c #154B9E",
"d.	c #0C4095",
"e.	c #053B8C",
"f.	c #184D9B",
"g.	c #6E90C2",
"h.	c #7497CB",
"i.	c #7A9DD2",
"j.	c #7FA2D9",
"k.	c #84A7DF",
"l.	c #88ABE4",
"m.	c #8BAEE8",
"n.	c #8EB1EC",
"o.	c #91B4EF",
"p.	c #92B5F1",
"q.	c #F1F4F8",
"r.	c #F9F9F9",
"s.	c #DCE6F6",
"t.	c #92B5F0",
"u.	c #91B4F0",
"v.	c #A7C2EF",
"w.	c #F0F2F3",
"x.	c #EEF0F0",
"y.	c #E8EBEC",
"z.	c #D1DAE6",
"A.	c #89A7D6",
"B.	c #7699CD",
"C.	c #6389BF",
"D.	c #0B4394",
"E.	c #0D4195",
"F.	c #063C8E",
"G.	c #1F539D",
"H.	c #6189C2",
"I.	c #6891CC",
"J.	c #6F97D3",
"K.	c #749CDA",
"L.	c #78A1E0",
"M.	c #7DA5E6",
"N.	c #80A8EA",
"O.	c #82ABED",
"P.	c #82AAEC",
"Q.	c #F0F4F8",
"R.	c #F9FAF9",
"S.	c #D7E3F5",
"T.	c #8BB1EE",
"U.	c #EAF0F6",
"V.	c #F5F6F5",
"W.	c #F1F2F2",
"X.	c #ECEEEE",
"Y.	c #B5C8E4",
"Z.	c #7098D5",
"`.	c #6A92CE",
" +	c #638BC5",
".+	c #0F4798",
"++	c #0E4296",
"@+	c #295CA7",
"#+	c #5582C3",
"$+	c #5C89CD",
"%+	c #6290D4",
"&+	c #6895DC",
"*+	c #6C9AE2",
"=+	c #719EE7",
"-+	c #72A0E9",
";+	c #719FE8",
">+	c #719FE7",
",+	c #FAFAFA",
"'+	c #D2E0F4",
")+	c #72A0E8",
"!+	c #D1DFF4",
"~+	c #F8F8F8",
"{+	c #F7F8F7",
"]+	c #F4F5F4",
"^+	c #D0DCEC",
"/+	c #6B98DD",
"(+	c #6491D6",
"_+	c #5E8BCF",
":+	c #5783C6",
"<+	c #1D55A5",
"[+	c #0E4398",
"}+	c #083F91",
"|+	c #2C61AE",
"1+	c #487AC4",
"2+	c #5082CD",
"3+	c #5688D5",
"4+	c #5B8EDC",
"5+	c #5F93E2",
"6+	c #7BA5E7",
"7+	c #D9E3F2",
"8+	c #90B4EA",
"9+	c #6094E3",
"0+	c #5F94E2",
"a+	c #FBFBFA",
"b+	c #FCFCFA",
"c+	c #CDDCF3",
"d+	c #A6C3ED",
"e+	c #F8F9F8",
"f+	c #E8EDF4",
"g+	c #6F9DE5",
"h+	c #5C8FDE",
"i+	c #578AD7",
"j+	c #5184CF",
"k+	c #4A7CC6",
"l+	c #265DAF",
"m+	c #0F4599",
"n+	c #094192",
"o+	c #2C63B4",
"p+	c #4378C6",
"q+	c #4A80CF",
"r+	c #5085D6",
"s+	c #548BDD",
"t+	c #E5EBF1",
"u+	c #F6F6F5",
"v+	c #C0D4F0",
"w+	c #80AAE5",
"x+	c #73A0E3",
"y+	c #F0F4F9",
"z+	c #FCFCFB",
"A+	c #FCFCFC",
"B+	c #C9DAF2",
"C+	c #79A4E4",
"D+	c #F8F9FA",
"E+	c #FAFBFA",
"F+	c #F9FAF8",
"G+	c #F5F7F7",
"H+	c #7EA8E5",
"I+	c #578EE1",
"J+	c #558CDE",
"K+	c #5187D8",
"L+	c #4B81D1",
"M+	c #457AC9",
"N+	c #2C64B6",
"O+	c #10469B",
"P+	c #0A4395",
"Q+	c #3168BA",
"R+	c #467CCB",
"S+	c #4B83D2",
"T+	c #5088D8",
"U+	c #548CDE",
"V+	c #C3D5EE",
"W+	c #F7F7F6",
"X+	c #FAFAF9",
"Y+	c #FBFBFB",
"Z+	c #8DB2E6",
"`+	c #F1F5FA",
" @	c #FDFDFC",
".@	c #D3E1F4",
"+@	c #E8EFF8",
"@@	c #9EBEE9",
"#@	c #548CDD",
"$@	c #5189DA",
"%@	c #4D84D4",
"&@	c #487ECD",
"*@	c #326ABD",
"=@	c #11489C",
"-@	c #0C4497",
";@	c #336CBF",
">@	c #487FCD",
",@	c #4D84D3",
"'@	c #528BDC",
")@	c #528BDB",
"!@	c #6598DE",
"~@	c #F1F4F6",
"{@	c #F6F8FA",
"]@	c #9CBCE7",
"^@	c #508AD7",
"/@	c #FDFDFD",
"(@	c #C5D7EF",
"_@	c #508AD9",
":@	c #508ADA",
"<@	c #518BDB",
"[@	c #538CDC",
"}@	c #4E85D5",
"|@	c #4980CF",
"1@	c #306AC0",
"2@	c #12499E",
"3@	c #0D4698",
"4@	c #356EC2",
"5@	c #4981CF",
"6@	c #4C85D4",
"7@	c #5089D8",
"8@	c #4F89D8",
"9@	c #4E88D7",
"0@	c #B3CBEA",
"a@	c #88AEE1",
"b@	c #4B86D4",
"c@	c #4A86D4",
"d@	c #FEFEFD",
"e@	c #FCFDFD",
"f@	c #D9E4F3",
"g@	c #518AD7",
"h@	c #5089D9",
"i@	c #4D86D5",
"j@	c #407BCE",
"k@	c #2C68C1",
"l@	c #134B9F",
"m@	c #0E489A",
"n@	c #306CC2",
"o@	c #4982CF",
"p@	c #4B85D4",
"q@	c #4E88D6",
"r@	c #4D88D6",
"s@	c #4C87D5",
"t@	c #4D88D5",
"u@	c #E3EBF4",
"v@	c #BDD2EC",
"w@	c #4985D2",
"x@	c #4985D1",
"y@	c #4984D1",
"z@	c #F1F6FA",
"A@	c #FEFEFE",
"B@	c #CADBF1",
"C@	c #DDE8F5",
"D@	c #ACC7E9",
"E@	c #4480D3",
"F@	c #3272CB",
"G@	c #2D6AC3",
"H@	c #144CA1",
"I@	c #0F499C",
"J@	c #2C6AC2",
"K@	c #3A78CC",
"L@	c #4A84D3",
"M@	c #588ED6",
"N@	c #89AEDF",
"O@	c #AEC7E7",
"P@	c #D6E2F0",
"Q@	c #6E9DDA",
"R@	c #F2F6FA",
"S@	c #C6D8F0",
"T@	c #6B9CDA",
"U@	c #F9FAFB",
"V@	c #F8F9F9",
"W@	c #7CA7DD",
"X@	c #4A86D3",
"Y@	c #407FD2",
"Z@	c #3275CD",
"`@	c #3172CA",
" #	c #2D6CC4",
".#	c #154DA2",
"+#	c #104A9D",
"@#	c #2A6AC0",
"##	c #2E70C6",
"$#	c #3C7BCC",
"%#	c #89AEDB",
"&#	c #EFF0EF",
"*#	c #F4F6F8",
"=#	c #4C87D4",
"-#	c #C7D9F1",
";#	c #A2C0E8",
">#	c #F9F9F8",
",#	c #E8EEF4",
"'#	c #558CD4",
")#	c #3678CD",
"!#	c #3074CB",
"~#	c #3073CA",
"{#	c #2E71C7",
"]#	c #2C6BC2",
"^#	c #154FA3",
"/#	c #104B9E",
"(#	c #2867BC",
"_#	c #2A6DC1",
":#	c #2C6FC4",
"<#	c #7AA2D4",
"[#	c #EDEFEE",
"}#	c #F5F5F5",
"|#	c #F7F8F6",
"1#	c #4E88D8",
"2#	c #518ADB",
"3#	c #C8DAF2",
"4#	c #548CDB",
"5#	c #D7E3F4",
"6#	c #F8F8F7",
"7#	c #BFD2E8",
"8#	c #3174CA",
"9#	c #2B6DC2",
"0#	c #2968BE",
"a#	c #164FA4",
"b#	c #114C9E",
"c#	c #2664B8",
"d#	c #2768BB",
"e#	c #296BBE",
"f#	c #3876C4",
"g#	c #749ED5",
"h#	c #A8C3E6",
"i#	c #DCE6F1",
"j#	c #5D92DF",
"k#	c #528ADE",
"l#	c #548CDF",
"m#	c #568DE1",
"n#	c #F2F5FA",
"o#	c #C8DAF4",
"p#	c #518AE0",
"q#	c #4C86DE",
"r#	c #6194E1",
"s#	c #F6F7F6",
"t#	c #EFF0F0",
"u#	c #85AAD7",
"v#	c #2C6EC3",
"w#	c #2869BC",
"x#	c #2766BA",
"y#	c #1650A4",
"z#	c #2361B4",
"A#	c #2464B6",
"B#	c #2667B9",
"C#	c #2B6BBE",
"D#	c #3272C9",
"E#	c #3A7AD5",
"F#	c #4E88DC",
"G#	c #F4F6F6",
"H#	c #8EB2E9",
"I#	c #4481E1",
"J#	c #4682E2",
"K#	c #4783E3",
"L#	c #F0F4FA",
"M#	c #C4D6F4",
"N#	c #4783E4",
"O#	c #4783E1",
"P#	c #91B4EA",
"Q#	c #F2F3F2",
"R#	c #EAECEC",
"S#	c #D8DEE2",
"T#	c #3F78C3",
"U#	c #2767BA",
"V#	c #2565B6",
"W#	c #2462B6",
"X#	c #215EB0",
"Y#	c #2260B0",
"Z#	c #2463B4",
"`#	c #2A67BA",
" $	c #3473CB",
".$	c #3F7DDA",
"+$	c #4380DF",
"@$	c #BFD2EF",
"#$	c #E5EBF4",
"$$	c #578DE8",
"%$	c #4C86E9",
"&$	c #4D86EA",
"*$	c #C2D5F6",
"=$	c #B2CAF4",
"-$	c #98B8F2",
";$	c #719FEE",
">$	c #4D87EA",
",$	c #A3C0EF",
"'$	c #88AEEB",
")$	c #BED1EF",
"!$	c #B2C9EA",
"~$	c #77A1E0",
"{$	c #3D78CD",
"]$	c #2B68BC",
"^$	c #2563B4",
"/$	c #2260B1",
"($	c #225FB1",
"_$	c #154EA3",
":$	c #1E5AAB",
"<$	c #1E5BAA",
"[$	c #215EAD",
"}$	c #2863B6",
"|$	c #3672CB",
"1$	c #4480E0",
"2$	c #568DE6",
"3$	c #E7ECF3",
"4$	c #D1DEF4",
"5$	c #5F92EF",
"6$	c #538AF0",
"7$	c #548BF1",
"8$	c #548BF2",
"9$	c #538AF1",
"0$	c #95B6F2",
"a$	c #F3F5F5",
"b$	c #E9EEF3",
"c$	c #6294E9",
"d$	c #4984E6",
"e$	c #4581E1",
"f$	c #3774CD",
"g$	c #2964B7",
"h$	c #225EAE",
"i$	c #1F5BAA",
"j$	c #1F5BAD",
"k$	c #144CA0",
"l$	c #0C4597",
"m$	c #1A55A6",
"n$	c #1B55A3",
"o$	c #1D58A6",
"p$	c #255EB0",
"q$	c #3570CA",
"r$	c #4681E2",
"s$	c #B5CAEA",
"t$	c #F0F1F0",
"u$	c #E7EDF5",
"v$	c #9EBCF5",
"w$	c #6D9CF7",
"x$	c #5B90F8",
"y$	c #6596F7",
"z$	c #84ABF6",
"A$	c #C7D7F5",
"B$	c #F5F6F4",
"C$	c #F3F4F3",
"D$	c #EEEFEF",
"E$	c #E5E8E9",
"F$	c #6998EA",
"G$	c #4983E4",
"H$	c #3772CC",
"I$	c #2660B2",
"J$	c #1E58A7",
"K$	c #1B57A8",
"L$	c #0A4394",
"M$	c #1550A0",
"N$	c #164F9C",
"O$	c #19529E",
"P$	c #2159AA",
"Q$	c #346DC7",
"R$	c #5A8BDE",
"S$	c #E2E5E5",
"T$	c #E9EBEA",
"U$	c #EEF0EF",
"V$	c #D9E3F4",
"W$	c #BBCFF7",
"X$	c #EFF2F5",
"Y$	c #F4F5F5",
"Z$	c #DEE6F5",
"`$	c #B5CAF6",
" %	c #E8EBED",
".%	c #E6E8E8",
"+%	c #DFE2E2",
"@%	c #A9BFE2",
"#%	c #4780E2",
"$%	c #366FC9",
"%%	c #225BAC",
"&%	c #1A529F",
"*%	c #17509D",
"=%	c #1751A2",
"-%	c #11479C",
";%	c #084092",
">%	c #104A9A",
",%	c #124B96",
"'%	c #154C97",
")%	c #3069C2",
"!%	c #4077D7",
"~%	c #84A6E2",
"{%	c #DADFE5",
"]%	c #9CB9F3",
"^%	c #6193FC",
"/%	c #5F92FD",
"(%	c #709DFD",
"_%	c #F1F2F1",
":%	c #F0F2F1",
"<%	c #B4CAF6",
"[%	c #6093FE",
"}%	c #6092FD",
"|%	c #77A1F9",
"1%	c #C4D0E7",
"2%	c #C6D0DF",
"3%	c #5C8CE6",
"4%	c #427ADB",
"5%	c #326AC5",
"6%	c #1F56A6",
"7%	c #154C98",
"8%	c #134B97",
"9%	c #114B9B",
"0%	c #0F459A",
"a%	c #073E90",
"b%	c #104999",
"c%	c #0E4692",
"d%	c #104792",
"e%	c #1A51A1",
"f%	c #2B63BC",
"g%	c #386ECD",
"h%	c #4378DA",
"i%	c #5284E6",
"j%	c #578AF3",
"k%	c #5E90FB",
"l%	c #6092FE",
"m%	c #6193FF",
"n%	c #D6DEEC",
"o%	c #E8EAE9",
"p%	c #E7E9E8",
"q%	c #8AADF8",
"r%	c #6192FE",
"s%	c #5F91FD",
"t%	c #5B8DF5",
"u%	c #5888E8",
"v%	c #467ADD",
"w%	c #3B71D0",
"x%	c #2D65BF",
"y%	c #1B52A2",
"z%	c #114893",
"A%	c #0F4792",
"B%	c #0E4797",
"C%	c #1850A3",
"D%	c #0C448F",
"E%	c #0C428C",
"F%	c #154C9C",
"G%	c #235AB2",
"H%	c #2E63BF",
"I%	c #376CCB",
"J%	c #4175D7",
"K%	c #4A7DE2",
"L%	c #5183EB",
"M%	c #5B8EF8",
"N%	c #B2C5EA",
"O%	c #DEE1E1",
"P%	c #DCE0E0",
"Q%	c #6796FA",
"R%	c #5C8FF9",
"S%	c #588BF4",
"T%	c #5385ED",
"U%	c #4C7EE4",
"V%	c #4377DA",
"W%	c #3A6ECE",
"X%	c #3066C2",
"Y%	c #255CB4",
"Z%	c #164D9E",
"`%	c #0D438D",
" &	c #0B438E",
".&	c #144C9E",
"+&	c #053988",
"@&	c #2157AB",
"#&	c #134A98",
"$&	c #093F8A",
"%&	c #0E4594",
"&&	c #184EA4",
"*&	c #2156AF",
"=&	c #2A5FBB",
"-&	c #3367C6",
";&	c #3B6FCF",
">&	c #4275D8",
",&	c #487ADF",
"'&	c #4C7FE5",
")&	c #6791E5",
"!&	c #81A2E2",
"~&	c #7B9EE3",
"{&	c #5082E9",
"]&	c #4D80E6",
"^&	c #497CE1",
"/&	c #3D70D2",
"(&	c #3569C8",
"_&	c #2D61BD",
":&	c #2459B2",
"<&	c #1A50A6",
"[&	c #104696",
"}&	c #083F89",
"|&	c #0F4694",
"1&	c #1F54A9",
"2&	c #0D3F91",
"3&	c #042F6F",
"4&	c #1B4FA4",
"5&	c #2257AA",
"6&	c #124897",
"7&	c #083E8E",
"8&	c #0B4294",
"9&	c #14499E",
"0&	c #1C51A9",
"a&	c #2559B3",
"b&	c #2C60BD",
"c&	c #3266C5",
"d&	c #386BCB",
"e&	c #3C6FD0",
"f&	c #3F72D4",
"g&	c #4073D6",
"h&	c #4074D6",
"i&	c #3C70D1",
"j&	c #396CCD",
"k&	c #3468C6",
"l&	c #2E62BF",
"m&	c #275BB6",
"n&	c #1F53AC",
"o&	c #164BA1",
"p&	c #0D4396",
"q&	c #073D8D",
"r&	c #0E4493",
"s&	c #1E53A6",
"t&	c #2355AE",
"u&	c #0C3478",
"v&	c #020F23",
"w&	c #0C3D8E",
"x&	c #1F52A9",
"y&	c #2255AB",
"z&	c #14499B",
"A&	c #073C8C",
"B&	c #063C8D",
"C&	c #1D52AA",
"D&	c #2358B1",
"E&	c #285CB7",
"F&	c #2C60BC",
"G&	c #3064C1",
"H&	c #2F63C0",
"I&	c #295DB8",
"J&	c #2459B3",
"K&	c #184DA3",
"L&	c #10469A",
"M&	c #083E8F",
"N&	c #053B8A",
"O&	c #104597",
"P&	c #2E5CBB",
"Q&	c #204CA6",
"R&	c #041126",
"S&	c #030E20",
"T&	c #0F3375",
"U&	c #1A49A0",
"V&	c #3B63CE",
"W&	c #436AD8",
"X&	c #4B70E2",
"Y&	c #5376EC",
"Z&	c #5B7CF5",
"`&	c #6281FE",
" *	c #6382FF",
".*	c #6282FE",
"+*	c #6180FC",
"@*	c #5A7CF5",
"#*	c #5577ED",
"$*	c #3E64CC",
"%*	c #264591",
"&*	c #081226",
"**	c #000000",
"      . + @ # $ % & * = - ; > > > > > > , ; ' ) ! ~ { ] ^       ",
"    / ( _ : < [ } | 1 2 3 4 5 6 7 8 9 0 a b c d e f g h i j     ",
"  k l m n o p q r s t u v w x y z A B C D E F G H I J K L M N   ",
"  O P Q R S T U V W X Y Z `  ..... .+.@.#.$.%.&.*.=.-.;.>.,.'.  ",
"  ).!.~.{.].^./.(._.:.<.[.}.|.1.2.3.}.[.4.5.6.7.8.9.0.a.b.c.d.  ",
"  e.f.g.h.i.j.k.l.m.n.o.p.p.q.r.r.s.t.p.u.v.w.x.y.z.A.B.C.D.E.  ",
"  F.G.H.I.J.K.L.M.N.O.O.O.P.Q.R.R.S.P.O.T.U.V.W.X.Y.Z.`. +.+++  ",
"  [ @+#+$+%+&+*+=+-+-+;+;+>+Q.,+,+'+>+)+!+~+{+]+^+/+(+_+:+<+[+  ",
"  }+|+1+2+3+4+5+6+7+8+9+0+5+Q.a+b+c+5+d+R.e+{+f+g+h+i+j+k+l+m+  ",
"  n+o+p+q+r+s+5+t+u+{+v+w+x+y+z+A+B+C+D+E+F+G+H+I+J+K+L+M+N+O+  ",
"  P+Q+R+S+T+U+J+V+W+e+X+Y+Z+`+ @ @.@+@z+Y+X+@@#@J+J+$@%@&@*@=@  ",
"  -@;@>@,@T+'@)@!@~@R.{@]@^@`+/@/@/@ @ @z+(@_@:@<@[@$@}@|@1@2@  ",
"  3@4@5@6@7@_@8@9@0@R.a@b@c@`+d@d@e@/@ @z+f@g@9@8@_@h@i@j@k@l@  ",
"  m@n@o@p@q@r@s@t@u@v@w@x@y@z@A@A@B@C@ @A+a+D@c@s@r@9@E@F@G@H@  ",
"  I@J@K@L@M@N@O@P@F+Q@x@w@w@R@A@A@S@T@U@z+a+V@W@w@X@Y@Z@`@ #.#  ",
"  +#@###$#%#&#V.{+*#=#b@s@r@z@d@d@-#r@;#z+a+>#,#'#)#!#~#{#]#^#  ",
"  /#(#_#:#<#[#}#|#~@1#_@2#)@`+/@/@3#'@4#5#X+6#u+7#8#{#:#9#0#a#  ",
"  b#c#d#e#f#g#h#i#6#j#k#l#m#n# @ @o#p#q#r#~@s#]+t#u#v#e#w#x#y#  ",
"  b#z#A#B#C#D#E#F#G#H#I#J#K#L#A+z+M#N#J#O#P#V.Q#R#S#T#U#V#W#y#  ",
"  +#X#Y#Z#`# $.$+$@$#$$$%$&$*$=$-$;$>$%$,$'$)$!$~${$]$^$/$($_$  ",
"  m@:$<$[$}$|$1$2$3$V.4$5$6$7$8$8$7$9$0$a$b$c$d$e$f$g$h$i$j$k$  ",
"  l$m$n$o$p$q$r$s$t$]+V.u$v$w$x$y$z$A$B$C$D$E$F$G$H$I$J$n$K$2@  ",
"  L$M$N$O$P$Q$R$S$T$U$V$W$X$V.Y$V.]+Z$`$ %.%+%@%#%$%%%&%*%=%-%  ",
"  ;%>%,%'%<+)%!%~%{%]%^%/%(%_%_%:%<%[%}%|%1%2%3%4%5%6%7%8%9%0%  ",
"  a%b%c%d%e%f%g%h%i%j%k%l%m%n%o%p%q%m%r%s%t%u%v%w%x%y%z%A%B%[+  ",
"  F.C%D%E%F%G%H%I%J%K%L%j%M%N%O%P%Q%R%S%T%U%V%W%X%Y%Z%`% &.&++  ",
"  +&@&#&$&%&&&*&=&-&;&>&,&'&)&!&~&{&]&^&V%/&(&_&:&<&[&}&|&1&2&  ",
"  3&4&5&6&7&8&9&0&a&b&c&d&e&f&g&h&f&i&j&k&l&m&n&o&p&q&r&s&t&u&  ",
"  v&w&x&y&z&A&B&} o&C&D&E&F&l&G&G&H&b&I&J&n&K&L&M&N&O&y&P&Q&R&  ",
"    S&T&U&@ # ^ V&W&X&Y&Z&`& * * * * * *.*`&+*' @*#*{ $*%*&*    ",
"      ****************************************************      ",
"                                                                "};
