/* XPM */
static char * xfce_32_xpm[] = {
"32 32 520 2",
"  	c #FFFFFF",
". 	c #FEFFFE",
"+ 	c #FEFEFE",
"@ 	c #FFFFFE",
"# 	c #FEFFFF",
"$ 	c #F0F1F2",
"% 	c #D7DADD",
"& 	c #F9F9F9",
"* 	c #EBEDEE",
"= 	c #D2D6D9",
"- 	c #F9F9F8",
"; 	c #EEEFEF",
"> 	c #EFF1F2",
", 	c #F4F6F6",
"' 	c #C9CBCD",
") 	c #FCFCFC",
"! 	c #EDEFF0",
"~ 	c #DDE6EE",
"{ 	c #DBE4ED",
"] 	c #C6C9CD",
"^ 	c #F7F7F7",
"/ 	c #ECEEEE",
"( 	c #EFF2F4",
"_ 	c #FDFDFD",
": 	c #FBFCFD",
"< 	c #E8EBED",
"[ 	c #D2D4D5",
"} 	c #FEFEFD",
"| 	c #F2F3F3",
"1 	c #DCE4EB",
"2 	c #DEE8F1",
"3 	c #DDE6F0",
"4 	c #D9E3EC",
"5 	c #C3C9CC",
"6 	c #F4F4F3",
"7 	c #FEFEFF",
"8 	c #E2E2E2",
"9 	c #F6F6F6",
"0 	c #EBECED",
"a 	c #F2F5F5",
"b 	c #FDFDFC",
"c 	c #FBFBFD",
"d 	c #F9FAFD",
"e 	c #F8F9FD",
"f 	c #DADDE0",
"g 	c #DFDFE0",
"h 	c #DBE2E9",
"i 	c #DCE6EF",
"j 	c #DAE5EE",
"k 	c #D7E5ED",
"l 	c #D4E2EA",
"m 	c #C3C9CE",
"n 	c #F0F0F0",
"o 	c #E9E9E9",
"p 	c #A8A8A8",
"q 	c #C0C0C1",
"r 	c #DADBDC",
"s 	c #F2F5F7",
"t 	c #F7F8FC",
"u 	c #F5F8FB",
"v 	c #F2F6FA",
"w 	c #CCD1D4",
"x 	c #EDEDEC",
"y 	c #F2F2F1",
"z 	c #94979A",
"A 	c #4F5254",
"B 	c #CDD7DF",
"C 	c #DAE5EF",
"D 	c #D7E4ED",
"E 	c #D5E3EC",
"F 	c #D5E2EB",
"G 	c #C3CACF",
"H 	c #EDEDED",
"I 	c #FBFBFB",
"J 	c #C1C2C3",
"K 	c #9E9E9F",
"L 	c #969696",
"M 	c #C2C2C2",
"N 	c #F2F3F5",
"O 	c #F6F9FB",
"P 	c #F3F8FB",
"Q 	c #F2F6F9",
"R 	c #F0F4F8",
"S 	c #EDF3F7",
"T 	c #C4C9CB",
"U 	c #737474",
"V 	c #515253",
"W 	c #676B6E",
"X 	c #1B1B1C",
"Y 	c #949BA0",
"Z 	c #D6E3EC",
"` 	c #C3CFD8",
" .	c #CEDAE3",
"..	c #F5F5F5",
"+.	c #E6E9EB",
"@.	c #FAFBFB",
"#.	c #DADADD",
"$.	c #969798",
"%.	c #7E7F80",
"&.	c #C8CACD",
"*.	c #F1F5F8",
"=.	c #F0F5F8",
"-.	c #EEF3F7",
";.	c #ECF1F5",
">.	c #E5EDF2",
",.	c #C6C9CB",
"'.	c #FCFDFC",
").	c #5E5F5F",
"!.	c #1F1E1E",
"~.	c #434647",
"{.	c #101010",
"].	c #70767B",
"^.	c #CCD9E3",
"/.	c #D6E3ED",
"(.	c #D4E1EA",
"_.	c #6B7176",
":.	c #7C8389",
"<.	c #CEDBE4",
"[.	c #BEC1C3",
"}.	c #FAFBFA",
"|.	c #FFFEFE",
"1.	c #E7EBED",
"2.	c #F8FAFD",
"3.	c #F4F7FA",
"4.	c #C3C6C8",
"5.	c #6F7172",
"6.	c #9D9FA2",
"7.	c #EAF0F4",
"8.	c #EBF1F6",
"9.	c #E6ECF1",
"0.	c #E7EEF4",
"a.	c #DCE3E9",
"b.	c #CFD0D2",
"c.	c #E3E7EA",
"d.	c #4E5052",
"e.	c #131313",
"f.	c #0C0C0C",
"g.	c #050505",
"h.	c #080809",
"i.	c #101112",
"j.	c #333638",
"k.	c #6D7579",
"l.	c #646A6F",
"m.	c #A7B1B8",
"n.	c #BCBFC2",
"o.	c #F8F9F8",
"p.	c #EDEEF0",
"q.	c #E7EBEE",
"r.	c #F1F6F9",
"s.	c #E0E4E7",
"t.	c #797A7C",
"u.	c #78787B",
"v.	c #636566",
"w.	c #434445",
"x.	c #525354",
"y.	c #6A6D6E",
"z.	c #777B7D",
"A.	c #82888C",
"B.	c #0F100F",
"C.	c #070707",
"D.	c #020202",
"E.	c #0B0B0B",
"F.	c #323537",
"G.	c #0A0A0C",
"H.	c #000000",
"I.	c #010101",
"J.	c #141517",
"K.	c #989B9D",
"L.	c #F8F7F7",
"M.	c #EAECEC",
"N.	c #E7EBEF",
"O.	c #EFF4F8",
"P.	c #EDF2F6",
"Q.	c #CDD3D7",
"R.	c #3F3F3E",
"S.	c #383737",
"T.	c #303030",
"U.	c #282929",
"V.	c #202121",
"W.	c #080808",
"X.	c #010201",
"Y.	c #1C1C1C",
"Z.	c #5E5E5F",
"`.	c #E8E9EA",
" +	c #E6EBF0",
".+	c #EBF1F5",
"++	c #7E8184",
"@+	c #333333",
"#+	c #2C2C2C",
"$+	c #232323",
"%+	c #030303",
"&+	c #171717",
"*+	c #0E0E0E",
"=+	c #212121",
"-+	c #ADADAD",
";+	c #E4E7E8",
">+	c #E3EAF0",
",+	c #48494A",
"'+	c #282828",
")+	c #151515",
"!+	c #181819",
"~+	c #5A5A5A",
"{+	c #CBCBCB",
"]+	c #FDFEFE",
"^+	c #E0E2E4",
"/+	c #2E2F2F",
"(+	c #121212",
"_+	c #040404",
":+	c #454545",
"<+	c #BDBDBD",
"[+	c #2E2E2E",
"}+	c #B5B5B5",
"|+	c #AEAEAE",
"1+	c #000001",
"2+	c #060606",
"3+	c #252525",
"4+	c #E6E6E6",
"5+	c #212324",
"6+	c #242628",
"7+	c #101011",
"8+	c #070708",
"9+	c #0A0A0B",
"0+	c #121314",
"a+	c #111213",
"b+	c #666768",
"c+	c #858586",
"d+	c #C4C4C4",
"e+	c #EFF0F0",
"f+	c #3D3D3E",
"g+	c #383B3E",
"h+	c #ADB9C0",
"i+	c #CBD7DF",
"j+	c #BAC6CE",
"k+	c #ACB6BE",
"l+	c #A3ADB5",
"m+	c #A4ADB5",
"n+	c #B9C3CB",
"o+	c #BEC8D1",
"p+	c #7E868B",
"q+	c #2E3033",
"r+	c #2B2D30",
"s+	c #B7BCBE",
"t+	c #F6FAFB",
"u+	c #D9E1E7",
"v+	c #959EA6",
"w+	c #BBC7CF",
"x+	c #D6E2EB",
"y+	c #D6E3EB",
"z+	c #CEDBE3",
"A+	c #B3BFC7",
"B+	c #CFDAE4",
"C+	c #C4C8CB",
"D+	c #FAFAFA",
"E+	c #E8F5F9",
"F+	c #C5E9F3",
"G+	c #C2D7DE",
"H+	c #B9D9E3",
"I+	c #7EC7DF",
"J+	c #C2D4DD",
"K+	c #D7E1EC",
"L+	c #BADCEA",
"M+	c #BFE0EC",
"N+	c #B5DCEB",
"O+	c #AAD8E9",
"P+	c #9BD4E8",
"Q+	c #BDCFD9",
"R+	c #D6E2EC",
"S+	c #C9DFEA",
"T+	c #AED8EA",
"U+	c #A6CADA",
"V+	c #D2DDE8",
"W+	c #BAD2D9",
"X+	c #D1ECF4",
"Y+	c #C7E9F2",
"Z+	c #B9E3EF",
"`+	c #AADDEA",
" @	c #B8D1D8",
".@	c #EFF9FC",
"+@	c #D0EFF5",
"@@	c #EBF8FB",
"#@	c #B7E1EB",
"$@	c #CFDDE1",
"%@	c #C8DCE5",
"&@	c #84D5ED",
"*@	c #7DD4EE",
"=@	c #60B5D0",
"-@	c #CDD8E0",
";@	c #C3E7F2",
">@	c #D4F1F9",
",@	c #B7E7F6",
"'@	c #9BDEF2",
")@	c #79D3EE",
"!@	c #9BAFB9",
"~@	c #D4E2EB",
"{@	c #C8DFEA",
"]@	c #B0DDEC",
"^@	c #AAE1F3",
"/@	c #9EDFF2",
"(@	c #6DB1C6",
"_@	c #D1DDE6",
":@	c #CAE5F0",
"<@	c #D9F3FA",
"[@	c #C2EBF7",
"}@	c #ACE4F5",
"|@	c #95DDF3",
"1@	c #95BCC7",
"2@	c #FBFCFC",
"3@	c #BCE1EC",
"4@	c #D1F0F9",
"5@	c #BCE9F7",
"6@	c #89C8DD",
"7@	c #82D0E9",
"8@	c #78D3EE",
"9@	c #5CC5E3",
"0@	c #6E9AA9",
"a@	c #D1DDE8",
"b@	c #ACDFEF",
"c@	c #B0E4F5",
"d@	c #81CBE2",
"e@	c #6FB0C4",
"f@	c #5D9EB3",
"g@	c #ACBCC4",
"h@	c #D6E1EC",
"i@	c #BEDCEA",
"j@	c #BDE7F4",
"k@	c #BCE9F6",
"l@	c #9ADEF2",
"m@	c #72CFEB",
"n@	c #4EA4C1",
"o@	c #C6D2DB",
"p@	c #BCE1EE",
"q@	c #9EDDF0",
"r@	c #8AB2BF",
"s@	c #A0C8D4",
"t@	c #C3D2D6",
"u@	c #F7FAF9",
"v@	c #A4DBEB",
"w@	c #A1E1F3",
"x@	c #8CD8F0",
"y@	c #75D2EE",
"z@	c #5AC4E6",
"A@	c #6698A9",
"B@	c #CEDAE2",
"C@	c #93D7ED",
"D@	c #89D8EF",
"E@	c #5CB4CF",
"F@	c #ADBBC6",
"G@	c #C5CDD0",
"H@	c #E3E3E5",
"I@	c #C5DDE8",
"J@	c #B9E7F4",
"K@	c #B7E6F6",
"L@	c #8AD5EC",
"M@	c #66A4B7",
"N@	c #95AFBB",
"O@	c #C0CCD4",
"P@	c #AFDCED",
"Q@	c #9FDFF2",
"R@	c #82D4EC",
"S@	c #83B7C6",
"T@	c #A7DBEB",
"U@	c #ECEFF0",
"V@	c #D2DEE3",
"W@	c #76CDE9",
"X@	c #71D0EC",
"Y@	c #5AC8E9",
"Z@	c #44A2C1",
"`@	c #C4D1DA",
" #	c #7ACFEA",
".#	c #64CBEC",
"+#	c #44C1E7",
"@#	c #27B6E1",
"##	c #15ACDB",
"$#	c #D9DAD9",
"%#	c #B6DDE9",
"&#	c #B0E4F4",
"*#	c #8DDAF1",
"=#	c #689BAE",
"-#	c #CCD8E2",
";#	c #D5E2EC",
">#	c #A3D8EB",
",#	c #81D4EE",
"'#	c #69CDEC",
")#	c #52C5EA",
"!#	c #3ABAE1",
"~#	c #C6CED0",
"{#	c #DEE6EA",
"]#	c #80CFE8",
"^#	c #6BCFEC",
"/#	c #55C5E9",
"(#	c #40BFE6",
"_#	c #29B8E4",
":#	c #5BB0CD",
"<#	c #D0DDE7",
"[#	c #61C7E6",
"}#	c #3FBFE6",
"|#	c #22B3E0",
"1#	c #14A9D5",
"2#	c #11A3CF",
"3#	c #D5D5D6",
"4#	c #AEE2F2",
"5#	c #89D7F0",
"6#	c #64CCEB",
"7#	c #8AACBB",
"8#	c #96D4E9",
"9#	c #63CBEA",
"0#	c #4AC1E6",
"a#	c #4EA1BD",
"b#	c #51A6C2",
"c#	c #C5CACA",
"d#	c #F6FBFC",
"e#	c #82CFE7",
"f#	c #4FC4E7",
"g#	c #5D96AB",
"h#	c #40B7DE",
"i#	c #10B0E0",
"j#	c #03ABDE",
"k#	c #5CB0CB",
"l#	c #D3DEE8",
"m#	c #48BEE2",
"n#	c #19B3E0",
"o#	c #1D9EC7",
"p#	c #D9D8D8",
"q#	c #E9E8E8",
"r#	c #FAF9F9",
"s#	c #AEE2F1",
"t#	c #61CBEB",
"u#	c #3FBFE7",
"v#	c #3CAED0",
"w#	c #A9CEDE",
"x#	c #C9DBE6",
"y#	c #C9DCE7",
"z#	c #D1DFE9",
"A#	c #8ACFE8",
"B#	c #45C1E7",
"C#	c #2DB6E1",
"D#	c #83AEBF",
"E#	c #94B5C1",
"F#	c #DDE8EC",
"G#	c #FDFEFD",
"H#	c #CBE9F2",
"I#	c #61CAE8",
"J#	c #4EC4E9",
"K#	c #4D97B0",
"L#	c #C6D2DA",
"M#	c #BED6E4",
"N#	c #1DADDA",
"O#	c #02AADF",
"P#	c #2096BC",
"Q#	c #C1CCD5",
"R#	c #30B3DE",
"S#	c #02ABDE",
"T#	c #1B9EC8",
"U#	c #E6F3F7",
"V#	c #43BFE4",
"W#	c #18B1E2",
"X#	c #03ABDF",
"Y#	c #06AADD",
"Z#	c #06ABDF",
"`#	c #8CAFBF",
" $	c #7DCBE7",
".$	c #26B7E3",
"+$	c #11B0E1",
"@$	c #04ABDE",
"#$	c #6EAFC2",
"$$	c #AFDDEA",
"%$	c #49A5C1",
"&$	c #B9C1C4",
"*$	c #A9D0E0",
"=$	c #2F9BBE",
"-$	c #ADBAC4",
";$	c #BDC4CB",
">$	c #30ACD3",
",$	c #07A7D8",
"'$	c #209DC4",
")$	c #EEEDED",
"!$	c #D0E8EF",
"~$	c #3DB2D6",
"{$	c #07A9DA",
"]$	c #02A9DE",
"^$	c #01AADE",
"/$	c #84A9B8",
"($	c #7BC6E1",
"_$	c #15A5D0",
":$	c #0DA3D1",
"<$	c #0BA5D6",
"[$	c #09A6D8",
"}$	c #6EABBE",
"|$	c #F1F1F1",
"1$	c #D7DDE0",
"2$	c #D6E2EA",
"3$	c #CFDBE5",
"4$	c #C1CBD2",
"5$	c #DADADB",
"6$	c #E9EDED",
"7$	c #DCE0E1",
"8$	c #DEE2E3",
"9$	c #F9FAFA",
"0$	c #D7E1E4",
"a$	c #A7C4CD",
"b$	c #8EB3C1",
"c$	c #94B7C5",
"d$	c #C0CFD8",
"e$	c #CAD4DC",
"f$	c #B3B4B5",
"g$	c #E3E2E2",
"h$	c #E2E4E3",
"i$	c #DFE2E2",
"j$	c #E9EBEB",
"k$	c #D7DDE1",
"l$	c #C8D3DB",
"m$	c #CFD0D0",
"n$	c #E2E5E6",
"o$	c #D5E1EA",
"p$	c #CAD6DE",
"q$	c #C5C7C8",
"r$	c #D8DEE1",
"s$	c #CACCCE",
"t$	c #DFE2E5",
"u$	c #CFD1D3",
"                . +                           @ + #             ",
"              + $ % &                       + * = -             ",
"              ; > , ' )                   + ! ~ { ] ^           ",
"  +       + / ( _ : < [ }                 | 1 2 3 4 5 6 7       ",
"+ 8 9   + 0 a b c d e f g @             9 h 2 i j k l m n       ",
"  o p q r s _ c d t u v w x       + ^ y z A B C D E F F G H @   ",
"  + I J K L M N O P Q R S T 9     + U V W X Y D F Z `  .Z G ..  ",
"    ) +.@.#.$.%.&.*.=.-.;.>.,.I   '.).!.~.{.].^./.(._.:.<.[.}.  ",
"    |.$ 1.2.3.4.5.6.7.8.9.0.a.b.b c.d.e.f.g.h.i.j.k.l.m.n.o.@   ",
"      + p.q.P r.s.t.u.v.w.x.y.z.L A.B.C.D.E.F.G.H.I.J.K.L.      ",
"          M.N.O.P.Q.R.S.T.U.V.e.W.X.H.H.H.D.Y.I.I.I.I.Z._       ",
"          + `. +.+++@+#+$+{.%+H.H.H.H.H.H.H.g.&+*+I.=+-++       ",
"            + ;+>+,+'+&+%+H.H.H.H.H.H.H.H.H.I.)+!+~+{+_         ",
"              ]+^+/+(+I.H.H.H.H.H.H.H.H.H.H._+:+<+^             ",
"                I [+I.H.H.H.H.H.H.H.H.H.H.H._+}++               ",
"              + |+f.I.H.H.H.H.H.H.1+1+1+1+2+g.3+4++             ",
"              _ ~+'+I.5+6+7+8+g.2+9+0+a+I.2+b+c+d+              ",
"              + e+f+g+h+i+j+k+l+m+k+n+o+p+q+r+s+^ .             ",
"  @ + t+}   @ o.u+v+w+F F x+x+F y+F F F F z+A+B+C+D+|.    + +   ",
"    E+F+G++ D+H+I+J+K+L+M+N+O+P+Q+F F F R+S+T+U+V+W+X+Y+Z+`+ @  ",
"  .@+@@@#@$@%@&@*@=@-@;@>@,@'@)@!@~@F {@]@^@/@(@_@:@<@[@}@|@1@  ",
"  2@3@4@5@6@7@8@9@0@a@b@c@d@e@f@g@h@i@j@k@l@m@n@o@p@k@q@r@s@t@  ",
"  @ u@v@w@x@y@z@A@B@R+C@D@E@F@G@H@I@J@K@L@M@N@O@(.P@Q@R@S@T@U@  ",
"    '.V@W@X@Y@Z@`@F R+ #.#+#@###$#%#&#*#=#-#F F ;#>#,#'#)#!#~#  ",
"  + {#]#^#/#(#_#:#<#x+[#}#|#1#2#3#4#5#6#7#;#F F x+8#9#0#a#b#c#  ",
"|.d#e#'#f#g#h#i#j#k#l#m#n#o#p#q#r#s#t#u#v#w#x#y#z#A#B#C#D#E#F#  ",
"G#H#I#J#K#L#M#N#O#P#Q#R#S#T#x     U#V#W#X#j#Y#Z#`# $.$+$@$O##$  ",
"|._ $$%$&$F ;#*$=$-$;$>$,$'$)$    + !$~${$]$^$O#/$($_$:$<$[$}$  ",
"    '.|$o.1$~@2$3$4$5$6$7$8$I @     + 9$0$a$b$c$d$e$f$g$h$i$j$  ",
"          }.k$~@l$m$+                     + n$o$p$q$I           ",
"          + D+r$s$b                         _ t$u$)             ",
"              + +                             +                 "};
