/* XPM */
static char * xp_32_xpm[] = {
"32 28 620 2",
"  	c #FFFFFF",
". 	c #FEFFFE",
"+ 	c #FEF6EE",
"@ 	c #FCE1BF",
"# 	c #FBD19C",
"$ 	c #F9BB83",
"% 	c #F8AC7D",
"& 	c #F7AE8C",
"* 	c #F8CAB7",
"= 	c #FDF7F2",
"- 	c #FBE2D5",
"; 	c #F8A875",
"> 	c #F89E4C",
", 	c #FBB24F",
"' 	c #FAAA4B",
") 	c #F79444",
"! 	c #F57F3F",
"~ 	c #F16F3C",
"{ 	c #E9663C",
"] 	c #E66646",
"^ 	c #EEAA9A",
"/ 	c #FDF9F6",
"( 	c #F6A782",
"_ 	c #F68E48",
": 	c #F9A44D",
"< 	c #FBB44F",
"[ 	c #FAA34A",
"} 	c #F78E43",
"| 	c #F4793D",
"1 	c #EF6C3C",
"2 	c #E8623C",
"3 	c #E2593C",
"4 	c #DB503C",
"5 	c #E28B80",
"6 	c #FFFFFE",
"7 	c #FEFBFA",
"8 	c #F48752",
"9 	c #F7944A",
"0 	c #FAAA4D",
"a 	c #FBB24E",
"b 	c #F99D47",
"c 	c #F68841",
"d 	c #F3743D",
"e 	c #EC693C",
"f 	c #E6603C",
"g 	c #E0573C",
"h 	c #D94E3C",
"i 	c #D39B97",
"j 	c #E5EBD4",
"k 	c #B0C195",
"l 	c #F5F8F2",
"m 	c #F7F9F4",
"n 	c #FADBCF",
"o 	c #F58646",
"p 	c #F79A4B",
"q 	c #FBB04E",
"r 	c #FBAD4C",
"s 	c #F79745",
"t 	c #F58240",
"u 	c #F2703D",
"v 	c #EA663C",
"w 	c #E45D3C",
"x 	c #DE543C",
"y 	c #D74C3D",
"z 	c #D9CAC9",
"A 	c #BECC97",
"B 	c #6A894A",
"C 	c #7DA257",
"D 	c #BBD4A2",
"E 	c #E9F2DF",
"F 	c #FDFEFC",
"G 	c #FAFCF8",
"H 	c #E5F1D8",
"I 	c #C2DFA9",
"J 	c #92C96F",
"K 	c #A1AF8E",
"L 	c #F7B699",
"M 	c #F68C48",
"N 	c #F9A14C",
"O 	c #FBB350",
"P 	c #FAA64A",
"Q 	c #F79043",
"R 	c #F57B3E",
"S 	c #F06D3C",
"T 	c #E8643C",
"U 	c #E25A3C",
"V 	c #DC513C",
"W 	c #D36055",
"X 	c #E8E9E8",
"Y 	c #92A962",
"Z 	c #6D8E4A",
"` 	c #759E4C",
" .	c #7CAF4E",
"..	c #85C051",
"+.	c #90C65A",
"@.	c #9FCC68",
"#.	c #A2CC67",
"$.	c #99C85A",
"%.	c #8EC455",
"&.	c #84C154",
"*.	c #78B552",
"=.	c #B5B8AD",
"-.	c #EAEAEB",
";.	c #FEFEFE",
">.	c #F49263",
",.	c #F79249",
"'.	c #FAA74D",
").	c #FCB34E",
"!.	c #F9A049",
"~.	c #F68B42",
"{.	c #F4763D",
"].	c #ED6B3C",
"^.	c #E7613C",
"/.	c #E1573C",
"(.	c #DA4F3C",
"_.	c #D18882",
":.	c #E4E8DA",
"<.	c #789349",
"[.	c #6F924A",
"}.	c #76A34D",
"|.	c #7EB54E",
"1.	c #87C351",
"2.	c #8DC552",
"3.	c #94C754",
"4.	c #9AC957",
"5.	c #95C757",
"6.	c #8BC455",
"7.	c #80C154",
"8.	c #739E54",
"9.	c #CACCC9",
"0.	c #F1F1F2",
"a.	c #FCEBE5",
"b.	c #F48347",
"c.	c #F8984B",
"d.	c #FAAE4E",
"e.	c #FBAF4D",
"f.	c #F89946",
"g.	c #F68440",
"h.	c #F3723C",
"i.	c #EB673C",
"j.	c #E55E3C",
"k.	c #DF553C",
"l.	c #D84C3C",
"m.	c #D3B4B2",
"n.	c #CED9AD",
"o.	c #6B8949",
"p.	c #71974B",
"q.	c #79A84D",
"r.	c #81BA4F",
"s.	c #88C351",
"t.	c #8FC653",
"u.	c #96C855",
"v.	c #92C656",
"w.	c #88C354",
"x.	c #7DC054",
"y.	c #849C6D",
"z.	c #D4D5D7",
"A.	c #FCFDFD",
"B.	c #F8C5AE",
"C.	c #F68947",
"D.	c #F99E4C",
"E.	c #FAA94B",
"F.	c #F79344",
"G.	c #F47E3F",
"H.	c #E9653C",
"I.	c #E45B3C",
"J.	c #DD523C",
"K.	c #D45346",
"L.	c #E1E0E0",
"M.	c #A4B778",
"N.	c #6C8C49",
"O.	c #739C4B",
"P.	c #7CAD4E",
"Q.	c #84BF50",
"R.	c #8AC452",
"S.	c #91C753",
"T.	c #98C956",
"U.	c #99C857",
"V.	c #90C556",
"W.	c #85C254",
"X.	c #7BBC53",
"Y.	c #A0A695",
"Z.	c #DEDFE0",
"`.	c #F6A079",
" +	c #F68F48",
".+	c #F9A54D",
"++	c #FAA348",
"@+	c #F68E42",
"#+	c #F4783D",
"$+	c #E7623C",
"%+	c #DB503B",
"&+	c #D1786F",
"*+	c #E8EAE5",
"=+	c #7F994E",
"-+	c #6E904A",
";+	c #76A04C",
">+	c #7DB24E",
",+	c #86C250",
"'+	c #8CC552",
")+	c #93C754",
"!+	c #97C857",
"~+	c #8DC455",
"{+	c #82C154",
"]+	c #75A753",
"^+	c #BFC1BC",
"/+	c #EBEBEC",
"(+	c #FDF7F5",
"_+	c #F4844C",
":+	c #F5944B",
"<+	c #EC9958",
"[+	c #E3A67A",
"}+	c #DFAC92",
"|+	c #DDAD98",
"1+	c #DFA083",
"2+	c #E3845B",
"3+	c #E76B3F",
"4+	c #D94D3C",
"5+	c #D1A19D",
"6+	c #D8E1C0",
"7+	c #708C49",
"8+	c #70954A",
"9+	c #78A64D",
"0+	c #80B84F",
"a+	c #8EC653",
"b+	c #95C854",
"c+	c #9BC957",
"d+	c #94C657",
"e+	c #89C354",
"f+	c #7FC054",
"g+	c #7C9C60",
"h+	c #D2D3D5",
"i+	c #F7F7F8",
"j+	c #FBEBE3",
"k+	c #E6AC8F",
"l+	c #D1BCB6",
"m+	c #D4D5D6",
"n+	c #CFD5DA",
"o+	c #C8D4DD",
"p+	c #CBD6E0",
"q+	c #DBE0E3",
"r+	c #E0E1E3",
"s+	c #D7C5C1",
"t+	c #DB9376",
"u+	c #DA5A42",
"v+	c #DAD1D1",
"w+	c #B6C68E",
"x+	c #6B8A4A",
"y+	c #729A4B",
"z+	c #7AAA4E",
"A+	c #82BD4F",
"B+	c #90C753",
"C+	c #97C855",
"D+	c #9AC857",
"E+	c #91C556",
"F+	c #86C354",
"G+	c #7CBF53",
"H+	c #95A286",
"I+	c #D8D9DB",
"J+	c #F7FAFC",
"K+	c #BBD1E4",
"L+	c #9FC1DF",
"M+	c #A5CBEA",
"N+	c #94C1E7",
"O+	c #7FB3E1",
"P+	c #69A6DA",
"Q+	c #579BD3",
"R+	c #74A3D3",
"S+	c #B5CAE3",
"T+	c #EFF1F3",
"U+	c #DFD4CF",
"V+	c #E7E8E7",
"W+	c #8BA35B",
"X+	c #6D8F4A",
"Y+	c #759F4C",
"Z+	c #7CB04E",
"`+	c #85C050",
" @	c #8BC452",
".@	c #92C753",
"+@	c #99C956",
"@@	c #98C857",
"#@	c #78B253",
"$@	c #B2B5AC",
"%@	c #E5E5E6",
"&@	c #559BD0",
"*@	c #619ED4",
"=@	c #8AB9E3",
"-@	c #A2CAEC",
";@	c #8EBDE5",
">@	c #79AFDE",
",@	c #63A2D7",
"'@	c #5297D1",
")@	c #4D85C4",
"!@	c #4974B8",
"~@	c #617DB9",
"{@	c #DBE0ED",
"]@	c #F9FAF7",
"^@	c #A6B389",
"/@	c #76954C",
"(@	c #77A34D",
"_@	c #7FB54E",
":@	c #87C251",
"<@	c #94C854",
"[@	c #8BC354",
"}@	c #81C054",
"|@	c #799C56",
"1@	c #CED0CF",
"2@	c #DDEAF4",
"3@	c #408ECB",
"4@	c #6DA5D9",
"5@	c #97C2E7",
"6@	c #9EC7EA",
"7@	c #88B9E3",
"8@	c #72ABDD",
"9@	c #5C9FD6",
"0@	c #5092CE",
"a@	c #4C7FC0",
"b@	c #476FB4",
"c@	c #445EA8",
"d@	c #C7CCDD",
"e@	c #F9EFD9",
"f@	c #F9F7F0",
"g@	c #CDD1C4",
"h@	c #9EAE7A",
"i@	c #8BAF53",
"j@	c #91C04F",
"k@	c #93C651",
"l@	c #98C754",
"m@	c #9AC355",
"n@	c #8FB454",
"o@	c #8EAB63",
"p@	c #A2AE89",
"q@	c #C0C3BC",
"r@	c #FCFCFC",
"s@	c #9FC7E3",
"t@	c #4F94CE",
"u@	c #79ADDD",
"v@	c #9FC8EA",
"w@	c #97C3E8",
"x@	c #82B5E1",
"y@	c #6CA8DA",
"z@	c #579CD4",
"A@	c #4F8CCA",
"B@	c #4A7BBC",
"C@	c #466AB0",
"D@	c #4D62A7",
"E@	c #DFE1E3",
"F@	c #DBB168",
"G@	c #D19E54",
"H@	c #F1DCAF",
"I@	c #F5F4EE",
"J@	c #E1E2E1",
"K@	c #C4C7BD",
"L@	c #B8BCA9",
"M@	c #B7BBA8",
"N@	c #BCBFB4",
"O@	c #D6D4C9",
"P@	c #DECE9B",
"Q@	c #E5E0D8",
"R@	c #FBFBFB",
"S@	c #67A6D5",
"T@	c #5C9BD3",
"U@	c #85B5E1",
"V@	c #A3CBEC",
"W@	c #91BFE6",
"X@	c #7BB1DF",
"Y@	c #66A4D8",
"Z@	c #5399D2",
"`@	c #4D87C6",
" #	c #4976B9",
".#	c #4565AC",
"+#	c #7582B2",
"@#	c #EBE7DE",
"##	c #CE9642",
"$#	c #CC9341",
"%#	c #D9A43C",
"&#	c #EBBB40",
"*#	c #FBD96C",
"=#	c #FDE591",
"-#	c #FBE7A0",
";#	c #F7E39C",
">#	c #F7DF87",
",#	c #FAD855",
"'#	c #FED12B",
")#	c #E4B534",
"!#	c #EFE9DC",
"~#	c #FAFAFA",
"{#	c #F3F7FA",
"]#	c #3F8ECA",
"^#	c #68A2D7",
"/#	c #91BEE5",
"(#	c #A0C9EB",
"_#	c #8BBAE4",
":#	c #75ADDD",
"<#	c #5FA0D6",
"[#	c #5095CF",
"}#	c #4C82C2",
"|#	c #4771B5",
"1#	c #4460A9",
"2#	c #A0A7C1",
"3#	c #EEDCB3",
"4#	c #C68C42",
"5#	c #CF9840",
"6#	c #DDA83A",
"7#	c #EEBA34",
"8#	c #FDCB2C",
"9#	c #FFD137",
"0#	c #FFD546",
"a#	c #FED956",
"b#	c #FED84C",
"c#	c #FED430",
"d#	c #FFCF29",
"e#	c #D4AD4F",
"f#	c #D3D5D5",
"g#	c #F7F8F8",
"h#	c #BBD7EB",
"i#	c #4892CD",
"j#	c #74A9DB",
"k#	c #9CC6E9",
"l#	c #9AC5E9",
"m#	c #84B7E2",
"n#	c #6EA9DC",
"o#	c #599DD5",
"p#	c #4F8FCC",
"q#	c #4A7DBE",
"r#	c #476CB2",
"s#	c #455DA5",
"t#	c #D1D4D9",
"u#	c #E2BF7E",
"v#	c #C68D42",
"w#	c #D39D3F",
"x#	c #E1AE39",
"y#	c #F3C031",
"z#	c #FFCE2D",
"A#	c #FFD23B",
"B#	c #FFD64B",
"C#	c #FFDA58",
"D#	c #FFD644",
"E#	c #FED32B",
"F#	c #FDCD2B",
"G#	c #C8B080",
"H#	c #80B5DB",
"I#	c #5698D1",
"J#	c #80B2DF",
"K#	c #A2CAEB",
"L#	c #94C0E7",
"M#	c #7EB3E0",
"N#	c #68A6DA",
"O#	c #559AD3",
"P#	c #4E89C8",
"Q#	c #4978BB",
"R#	c #4567AE",
"S#	c #6576AD",
"T#	c #E7E7E4",
"U#	c #D29E4C",
"V#	c #CA9141",
"W#	c #D7A13D",
"X#	c #E6B337",
"Y#	c #F9C62E",
"Z#	c #FFD031",
"`#	c #FFD340",
" $	c #FFD750",
".$	c #FFD956",
"+$	c #FFD53B",
"@$	c #FED22A",
"#$	c #EFBF31",
"$$	c #CABFAB",
"%$	c #FDFEFE",
"&$	c #4C96CD",
"*$	c #629FD5",
"=$	c #8BBAE3",
"-$	c #A1CAEB",
";$	c #8DBCE5",
">$	c #77AFDE",
",$	c #62A2D7",
"'$	c #5196D1",
")$	c #4C84C4",
"!$	c #4873B7",
"~$	c #4462AA",
"{$	c #9099BC",
"]$	c #ECE1C5",
"^$	c #C98F41",
"/$	c #CE9641",
"($	c #DBA63C",
"_$	c #EBB834",
":$	c #FCCA2C",
"<$	c #FFD135",
"[$	c #FFD445",
"}$	c #FFD854",
"|$	c #FFD850",
"1$	c #FFD433",
"2$	c #FFD029",
"3$	c #DAAE3E",
"4$	c #D2D2D0",
"5$	c #F1F2F3",
"6$	c #D7E7F3",
"7$	c #418FCB",
"8$	c #6FA6D9",
"9$	c #99C2E6",
"0$	c #9ABCE1",
"a$	c #84A8D5",
"b$	c #729DD0",
"c$	c #649CD1",
"d$	c #5393CE",
"e$	c #4B7FBF",
"f$	c #466EB3",
"g$	c #435DA7",
"h$	c #BEC2CE",
"i$	c #E9CD95",
"j$	c #C58B42",
"k$	c #D19A3F",
"l$	c #DFAB3A",
"m$	c #F1BE32",
"n$	c #FECD2D",
"o$	c #FFD23A",
"p$	c #FFD649",
"q$	c #FFD957",
"r$	c #FED747",
"s$	c #FFD32D",
"t$	c #FECE29",
"u$	c #CCAE6A",
"v$	c #FDFDFD",
"w$	c #A1C5E1",
"x$	c #5C8AC2",
"y$	c #8FA2C6",
"z$	c #A6AEC6",
"A$	c #BABECC",
"B$	c #CACCD1",
"C$	c #C9CBD1",
"D$	c #B6BBCB",
"E$	c #9AA7C6",
"F$	c #6584BD",
"G$	c #486CB1",
"H$	c #5669A9",
"I$	c #E2E3E4",
"J$	c #D8AB5E",
"K$	c #C88F42",
"L$	c #D59F3E",
"M$	c #E4B038",
"N$	c #F6C42F",
"O$	c #FFCF2F",
"P$	c #FFD33E",
"Q$	c #FFD74E",
"R$	c #FFDA57",
"S$	c #FED63F",
"T$	c #FED229",
"U$	c #F8C72D",
"V$	c #C6B699",
"W$	c #DEDFE1",
"X$	c #EFF1F6",
"Y$	c #D9DBDD",
"Z$	c #DDDEDF",
"`$	c #E5E7E8",
" %	c #EDEDEE",
".%	c #F2F3F3",
"+%	c #F5F5F6",
"@%	c #F5F5F5",
"#%	c #F0F0F1",
"$%	c #E5E6E8",
"%%	c #A3AFCA",
"&%	c #919EC0",
"*%	c #E9E4D6",
"=%	c #CC9342",
"-%	c #E9B536",
";%	c #FBC82D",
">%	c #FFD033",
",%	c #FED442",
"'%	c #FFD852",
")%	c #FFD953",
"!%	c #FFD537",
"~%	c #FED129",
"{%	c #E1B336",
"]%	c #D0CBC2",
"^%	c #ECECED",
"/%	c #F0E2BE",
"(%	c #C89342",
"_%	c #D0983F",
":%	c #DDA93B",
"<%	c #EEBB33",
"[%	c #FDCC2C",
"}%	c #FFD237",
"|%	c #FFD547",
"1%	c #FFD84B",
"2%	c #FFD42F",
"3%	c #FFCF2A",
"4%	c #D2AD54",
"5%	c #D3D4D5",
"6%	c #CBCBCB",
"7%	c #C1C0C1",
"8%	c #DEDEDE",
"9%	c #FEFFFF",
"0%	c #E3D9C4",
"a%	c #CFAC64",
"b%	c #DEAD3A",
"c%	c #F5C230",
"d%	c #FECE2E",
"e%	c #FFD33C",
"f%	c #FBD343",
"g%	c #EDC133",
"h%	c #D8B251",
"i%	c #CEBFA4",
"j%	c #F1F1F1",
"k%	c #DFDEDE",
"l%	c #F3F3F3",
"m%	c #EEEEEF",
"n%	c #D5CFC3",
"o%	c #D0BC91",
"p%	c #D7BC73",
"q%	c #DABB6A",
"r%	c #D8BA6F",
"s%	c #D3B97D",
"t%	c #CCBA96",
"u%	c #CEC8BC",
"v%	c #D9DADC",
"w%	c #EEEFEF",
"x%	c #F4F5F5",
"y%	c #E9EAEB",
"z%	c #DFE0E2",
"A%	c #E0E1E2",
"B%	c #E5E6E7",
"C%	c #ECEDED",
"              . + @ # $ % & * =                                 ",
"            - ; > , ' ) ! ~ { ] ^ /                             ",
"            ( _ : < [ } | 1 2 3 4 5   6                         ",
"          7 8 9 0 a b c d e f g h i j k l                 . m   ",
"          n o p q r s t u v w x y z A B C D E F   . G H I J K   ",
"          L M N O P Q R S T U V W X Y Z `  ...+.@.#.$.%.&.*.=.-.",
"        ;.>.,.'.).!.~.{.].^./.(._.:.<.[.}.|.1.2.3.4.5.6.7.8.9.0.",
"        a.b.c.d.e.f.g.h.i.j.k.l.m.n.o.p.q.r.s.t.u.4.v.w.x.y.z.A.",
"        B.C.D.a E.F.G.~ H.I.J.K.L.M.N.O.P.Q.R.S.T.U.V.W.X.Y.Z.  ",
"        `. +.+< ++@+#+1 $+3 %+&+*+=+-+;+>+,+'+)+4.!+~+{+]+^+/+  ",
"      (+_+:+<+[+}+|+1+2+3+g 4+5+6+7+8+9+0+s.a+b+c+d+e+f+g+h+i+  ",
"      j+k+l+m+n+o+p+q+r+s+t+u+v+w+x+y+z+A+R.B+C+D+E+F+G+H+I+    ",
"      J+K+L+M+N+O+P+Q+R+S+T+U+V+W+X+Y+Z+`+ @.@+@@@%.&.#@$@%@    ",
"    ;.&@*@=@-@;@>@,@'@)@!@~@{@]@^@/@(@_@:@2.<@4.5.[@}@|@1@0.    ",
"    2@3@4@5@6@7@8@9@0@a@b@c@d@e@f@g@h@i@j@k@l@m@n@o@p@q@z.r@    ",
"    s@t@u@v@w@x@y@z@A@B@C@D@E@F@G@H@I@J@K@L@M@N@9.O@P@Q@R@      ",
"    S@T@U@V@W@X@Y@Z@`@ #.#+#@###$#%#&#*#=#-#;#>#,#'#)#!#~#      ",
"  {#]#^#/#(#_#:#<#[#}#|#1#2#3#4#5#6#7#8#9#0#a#b#c#d#e#f#g#      ",
"  h#i#j#k#l#m#n#o#p#q#r#s#t#u#v#w#x#y#z#A#B#C#D#E#F#G#I+        ",
"  H#I#J#K#L#M#N#O#P#Q#R#S#T#U#V#W#X#Y#Z#`# $.$+$@$#$$$%@        ",
"%$&$*$=$-$;$>$,$'$)$!$~${$]$^$/$($_$:$<$[$}$|$1$2$3$4$5$        ",
"6$7$8$9$0$a$b$c$d$e$f$g$h$i$j$k$l$m$n$o$p$q$r$s$t$u$z.v$        ",
"w$x$y$z$A$B$C$D$E$F$G$H$I$J$K$L$M$N$O$P$Q$R$S$T$U$V$W$          ",
"X$Y$Z$`$ %.%+%@%#%$%%%&%*%=%$#%#-%;%>%,%'%)%!%~%{%]%/+          ",
"  ;.                ;.^%/%(%_%:%<%[%}%|%q$1%2%3%4%5%6%7%8%      ",
"                        9%0%a%b%c%d%e%B#C#f%g%h%i%I+j%k%l%      ",
"                          ;.m%n%o%p%q%r%s%t%u%5%v%w%            ",
"                              9%x%y%I$z%A%B%C%g#                "};
