/* XPM */
static char * xp_locked_32_xpm[] = {
"32 28 651 2",
"  	c None",
". 	c #FFFFFF",
"+ 	c #FEFFFE",
"@ 	c #FEF6EE",
"# 	c #FCE1BF",
"$ 	c #FBD19C",
"% 	c #F9BB83",
"& 	c #F8AC7D",
"* 	c #F7AE8C",
"= 	c #F8CAB7",
"- 	c #FDF7F2",
"; 	c #E9E9E7",
"> 	c #CAC9C5",
", 	c #D4D4D0",
"' 	c #F9F9F9",
") 	c #FBE2D5",
"! 	c #F8A875",
"~ 	c #F89E4C",
"{ 	c #FBB24F",
"] 	c #FAAA4B",
"^ 	c #F79444",
"/ 	c #F57F3F",
"( 	c #F16F3C",
"_ 	c #E9663C",
": 	c #E66646",
"< 	c #EEAA9A",
"[ 	c #FDF9F6",
"} 	c #FCFCFB",
"| 	c #BCB9AF",
"1 	c #8E8778",
"2 	c #A6A092",
"3 	c #989183",
"4 	c #828071",
"5 	c #DBDAD6",
"6 	c #F6A782",
"7 	c #F68E48",
"8 	c #F9A44D",
"9 	c #FBB44F",
"0 	c #FAA34A",
"a 	c #F78E43",
"b 	c #F4793D",
"c 	c #EF6C3C",
"d 	c #E8623C",
"e 	c #E2593C",
"f 	c #DB503C",
"g 	c #E28B80",
"h 	c #FFFFFE",
"i 	c #D4D4CC",
"j 	c #ACA796",
"k 	c #F6F5F3",
"l 	c #E0DDD5",
"m 	c #8F8B7A",
"n 	c #F1F1EF",
"o 	c #FEFBFA",
"p 	c #F48752",
"q 	c #F7944A",
"r 	c #FAAA4D",
"s 	c #FBB24E",
"t 	c #F99D47",
"u 	c #F68841",
"v 	c #F3743D",
"w 	c #EC693C",
"x 	c #E6603C",
"y 	c #E0573C",
"z 	c #D94E3C",
"A 	c #D39B97",
"B 	c #E5EBD4",
"C 	c #B0C195",
"D 	c #F5F8F2",
"E 	c #F9F9F7",
"F 	c #A29C8C",
"G 	c #F1EFEC",
"H 	c #C3BFB3",
"I 	c #C1C0B7",
"J 	c #F7F9F4",
"K 	c #FADBCF",
"L 	c #F58646",
"M 	c #F79A4B",
"N 	c #FBB04E",
"O 	c #FBAD4C",
"P 	c #F79745",
"Q 	c #F58240",
"R 	c #F2703D",
"S 	c #EA663C",
"T 	c #E45D3C",
"U 	c #DE543C",
"V 	c #D74C3D",
"W 	c #D9CAC9",
"X 	c #BECC97",
"Y 	c #6A894A",
"Z 	c #7DA257",
"` 	c #B9CB9E",
" .	c #9D9684",
"..	c #FDFEFC",
"+.	c #FAFCF8",
"@.	c #E5F1D8",
"#.	c #C3CEAC",
"$.	c #899470",
"%.	c #A1AF8E",
"&.	c #F7B699",
"*.	c #F68C48",
"=.	c #F9A14C",
"-.	c #FBB350",
";.	c #FAA64A",
">.	c #F79043",
",.	c #F57B3E",
"'.	c #F06D3C",
").	c #E8643C",
"!.	c #E25A3C",
"~.	c #DC513C",
"{.	c #D36055",
"].	c #E8E9E8",
"^.	c #92A962",
"/.	c #6D8E4A",
"(.	c #759E4C",
"_.	c #8EB166",
":.	c #97977D",
"<.	c #90C65A",
"[.	c #9FCC68",
"}.	c #A2CC67",
"|.	c #99C85A",
"1.	c #8EC455",
"2.	c #9DBC77",
"3.	c #8E9076",
"4.	c #B5B8AD",
"5.	c #EAEAEB",
"6.	c #FEFEFE",
"7.	c #F49263",
"8.	c #F79249",
"9.	c #FAA74D",
"0.	c #FCB34E",
"a.	c #F9A049",
"b.	c #F68B42",
"c.	c #F4763D",
"d.	c #ED6B3C",
"e.	c #E7613C",
"f.	c #E1573C",
"g.	c #DA4F3C",
"h.	c #D18882",
"i.	c #E4E8DA",
"j.	c #789349",
"k.	c #6F924A",
"l.	c #76A34D",
"m.	c #92B969",
"n.	c #99977D",
"o.	c #8DC552",
"p.	c #94C754",
"q.	c #9AC957",
"r.	c #95C757",
"s.	c #8BC455",
"t.	c #9BBC77",
"u.	c #918F7B",
"v.	c #CACCC9",
"w.	c #F1F1F2",
"x.	c #FCEBE5",
"y.	c #F48347",
"z.	c #F8984B",
"A.	c #FAAE4E",
"B.	c #FBAF4D",
"C.	c #F89946",
"D.	c #F68440",
"E.	c #F3723C",
"F.	c #EB673C",
"G.	c #E55E3C",
"H.	c #DF553C",
"I.	c #D84C3C",
"J.	c #D3B4B2",
"K.	c #CED9AD",
"L.	c #6B8949",
"M.	c #71974B",
"N.	c #79A84E",
"O.	c #AEAC73",
"P.	c #9B8B64",
"Q.	c #A5A264",
"R.	c #A29F63",
"S.	c #9E9C5E",
"T.	c #9C9C5C",
"U.	c #9B9D5C",
"V.	c #9E9764",
"W.	c #968762",
"X.	c #CCC8BA",
"Y.	c #FCFDFD",
"Z.	c #F8C5AE",
"`.	c #F68947",
" +	c #F99E4C",
".+	c #FAA94B",
"++	c #F79344",
"@+	c #F47E3F",
"#+	c #E9653C",
"$+	c #E45B3C",
"%+	c #DD523C",
"&+	c #D45346",
"*+	c #E1E0E0",
"=+	c #A4B778",
"-+	c #6C8C49",
";+	c #739C4B",
">+	c #7CAD4E",
",+	c #BDA56F",
"'+	c #AB9059",
")+	c #A18850",
"!+	c #9B834D",
"~+	c #978049",
"{+	c #967F48",
"]+	c #967F49",
"^+	c #97804A",
"/+	c #9A824D",
"(+	c #D7CFB6",
"_+	c #F6A079",
":+	c #F68F48",
"<+	c #F9A54D",
"[+	c #FAA348",
"}+	c #F68E42",
"|+	c #F4783D",
"1+	c #E7623C",
"2+	c #DB503B",
"3+	c #D1786F",
"4+	c #E8EAE5",
"5+	c #7F994E",
"6+	c #6E904A",
"7+	c #76A04C",
"8+	c #7EB24E",
"9+	c #C1AA74",
"0+	c #AD935A",
"a+	c #A78C56",
"b+	c #A18852",
"c+	c #9B844E",
"d+	c #9A834D",
"e+	c #98814B",
"f+	c #9C844E",
"g+	c #E4DDC6",
"h+	c #FDF7F5",
"i+	c #F4844C",
"j+	c #F5944B",
"k+	c #EC9958",
"l+	c #E3A67A",
"m+	c #DFAC92",
"n+	c #DDAD98",
"o+	c #DFA083",
"p+	c #E3845B",
"q+	c #E76B3F",
"r+	c #D94D3C",
"s+	c #D1A19D",
"t+	c #D8E1C0",
"u+	c #708C49",
"v+	c #70954A",
"w+	c #78A64D",
"x+	c #80B84F",
"y+	c #BEAB70",
"z+	c #B0945D",
"A+	c #AA8F58",
"B+	c #A38752",
"C+	c #9F8751",
"D+	c #99834C",
"E+	c #E9E3CC",
"F+	c #FBEBE3",
"G+	c #E6AC8F",
"H+	c #D1BCB6",
"I+	c #D4D5D6",
"J+	c #CFD5DA",
"K+	c #C8D4DD",
"L+	c #CBD6E0",
"M+	c #DBE0E3",
"N+	c #E0E1E3",
"O+	c #D7C5C1",
"P+	c #DB9376",
"Q+	c #DA5A42",
"R+	c #DAD1D1",
"S+	c #B6C68E",
"T+	c #6B8A4A",
"U+	c #729A4B",
"V+	c #7AAA4E",
"W+	c #82BD4F",
"X+	c #BCAB6E",
"Y+	c #AF905A",
"Z+	c #AA8E57",
"`+	c #A28751",
" @	c #9E8650",
".@	c #9D8650",
"+@	c #9F8851",
"@@	c #EBE7D0",
"#@	c #F7FAFC",
"$@	c #BBD1E4",
"%@	c #9FC1DF",
"&@	c #A5CBEA",
"*@	c #94C1E7",
"=@	c #7FB3E1",
"-@	c #69A6DA",
";@	c #579BD3",
">@	c #74A3D3",
",@	c #B5CAE3",
"'@	c #EFF1F3",
")@	c #DFD4CF",
"!@	c #E7E8E7",
"~@	c #8BA35B",
"{@	c #6D8F4A",
"]@	c #759F4C",
"^@	c #7CB04E",
"/@	c #85C050",
"(@	c #BEAD6F",
"_@	c #B0925C",
":@	c #A68953",
"<@	c #A0854E",
"[@	c #9A824C",
"}@	c #99824C",
"|@	c #EEE9D5",
"1@	c #559BD0",
"2@	c #619ED4",
"3@	c #8AB9E3",
"4@	c #A2CAEC",
"5@	c #8EBDE5",
"6@	c #79AFDE",
"7@	c #63A2D7",
"8@	c #5297D1",
"9@	c #4D85C4",
"0@	c #4974B8",
"a@	c #617DB9",
"b@	c #DBE0ED",
"c@	c #F9FAF7",
"d@	c #A6B389",
"e@	c #76954C",
"f@	c #77A34D",
"g@	c #7FB54E",
"h@	c #87C251",
"i@	c #97C05E",
"j@	c #9FBB61",
"k@	c #A2B761",
"l@	c #9DB25F",
"m@	c #94AD5B",
"n@	c #8EA95A",
"o@	c #8E955F",
"p@	c #C1BBAC",
"q@	c #DBD6C9",
"r@	c #FBFAF7",
"s@	c #DDEAF4",
"t@	c #408ECB",
"u@	c #6DA5D9",
"v@	c #97C2E7",
"w@	c #9EC7EA",
"x@	c #88B9E3",
"y@	c #72ABDD",
"z@	c #5C9FD6",
"A@	c #5092CE",
"B@	c #4C7FC0",
"C@	c #476FB4",
"D@	c #445EA8",
"E@	c #C7CCDD",
"F@	c #F9EFD9",
"G@	c #F9F7F0",
"H@	c #CDD1C4",
"I@	c #9EAE7A",
"J@	c #8BAF53",
"K@	c #91C04F",
"L@	c #93C651",
"M@	c #98C754",
"N@	c #9AC355",
"O@	c #8FB454",
"P@	c #8EAB63",
"Q@	c #A2AE89",
"R@	c #C0C3BC",
"S@	c #D4D5D7",
"T@	c #FCFCFC",
"U@	c #9FC7E3",
"V@	c #4F94CE",
"W@	c #79ADDD",
"X@	c #9FC8EA",
"Y@	c #97C3E8",
"Z@	c #82B5E1",
"`@	c #6CA8DA",
" #	c #579CD4",
".#	c #4F8CCA",
"+#	c #4A7BBC",
"@#	c #466AB0",
"##	c #4D62A7",
"$#	c #DFE1E3",
"%#	c #DBB168",
"&#	c #D19E54",
"*#	c #F1DCAF",
"=#	c #F5F4EE",
"-#	c #E1E2E1",
";#	c #C4C7BD",
">#	c #B8BCA9",
",#	c #B7BBA8",
"'#	c #BCBFB4",
")#	c #D6D4C9",
"!#	c #DECE9B",
"~#	c #E5E0D8",
"{#	c #FBFBFB",
"]#	c #67A6D5",
"^#	c #5C9BD3",
"/#	c #85B5E1",
"(#	c #A3CBEC",
"_#	c #91BFE6",
":#	c #7BB1DF",
"<#	c #66A4D8",
"[#	c #5399D2",
"}#	c #4D87C6",
"|#	c #4976B9",
"1#	c #4565AC",
"2#	c #7582B2",
"3#	c #EBE7DE",
"4#	c #CE9642",
"5#	c #CC9341",
"6#	c #D9A43C",
"7#	c #EBBB40",
"8#	c #FBD96C",
"9#	c #FDE591",
"0#	c #FBE7A0",
"a#	c #F7E39C",
"b#	c #F7DF87",
"c#	c #FAD855",
"d#	c #FED12B",
"e#	c #E4B534",
"f#	c #EFE9DC",
"g#	c #FAFAFA",
"h#	c #F3F7FA",
"i#	c #3F8ECA",
"j#	c #68A2D7",
"k#	c #91BEE5",
"l#	c #A0C9EB",
"m#	c #8BBAE4",
"n#	c #75ADDD",
"o#	c #5FA0D6",
"p#	c #5095CF",
"q#	c #4C82C2",
"r#	c #4771B5",
"s#	c #4460A9",
"t#	c #A0A7C1",
"u#	c #EEDCB3",
"v#	c #C68C42",
"w#	c #CF9840",
"x#	c #DDA83A",
"y#	c #EEBA34",
"z#	c #FDCB2C",
"A#	c #FFD137",
"B#	c #FFD546",
"C#	c #FED956",
"D#	c #FED84C",
"E#	c #FED430",
"F#	c #FFCF29",
"G#	c #D4AD4F",
"H#	c #D3D5D5",
"I#	c #F7F8F8",
"J#	c #BBD7EB",
"K#	c #4892CD",
"L#	c #74A9DB",
"M#	c #9CC6E9",
"N#	c #9AC5E9",
"O#	c #84B7E2",
"P#	c #6EA9DC",
"Q#	c #599DD5",
"R#	c #4F8FCC",
"S#	c #4A7DBE",
"T#	c #476CB2",
"U#	c #455DA5",
"V#	c #D1D4D9",
"W#	c #E2BF7E",
"X#	c #C68D42",
"Y#	c #D39D3F",
"Z#	c #E1AE39",
"`#	c #F3C031",
" $	c #FFCE2D",
".$	c #FFD23B",
"+$	c #FFD64B",
"@$	c #FFDA58",
"#$	c #FFD644",
"$$	c #FED32B",
"%$	c #FDCD2B",
"&$	c #C8B080",
"*$	c #D8D9DB",
"=$	c #80B5DB",
"-$	c #5698D1",
";$	c #80B2DF",
">$	c #A2CAEB",
",$	c #94C0E7",
"'$	c #7EB3E0",
")$	c #68A6DA",
"!$	c #559AD3",
"~$	c #4E89C8",
"{$	c #4978BB",
"]$	c #4567AE",
"^$	c #6576AD",
"/$	c #E7E7E4",
"($	c #D29E4C",
"_$	c #CA9141",
":$	c #D7A13D",
"<$	c #E6B337",
"[$	c #F9C62E",
"}$	c #FFD031",
"|$	c #FFD340",
"1$	c #FFD750",
"2$	c #FFD956",
"3$	c #FFD53B",
"4$	c #FED22A",
"5$	c #EFBF31",
"6$	c #CABFAB",
"7$	c #E5E5E6",
"8$	c #FDFEFE",
"9$	c #4C96CD",
"0$	c #629FD5",
"a$	c #8BBAE3",
"b$	c #A1CAEB",
"c$	c #8DBCE5",
"d$	c #77AFDE",
"e$	c #62A2D7",
"f$	c #5196D1",
"g$	c #4C84C4",
"h$	c #4873B7",
"i$	c #4462AA",
"j$	c #9099BC",
"k$	c #ECE1C5",
"l$	c #C98F41",
"m$	c #CE9641",
"n$	c #DBA63C",
"o$	c #EBB834",
"p$	c #FCCA2C",
"q$	c #FFD135",
"r$	c #FFD445",
"s$	c #FFD854",
"t$	c #FFD850",
"u$	c #FFD433",
"v$	c #FFD029",
"w$	c #DAAE3E",
"x$	c #D2D2D0",
"y$	c #F1F2F3",
"z$	c #D7E7F3",
"A$	c #418FCB",
"B$	c #6FA6D9",
"C$	c #99C2E6",
"D$	c #9ABCE1",
"E$	c #84A8D5",
"F$	c #729DD0",
"G$	c #649CD1",
"H$	c #5393CE",
"I$	c #4B7FBF",
"J$	c #466EB3",
"K$	c #435DA7",
"L$	c #BEC2CE",
"M$	c #E9CD95",
"N$	c #C58B42",
"O$	c #D19A3F",
"P$	c #DFAB3A",
"Q$	c #F1BE32",
"R$	c #FECD2D",
"S$	c #FFD23A",
"T$	c #FFD649",
"U$	c #FFD957",
"V$	c #FED747",
"W$	c #FFD32D",
"X$	c #FECE29",
"Y$	c #CCAE6A",
"Z$	c #FDFDFD",
"`$	c #A1C5E1",
" %	c #5C8AC2",
".%	c #8FA2C6",
"+%	c #A6AEC6",
"@%	c #BABECC",
"#%	c #CACCD1",
"$%	c #C9CBD1",
"%%	c #B6BBCB",
"&%	c #9AA7C6",
"*%	c #6584BD",
"=%	c #486CB1",
"-%	c #5669A9",
";%	c #E2E3E4",
">%	c #D8AB5E",
",%	c #C88F42",
"'%	c #D59F3E",
")%	c #E4B038",
"!%	c #F6C42F",
"~%	c #FFCF2F",
"{%	c #FFD33E",
"]%	c #FFD74E",
"^%	c #FFDA57",
"/%	c #FED63F",
"(%	c #FED229",
"_%	c #F8C72D",
":%	c #C6B699",
"<%	c #DEDFE1",
"[%	c #EFF1F6",
"}%	c #D9DBDD",
"|%	c #DDDEDF",
"1%	c #E5E7E8",
"2%	c #EDEDEE",
"3%	c #F2F3F3",
"4%	c #F5F5F6",
"5%	c #F5F5F5",
"6%	c #F0F0F1",
"7%	c #E5E6E8",
"8%	c #A3AFCA",
"9%	c #919EC0",
"0%	c #E9E4D6",
"a%	c #CC9342",
"b%	c #E9B536",
"c%	c #FBC82D",
"d%	c #FFD033",
"e%	c #FED442",
"f%	c #FFD852",
"g%	c #FFD953",
"h%	c #FFD537",
"i%	c #FED129",
"j%	c #E1B336",
"k%	c #D0CBC2",
"l%	c #EBEBEC",
"m%	c #ECECED",
"n%	c #F0E2BE",
"o%	c #C89342",
"p%	c #D0983F",
"q%	c #DDA93B",
"r%	c #EEBB33",
"s%	c #FDCC2C",
"t%	c #FFD237",
"u%	c #FFD547",
"v%	c #FFD84B",
"w%	c #FFD42F",
"x%	c #FFCF2A",
"y%	c #D2AD54",
"z%	c #D3D4D5",
"A%	c #CBCBCB",
"B%	c #C1C0C1",
"C%	c #DEDEDE",
"D%	c #FEFFFF",
"E%	c #E3D9C4",
"F%	c #CFAC64",
"G%	c #DEAD3A",
"H%	c #F5C230",
"I%	c #FECE2E",
"J%	c #FFD33C",
"K%	c #FBD343",
"L%	c #EDC133",
"M%	c #D8B251",
"N%	c #CEBFA4",
"O%	c #F1F1F1",
"P%	c #DFDEDE",
"Q%	c #F3F3F3",
"R%	c #EEEEEF",
"S%	c #D5CFC3",
"T%	c #D0BC91",
"U%	c #D7BC73",
"V%	c #DABB6A",
"W%	c #D8BA6F",
"X%	c #D3B97D",
"Y%	c #CCBA96",
"Z%	c #CEC8BC",
"`%	c #D9DADC",
" &	c #EEEFEF",
".&	c #F4F5F5",
"+&	c #E9EAEB",
"@&	c #DFE0E2",
"#&	c #E0E1E2",
"$&	c #E5E6E7",
"%&	c #ECEDED",
". . . . . . . + @ # $ % & * = - . . . . . . . . ; > , ' . . . . ",
". . . . . . ) ! ~ { ] ^ / ( _ : < [ . . . . } | 1 2 3 4 5 . . . ",
". . . . . . 6 7 8 9 0 a b c d e f g . h . . i j k . . l m n . . ",
". . . . . o p q r s t u v w x y z A B C D E F G . . . . H I J . ",
". . . . . K L M N O P Q R S T U V W X Y Z `  .... + +.@.#.$.%.. ",
". . . . . &.*.=.-.;.>.,.'.).!.~.{.].^./.(._.:.<.[.}.|.1.2.3.4.5.",
". . . . 6.7.8.9.0.a.b.c.d.e.f.g.h.i.j.k.l.m.n.o.p.q.r.s.t.u.v.w.",
". . . . x.y.z.A.B.C.D.E.F.G.H.I.J.K.L.M.N.O.P.Q.R.S.T.U.V.W.X.Y.",
". . . . Z.`. +s .+++@+( #+$+%+&+*+=+-+;+>+,+'+)+!+~+{+]+^+/+(+. ",
". . . . _+:+<+9 [+}+|+c 1+e 2+3+4+5+6+7+8+9+0+a+b+c+d+e+d+f+g+. ",
". . . h+i+j+k+l+m+n+o+p+q+y r+s+t+u+v+w+x+y+z+A+B+C+D+c+c+C+E+. ",
". . . F+G+H+I+J+K+L+M+N+O+P+Q+R+S+T+U+V+W+X+Y+Z+`+ @D+c+.@+@@@. ",
". . . #@$@%@&@*@=@-@;@>@,@'@)@!@~@{@]@^@/@(@_@:@<@[@}@}@c+C+|@. ",
". . 6.1@2@3@4@5@6@7@8@9@0@a@b@c@d@e@f@g@h@i@j@k@l@m@n@o@p@q@r@. ",
". . s@t@u@v@w@x@y@z@A@B@C@D@E@F@G@H@I@J@K@L@M@N@O@P@Q@R@S@T@. . ",
". . U@V@W@X@Y@Z@`@ #.#+#@###$#%#&#*#=#-#;#>#,#'#v.)#!#~#{#. . . ",
". . ]#^#/#(#_#:#<#[#}#|#1#2#3#4#5#6#7#8#9#0#a#b#c#d#e#f#g#. . . ",
". h#i#j#k#l#m#n#o#p#q#r#s#t#u#v#w#x#y#z#A#B#C#D#E#F#G#H#I#. . . ",
". J#K#L#M#N#O#P#Q#R#S#T#U#V#W#X#Y#Z#`# $.$+$@$#$$$%$&$*$. . . . ",
". =$-$;$>$,$'$)$!$~${$]$^$/$($_$:$<$[$}$|$1$2$3$4$5$6$7$. . . . ",
"8$9$0$a$b$c$d$e$f$g$h$i$j$k$l$m$n$o$p$q$r$s$t$u$v$w$x$y$. . . . ",
"z$A$B$C$D$E$F$G$H$I$J$K$L$M$N$O$P$Q$R$S$T$U$V$W$X$Y$S@Z$. . . . ",
"`$ %.%+%@%#%$%%%&%*%=%-%;%>%,%'%)%!%~%{%]%^%/%(%_%:%<%. . . . . ",
"[%}%|%1%2%3%4%5%6%7%8%9%0%a%5#6#b%c%d%e%f%g%h%i%j%k%l%. . . . . ",
". 6.. . . . . . . . 6.m%n%o%p%q%r%s%t%u%U$v%w%x%y%z%A%B%C%. . . ",
". . . . . . . . . . . . D%E%F%G%H%I%J%+$@$K%L%M%N%*$O%P%Q%. . . ",
". . . . . . . . . . . . . 6.R%S%T%U%V%W%X%Y%Z%z%`% &. . . . . . ",
". . . . . . . . . . . . . . . D%.&+&;%@&#&$&%&I#. . . . . . . . "};
