/* XPM */
static char * gnome_xpm[] = {
"50 50 328 2",
"  	c None",
". 	c #777777",
"+ 	c #858585",
"@ 	c #8D8D8D",
"# 	c #909090",
"$ 	c #919191",
"% 	c #939393",
"& 	c #969696",
"* 	c #989898",
"= 	c #9A9A9A",
"- 	c #9C9C9C",
"; 	c #9D9D9D",
"> 	c #A0A0A0",
", 	c #A2A2A2",
"' 	c #A4A4A4",
") 	c #A6A6A6",
"! 	c #A8A8A8",
"~ 	c #AAAAAA",
"{ 	c #ACACAC",
"] 	c #AEAEAE",
"^ 	c #B0B0B0",
"/ 	c #B2B2B2",
"( 	c #B4B4B4",
"_ 	c #B6B6B6",
": 	c #B8B8B8",
"< 	c #BABABA",
"[ 	c #BCBCBC",
"} 	c #BEBEBE",
"| 	c #C0C0C0",
"1 	c #C2C2C2",
"2 	c #C4C4C4",
"3 	c #C7C7C7",
"4 	c #C8C8C8",
"5 	c #CACACA",
"6 	c #CDCDCD",
"7 	c #CFCFCF",
"8 	c #D1D1D1",
"9 	c #D3D3D3",
"0 	c #D5D5D5",
"a 	c #717171",
"b 	c #9E9E9E",
"c 	c #CCCCCC",
"d 	c #CECECE",
"e 	c #D0D0D0",
"f 	c #D2D2D2",
"g 	c #D8D8D8",
"h 	c #DADADA",
"i 	c #DCDCDC",
"j 	c #DEDEDE",
"k 	c #E0E0E0",
"l 	c #E2E2E2",
"m 	c #E5E5E5",
"n 	c #E8E8E8",
"o 	c #EAEAEA",
"p 	c #ECECEC",
"q 	c #EEEEEE",
"r 	c #F0F0F0",
"s 	c #F3F3F3",
"t 	c #EFEFEF",
"u 	c #7C7C7C",
"v 	c #949494",
"w 	c #999999",
"x 	c #5D5D5D",
"y 	c #464646",
"z 	c #3F3F3F",
"A 	c #404040",
"B 	c #414141",
"C 	c #424242",
"D 	c #434343",
"E 	c #444444",
"F 	c #474747",
"G 	c #484848",
"H 	c #494949",
"I 	c #4A4A4A",
"J 	c #4B4B4B",
"K 	c #4C4C4C",
"L 	c #4D4D4D",
"M 	c #4E4E4E",
"N 	c #4F4F4F",
"O 	c #505050",
"P 	c #515151",
"Q 	c #525252",
"R 	c #535353",
"S 	c #545454",
"T 	c #555555",
"U 	c #565656",
"V 	c #575757",
"W 	c #585858",
"X 	c #5A5A5A",
"Y 	c #686868",
"Z 	c #F2F2F2",
"` 	c #F6F6F6",
" .	c #F7F7F7",
"..	c #6E6E6E",
"+.	c #929292",
"@.	c #7F7F7F",
"#.	c #2E2E2E",
"$.	c #222222",
"%.	c #626262",
"&.	c #616161",
"*.	c #606060",
"=.	c #5F5F5F",
"-.	c #5E5E5E",
";.	c #5C5C5C",
">.	c #5B5B5B",
",.	c #595959",
"'.	c #333333",
").	c #D6D6D6",
"!.	c #F8F8F8",
"~.	c #F9F9F9",
"{.	c #707070",
"].	c #101010",
"^.	c #242424",
"/.	c #FAFAFA",
"(.	c #121212",
"_.	c #676767",
":.	c #E9E9E9",
"<.	c #FCFCFC",
"[.	c #787878",
"}.	c #959595",
"|.	c #343434",
"1.	c #8E8E8E",
"2.	c #D4D4D4",
"3.	c #7E7E7E",
"4.	c #282828",
"5.	c #8A8A8A",
"6.	c #C9C9C9",
"7.	c #ABABAB",
"8.	c #202020",
"9.	c #808080",
"0.	c #818181",
"a.	c #9D9E9D",
"b.	c #C3C3C3",
"c.	c #9E9F9E",
"d.	c #898989",
"e.	c #FEFEFE",
"f.	c #FFFFFF",
"g.	c #454545",
"h.	c #DFDFDF",
"i.	c #747474",
"j.	c #757575",
"k.	c #767676",
"l.	c #999A99",
"m.	c #CBCBCB",
"n.	c #6A6A6A",
"o.	c #656565",
"p.	c #6F6F6F",
"q.	c #232323",
"r.	c #6B6B6B",
"s.	c #7F807F",
"t.	c #B8B9B8",
"u.	c #6C6C6C",
"v.	c #E2E3E2",
"w.	c #868686",
"x.	c #020202",
"y.	c #000000",
"z.	c #090909",
"A.	c #1A1A1A",
"B.	c #181818",
"C.	c #646464",
"D.	c #BBBCBB",
"E.	c #ECEDEC",
"F.	c #7B7C7B",
"G.	c #B8BAB8",
"H.	c #D7D8D7",
"I.	c #B1B2B1",
"J.	c #1F1F1F",
"K.	c #262626",
"L.	c #3D3D3D",
"M.	c #858685",
"N.	c #B3B4B3",
"O.	c #5D5E5D",
"P.	c #CDCECD",
"Q.	c #030303",
"R.	c #363636",
"S.	c #C4C5C4",
"T.	c #7D7E7D",
"U.	c #DFE0DF",
"V.	c #6F706F",
"W.	c #373737",
"X.	c #1D1D1D",
"Y.	c #BFC0BF",
"Z.	c #FDFDFD",
"`.	c #0E0E0E",
" +	c #292929",
".+	c #2F2F2F",
"++	c #7E7F7E",
"@+	c #C8C9C8",
"#+	c #939493",
"$+	c #F4F4F4",
"%+	c #656665",
"&+	c #565756",
"*+	c #515251",
"=+	c #161616",
"-+	c #707170",
";+	c #2A2A2A",
">+	c #272727",
",+	c #383838",
"'+	c #404140",
")+	c #C6C7C6",
"!+	c #646564",
"~+	c #8C8E8C",
"{+	c #A3A4A3",
"]+	c #1C1C1C",
"^+	c #0C0C0C",
"/+	c #616261",
"(+	c #313131",
"_+	c #060606",
":+	c #2C2C2C",
"<+	c #323332",
"[+	c #ACADAC",
"}+	c #808180",
"|+	c #5C5D5C",
"1+	c #707270",
"2+	c #777877",
"3+	c #717271",
"4+	c #575857",
"5+	c #313231",
"6+	c #0F100F",
"7+	c #2D2D2D",
"8+	c #191919",
"9+	c #4D4E4D",
"0+	c #808280",
"a+	c #3C3D3C",
"b+	c #717471",
"c+	c #B4B6B4",
"d+	c #F1F1F1",
"e+	c #1B1B1B",
"f+	c #525452",
"g+	c #B9BAB9",
"h+	c #4E4F4E",
"i+	c #636563",
"j+	c #CECFCE",
"k+	c #FBFBFB",
"l+	c #141514",
"m+	c #303030",
"n+	c #0B0B0B",
"o+	c #171817",
"p+	c #0B0C0B",
"q+	c #676967",
"r+	c #EDEEED",
"s+	c #252625",
"t+	c #050505",
"u+	c #040404",
"v+	c #565856",
"w+	c #323232",
"x+	c #DADBDA",
"y+	c #959695",
"z+	c #070707",
"A+	c #232423",
"B+	c #353535",
"C+	c #D4D5D4",
"D+	c #C1C2C1",
"E+	c #252525",
"F+	c #E6E6E6",
"G+	c #212121",
"H+	c #D9D9D9",
"I+	c #0C0D0C",
"J+	c #3A3A3A",
"K+	c #121312",
"L+	c #C6C6C6",
"M+	c #2C2D2C",
"N+	c #3B3B3B",
"O+	c #929392",
"P+	c #6C6D6C",
"Q+	c #494A49",
"R+	c #787978",
"S+	c #5A5B5A",
"T+	c #1E1E1E",
"U+	c #010201",
"V+	c #3C3C3C",
"W+	c #424342",
"X+	c #686A68",
"Y+	c #444544",
"Z+	c #393A39",
"`+	c #3E3E3E",
" @	c #0F0F0F",
".@	c #B0B1B0",
"+@	c #E7E7E7",
"@@	c #3D3E3D",
"#@	c #E8E9E8",
"$@	c #787A78",
"%@	c #080808",
"&@	c #E3E3E3",
"*@	c #828282",
"=@	c #010101",
"-@	c #EDEDED",
";@	c #A1A1A1",
">@	c #262726",
",@	c #7D7D7D",
"'@	c #292A29",
")@	c #090A09",
"!@	c #636363",
"~@	c #D7D7D7",
"{@	c #888888",
"]@	c #BFBFBF",
"^@	c #848484",
"/@	c #9F9F9F",
"(@	c #BDBDBD",
"_@	c #B7B7B7",
":@	c #171717",
"<@	c #A7A7A7",
"[@	c #8C8C8C",
"}@	c #666666",
"|@	c #0A0A0A",
"1@	c #C5C5C5",
"2@	c #0D0D0D",
"3@	c #979797",
"4@	c #797979",
"5@	c #131313",
"6@	c #151515",
"7@	c #838383",
"8@	c #F5F5F5",
"9@	c #696969",
"0@	c #8B8B8B",
"a@	c #B9B9B9",
"b@	c #737373",
"c@	c #A9A9A9",
"d@	c #6D6D6D",
"e@	c #727272",
"f@	c #7A7A7A",
"g@	c #ADADAD",
"h@	c #BBBBBB",
"i@	c #E4E4E4",
"j@	c #8F8F8F",
"k@	c #9B9B9B",
"l@	c #A5A5A5",
"m@	c #AFAFAF",
"          . + @ # $ % & * = - ; > , ' ) ! ~ { ] ^ / ( _ : < [ } | 1 2 3 4 5 6 7 8 9 0 6 [           ",
"      a % = - b > , ' ! ~ { ] ^ / ( : < [ } | 1 2 4 5 c d e f 0 g h i j k l m n o p q r s t <       ",
"    u v & w + x y z z A B C D D E y y F G H I J K L L M N O P Q Q R S T U V W W X Y # f Z `  .7     ",
"  ..+.v @.#.$.W %.%.&.*.*.*.=.=.-.-.x x ;.;.;.>.>.X X ,.,.W W V V U U U T T S S S R P '.S ).!.~.<   ",
"  @ +.{.].X , ! ! ! ! ! ! ! ! ! ! ! ! ! ! ! ! ! ! ! ! ! ! ! ! ! ! ! ! ! ! ! ! ! ! ! ! ) {.^.2 /.s   ",
"..# + (._.; ; ; ; ; ; ; ; ; ; ; ; ; ; ; ; ; ; ; ; ; ; ; ; ; ; ; ; ; ; ; ; ; ; ; ; ; ; ; ; {.^.:.<.1 ",
"[.# J B % v % % v v v % % % % v v % % % v % v % v v v % % % v v v }.v v % % v % % % % v % +.|.1.<.2.",
"3.$ 4.%.5.5.5.5.5.5.5.5.5.5.5.5.5.5.5.5.5.5.5.5.5.5.5.5.5.5.5.$ ( 6 6.7.1.5.5.5.5.5.5.5.5.5.I P <.i ",
"@.+.8.;.9.9.9.9.9.9.9.9.9.9.9.9.9.9.9.9.9.9.9.0.a.b.c.9.9.9.d.6 e.f.f.<._ 9.9.9.9.9.9.9.9.9.g.E <.h.",
"@.+.$.S i.j.j.i.j.i.j.i.j.j.j.j.i.j.i.k.j.i.j.l.r f.g u j.[.: e.f.f.f.f.m.n.X Q N Q >.o.p.i.A g.<.h.",
"@.+.q.K r.r.n.n.r.n.n.r.n.r.n.r.n.r.s.t.b ..u.| f.f.v.. r.w.Z f.f.f.f.f.{.x.y.y.y.y.y.x.z.A.B.y <.h.",
"@.+.^.g.*.*.*.*.*.*.*.*.*.*.*.*.*.C.D.f.E.F.%.G.f.f.H.n.%.I.f.f.f.f.f.k J.y.y.y.y.y.y.y.y.y.y.G <.h.",
"@.+.K.L.U U U U U U V U U U U U U *.).f./.M.U +.<.f.N.,.O.P.f.f.f.f./.n.Q.y.y.y.y.y.y.y.y.y.y.H <.h.",
"@.+.4.R.K K K K K K K K K K L Q L Q S.f./.T.K *.d U.V.W.X.Y.f.f.f.Z.$ `.y.y.y.y.y.y.y.y.y.y.y.I <.h.",
"@.+. +.+C C C C C C C C C D ++@+#+G ++$+E.%+C C &+*+=+y.Q.-+` f.o F.].y.y.y.y.y.y.y.y.y.y.y.y.J <.h.",
"@.+.;+>+,+,+,+,+,+,+,+,+,+'+)+f.r !+z ~+{+B ,+R.]+Q.y.y.y.^+G /+(+_+y.y.y.y.y.y.y.y.y.y.y.y.y.K <.h.",
"@.% :+8.#.#.#.#.#.#.#.#.#.<+[+f.e.}+#..+(+#.;+:+'+|+1+2+3+4+5+6+y.y.y.y.y.y.y.y.y.y.y.y.y.y.y.L <.h.",
"@.% 7+8+^.^.^.^.^.^.^.^.^.^.9+h f.0+^.^.a+b+c+j ` f.f.f.f.f.d+N.R.y.y.y.y.y.y.y.y.y.y.y.y.y.y.M <.h.",
"@.% #.(.A.A.A.A.A.A.A.A.A.A.e+f+g+h+]+i+j+k+f.f.f.f.f.f.f.f.f.f.b.l+y.y.y.y.y.y.y.y.y.y.y.y.y.O <.h.",
"@.% m+n+].].].].].].].].].].].].o+p+q+r+f.f.f.f.f.f.f.f.f.f.f.f.Z s+y.y.y.y.y.y.y.y.y.y.y.y.y.P <.h.",
"@.v (+x.t+_+_+_+_+_+_+_+t+u+x.y.x.v+:.f.f.f.f.f.f.f.f.f.f.f.f.f.k X.y.y.y.y.y.y.y.y.y.y.y.y.y.Q <.h.",
"@.v w+y.y.y.y.y.y.y.y.y.y.y.y.y.<+x+f.f.f.f.f.f.f.f.f.f.f.f.f.f.y+z+y.y.y.y.y.y.y.y.y.y.y.y.y.Q <.h.",
"@.v |.y.y.y.y.y.y.y.y.y.y.y.y._+l.f.f.f.f.f.f.f.f.f.f.f.f.f.f.3 A+y.y.y.y.y.y.y.y.y.y.y.y.y.y.S <.h.",
"@.v B+y.y.y.y.y.y.y.y.y.y.y.y.e+C+f.f.f.f.f.f.f.f.f.f.f.f.f.D+#.y.y.y.y.y.y.y.y.y.y.y.y.y.y.y.T <.h.",
"@.v W.y.y.y.y.y.y.y.y.y.y.y.y.E+F+f.f.f.f.f.f.f.f.f.f.f.~.- G+y.y.y.y.y.y.y.y.y.y.y.y.y.y.y.y.U <.h.",
"@.v ,+y.y.y.y.y.y.y.y.y.y.y.y.8.k f.f.f.f.f.f.f.f.f.f.H+;.I+y.y.y.y.y.y.y.y.y.y.y.y.y.y.y.y.y.V <.h.",
"@.v J+y.y.y.y.y.y.y.y.y.y.y.y.K+L+f.f.f.f.f.f.f.f.~.{+M+x.y.y.y.y.y.y.y.y.y.y.y.y.y.y.y.y.y.y.W <.h.",
"@.v N+y.y.y.y.y.y.y.y.y.y.y.y.u+O+f.f.f.f.f.f.f.t P+6+y.z.Q+R+S+T+U+y.y.y.y.y.y.y.y.y.y.y.y.y.,.<.h.",
"@.}.V+y.y.y.y.y.y.y.y.y.y.y.y.y.W+` f.f.f.f.f./.X+_+y.y.Y+s f.f.C+Z+y.y.y.y.y.y.y.y.y.y.y.y.y.X <.h.",
"@.}.`+y.y.y.y.y.y.y.y.y.y.y.y.y. @.@f.f.f.f.f.+@>+y.y.t+#+f.f.f.f.+ x.y.y.y.y.y.y.y.y.y.y.y.y.>.<.h.",
"@.}.z y.y.y.y.y.y.y.y.y.y.y.y.y.y.@@#@f.f.f.f.<.$@%@y.:+&@f.f.f.e.W y.y.y.y.y.y.y.y.y.y.y.y.y.x <.h.",
"@.}.A y.y.y.y.y.y.y.y.y.y.y.y.y.y.t+P+!.f.f.f.f.$+*@I < f.f.f.f.5 =+y.y.y.y.y.y.y.y.y.y.y.y.y.-.<.h.",
"@.& C y.y.y.y.y.y.y.y.y.y.y.y.y.y.y.^+T.!.f.f.f.f.f.Z.f.f.f.f.q G =@y.y.y.y.y.y.y.y.y.y.y.y.y.=.<.h.",
"@.& D y.y.y.y.y.y.y.y.y.y.y.y.y.y.y.y.n+Y F+f.f.f.f.f.f.f.f.&@S t+y.y.y.y.y.y.y.y.y.y.y.y.y.y.*.<.h.",
"@.& g.y.y.y.y.y.y.y.y.y.y.y.y.y.y.y.y.y.u+5+b n e.f.f.f.-@;@#.Q.y.y.y.y.y.y.y.y.y.y.y.y.y.y.y.&.<.h.",
"@.& y y.y.y.y.y.y.y.y.y.y.y.y.y.y.y.y.y.y.y.z.>@W ,@++-.'@)@y.y.y.y.y.y.y.y.y.y.y.y.y.y.y.y.y.%.<.h.",
"@.& G y.y.y.y.y.=@u+=@y.y.y.y.y.y.y.y.y.y.y.y.=@u+=@y.y.y.y.y.y.y.y.y.y.y.y.y.y.y.y.y.y.y.y.y.!@<.h.",
"@.& H y.y.y.z.j.L+~@1 {.y.D } % x.z+{ {@y.y.O [ g ]@W x.y.^@} 0.y.y.o.} /@=@;.} } } } I H ,+R.o.<.h.",
"@.& I y.y.=@' e.(@3.& 2 x.X f.<.N+z.F+_@y.O k+f 9.c <.-.y./ f.t :@z+H+f.).=@u f.} <@<@m+!@* [@}@<.h.",
"@.& K y.y.:+<.} u+y.y._+y.X f.t _@|@F+_@=@1@` $.y.B.d+9 =@/ ` F+..I s +@).=@u f.M ]. @x.2@^+2@_.<.h.",
"@.3@L y.y.V f.4@y.U 1.5.5@X f.+ !.E F+_@z+F+i Q.y.x.d $+z+/ q d.8 / ! d ).=@u f.` Z o 6@y.y.y.Y <.h.",
"@.3@M y.y.O f.7@y.n.h /.$.X f.M / | n _@t+l l _+y.Q.).r t+/ q ;+8@<.E d ).=@u f.[@!@=.%@y.y.y.9@<.h.",
"3.}.W y.y.A.s i e+y.0@/.$.X f.K R./.e._@y.7.<.I =@`+/.a@y./ q z+] d _+d ).=@u f.J n+n+u+y.y.y.b@<.i ",
". # 3.y.y.y.r.~.q 5 q ` 8.X f.K =@/ f._@y.4.F+` 6 $+o w+y./ q _+|@`.=@d ).=@u f.Z p p M y.y.y.c@<.2.",
"..# c@8.y.y.y.(+u [@{.;+=@>+d@G+y.K.d@M y.y.B.p.1.e@]+y.y.K }@Q.y.y.y.W >.y.B+d@d@d@d@^.y.y.#.Z <.1 ",
"  [@v > :@y.y.y.y.y.y.y.y.y.y.y.y.y.y.y.y.y.y.y.y.y.y.y.y.y.y.y.y.y.y.y.y.y.y.y.y.y.y.y.y.J.e /.s   ",
"  d@+.* c@M u+y.y.y.y.y.y.y.y.y.y.y.y.y.y.y.y.y.y.y.y.y.y.y.y.y.y.y.y.y.y.y.y.y.y.y.y._+>.j !.~.a@  ",
"    f@v 3@<@g@+ n.*.=.=.=.=.*.*.*.*.*.*.*.*.*.*.*.&.&.&.&.&.&.%.%.%.%.%.%.%.%.%.C.a w h $+`  .d     ",
"      a % = - b , <@c@{ ] ^ / ( _ : h@(@]@1 2 L+4 5 c d e 9 0 ~@h i j k l i@F+n o p q r s q a@      ",
"          . ^@@ j@$ % }.3@w k@; /@;@' l@<@~ { ] m@/ ( _ : < [ } | 1 2 L+4 5 c 7 e f 2.c h@          "};
