/* XPM */
static char * gnome_32_xpm[] = {
"32 32 606 2",
"  	c None",
". 	c #858886",
"+ 	c #9DA09E",
"@ 	c #A2A5A3",
"# 	c #A2A5A4",
"$ 	c #9FA2A0",
"% 	c #A0A2A0",
"& 	c #9DA0A0",
"* 	c #9EA19F",
"= 	c #9EA2A0",
"- 	c #A4A6A5",
"; 	c #A1A3A2",
"> 	c #9EA09F",
", 	c #9C9F9D",
"' 	c #999C9A",
") 	c #959896",
"! 	c #929694",
"~ 	c #8D918F",
"{ 	c #8A8E8C",
"] 	c #868A89",
"^ 	c #828584",
"/ 	c #7C7F80",
"( 	c #777C7C",
"_ 	c #717777",
": 	c #6D7170",
"< 	c #616463",
"[ 	c #999B99",
"} 	c #BEBFBF",
"| 	c #DFDFDF",
"1 	c #E9E9E9",
"2 	c #EAE9E9",
"3 	c #EAE9EA",
"4 	c #E9E9EA",
"5 	c #E9E9E8",
"6 	c #E9E8E8",
"7 	c #E7E7E7",
"8 	c #E6E6E6",
"9 	c #E5E5E5",
"0 	c #E4E4E4",
"a 	c #E2E2E2",
"b 	c #E1E1E1",
"c 	c #E0E1E1",
"d 	c #E0E0DF",
"e 	c #DDDEDD",
"f 	c #DCDCDC",
"g 	c #D9DADA",
"h 	c #DADBDB",
"i 	c #DADADA",
"j 	c #D8D9D9",
"k 	c #D5D6D5",
"l 	c #C1C3C3",
"m 	c #858888",
"n 	c #595E5E",
"o 	c #888B8A",
"p 	c #C3C4C3",
"q 	c #EEEEEF",
"r 	c #F0F0EF",
"s 	c #EFF0EF",
"t 	c #EFEFF0",
"u 	c #EFEFEF",
"v 	c #EEEFEF",
"w 	c #EDEDED",
"x 	c #ECECEC",
"y 	c #EBECEC",
"z 	c #EBEBEB",
"A 	c #EAEAEB",
"B 	c #E2E2E1",
"C 	c #E6E7E6",
"D 	c #E5E6E6",
"E 	c #E1E2E2",
"F 	c #B2B3B3",
"G 	c #8B8E8D",
"H 	c #848787",
"I 	c #A4A7A7",
"J 	c #DFDFDE",
"K 	c #E1E0E0",
"L 	c #898C8C",
"M 	c #515757",
"N 	c #EEEEEE",
"O 	c #EDEDEE",
"P 	c #EBEAEB",
"Q 	c #EBEBEA",
"R 	c #E8E8E7",
"S 	c #DEDEDE",
"T 	c #858989",
"U 	c #6F7272",
"V 	c #C1C2C2",
"W 	c #E3E3E3",
"X 	c #DFDEDE",
"Y 	c #909291",
"Z 	c #6A6E6E",
"` 	c #6A6D6F",
" .	c #696D6C",
"..	c #6E7272",
"+.	c #D1D2D1",
"@.	c #DDDDDD",
"#.	c #DCDBDC",
"$.	c #DBDADA",
"%.	c #CACBCA",
"&.	c #595F5F",
"*.	c #AFB1B0",
"=.	c #EAEAEA",
"-.	c #E8E8E8",
";.	c #E6E6E5",
">.	c #CDCDCD",
",.	c #CDCECD",
"'.	c #B8B9B9",
").	c #686C6C",
"!.	c #696C6B",
"~.	c #A6A8A8",
"{.	c #DEDFDE",
"].	c #B0B2B1",
"^.	c #686B6C",
"/.	c #696B6C",
"(.	c #686B6B",
"_.	c #7B7E7F",
":.	c #D7D7D8",
"<.	c #D4D4D4",
"[.	c #D5D5D5",
"}.	c #D7D7D6",
"|.	c #D3D4D4",
"1.	c #6C7170",
"2.	c #B3B5B4",
"3.	c #E7E6E6",
"4.	c #E5E6E5",
"5.	c #E5E4E5",
"6.	c #E4E2E3",
"7.	c #CBCCCC",
"8.	c #6B6F6F",
"9.	c #747777",
"0.	c #AFB0B0",
"a.	c #676B6B",
"b.	c #676A6A",
"c.	c #DADBDA",
"d.	c #838686",
"e.	c #666A6A",
"f.	c #666969",
"g.	c #616465",
"h.	c #494A4B",
"i.	c #8E9191",
"j.	c #929697",
"k.	c #85898A",
"l.	c #7E8282",
"m.	c #7D8181",
"n.	c #868989",
"o.	c #B4B5B3",
"p.	c #E3E3E2",
"q.	c #E0E0E0",
"r.	c #BABBBB",
"s.	c #646868",
"t.	c #C8C9C9",
"u.	c #676969",
"v.	c #6D7171",
"w.	c #D0D0D0",
"x.	c #727675",
"y.	c #515353",
"z.	c #2C2C2D",
"A.	c #0E0E0F",
"B.	c #535453",
"C.	c #8D9090",
"D.	c #818585",
"E.	c #7A7E7E",
"F.	c #747979",
"G.	c #6E7474",
"H.	c #646767",
"I.	c #5B6060",
"J.	c #B4B6B4",
"K.	c #DEDEDD",
"L.	c #D8D8D8",
"M.	c #9A9C9D",
"N.	c #BBBBBC",
"O.	c #CFCFCF",
"P.	c #6D7070",
"Q.	c #656868",
"R.	c #CBCBCB",
"S.	c #D6D6D6",
"T.	c #9FA1A1",
"U.	c #B3B5B5",
"V.	c #D5D5D4",
"W.	c #C9CAC9",
"X.	c #4A4C4C",
"Y.	c #070808",
"Z.	c #0A090A",
"`.	c #575858",
" +	c #878B8A",
".+	c #7B7F7F",
"++	c #6E7373",
"@+	c #5A6061",
"#+	c #B3B6B4",
"$+	c #DDDCDD",
"%+	c #DBDBDB",
"&+	c #DADAD9",
"*+	c #B6B7B7",
"=+	c #626665",
"-+	c #747778",
";+	c #B1B2B2",
">+	c #939696",
",+	c #D4D4D5",
"'+	c #D4D3D3",
")+	c #CDCDCC",
"!+	c #BABBBA",
"~+	c #ACAEAD",
"{+	c #959795",
"]+	c #6A6B6B",
"^+	c #8C8E8D",
"/+	c #878B89",
"(+	c #818685",
"_+	c #7B8080",
":+	c #757A7A",
"<+	c #6F7473",
"[+	c #646869",
"}+	c #5B6160",
"|+	c #B3B4B3",
"1+	c #D8D8D9",
"2+	c #D6D7D7",
"3+	c #D7D6D6",
"4+	c #C4C5C5",
"5+	c #616565",
"6+	c #C8C8C8",
"7+	c #D3D3D2",
"8+	c #D2D2D2",
"9+	c #B6B6B5",
"0+	c #808180",
"a+	c #59595A",
"b+	c #484849",
"c+	c #474849",
"d+	c #5A5B5C",
"e+	c #818484",
"f+	c #989B9A",
"g+	c #929695",
"h+	c #8D908F",
"i+	c #828585",
"j+	c #7B807F",
"k+	c #6E7374",
"l+	c #6B6E6E",
"m+	c #B2B3B2",
"n+	c #D5D6D6",
"o+	c #D5D4D3",
"p+	c #D3D3D3",
"q+	c #D3D2D2",
"r+	c #D2D2D1",
"s+	c #A6A8A6",
"t+	c #747877",
"u+	c #CBCBCA",
"v+	c #CECECC",
"w+	c #9E9F9F",
"x+	c #414142",
"y+	c #0B0A0B",
"z+	c #040204",
"A+	c #070607",
"B+	c #505252",
"C+	c #939594",
"D+	c #818485",
"E+	c #696E6D",
"F+	c #5A6060",
"G+	c #AFB1AF",
"H+	c #D3D2D1",
"I+	c #D1D1D0",
"J+	c #D0D0CF",
"K+	c #CFCFCE",
"L+	c #CFCFCD",
"M+	c #CFCECC",
"N+	c #CCCDCC",
"O+	c #C0C1C0",
"P+	c #4E4E50",
"Q+	c #090709",
"R+	c #121213",
"S+	c #8F9190",
"T+	c #8C8E8E",
"U+	c #858988",
"V+	c #808484",
"W+	c #797E7E",
"X+	c #747879",
"Y+	c #6D7373",
"Z+	c #696D6D",
"`+	c #636767",
" @	c #A8AAA9",
".@	c #C1C2C1",
"+@	c #CCCCCC",
"@@	c #CBCCCB",
"#@	c #CACACA",
"$@	c #C9C9C9",
"%@	c #C4C4C4",
"&@	c #3D3D3E",
"*@	c #1D1D1E",
"=@	c #949796",
"-@	c #8A8D8C",
";@	c #858887",
">@	c #7E8383",
",@	c #787D7D",
"'@	c #737777",
")@	c #6D7272",
"!@	c #626766",
"~@	c #595E5F",
"{@	c #A3A5A5",
"]@	c #ADAFAE",
"^@	c #B7B9B7",
"/@	c #BBBDBB",
"(@	c #BEC0BE",
"_@	c #C1C2C0",
":@	c #C2C3C2",
"<@	c #787978",
"[@	c #050305",
"}@	c #060406",
"|@	c #717372",
"1@	c #909391",
"2@	c #888C8B",
"3@	c #828685",
"4@	c #767B7B",
"5@	c #707676",
"6@	c #6C7071",
"7@	c #666B6B",
"8@	c #585E5E",
"9@	c #A0A3A1",
"0@	c #AAACAB",
"a@	c #AEB0AF",
"b@	c #B5B8B5",
"c@	c #B9BAB8",
"d@	c #BABDBA",
"e@	c #BCBEBD",
"f@	c #333333",
"g@	c #0D0C0E",
"h@	c #6D6F6E",
"i@	c #969998",
"j@	c #808585",
"k@	c #6F7474",
"l@	c #6A6F6F",
"m@	c #5F6464",
"n@	c #565C5C",
"o@	c #9C9E9D",
"p@	c #A6A8A7",
"q@	c #AEB0AE",
"r@	c #B1B3B1",
"s@	c #B5B7B5",
"t@	c #1E1E1E",
"u@	c #2F2E2E",
"v@	c #979998",
"w@	c #888C8C",
"x@	c #838786",
"y@	c #737878",
"z@	c #696D6E",
"A@	c #636766",
"B@	c #5D6363",
"C@	c #555A5B",
"D@	c #A1A3A3",
"E@	c #A9ABAA",
"F@	c #AFB2B0",
"G@	c #B0B3B1",
"H@	c #2B2B2B",
"I@	c #111011",
"J@	c #6B6D6C",
"K@	c #A0A3A3",
"L@	c #909393",
"M@	c #818486",
"N@	c #707575",
"O@	c #6C7171",
"P@	c #616566",
"Q@	c #5B6161",
"R@	c #525959",
"S@	c #939796",
"T@	c #A0A2A2",
"U@	c #A3A5A4",
"V@	c #A9AAAA",
"W@	c #ABADAC",
"X@	c #575959",
"Y@	c #282829",
"Z@	c #969796",
"`@	c #9B9E9D",
" #	c #959895",
".#	c #898B8B",
"+#	c #757776",
"@#	c #818584",
"##	c #7D8282",
"$#	c #696E6E",
"%#	c #5F6364",
"&#	c #515657",
"*#	c #8F9391",
"=#	c #979B99",
"-#	c #9EA1A0",
";#	c #A0A4A2",
">#	c #A4A7A6",
",#	c #909290",
"'#	c #0D0C0D",
")#	c #080708",
"!#	c #959796",
"~#	c #959897",
"{#	c #616464",
"]#	c #141315",
"^#	c #5A5E5D",
"/#	c #707576",
"(#	c #6B7170",
"_#	c #666B6C",
":#	c #626666",
"<#	c #5C6161",
"[#	c #565C5D",
"}#	c #4F5555",
"|#	c #949695",
"1#	c #989B9B",
"2#	c #9B9E9C",
"3#	c #9DA09F",
"4#	c #9FA2A1",
"5#	c #565858",
"6#	c #040305",
"7#	c #070608",
"8#	c #808382",
"9#	c #939694",
"0#	c #8F9292",
"a#	c #2E2F2F",
"b#	c #6E7170",
"c#	c #717776",
"d#	c #686D6D",
"e#	c #636868",
"f#	c #5E6363",
"g#	c #54595A",
"h#	c #4D5253",
"i#	c #878A88",
"j#	c #8D9190",
"k#	c #919494",
"l#	c #949795",
"m#	c #959997",
"n#	c #979A99",
"o#	c #999C9B",
"p#	c #383A3A",
"q#	c #161617",
"r#	c #5F6262",
"s#	c #606262",
"t#	c #0C0B0C",
"u#	c #272828",
"v#	c #737778",
"w#	c #6D7374",
"x#	c #656A6A",
"y#	c #606566",
"z#	c #5A6160",
"A#	c #555C5D",
"B#	c #4A5051",
"C#	c #8C8F8E",
"D#	c #8E9190",
"E#	c #909392",
"F#	c #929593",
"G#	c #939695",
"H#	c #949696",
"I#	c #3C3E3E",
"J#	c #050406",
"K#	c #7B7E7D",
"L#	c #747978",
"M#	c #6B706F",
"N#	c #616666",
"O#	c #5C6261",
"P#	c #525859",
"Q#	c #4E5455",
"R#	c #474C4D",
"S#	c #7D8080",
"T#	c #868A88",
"U#	c #888B8B",
"V#	c #8A8D8D",
"W#	c #8C8F8D",
"X#	c #8D908E",
"Y#	c #636564",
"Z#	c #202122",
"`#	c #050405",
" $	c #2D2E2E",
".$	c #7D807F",
"+$	c #616867",
"@$	c #545A5A",
"#$	c #505556",
"$$	c #4B5153",
"%$	c #43494B",
"&$	c #777B7B",
"*$	c #7E8283",
"=$	c #848987",
"-$	c #858A88",
";$	c #868B8A",
">$	c #858987",
",$	c #838887",
"'$	c #717574",
")$	c #5C5F5E",
"!$	c #5C5E5E",
"~$	c #737776",
"{$	c #7F8382",
"]$	c #727777",
"^$	c #676B6C",
"/$	c #5A5F5F",
"($	c #555B5C",
"_$	c #505757",
":$	c #4C5254",
"<$	c #484D4F",
"[$	c #414748",
"}$	c #727676",
"|$	c #777D7D",
"1$	c #7A7F7F",
"2$	c #787C7D",
"3$	c #757B7B",
"4$	c #737877",
"5$	c #6F7575",
"6$	c #6D7271",
"7$	c #5E6364",
"8$	c #555B5D",
"9$	c #4D5355",
"0$	c #484E50",
"a$	c #444B4C",
"b$	c #3E4445",
"c$	c #6D7270",
"d$	c #757A79",
"e$	c #767B7C",
"f$	c #707373",
"g$	c #525555",
"h$	c #646969",
"i$	c #5F6363",
"j$	c #4E5252",
"k$	c #666A6B",
"l$	c #5D6160",
"m$	c #494D4E",
"n$	c #414546",
"o$	c #4D5353",
"p$	c #555B5B",
"q$	c #515758",
"r$	c #494F50",
"s$	c #444B4D",
"t$	c #404648",
"u$	c #3B4042",
"v$	c #717675",
"w$	c #707475",
"x$	c #313333",
"y$	c #343738",
"z$	c #4B4E4E",
"A$	c #3B3E3E",
"B$	c #3C3F3E",
"C$	c #555858",
"D$	c #383B3A",
"E$	c #444647",
"F$	c #47494A",
"G$	c #2F3030",
"H$	c #575B5A",
"I$	c #27292A",
"J$	c #545757",
"K$	c #5B5F5F",
"L$	c #4D5354",
"M$	c #494F51",
"N$	c #454B4D",
"O$	c #3D4345",
"P$	c #383D3F",
"Q$	c #434646",
"R$	c #373939",
"S$	c #343737",
"T$	c #232627",
"U$	c #4B4D4D",
"V$	c #565959",
"W$	c #2E3130",
"X$	c #242526",
"Y$	c #434747",
"Z$	c #1F2122",
"`$	c #3E4141",
" %	c #464C4D",
".%	c #414749",
"+%	c #393F41",
"@%	c #343A3B",
"#%	c #5B5F5E",
"$%	c #656969",
"%%	c #676A6B",
"&%	c #272929",
"*%	c #4E5151",
"=%	c #2C2E2E",
"-%	c #383A3B",
";%	c #676B69",
">%	c #1D1F1F",
",%	c #595C5C",
"'%	c #2E2F30",
")%	c #414343",
"!%	c #434545",
"~%	c #323434",
"{%	c #494B4C",
"]%	c #323536",
"^%	c #242627",
"/%	c #3F4445",
"(%	c #44494A",
"_%	c #484E4F",
":%	c #3D4445",
"<%	c #353B3C",
"[%	c #606565",
"}%	c #646867",
"|%	c #5E6161",
"1%	c #535655",
"2%	c #5A5E5E",
"3%	c #65696A",
"4%	c #535757",
"5%	c #535756",
"6%	c #616767",
"7%	c #555A5A",
"8%	c #525757",
"9%	c #595F5E",
"0%	c #4E5353",
"a%	c #474C4C",
"b%	c #474A4B",
"c%	c #4E5253",
"d%	c #44494C",
"e%	c #3C4244",
"f%	c #323839",
"g%	c #5B6061",
"h%	c #5A5F60",
"i%	c #575D5D",
"j%	c #565B5B",
"k%	c #525759",
"l%	c #4F5456",
"m%	c #4B5152",
"n%	c #42494B",
"o%	c #3F4648",
"      . + @ # $ % & * = - ; = > , ' ) ! ~ { ] ^ / ( _ : <       ",
"    [ } | 1 2 3 4 1 5 6 7 7 8 9 0 a b c d e f g h i j k l m n   ",
"  o p q r s t u v w x y z A 1 7 B C D 9 E F G H I J K d J i L M ",
"  # 5 q N O x P Q 1 1 R 7 8 S T U V W X Y Z `  ...+.@.f #.$.%.&.",
"  *.z =.1 5 -.7 ;.9 0 >.,.W '.).!.~.{.].).^./.(._.:.k <.[.}.|.1.",
"  2.C 3.4.0 5.0 6.a 7.8.9.j 0.a.b.F c.d.e.f.g.h.i.j.k.l.m.n.> Z ",
"  o.0 p.a b b q.d J r.s.s.t.p u.v.w.<.x.y.z.A.B.C.D.E.F.G.Z H.I.",
"  J.d d | K.@.L.M.N.O.P.Q.R.S.T.U.V.W.X.Y.Z.`.)  +D..+F.++Z s.@+",
"  #+$+f %+%+&+*+=+-+<.;+>+<.,+'+)+!+~+{+]+^+[ C./+(+_+:+<+Z [+}+",
"  |+i 1+L.2+3+4+s.5+6+7+8+w.9+0+a+b+c+d+e+f+g+h+ +i+j+:+k+l+[+I.",
"  m+n+[.o+p+q+r+s+t+u+v+w+x+y+z+z+z+z+z+A+B+C+h+] D+E.F.G.E+s.F+",
"  G+H+r+I+J+K+L+M+N+O+P+Q+z+z+z+z+z+z+z+z+R+S+T+U+V+W+X+Y+Z+`+I.",
"   @.@u+)++@@@#@$@%@&@z+z+z+z+z+z+z+z+z+z+*@=@-@;@>@,@'@)@).!@~@",
"  {@]@|+^@/@(@_@:@<@[@z+z+z+z+z+z+z+z+z+}@|@1@2@3@m.4@5@6@7@5+8@",
"  9@0@a@|+b@c@d@e@f@z+z+z+z+z+z+z+z+z+g@h@i@G ] j@.+:+k@l@f.m@n@",
"  o@p@0@q@r@o.s@J.t@z+z+z+z+z+z+z+z+u@^+v@i.w@x@l.,@y@Y+z@A@B@C@",
"  f+D@p@E@~+q@F@G@H@z+z+z+z+z+z+I@J@K@=@L@G n.M@.+4@N@O@a.P@Q@R@",
"  S@> T@U@p@V@0@W@X@z+z+z+z+z+Y@Z@`@ #.#+#t+@###,@y@++$#s.%#8@&#",
"  *#=#, -#;#U@- >#,#'#z+z+z+)#!#f+~#{#]#}@)#^#E.:+/#(#_#:#<#[#}#",
"  G |#i@1#2#3#-#4#4#5#6#z+z+7#8#9#0#a#z+z+[@b#4@c#)@d#e#f#~@g#h#",
"  i#j#k#l#m#n#f+o#' =@p#z+z+z+q#r#s#t#z+z+u#@#v#w#l@x#y#z#A#M B#",
"  @#-@C#D#E#F#G#S@9#H#h+I#J#z+z+z+z+z+z+R+K#L#G.M#7@N#O#8@P#Q#R#",
"  S#x@T#U#V#W#X#D#h+j#X#^+Y#Z#`#z+z+J# $.$F.k@M#7@+$f#~@@$#$$$%$",
"  &$*$V+3@=$-$] ;$o ;$] >$,$@#'$)$!$~${$]$k+8.^$`+f#/$($_$:$<$[$",
"  }$|$.+m.>@V+V+i+i+(+@#V+>@m.1$2$3$4$5$6$Z b.!@7$F+8$M 9$0$a$b$",
"  c$y@d$e$,@W+1$f$g$Z+Z ,@h$F.i$j$8.k$x#l$s.m$n$o$p$q$Q#r$s$t$u$",
"  )...5$v$4$F.w$x$b.(.y$z$A${#B$C$D$E$F$G$H$I$J$K$M L$M$N$[$O$P$",
"  H.Z+l@6@)@k+%#Q$f#I#R$S$T$U$V$a.x$S$W$X$Y$Z$`$p$9$M$ %.%O$+%@%",
"  #%`+$%%%).).$%&%*%=%-%;%>%,%'%)%!%~%R${%]%^%/%(%_%N$.%:%+%<%  ",
"    <#%#[%=+`+}%|%1%b.#%!.2%3%4%5%6%7%8%9%0%a%b%c%d%t$e%+%<%f%  ",
"      7%~@&./$I.Q@g%Q@I.h%/$n i%j%R@k%l%Q#m%0$N$n%o%e%+%<%f%    ",
"                                                                "};
