/* XPM */
static char *gnome[] = {
/* columns rows colors chars-per-pixel */
"16 16 131 2",
"   c #000200020002",
".  c #00F900F900F9",
"X  c #020402040204",
"o  c #037803890378",
"O  c #047F047F047F",
"+  c #071007100710",
"@  c #07CF07D707CF",
"#  c #0919091B0919",
"$  c #09F809F809F8",
"%  c #0C360C450C36",
"&  c #100A103F100A",
"*  c #11F111F111F1",
"=  c #14EC14EC14EC",
"-  c #16E816EB16E8",
";  c #17D517D517D5",
":  c #194519451945",
">  c #19D519D519D5",
",  c #1AF31B111AF3",
"<  c #1C071C071C07",
"1  c #1D2A1D2A1D2A",
"2  c #1F921F921F92",
"3  c #23FE23FE23FE",
"4  c #254C254C254C",
"5  c #275A275A275A",
"6  c #27FA27FA27FA",
"7  c #28A328FB28A3",
"8  c #28F928F928F9",
"9  c #2DEF2DEF2DEF",
"0  c #317E31B0317E",
"q  c #362F362F362F",
"w  c #38C1390438C1",
"e  c #40ED40ED40ED",
"r  c #46B446B446B4",
"t  c #4B454B454B45",
"y  c #4EA94F074EA9",
"u  c #510A5127510A",
"i  c #587659475876",
"p  c #591359135913",
"a  c #5B9E5C565B9E",
"s  c #5E3B5E3B5E3B",
"d  c #5F7B5F7B5F7B",
"f  c #5F685FE35F68",
"g  c #634B636E634B",
"h  c #65B665C565B6",
"j  c #665066506650",
"k  c #676567656765",
"l  c #67AC67F867AC",
"z  c #687A687A687A",
"x  c #696F696F696F",
"c  c #6AE96AE96AE9",
"v  c #6C8F6C8F6C8F",
"b  c #6E316E316E31",
"n  c #6EEE6F536EEE",
"m  c #6FC56FC56FC5",
"M  c #709370937093",
"N  c #712C712C712C",
"B  c #734073407340",
"V  c #7468747B7468",
"C  c #759775977597",
"Z  c #765376537653",
"A  c #785278527852",
"S  c #798679867986",
"D  c #7CD87D347CD8",
"F  c #7D627D627D62",
"G  c #80BC80BC80BC",
"H  c #812981298129",
"J  c #828982898289",
"K  c #839883988398",
"L  c #84C184C184C1",
"P  c #85F285F285F2",
"I  c #870387038703",
"U  c #8751875F8751",
"Y  c #87C4882E87C4",
"T  c #88DC890488DC",
"R  c #896489648964",
"E  c #8A1D8A1D8A1D",
"W  c #8BE58BE58BE5",
"Q  c #8CB78CB78CB7",
"!  c #8D9B8D9B8D9B",
"~  c #8E568E568E56",
"^  c #8F7B8F7B8F7B",
"/  c #904390559043",
"(  c #91A191A191A1",
")  c #921592A49215",
"_  c #93C693C693C6",
"`  c #94D594D594D5",
"'  c #962396239623",
"]  c #9733975F9733",
"[  c #996B996B996B",
"{  c #99F99A2199F9",
"}  c #9A909A9D9A90",
"|  c #9C3B9C3B9C3B",
" . c #9EE49EE49EE4",
".. c #9FEC9FEC9FEC",
"X. c #A167A167A167",
"o. c #A387A387A387",
"O. c #A431A431A431",
"+. c #A67FA696A67F",
"@. c #A79EA79EA79E",
"#. c #A8ABA907A8AB",
"$. c #ABE5ABE5ABE5",
"%. c #ACD5AD39ACD5",
"&. c #AEAFAEF9AEAF",
"*. c #AFE7B01AAFE7",
"=. c #B060B060B060",
"-. c #B1A0B1A0B1A0",
";. c #B221B28EB221",
":. c #B2B0B2B0B2B0",
">. c #B3DDB3DDB3DD",
",. c #B50EB50EB50E",
"<. c #B5CAB5CAB5CA",
"1. c #B6E3B6E3B6E3",
"2. c #B75EB772B75E",
"3. c #B89EB89EB89E",
"4. c #BBDBBBDBBBDB",
"5. c #BCAFBD42BCAF",
"6. c #BE2DBE70BE2D",
"7. c #BF18BF18BF18",
"8. c #BFA7BFA7BFA7",
"9. c #CAD0CAFACAD0",
"0. c #CC90CCB7CC90",
"q. c #CF64CF9FCF64",
"w. c #E2CBE2CBE2CB",
"e. c #E3F7E422E3F7",
"r. c #E992E992E992",
"t. c #F2DBF317F2DB",
"y. c #F92BF92DF92B",
"u. c #FC59FC5FFC59",
"i. c #FE48FE50FE48",
"p. c #FFF8FFF8FFF8",
"a. c None",
/* pixels */
"a.M G F J U Q ( ] | X.+.$.8.<.a.",
"z d E ^ ^ ~ ~ ! ! Q Q Q W T H ,.",
"z S I I I I I / } ~ 9.,.K K B 1.",
"j s j j j V %.&.6.*.p.[ * * > =.",
"j e r r l D 5.g y T 2.:       =.",
"k 3 5 5 f ) a ] ;.#.w         -.",
"z @ # # # i t.p.p.p.U         :.",
"x       O q.p.p.p.9.,         >.",
"c       o 0.p.u.Y 7 &         ,.",
"v         n i.9.- e.+.        <.",
"b         @ { y.w.r.e         2.",
"m   = - * $ % u h 0 + = = > $ 3.",
"N : ( p ` F M P ` _ Z :.' B q 4.",
"C 2 / ..L O.F F | T A ^ [ h X 7.",
"b q 6 8 < ; * 9 < 1 . 1 4 9 t 1.",
"a.V E L T ! ( ' }  .o.@.$.8.<.a."
};
