/* XPM */
static char * gnome_48_xpm[] = {
"48 55 256 2",
"  	c #020204",
". 	c #828284",
"+ 	c #424244",
"@ 	c #C2C2BC",
"# 	c #62625C",
"$ 	c #A2A29C",
"% 	c #727274",
"& 	c #929294",
"* 	c #E2E2DC",
"= 	c #222224",
"- 	c #B2B2AC",
"; 	c #525254",
"> 	c #D2D2CC",
", 	c #827264",
"' 	c #726254",
") 	c #323234",
"! 	c #B2A69C",
"~ 	c #A29284",
"{ 	c #928274",
"] 	c #62564C",
"^ 	c #BABAB4",
"/ 	c #52463C",
"( 	c #12120C",
"_ 	c #F2F2EC",
": 	c #CACAC4",
"< 	c #827A6C",
"[ 	c #AAAAA4",
"} 	c #3A3A3C",
"| 	c #6A6A64",
"1 	c #DADAD4",
"2 	c #726A64",
"3 	c #A29A94",
"4 	c #928A84",
"5 	c #4A4A4C",
"6 	c #7A7A74",
"7 	c #2A2A2C",
"8 	c #8A7A6C",
"9 	c #AAA294",
"0 	c #9A9A94",
"a 	c #BEB2AC",
"b 	c #8A8A8C",
"c 	c #EAEAE4",
"d 	c #5A5A5C",
"e 	c #625E54",
"f 	c #1A1A14",
"g 	c #6A625C",
"h 	c #B2AEA4",
"i 	c #7A6A5C",
"j 	c #4A423C",
"k 	c #CAC2BC",
"l 	c #C2BAB4",
"m 	c #AA9A94",
"n 	c #9A8A7C",
"o 	c #0A0A04",
"p 	c #8A827C",
"q 	c #7A726C",
"r 	c #9A928C",
"s 	c #BAB2A4",
"t 	c #D2CAC4",
"u 	c #423A34",
"v 	c #5A524C",
"w 	c #DAD2CC",
"x 	c #3A322C",
"y 	c #524E4C",
"z 	c #FAFAFC",
"A 	c #AAA69C",
"B 	c #2A221C",
"C 	c #827E7C",
"D 	c #E2DAD4",
"E 	c #A29E94",
"F 	c #322A24",
"G 	c #8A7E73",
"H 	c #EAE6E4",
"I 	c #B2AAA3",
"J 	c #625A54",
"K 	c #1A1614",
"L 	c #726E6C",
"M 	c #928E8C",
"N 	c #F2EEEC",
"O 	c #6A5E54",
"P 	c #221E1C",
"Q 	c #6A6664",
"R 	c #4A4640",
"S 	c #7A766C",
"T 	c #9A9694",
"U 	c #C6C6C4",
"V 	c #666664",
"W 	c #A6A6A4",
"X 	c #E6E6E4",
"Y 	c #B6B6B4",
"Z 	c #D6D6D4",
"` 	c #82766C",
" .	c #A2968C",
"..	c #92867C",
"+.	c #BEBEBC",
"@.	c #161614",
"#.	c #FAF6F4",
"$.	c #CECECC",
"%.	c #AEAEAC",
"&.	c #6E6E6C",
"*.	c #DEDEDC",
"=.	c #7E7E7C",
"-.	c #EEEEEC",
";.	c #1E1E1C",
">.	c #BAAEA4",
",.	c #7A6E64",
"'.	c #CAC6BE",
").	c #C2BEBA",
"!.	c #120E0C",
"~.	c #8A8684",
"{.	c #423E3A",
"].	c #5A5650",
"^.	c #3A362E",
"/.	c #5A4E44",
"(.	c #8A7E7C",
"_.	c #0A0604",
":.	c #868684",
"<.	c #464644",
"[.	c #C6C2BE",
"}.	c #666260",
"|.	c #A6A2A0",
"1.	c #E6E2DE",
"2.	c #262624",
"3.	c #B6B2AE",
"4.	c #D6D2CC",
"5.	c #72665C",
"6.	c #BEBAB5",
"7.	c #161211",
"8.	c #F6F6F4",
"9.	c #BAB6B3",
"0.	c #767674",
"a.	c #969694",
"b.	c #565654",
"c.	c #363634",
"d.	c #524A44",
"e.	c #3E3E3C",
"f.	c #4E4E4C",
"g.	c #2E2E2C",
"h.	c #9E9E9C",
"i.	c #BEB6AC",
"j.	c #8E8E8C",
"k.	c #5E5E5C",
"l.	c #9A8E84",
"m.	c #0E0E0C",
"n.	c #D2CEC9",
"o.	c #DAD6D4",
"p.	c #2A2624",
"q.	c #322E29",
"r.	c #060604",
"s.	c #AA9E94",
"t.	c #FEFEFC",
"u.	c #E2DEDC",
"v.	c #86827E",
"w.	c #46423E",
"x.	c #76726C",
"y.	c #96928C",
"z.	c #26221C",
"A.	c #56524C",
"B.	c #36322C",
"C.	c #66564C",
"D.	c #F6F2F4",
"E.	c #CECAC5",
"F.	c #867A71",
"G.	c #AEAAA5",
"H.	c #3E3A35",
"I.	c #6E6A69",
"J.	c #DEDAD5",
"K.	c #766A5C",
"L.	c #A69A8E",
"M.	c #968A7D",
"N.	c #4E4A46",
"O.	c #7E7A77",
"P.	c #2E2A24",
"Q.	c #AEA29A",
"R.	c #9E9A94",
"S.	c #8E8A84",
"T.	c #EEEAE9",
"U.	c #5E5A57",
"V.	c #665E58",
"W.	c #1E1A18",
"X.	c #6E6256",
"Y.	c #B6AEA5",
"Z.	c #0E0A0C",
"`.	c #8E8274",
" +	c #7E7265",
".+	c #9E9284",
"++	c #564E44",
"@+	c #AEA69D",
"#+	c #867E76",
"$+	c #A69E97",
"%+	c #8E7E72",
"&+	c #B6AAA2",
"*+	c #665A52",
"=+	c #766E68",
"-+	c #968E85",
";+	c #6E5E54",
">+	c #6E665F",
",+	c #4E463C",
"'+	c #7E766E",
")+	c #9E968E",
"!+	c #86766C",
"~+	c #A6968C",
"{+	c #96867A",
"]+	c #7E6E64",
"^+	c #CEC6C1",
"/+	c #C6BEB6",
"(+	c #8E8682",
"_+	c #463E37",
":+	c #5E564C",
"<+	c #3E3631",
"[+	c #C2B6AC",
"}+	c #D6CECC",
"|+	c #362E2C",
"1+	c #060204",
"2+	c #4E423C",
"3+	c #5E524C",
"4+	c #FEFAFC",
"5+	c #76665C",
"6+	c #564A44",
"7+	c #9E8E84",
"8+	c #DED6D4",
"9+	c #2E2624",
"0+	c #AE9E94",
"a+	c #C2C2C4",
"b+	c #626264",
"c+	c #A2A2A4",
"d+	c #E2E2E4",
"e+	c #B2B2B4",
"f+	c #D2D2D4",
"g+	c #82726C",
"h+	c #72625C",
"i+	c #B2A6A4",
"j+	c #A2928C",
"k+	c #92827C",
"l+	c #625654",
"m+	c #BABABC",
"n+	c #121214",
"o+	c #F2F2F4",
"p+	c #CACACC",
"q+	c #827A74",
"r+	c #AAAAAC",
"s+	c #6A6A6C",
"t+	c #DADADC",
"u+	c #7A7A7C",
"v+	c #8A7A74",
"w+	c #AAA29C",
"x+	c #9A9A9C",
"y+	c #EAEAEC",
"z+	c #1A1A1C",
"A+	c #B2AEAC",
"B+	c #7A6A64",
"C+	c #9A8A84",
"D+	c #0A0A0C",
"E+	c #BAB2AC",
"F+	c #AAA6A4",
"G+	c #A29E9C",
"t.t.t.t.t.t.t.t.t.t.t.t.t.t.t.t.t.t.t.t.t.t.t.t.t.t.t.t.t.t.t.t.t.t.t.t.t.t.t.t.t.t.t.t.t.t.t.t.",
"t.t.t.t.t.t.t.t.t.t.t.t.t.t.t.t.t.t.t.t.t.t.t.t.t.t.t.t.t.t.t.t.t.t.t.t.t.t.t.t.t.t.t.t.t.t.t.t.",
"t.t.t.t.t.t.t.t.t.t.t.t.t.t.t.t.t.t.t.t.t.t.t.t.t.t.t.t.t.t.t.t.t.t.t.t.t.t.t.t.t.t.t.t.t.t.t.t.",
"t.t.t.t.t.t.t.t.t.t.t.t.t.t.t.t.t.t.t.t.t.t.t.t.t.t.t.t.t.t.t.t.4+z % = = = ) X t.t.t.t.t.t.t.t.",
"t.t.t.t.t.t.t.t.t.t.t.t.t.t.t.t.t.t.t.t.t.t.t.t+r+t.z t.t.t.t.t.. = = = = = = = t.t.t.t.t.t.t.t.",
"t.t.t.t.t.t.t.t.t.t.t.t.t.t.t.t.t.t.t.t.t.t.7 = = = t.t.t.t.t.%.= = = = = = = = t.t.t.t.t.t.t.t.",
"t.t.t.t.t.t.t.t.t.t.t.t.t.t.t.t.t.t.t.t.t.0.= = = = t.t.t.t.8.= = = = = = = = = t.t.t.t.t.t.t.t.",
"t.t.t.t.t.t.t.t.t.t.t.t.t.t.t.z 8.z t.t.t.= = = = ;.X t.t.t.) = = = = = = = = = t.t.t.t.t.t.t.t.",
"t.t.t.t.t.t.t.t.t.t.t.t.t.t.o+= = b+t.t.t.= = = = ;.z t.t.8.= = = = = = = = = & t.t.t.t.t.t.t.t.",
"t.t.t.t.t.t.t.t.t.t.t.t.t.t.= = = ;.t.t.t.= = = = = t.t.t.& = = = = = = = = = t.t.t.t.t.t.t.t.t.",
"t.t.t.t.t.t.t.t.t.t.t.t.t.t.= = = ;.*.t.t.7 = = = 2.t.t.t.e.= = = = = = = = y+t.t.t.t.t.t.t.t.t.",
"t.t.t.t.t.t.t.t.t.t.t.t.t.t.= = = = r+t.t.Z = = = o+t.t.t.} = = = = = = = -.t.t.t.t.t.t.t.t.t.t.",
"t.t.t.t.t.t.t.t.t.z +.t.t.t.e.= = = a+t.t.t.) = &.t.t.t.t.% = = = = = = y+t.t.t.t.t.t.t.t.t.t.t.",
"t.t.t.t.t.t.t.t.o+= = g.t.t.8.= = = t.t.t.t.t.y+t.t.t.t.t.z = = = = } z t.t.t.t.t.t.t.t.t.t.t.t.",
"t.t.t.t.t.t.t.t.5 = = z+p+t.t.b = = t.t.t.t.t.t.t.t.t.t.t.t.Z ) 5 d+t.t.t.t.t.t.t.t.t.t.t.t.t.t.",
"t.t.t.t.t.t.t.t.+ = = = } t.t.z X z t.t.t.t.t.t.t.t.t.t.t.t.t.t.t.t.t.t.t.t.t.t.t.t.t.t.t.t.t.t.",
"t.t.t.t.t.t.t.t.m+= = = = t.t.t.t.t.t.t.t.t.t.8.t+W b b %.d+z t.t.t.t.t.t.t.t.t.t.t.t.t.t.t.t.t.",
"t.t.t.t.t.t.t.t.z 2.= = = t.t.t.t.t.t.z %.} = ;.= = = = = = = = *.t.t.t.t.t.t.t.t.t.t.t.t.t.t.t.",
"t.t.t.t.t.t.t.t.t.t.7 = 7 t.t.t.t.o+<.= = = = = = = = = = = = = ;.=.t.t.t.t.t.t.t.t.t.t.t.t.t.t.",
"t.t.t.t.t.t.t.t.t.t.t.Y 8.t.t.z ; = = = = = = = = = = = = = = = = = -.t.t.t.t.t.t.t.t.t.t.t.t.t.",
"t.t.t.t.t.t.t.t.t.t.t.t.t.t.t.= = = = = = = = = = = = = = = = = = = % t.t.t.t.t.t.t.t.t.t.t.t.t.",
"t.t.t.t.t.t.t.t.t.t.t.t.t.8.= = = = = = = = = = = = = = = = = = = = s+t.t.t.t.t.t.t.t.t.t.t.t.t.",
"t.t.t.t.t.t.t.t.t.t.t.t.8.= = = = = = = = = = = = = = = = = = = = = y+t.t.t.t.t.t.t.t.t.t.t.t.t.",
"t.t.t.t.t.t.t.t.t.t.t.z 7 = = = = = = = = = = = = = = = = = = = = 7 t.t.t.t.t.t.t.t.t.t.t.t.t.t.",
"t.t.t.t.t.t.t.t.t.t.t.t+= = = = = = = = = = = = = = = = = = = ;.= z t.t.t.t.t.t.t.t.t.t.t.t.t.t.",
"t.t.t.t.t.t.t.t.t.t.t.} = = = = = = = = = = = = = = = = = = = = z t.t.t.t.t.t.t.t.t.t.t.t.t.t.t.",
"t.t.t.t.t.t.t.t.t.t.t.= = = = = = = = = = = = = = = = = = = = 8.t.t.t.t.t.t.t.t.t.t.t.t.t.t.t.t.",
"t.t.t.t.t.t.t.t.t.t.t.= = = = = = = = = = = = = = = = = = k.t.t.t.t.t.t.t.t.t.t.t.t.t.t.t.t.t.t.",
"t.t.t.t.t.t.t.t.t.t.t.= = = = = = = = = = = = = = ;.= 7 X t.t.t.t.t.t.t.t.t.t.t.t.t.t.t.t.t.t.t.",
"t.t.t.t.t.t.t.t.t.t.t.= = = = = = = = = = = = = = = a.t.t.t.t.t.t.t.t.t.t.t.t.t.t.t.t.t.t.t.t.t.",
"t.t.t.t.t.t.t.t.t.t.t.5 = = = = = = = = = = = = ) z t.t.t.t.t.t.t.t.t.t.t.t.t.t.t.t.t.t.t.t.t.t.",
"t.t.t.t.t.t.t.t.t.t.t.Z = = = = = = = = = = = + t.t.t.t.t.t.t.t.t.t.t.t.t.t.t.t.t.t.t.t.t.t.t.t.",
"t.t.t.t.t.t.t.t.t.t.t.t.= = = = = = = = = = 5 t.t.t.t.t.t.z . ) 7 ) a+t.t.t.t.t.t.t.t.t.t.t.t.t.",
"t.t.t.t.t.t.t.t.t.t.t.t.Z = = = = = = = = = z t.t.t.t.t.7 = = = = = = $.t.t.t.t.t.t.t.t.t.t.t.t.",
"t.t.t.t.t.t.t.t.t.t.t.t.t.) = = = = = = = 2.t.t.t.t.t.z = = = = = = = o+t.t.t.t.t.t.t.t.t.t.t.t.",
"t.t.t.t.t.t.t.t.t.t.t.t.t.z = = = = = = = = y+t.t.t.t.z = = = = = = z+t.t.t.t.t.t.t.t.t.t.t.t.t.",
"t.t.t.t.t.t.t.t.t.t.t.t.t.t.U = = = = = = = ;.o+t.t.t.b = = = = = = &.t.t.t.t.t.t.t.t.t.t.t.t.t.",
"t.t.t.t.t.t.t.t.t.t.t.t.t.t.t.x+= = = = = = = = :.f+&.= = = = = = = t.t.t.t.t.t.t.t.t.t.t.t.t.t.",
"t.t.t.t.t.t.t.t.t.t.t.t.t.t.t.t.; = = = = = = = = = = = = = = = = t+t.t.t.t.t.t.t.t.t.t.t.t.t.t.",
"t.t.t.t.t.t.t.t.t.t.t.t.t.t.t.t.t.& = = = = = = = = = = = = = = Y t.t.t.t.t.t.t.t.t.t.t.t.t.t.t.",
"t.t.t.t.t.t.t.t.t.t.t.t.t.t.t.t.z z -.7 = = = = = = = = = = = x+t.t.t.t.t.t.t.t.t.t.t.t.t.t.t.t.",
"t.t.t.t.t.t.t.t.t.t.t.t.t.t.t.t.t.t.t.t.f+7 = = = = = = = ) o+t.t.t.t.t.t.t.t.t.t.t.t.t.t.t.t.t.",
"t.t.t.t.t.t.t.t.t.t.t.t.t.t.t.t.t.t.t.t.t.t.t.+.b+} ; W z t.t.t.t.t.t.t.t.t.t.t.t.t.t.t.t.t.t.t.",
"t.t.t.t.t.t.t.t.t.t.t.t.t.t.t.t.t.t.t.t.t.t.t.t.t.t.t.t.t.t.t.t.t.t.t.t.t.t.t.t.t.t.t.t.t.t.t.t.",
"t.t.t.t.t.t.t.t.t.t._     * t.@.t.t.t.@.t.t.:   ;.t.t.t.@.t.t.t.t.t.@.@.@.@.t.t.t.t.t.t.t.t.t.t.",
"t.t.t.t.t.t.t.t.t.5   _ _   t.  b t.t.  t.h.  t.7   t.t.  t.t.m.t.t.  : : : t.t.t.t.t.t.t.t.t.t.",
"t.t.t.t.t.t.t.t.t.  t.t.t.t.t.    t.t.  t.  t.t.t.  t.t.  c.t.  b.t.  t.t.t.t.t.t.t.t.t.t.t.t.t.",
"t.t.t.t.t.t.t.t.t.  t.t.c.c.t.  c   t.  t.  t.t.t.  W t.    t.    t.      & t.t.t.t.t.t.t.t.t.t.",
"t.t.t.t.t.t.t.t.t.  t.t.@   t.  t.7     t.  t.t.t.  * <.c.  e..   t.  t.t.t.t.t.t.t.t.t.t.t.t.t.",
"t.t.t.t.t.t.t.t.t.  7 t.t.  t.  t.t.    t.  7 t.t.  t.  z h.  t.  t.  t.t.t.t.t.t.t.t.t.t.t.t.t.",
"t.t.t.t.t.t.t.t.t.t.        t.  t.t.t.  t.t.      * t.  t.t.  t.  z         t.t.t.t.t.t.t.t.t.t.",
"t.t.t.t.t.t.t.t.t.t.t.t.t.t.t.t.t.t.t.t.t.t.t.t.t.t.t.t.t.t.t.t.t.t.t.t.t.t.t.t.t.t.t.t.t.t.t.t.",
"t.t.t.t.t.t.t.t.t.t.t.t.t.t.t.t.t.t.t.t.t.t.t.t.t.t.t.t.t.t.t.t.t.t.t.t.t.t.t.t.t.t.t.t.t.t.t.t.",
"t.t.t.t.t.t.t.t.t.t.t.t.t.t.t.t.t.t.t.t.t.t.t.t.t.t.t.t.t.t.t.t.t.t.t.t.t.t.t.t.t.t.t.t.t.t.t.t.",
"t.t.t.t.t.t.t.t.t.t.t.t.t.t.t.t.t.t.t.t.t.t.t.t.t.t.t.t.t.t.t.t.t.t.t.t.t.t.t.t.t.t.t.t.t.t.t.t."};
