/* XPM */
static char *kde[] = {
/* columns rows colors chars-per-pixel */
"16 16 251 2",
"   c #39FE5CE2B448",
".  c #3C745F74B5EF",
"X  c #387C6779BA5C",
"o  c #3CFF67A9BE61",
"O  c #35CE6875BC2F",
"+  c #3DC369AABB1C",
"@  c #3D4369B6BFE7",
"#  c #505366C9AE02",
"$  c #530C6B44B001",
"%  c #54CC69EBAF2D",
"&  c #423C670ABA44",
"*  c #4328697BBB22",
"=  c #44E4689BBA65",
"-  c #446B68F5BB76",
";  c #42BC69BCBD5B",
":  c #41316A88BEEC",
">  c #3FC46A74BFBB",
",  c #54A86E11B134",
"<  c #5A3B6F5CB19E",
"1  c #563E70D2B23D",
"2  c #50D3764DB26F",
"3  c #548476B6B2D4",
"4  c #53F577C2B41D",
"5  c #5A6F7087B1E4",
"6  c #5AF071C2B28C",
"7  c #57EB7337B36B",
"8  c #5AA772A7B29B",
"9  c #5A8E73C5B26A",
"0  c #5AAA7485B2DB",
"q  c #5AB175EFB348",
"w  c #5AF0768BB35C",
"e  c #5B2977B0B3AC",
"r  c #59C875BFB44F",
"t  c #56097A4FB482",
"y  c #57BB7D02B535",
"u  c #5B1D793AB3CC",
"i  c #5B5D79B3B438",
"p  c #5B507AECB461",
"a  c #5BFD7871B5BC",
"s  c #5CCC7AEDB68D",
"d  c #5CF67A64B654",
"f  c #5CD07B87B725",
"g  c #59467D01B622",
"h  c #59F87F2EB61E",
"j  c #5C927C5EB710",
"k  c #5C377CF9B758",
"l  c #5BE37DA7B743",
"z  c #3D8A6B25C15B",
"x  c #3DD67081C60F",
"c  c #3E3E7216C7A5",
"v  c #3DFC7C04C77F",
"b  c #3E3E7637CBDD",
"n  c #3F507B76D0B2",
"m  c #3EFA7C7ED212",
"M  c #41187453C1EB",
"N  c #466275BCC70E",
"B  c #4A4670BCC08C",
"V  c #44F17D95CFB0",
"C  c #4AF87B1DC9F2",
"Z  c #4B9B7F90CE4F",
"A  c #52F87EF6CBB5",
"S  c #56208617B80E",
"D  c #5BE981D3B6C1",
"F  c #5E0083ECB7EF",
"G  c #5B248907B923",
"H  c #5FA388AAB9B4",
"J  c #5E5589C5BA24",
"K  c #5F028900BA91",
"L  c #5EB78958BA4F",
"P  c #62D785C8BA31",
"I  c #5FFE8671B8FD",
"U  c #600787D6B991",
"Y  c #62638791BA1E",
"T  c #62CB84E6BA41",
"R  c #62C68674BA3B",
"E  c #608D8814B9B7",
"W  c #620588A5BAAA",
"Q  c #61F9896FBAEA",
"!  c #624C8A93BAC3",
"~  c #62D78BC8BB59",
"^  c #63B08DF2BB35",
"/  c #63338C7CBB62",
"(  c #3F6982B7D7E5",
")  c #3F0C8C45DBEB",
"_  c #4D5B8753CB93",
"`  c #48678840CD2A",
"'  c #5E028FB1CED9",
"]  c #40828102D5C7",
"[  c #44B582FDD553",
"{  c #4DA88E5ED0AF",
"}  c #40B98766DC7B",
"|  c #414688EEDDD8",
" . c #460E8D34DF87",
".. c #45609616DFEF",
"X. c #493C9685DE2F",
"o. c #4CE597B1DF80",
"O. c #5E219B31D626",
"+. c #5C799B32D68E",
"@. c #52729812DCAF",
"#. c #5A199719DF9E",
"$. c #529E9C8CDF31",
"%. c #5E4D9BAFDAEA",
"&. c #6B2189C3C934",
"*. c #6E329C3FD45C",
"=. c #62479A0BDAED",
"-. c #67599F2ADB19",
";. c #647798EBDD09",
":. c #64CC9A9ADE68",
">. c #6EDF9D18DBFE",
",. c #6A919D9CDEE9",
"<. c #6B3DA000E01E",
"1. c #73639AAAD6EB",
"2. c #7DBA9C5ED1F0",
"3. c #7DAC9CEFD4C3",
"4. c #6EA5A217DADE",
"5. c #741CA943DC3F",
"6. c #7B02ACA7DD02",
"7. c #5484965DE24E",
"8. c #57CC9D62E268",
"9. c #679AA75DE0A5",
"0. c #6C40A271E1C0",
"q. c #6EC2A534E537",
"w. c #6C8FA6CCE49D",
"e. c #6FE7A909E207",
"r. c #74D3A73FE31B",
"t. c #7B3AA938E249",
"y. c #7B06AAA5E3D4",
"u. c #7DD7AB7BE383",
"i. c #7DB4AD6FE613",
"p. c #7CDDAF53E83A",
"a. c #7DD9B4D0E20B",
"s. c #9726A1BFCB5C",
"d. c #9BECACE6CCF7",
"f. c #9C2EACDECD18",
"g. c #8CFCAA3AD856",
"h. c #856AAD06DBCE",
"j. c #8622AC6DDB01",
"k. c #83D8ABF4DCD6",
"l. c #81F9AECEDDB4",
"z. c #844AADC1DCA4",
"x. c #8B85AC0EDA42",
"c. c #8C1AAB1DD900",
"v. c #8EFFAA60D899",
"b. c #89B9AD00DA72",
"n. c #908EAC07D947",
"m. c #9097AC96D9F2",
"M. c #90B9AD41DA4E",
"N. c #90B9ADB7DAAF",
"B. c #8E03B396DE3D",
"V. c #99F6B5A8DF5D",
"C. c #9EC1B51FDD88",
"Z. c #A33BB87FCF1D",
"A. c #829BB420E270",
"S. c #82CCB613E41E",
"D. c #8369B5AEE3A7",
"F. c #8320B65FE449",
"G. c #80BCB3B3E4D1",
"H. c #86A2B78AE47F",
"J. c #88C2B50CE17D",
"K. c #8DE1B622E072",
"L. c #8A84B2D2E51E",
"P. c #8C48BBBFE74E",
"I. c #8046B14EE9B3",
"U. c #8576B4CEEA82",
"Y. c #86DCB579EAF9",
"T. c #8C2FB94FEB73",
"R. c #93A3BB2FE34B",
"E. c #94F0B8ABE623",
"W. c #97FFB883E55B",
"Q. c #916BBE56E784",
"!. c #9684BD0AEB80",
"~. c #90C8BB3CECA7",
"^. c #9D5CBF87E960",
"/. c #9880C004EDE5",
"(. c #9F53C53AEAE9",
"). c #9B90C27BEE61",
"_. c #A40CC2C6E831",
"`. c #A306C542E7F2",
"'. c #A307C67DE7FE",
"]. c #A9A6C3F0E846",
"[. c #A32CC396EAA8",
"{. c #A4EFC362E9B6",
"}. c #A1F6C711E8A8",
"|. c #A383C4A7EB90",
" X c #A055C571EF97",
".X c #A4FCC883EA24",
"XX c #A53FC937EAB7",
"oX c #A538C9EAEB31",
"OX c #A8B8C87EE87A",
"+X c #AF8DC994EB3E",
"@X c #A838C964F036",
"#X c #B1F6C842E7E9",
"$X c #B2D2C758E86D",
"%X c #B165CA8EEB55",
"&X c #A6F6D094EE58",
"*X c #B6A0D276EC5F",
"=X c #BBDED224EE54",
"-X c #A972CAD9F11C",
";X c #AFA0CE84F22A",
":X c #B3DBD108F265",
">X c #B728D39EF362",
",X c #B83DD3DFF394",
"<X c #BE5BD721F07D",
"1X c #C8C4D8D7EE43",
"2X c #D05ADD0FEFD8",
"3X c #C3E2D893F12D",
"4X c #CD17DD83F21E",
"5X c #CFCFDF40F28D",
"6X c #D63CE02DF11B",
"7X c #D60AE05EF17A",
"8X c #CABAE259F419",
"9X c #CD3CE0C9F224",
"0X c #CC61E460F555",
"qX c #CFF4E4D9F521",
"wX c #D339E300F33B",
"eX c #D52DE0F0F1A9",
"rX c #D517E50BF427",
"tX c #D469E6BAF61D",
"yX c #DB3DE58EF3C0",
"uX c #DB9FE6A5F455",
"iX c #DBADE7FFF6C4",
"pX c #DE80E82AF556",
"aX c #D7B8E9C5F748",
"sX c #DC54E9CBF6F9",
"dX c #DC08EB96F79D",
"fX c #DD36EA40F686",
"gX c #E153ECA9F7BF",
"hX c #E2CDECA3F6DD",
"jX c #E4AFEDD8F7D8",
"kX c #E281EF22F926",
"lX c #E615F18EFA05",
"zX c #E6F4F1A8FA10",
"xX c #E8BCF20FFA54",
"cX c #EB3BF427FB97",
"vX c #ED0EF59FFC53",
"bX c #EE28F653FC65",
"nX c #EF34F616FC0B",
"mX c #EF80F5CBFBCA",
"MX c #EF1EF6CAFC8F",
"NX c #F06CF726FC81",
"BX c #F123F656FC22",
"VX c #F078F6BBFC16",
"CX c #F42AF7CDFC3C",
"ZX c #F385F823FCD3",
"AX c #F469F947FD46",
"SX c #F496F97EFD65",
"DX c #F784FA7EFDD9",
"FX c #FBA8FCDAFEA0",
"GX c #FD77FDA0FEA4",
"HX c #FE0DFED0FF75",
"JX c #FF74FFAFFFCA",
/* pixels */
"s.% < 5 5 5 0 0 0 0 u u u g 3 d.",
"# 2.M.M.n.n.g.g.x.x.b.j.j.j.*.2 ",
", k.oXoXoX.XOXfX9X.X}.8X0X&X5.t ",
", 4.F.S.S.S.R.cXrXz.*XaXqXa.O.y ",
", %.9.Q.tXH.J.MXwXB.kXdX6.O.` D ",
"5 @.$.P.HXSX[.ZXgXgXzXB._ ` v F ",
"r o...X.dXa.-.DXSXMXzX' M X O F ",
"a 8.e.(.<X) =.FXeX#XMX1X* . + F ",
"d w.uXvX X .;.GXeXZ pXMXC.. * I ",
"f p.L.$X=X7.,.GX7XV 1.MXMX&.= I ",
"f T.Y.i.yXt.=.W.>.[ _.V.k.; = K ",
"f )./.].xXjX^.0.r.3XHX4XB @ ; K ",
"k -X-X$X6XE.+XZXiX0.{.5XC z M F ",
"k >X>X-X/.Y.t.ZX X( [ V z z z K ",
"4 :X;X X~.I.q.t.#.} ( m n z A S ",
"d.a T I P I I ~ I ~ ~ ~ ~ / G Z."
};
