/* XPM */
static char * linux_xpm[] = {
"50 38 635 2",
"  	c #FFFFFF",
". 	c #FEFEFE",
"+ 	c #FDFDFD",
"@ 	c #FCFCFC",
"# 	c #FAFAFA",
"$ 	c #E7E7E7",
"% 	c #CECECE",
"& 	c #E0E0E0",
"* 	c #FBFBFB",
"= 	c #D2D2D2",
"- 	c #454545",
"; 	c #030303",
"> 	c #040404",
", 	c #212121",
"' 	c #8E8E8E",
") 	c #F3F3F3",
"! 	c #D3D3D3",
"~ 	c #101010",
"{ 	c #020202",
"] 	c #1B1B1B",
"^ 	c #3C3C3C",
"/ 	c #F0F0F0",
"( 	c #505050",
"_ 	c #010101",
": 	c #000000",
"< 	c #2E2E2E",
"[ 	c #434343",
"} 	c #0B0B0B",
"| 	c #666666",
"1 	c #EFEFEF",
"2 	c #080808",
"3 	c #050505",
"4 	c #DEDEDE",
"5 	c #CACACA",
"6 	c #060606",
"7 	c #0F0F0F",
"8 	c #090909",
"9 	c #111111",
"0 	c #9C9C9C",
"a 	c #C2C2C2",
"b 	c #0A0A0A",
"c 	c #757575",
"d 	c #404040",
"e 	c #797979",
"f 	c #ABABAB",
"g 	c #343434",
"h 	c #FEFEFD",
"i 	c #FCFDFD",
"j 	c #CBCBCA",
"k 	c #444545",
"l 	c #949395",
"m 	c #BEBDBB",
"n 	c #090703",
"o 	c #555352",
"p 	c #BAB8B8",
"q 	c #7E7D7D",
"r 	c #AAAAAA",
"s 	c #030305",
"t 	c #020103",
"u 	c #686868",
"v 	c #FEFEFF",
"w 	c #FFFEF9",
"x 	c #F9FEFD",
"y 	c #D5DBD3",
"z 	c #606060",
"A 	c #201824",
"B 	c #8B7E6A",
"C 	c #43350E",
"D 	c #75673F",
"E 	c #655950",
"F 	c #181211",
"G 	c #BCBCB5",
"H 	c #03030D",
"I 	c #020109",
"J 	c #5D5D5E",
"K 	c #FDFEFF",
"L 	c #FFFEFB",
"M 	c #FEFFFA",
"N 	c #FBFCFD",
"O 	c #EEEBEB",
"P 	c #382E22",
"Q 	c #897649",
"R 	c #A9891C",
"S 	c #D5B51E",
"T 	c #CAAA20",
"U 	c #B29B2B",
"V 	c #69601D",
"W 	c #AAA88C",
"X 	c #010302",
"Y 	c #020501",
"Z 	c #515151",
"` 	c #FDFFFC",
" .	c #FEFDFF",
"..	c #FEFFF3",
"+.	c #FDFAFC",
"@.	c #FBEFF8",
"#.	c #321B07",
"$.	c #B3951E",
"%.	c #E4B306",
"&.	c #EEC410",
"*.	c #F8D62D",
"=.	c #F2D42A",
"-.	c #E6C829",
";.	c #B29738",
">.	c #100400",
",.	c #020400",
"'.	c #333333",
").	c #FFFEFA",
"!.	c #FFFCFF",
"~.	c #FDFEFE",
"{.	c #FCFFF3",
"].	c #FCFCFB",
"^.	c #FFF4FF",
"/.	c #3E240C",
"(.	c #B7971A",
"_.	c #EEBD11",
":.	c #F5CB1D",
"<.	c #F0D021",
"[.	c #DCB718",
"}.	c #CA9F14",
"|.	c #A87F2C",
"1.	c #140001",
"2.	c #19171B",
"3.	c #E1E1E1",
"4.	c #FFFBFF",
"5.	c #F9FFF9",
"6.	c #F7FDFD",
"7.	c #FBF8FE",
"8.	c #1B0B04",
"9.	c #A18943",
"0.	c #B99118",
"a.	c #D2A60C",
"b.	c #C59107",
"c.	c #BB8F19",
"d.	c #BDA653",
"e.	c #B5AC8E",
"f.	c #080708",
"g.	c #4C4C55",
"h.	c #282829",
"i.	c #808080",
"j.	c #FFFDF9",
"k.	c #FFFDFF",
"l.	c #FEFCFF",
"m.	c #F4FDFB",
"n.	c #BDC3C4",
"o.	c #151213",
"p.	c #CBBEB5",
"q.	c #AC9764",
"r.	c #A88A30",
"s.	c #B1883D",
"t.	c #C7A679",
"u.	c #DDD4B3",
"v.	c #EAF2DF",
"w.	c #4C524D",
"x.	c #101012",
"y.	c #131313",
"z.	c #E2E2E2",
"A.	c #FEFFFE",
"B.	c #E8EEE9",
"C.	c #383F3C",
"D.	c #696D70",
"E.	c #EEEAEF",
"F.	c #C6BCB7",
"G.	c #BCB8A2",
"H.	c #C6C4AD",
"I.	c #E4DEDD",
"J.	c #FCF7F8",
"K.	c #FEFAFA",
"L.	c #CFC8D1",
"M.	c #090705",
"N.	c #656565",
"O.	c #FEFFFD",
"P.	c #FBFFFB",
"Q.	c #FCFCFF",
"R.	c #FCF9F6",
"S.	c #676862",
"T.	c #181B18",
"U.	c #E4E7E3",
"V.	c #FEFEF8",
"W.	c #EDE4EA",
"X.	c #DEDADD",
"Y.	c #EBEFF4",
"Z.	c #F8FEFE",
"`.	c #FDFEF4",
" +	c #FCFAFC",
".+	c #FEFAFF",
"++	c #454643",
"@+	c #020201",
"#+	c #B6B6B6",
"$+	c #FBFDFC",
"%+	c #FDFDFE",
"&+	c #FEFDFE",
"*+	c #959392",
"=+	c #060605",
"-+	c #737472",
";+	c #FAFAF9",
">+	c #FCFCF9",
",+	c #FDFBFC",
"'+	c #FBFAFC",
")+	c #FDFFFD",
"!+	c #FCFDF8",
"~+	c #F9F9F9",
"{+	c #868785",
"]+	c #CDCDCD",
"^+	c #CCCCCC",
"/+	c #8D8D8D",
"(+	c #ECECEC",
"_+	c #EEEEEE",
":+	c #DCDCDC",
"<+	c #B5B5B5",
"[+	c #2D2D2D",
"}+	c #EBEBEB",
"|+	c #616161",
"1+	c #1A1A1A",
"2+	c #F6F6F6",
"3+	c #F4F4F4",
"4+	c #E5E5E5",
"5+	c #D1D1D1",
"6+	c #818181",
"7+	c #0D0D0D",
"8+	c #141414",
"9+	c #8C8C8C",
"0+	c #F7F7F7",
"a+	c #1F1F1F",
"b+	c #121212",
"c+	c #858585",
"d+	c #F5F5F5",
"e+	c #DADADA",
"f+	c #222222",
"g+	c #2A2A2A",
"h+	c #BFBFBF",
"i+	c #1C1C1C",
"j+	c #EDEDED",
"k+	c #737373",
"l+	c #191919",
"m+	c #C6C6C6",
"n+	c #5E5E5E",
"o+	c #171717",
"p+	c #A7A7A7",
"q+	c #0E0E0E",
"r+	c #7B7B7B",
"s+	c #D0D0D0",
"t+	c #070707",
"u+	c #464646",
"v+	c #515051",
"w+	c #F7F7F8",
"x+	c #FEFDFD",
"y+	c #FFFFFE",
"z+	c #D4D4D3",
"A+	c #000100",
"B+	c #252526",
"C+	c #FFFEFF",
"D+	c #FFFFFA",
"E+	c #F9FEF8",
"F+	c #F7FEF4",
"G+	c #FAFDFD",
"H+	c #F2F1F1",
"I+	c #0B0407",
"J+	c #191817",
"K+	c #2E3335",
"L+	c #F6FAFC",
"M+	c #FCFDFE",
"N+	c #FDFBFA",
"O+	c #FFFCFA",
"P+	c #FBFAF7",
"Q+	c #F0F0F1",
"R+	c #FEFEFC",
"S+	c #F7FEFE",
"T+	c #D8D9CB",
"U+	c #010400",
"V+	c #130D13",
"W+	c #030203",
"X+	c #000701",
"Y+	c #24212A",
"Z+	c #FDFBFF",
"`+	c #FFFEFD",
" @	c #FEFFFF",
".@	c #FBFFFF",
"+@	c #FAFFFE",
"@@	c #FCFFFD",
"#@	c #FFFFFD",
"$@	c #FEFFF9",
"%@	c #FFFFFB",
"&@	c #FCFEFF",
"*@	c #F6FBFC",
"=@	c #F8FEFA",
"-@	c #FCFBFF",
";@	c #F4EDE9",
">@	c #38220B",
",@	c #45380C",
"'@	c #383122",
")@	c #F8F6F6",
"!@	c #FCFBFE",
"~@	c #FBFBFC",
"{@	c #FDFAFD",
"]@	c #F9F6F8",
"^@	c #F3F3F4",
"/@	c #FDFDFB",
"(@	c #FDFAF5",
"_@	c #C4B9AF",
":@	c #0E0E0C",
"<@	c #0C0A18",
"[@	c #080D0F",
"}@	c #131E11",
"|@	c #443D3F",
"1@	c #FDFBF8",
"2@	c #FFFEFC",
"3@	c #FFFDFE",
"4@	c #FCFFFF",
"5@	c #FDFFF6",
"6@	c #FCFAFE",
"7@	c #FEFAF5",
"8@	c #FFF9F2",
"9@	c #F6EAC5",
"0@	c #D1A838",
"a@	c #E2BC3A",
"b@	c #7E5F15",
"c@	c #947F77",
"d@	c #F6F4F4",
"e@	c #F6FDFD",
"f@	c #F9F6FF",
"g@	c #F2F2F5",
"h@	c #FEFDEE",
"i@	c #EBD47C",
"j@	c #C7A65C",
"k@	c #0A0202",
"l@	c #010510",
"m@	c #010606",
"n@	c #212213",
"o@	c #8F8056",
"p@	c #FDFDF0",
"q@	c #FFFEFE",
"r@	c #FDFFFF",
"s@	c #FEFFF5",
"t@	c #FFFDF8",
"u@	c #FAF4DE",
"v@	c #E4D496",
"w@	c #E8D284",
"x@	c #D2B247",
"y@	c #EBB513",
"z@	c #F8BA26",
"A@	c #EBB828",
"B@	c #5F3E10",
"C@	c #696260",
"D@	c #E1EBE6",
"E@	c #FBFAFB",
"F@	c #F8F7F9",
"G@	c #FDFDFF",
"H@	c #FCF8E2",
"I@	c #DEB62A",
"J@	c #D19C1C",
"K@	c #1A0303",
"L@	c #04040A",
"M@	c #070402",
"N@	c #422D02",
"O@	c #D5BA3E",
"P@	c #F8F5D1",
"Q@	c #FFFCF0",
"R@	c #D5BD7F",
"S@	c #D3B22C",
"T@	c #DDB319",
"U@	c #E6B714",
"V@	c #F7BD11",
"W@	c #FBB71C",
"X@	c #F9BC16",
"Y@	c #CEAA20",
"Z@	c #1D0F02",
"`@	c #393F35",
" #	c #D2D6D3",
".#	c #D9D3BD",
"+#	c #DDB025",
"@#	c #DA9B0E",
"##	c #6A4602",
"$#	c #392602",
"%#	c #583B03",
"&#	c #BE8F0F",
"*#	c #EDBC21",
"=#	c #F1E3AD",
"-#	c #FFFBF9",
";#	c #FDFFFE",
">#	c #FEFFFB",
",#	c #FFFEF5",
"'#	c #FFF9F4",
")#	c #D8B76A",
"!#	c #E7BB15",
"~#	c #F6BE0D",
"{#	c #F4BD16",
"]#	c #F9BD0F",
"^#	c #F9BC11",
"/#	c #E9C110",
"(#	c #826B1A",
"_#	c #0B0201",
":#	c #242024",
"<#	c #E7E2E6",
"[#	c #FCFCFA",
"}#	c #D1CCB6",
"|#	c #CBA41D",
"1#	c #E7A90B",
"2#	c #C99E02",
"3#	c #BE9609",
"4#	c #D39E11",
"5#	c #F8B80E",
"6#	c #FAB816",
"7#	c #E5C75B",
"8#	c #FDF3CD",
"9#	c #FFFDEE",
"0#	c #F8FCFB",
"a#	c #F9FFFF",
"b#	c #FFFFFC",
"c#	c #FBFFFC",
"d#	c #FFFEF7",
"e#	c #FFF9F7",
"f#	c #DCC179",
"g#	c #E4B310",
"h#	c #FABC10",
"i#	c #FBB91F",
"j#	c #F3BE15",
"k#	c #F7BF0C",
"l#	c #FABE12",
"m#	c #F3C014",
"n#	c #DBB91A",
"o#	c #402609",
"p#	c #120706",
"q#	c #BDBAC3",
"r#	c #B1AB9A",
"s#	c #BB9318",
"t#	c #F0B40E",
"u#	c #E9B60C",
"v#	c #E8B00A",
"w#	c #F0B112",
"x#	c #FBBA1C",
"y#	c #FEBD11",
"z#	c #EBBF1B",
"A#	c #EAC863",
"B#	c #FCF0BB",
"C#	c #FEFEF6",
"D#	c #F9FEFF",
"E#	c #FFFFF6",
"F#	c #FFFFF9",
"G#	c #F9FFFC",
"H#	c #FFFCF5",
"I#	c #D9C17B",
"J#	c #E3B312",
"K#	c #F8BD0F",
"L#	c #FBBD1B",
"M#	c #F6BE0E",
"N#	c #F7BC1A",
"O#	c #FAB91D",
"P#	c #FBBB17",
"Q#	c #F3C113",
"R#	c #B3931C",
"S#	c #ADA181",
"T#	c #F7F9FA",
"U#	c #B4B4B2",
"V#	c #241D12",
"W#	c #BC8E11",
"X#	c #F5B808",
"Y#	c #F3BD13",
"Z#	c #F9BB1D",
"`#	c #F5BC17",
" $	c #F0C117",
".$	c #F7BD13",
"+$	c #F0BB23",
"@$	c #DFBD63",
"#$	c #FFFCE7",
"$$	c #FBFDFF",
"%$	c #FFFFF3",
"&$	c #FAFEFF",
"*$	c #FFFBEE",
"=$	c #D4B150",
"-$	c #EAB40E",
";$	c #FBB913",
">$	c #FCBA1C",
",$	c #FCBB10",
"'$	c #FBBE17",
")$	c #F7B917",
"!$	c #FBBC1B",
"~$	c #F6BA15",
"{$	c #E5BC18",
"]$	c #B8A25A",
"^$	c #F5F1EC",
"/$	c #FEFCFE",
"($	c #F8F9FA",
"_$	c #E5E6E7",
":$	c #747272",
"<$	c #0F0B08",
"[$	c #211500",
"}$	c #BE8F0C",
"|$	c #F1BA10",
"1$	c #F2BE0B",
"2$	c #F7BE14",
"3$	c #F5BF11",
"4$	c #F1C010",
"5$	c #F7BB17",
"6$	c #F3B91D",
"7$	c #D6B339",
"8$	c #E4CF88",
"9$	c #FFFDEC",
"0$	c #FFFFF8",
"a$	c #FEF2DA",
"b$	c #B89723",
"c$	c #E9B60E",
"d$	c #F4B60F",
"e$	c #F9BB13",
"f$	c #FCBB12",
"g$	c #F5BD07",
"h$	c #F6C011",
"i$	c #F8BB1C",
"j$	c #F8BA12",
"k$	c #E8B610",
"l$	c #9F7F16",
"m$	c #4B392B",
"n$	c #797275",
"o$	c #838285",
"p$	c #767777",
"q$	c #4E5253",
"r$	c #131316",
"s$	c #040101",
"t$	c #080100",
"u$	c #2B1C03",
"v$	c #BF8E08",
"w$	c #F1B71D",
"x$	c #F8BB16",
"y$	c #FABE0D",
"z$	c #E8B613",
"A$	c #DCB02F",
"B$	c #DCB654",
"C$	c #ECE4AA",
"D$	c #FFFDE0",
"E$	c #FEFBF8",
"F$	c #FCFFFE",
"G$	c #FFFAE1",
"H$	c #C9B363",
"I$	c #BA9422",
"J$	c #BC9312",
"K$	c #C59E0C",
"L$	c #D5A116",
"M$	c #E0AF12",
"N$	c #EAB713",
"O$	c #F4B918",
"P$	c #DCA905",
"Q$	c #97750D",
"R$	c #2B1804",
"S$	c #090305",
"T$	c #060507",
"U$	c #040504",
"V$	c #050708",
"W$	c #040407",
"X$	c #0A0809",
"Y$	c #0A0502",
"Z$	c #2F2208",
"`$	c #B58006",
" %	c #E9A919",
".%	c #F7B319",
"+%	c #F4B30F",
"@%	c #DDA80E",
"#%	c #C4A02B",
"$%	c #E7D797",
"%%	c #FEFCE4",
"&%	c #FDFBE6",
"*%	c #FFFDF7",
"=%	c #FDFCFF",
"-%	c #FBFFFD",
";%	c #FEFEF9",
">%	c #FFFBED",
",%	c #FFF6E0",
"'%	c #EBDBB9",
")%	c #CAB882",
"!%	c #AF8D4B",
"~%	c #987517",
"{%	c #AC850F",
"]%	c #C08F0E",
"^%	c #C99409",
"/%	c #A67B00",
"(%	c #6F510C",
"_%	c #685553",
":%	c #A19DA1",
"<%	c #B7B6B7",
"[%	c #B8B9B6",
"}%	c #B6B8B7",
"|%	c #B7B7BB",
"1%	c #B2B0B1",
"2%	c #A6A39E",
"3%	c #70654F",
"4%	c #92630C",
"5%	c #C18A0F",
"6%	c #CF990A",
"7%	c #C28D0E",
"8%	c #B18637",
"9%	c #F5E8C7",
"0%	c #F3FDFA",
"a%	c #FDFAFE",
"b%	c #FCFDFF",
"c%	c #FEFBFF",
"d%	c #FEFCFA",
"e%	c #FDF5D3",
"f%	c #D2C195",
"g%	c #9F7C4A",
"h%	c #734C10",
"i%	c #715317",
"j%	c #BDAD8D",
"k%	c #FFFAFE",
"l%	c #FEFEFB",
"m%	c #FCFCFD",
"n%	c #FDFCFD",
"o%	c #F2EDDF",
"p%	c #927342",
"q%	c #79590E",
"r%	c #7E630C",
"s%	c #9D8545",
"t%	c #F6E8D8",
"u%	c #FFF8FF",
"v%	c #F6FEF8",
"w%	c #FFFFF7",
"x%	c #FCFFFB",
"y%	c #FBFFF9",
"z%	c #FAFFF6",
"A%	c #F9FFFD",
"B%	c #F8FFFB",
"C%	c #FCFEFA",
"D%	c #FFFAFB",
"E%	c #FFF7FB",
"F%	c #FFF2EE",
"G%	c #FFF7E8",
"H%	c #FFFEF3",
"I%	c #FDFEFD",
"J%	c #FFFEF8",
"K%	c #FFFCEF",
"L%	c #F7F0DD",
"M%	c #F6F4DF",
"N%	c #FBFFF1",
"O%	c #FCFEFD",
"P%	c #FFFCFE",
"Q%	c #FFFCFC",
"R%	c #FDFFFB",
"                      . . . . . . . . . . + @ # + $ % & * * + * . . . . . . . . . . .               ",
"                      . . . . . . . . . @ @ # = - ; ; > , ' ) @ . . . . . . . . . . .               ",
"                      . . . . . . . . . * + ! ~ ; { ; { ] , ^ / . . . . . . . . . . .               ",
"                      . . . . . . . . . + @ ( _ _ { : _ < [ } | . . . . . . . . . .                 ",
"                      . . . . . . . . . * 1 2 > _ 3 { { 2 3 _ 2 4 + . + . . . . . .                 ",
"                      . . . . . . . . . + 5 { 6 7 { 3 ; 8 9 { _ 0 . @ + . . . . . . .               ",
"                      . . . . . . . . . + a b c d > 7 e f g { { e * . + . . . . . .                 ",
"                      . . . . . . h h . i j k l m n o p q r s t u . @ + . . . . . . .               ",
"                      . . . . . v w w v x y z A B C D E F G H I J . * + . . . . . .                 ",
"                      . . . . . K h L M N O P Q R S T U V W X Y Z + . . . . . . . .                 ",
"                      . . . . h `  .h ..+.@.#.$.%.&.*.=.-.;.>.,.'.. @ + . . . . . . .               ",
"                      . . . . h ).!.~.{.].^./.(._.:.<.[.}.|.1.2.b 3.. @ . . . . . . .               ",
"                      . . . . h w 4.v 5.6.7.8.9.0.a.b.c.d.e.f.g.h.i.. . . . . . . . .               ",
"                      . . . . h j.k.l.x m.n.o.p.q.r.s.t.u.v.w.x.~ y.z.@ . . . . . .                 ",
"                      . . . . h M l.!.A.B.C.D.E.F.G.H.I.J.K.L.M.{ ; N.+ . . . . . .                 ",
"                      . . . . O.P.Q.!.R.S.T.U.V.W.X.Y.Z.`. +.+++@+_ 2 #+. . . . . .                 ",
"                      . . . . . $+%+&+*+=+-+;+>+,+'+%+)+!+%+~+{+{ { { ] ]++ . + . .                 ",
"                      . . . . . @ * ^+7 3 /+(+* ) _+# * 1 :+= <+9 2 ; { [+}+* + . .                 ",
"                      . . . . . @ + |+8 1+]+2+* # ~+. + # 3+4+5+6+7+8+; > 9++ + . .                 ",
"                      . . . . . + 0+a+b+c+~++ + + . . . + @ @ d+e+f+1+7 ; g+~++ . .                 ",
"                      . . . . . + h+8+i+j+  . + # + + . . . + + # k+, l+{ ; m++ . .                 ",
"                      . . . . . @ n+o+e @ . . . 3+. + . . . . . . p+{ q+b _ r+. . . .               ",
"                      . . . . . = b+7+s+. . . . 1   + . . . . . + m+; b t+{ u+. . . .               ",
"                      . h h . . v+b+8+w+. x+y+* _+. . . . . . . i z+: 9 ; A+B+. . . C+              ",
"              y+D+C+y+)+E+F+G+H+I+J+K+L+M+N+O+P+Q+%+  + + . R+~.S+T+U+V+W+X+Y+Z+L `+k. @.@+@@@#@    ",
"              y+$@C+%@&@*@=@-@;@>@,@'@)@!@~@{@]@^@v + . . + /@R+(@_@:@<@[@}@|@1@M 2@3@  4@.@)+#@    ",
"                @@4@5@K 6@7@8@9@0@a@b@c@d@e@.@f@g@v + . + . /@h@i@j@k@l@m@n@o@p@~.h w %@q@C+C+`+    ",
"                r@4@s@t@u@v@w@x@y@z@A@B@C@D@=@E@F@G@. . . + R+H@I@J@K@L@M@N@O@P@&@&@M D+3@!.k.`+    ",
"              y+%@C+D+Q@R@S@T@U@V@W@X@Y@Z@`@ #).&+G@. . + . /@.#+#@###$#%#&#*#=#-#%+x ;#C+k.`+>#y+  ",
"              #@,#C+C+'#)#!#~#X@{#]#^#/#(#_#:#<#v v . . . * [#}#|#1#2#3#4#5#6#7#8#9#0#a# @b#M c#    ",
"              y+d# @r@e#f#g#h#i#j#k#l#m#n#o#p#q#v v . . + * [#r#s#t#u#v#w#x#y#z#A#B#C#D#;#E#F#4@    ",
"                k..@G#H#I#J#K#L#M#N#O#P#Q#R#S#T#v v . . + ~+U#V#W#X#Y#Z#`# $h#.$+$@$#$$$)+%$D+k.    ",
"              y+d#+@&$*$=$-$;$>$,$'$)$!$~${$]$^$/$v . ($_$:$<$[$}$|$1$2$3$4$5$6$7$8$9$l.O.E#b#k.    ",
"              #@0$G+G@a$b$c$d$e$f$g$h$i$j$k$l$m$n$o$p$q$r$s$t$u$v$w$x$y$k#z$A$B$C$D$E$l. @M b#C+    ",
"                !.K F$G$H$I$J$K$L$M$N$O$^#P$Q$R$S$T$U$V$W$X$Y$Z$`$ %.%+%@%#%$%%%&%*%!.=%;#$@%@C+    ",
"                k.y+-%;%>%,%'%)%!%~%{%]%^%/%(%_%:%<%[%}%|%1%2%3%4%5%6%7%8%9%`.0%h a%-@b%F$M %@C+    ",
"              y+`+y+4@&@c%4.4.d%9$e%f%g%h%i%j%k%k.v l%h m%n%).o%p%q%r%s%t%u%G@v%r@Q.&@4@` %@C+k.    ",
"              #@w%C+ @x%@@y%z%A%B%C%D%E%F%G%H%I%v h M R+v v h J%K%L%M%N%O%&+P%Q%>#R%R%R%%@#@C+C+    "};
