/* XPM */
static char *linux_xpm[] = {
/* columns rows colors chars-per-pixel */
"16 12 99 2",
"   c #074C077907DA",
".  c #085708570857",
"X  c #0D890D890D89",
"o  c #1ABE142E0940",
"O  c #175417541754",
"+  c #1A1E1A1E1A1E",
"@  c #221D22062203",
"#  c #3B253B3C3B07",
"$  c #3FBA3C953AB5",
"%  c #64E15BA73D71",
"&  c #7465615F2958",
"*  c #4A7B48754638",
"=  c #480F480F480F",
"-  c #48DF48DF48DF",
";  c #4D824C7948A7",
":  c #53BD5398530E",
">  c #6BFA66B65D5D",
",  c #779877B57814",
"<  c #94FF76F4213B",
"1  c #B06B83830D8B",
"2  c #A8D885E9140C",
"3  c #D0B99E070E4B",
"4  c #DF5EBA4C1D22",
"5  c #E101AECC1C16",
"6  c #F23DB82712B9",
"7  c #F1F0B9AC124C",
"8  c #F12DB8DA14D5",
"9  c #F835BD311424",
"0  c #C2899A552CE0",
"q  c #CB0AA2E22EE9",
"w  c #EB61BA4E2475",
"e  c #F36AC4D33CAE",
"r  c #9A2F8A686548",
"t  c #BDEEA5266D79",
"y  c #C38AA3D25F14",
"u  c #CBC4B3C173D1",
"i  c #EB76C64D530E",
"p  c #8D298DD98EBE",
"a  c #90839079912F",
"s  c #9488946694A8",
"d  c #ACE0A5149855",
"f  c #B273A81F9245",
"g  c #A0D4A0D4A0D4",
"h  c #A51FA51FA51F",
"j  c #AB1EAB1EAB1E",
"k  c #AFB4AFB4AFB4",
"l  c #B708B708B708",
"z  c #B880B4EBB2F6",
"x  c #C238B81F90CD",
"c  c #CEA2BE60965A",
"v  c #C507BB2FABB7",
"b  c #D8A2C24E8A98",
"n  c #DE53CF72A2C4",
"m  c #C46AC1FEBA0F",
"M  c #EFBCE1FAB307",
"N  c #C1C0C1C0C1C0",
"B  c #C57FC8F6C716",
"V  c #D0C9D16ACF28",
"C  c #D72BD5DBD483",
"Z  c #DB4DDBA3DA55",
"A  c #E020E020E020",
"S  c #F532EFC5DA68",
"D  c #F5AEF038DF37",
"F  c #F928F1F4D908",
"G  c #F9DDF485DC29",
"H  c #E6F4E729E788",
"J  c #EA30EA39E9C9",
"K  c #EDF4EE1EEE33",
"L  c #F90DF3A9E61C",
"P  c #F124F0ABEE93",
"I  c #F1ACF2BFF18D",
"U  c #F47CF433F3CC",
"Y  c #F65EF6D3F7EC",
"T  c #F699F699F699",
"R  c #F77CF77CF77C",
"E  c #FBB5FB85F5B7",
"W  c #FD21FCC7F700",
"Q  c #F9ADF907F8B7",
"!  c #FC71FB1EFA43",
"~  c #FA50FA87FAAE",
"^  c #FB9EFB9EFB9E",
"/  c #FC3FFD8EFC04",
"(  c #FDF3FDBFFBDB",
")  c #FDBEFE96FBCB",
"_  c #FF28FFC1FC58",
"`  c #FCDDFCDDFCDD",
"'  c #FE14FE3EFE39",
"]  c #FEFBFE1AFE19",
"[  c #FECBFF2FFD41",
"{  c #FF20FFC1FD6F",
"}  c #FF26FECAFDFF",
"|  c #FF80FF77FE0E",
" . c #FFDBFF9AFD9D",
".. c #FF02FF02FF03",
"X. c #FF91FF1CFF1A",
"o. c #FF35FFE8FF28",
"O. c #FFF5FFC4FEFA",
"+. c #FE7FFFFFFFA8",
"@. c #FFECFFE8FFEA",
/* pixels */
"@.@.@.@.@.` @.h = s ~ @.@.@.@.@.",
"@.@.@.@.@.` U + . O l ` @.@.@.@.",
"@.@.@.@.@.@.I > % ; a @.~ @.@.@.",
"@.@.@.@.@.@.~ < 4 & , @.@.@.@.@.",
"@.@.@.@.@.( B d c m @ A @.@.@.@.",
"@.@.@.@.@.K : U ~ J # - T @.@.@.",
"@.@.@.@.@.j g ^ @.@.k X l @.@.@.",
"@.@.@.@.~ * H E @.@.V X s @.@.@.",
"@.@.@.E M 0 f T ^ ( u o x @.@.@.",
"@.@.( L w 9 2 z @.K q 3 e G ( @.",
"@.@.@.S 5 7 7 r p $ 1 7 i F ( @.",
"@.@.@.( D n y v Z C t b E @.( @."
};
