/* XPM */
static char *xp[] = {
/* columns rows colors chars-per-pixel */
"16 14 178 2",
"   c #DDCE520F3BC9",
".  c #E198576E3BDF",
"X  c #E52A5CEB3BCE",
"o  c #E6EE5F103BF8",
"O  c #EA4364C63BAF",
"+  c #EE486A883BE3",
"@  c #F1F871323CA1",
"#  c #F32175463D85",
"$  c #F5C67EA53ED5",
"%  c #D8A05BD34B45",
"&  c #DCE274956753",
"*  c #72E493CE4B03",
"=  c #710396CF4A9E",
"-  c #75A4A0C54C51",
";  c #7ADBAA814D69",
":  c #7C15AF0C4E0D",
">  c #D1DD9A7B3EF3",
",  c #D6229F973F5F",
"<  c #DDBEA8B13AB4",
"1  c #E747B2CF36C8",
"2  c #F0D7BD78326B",
"3  c #F843C6A42FAC",
"4  c #FB6FC9F32F6E",
"5  c #F8BACB132E4A",
"6  c #FF1FCFA33214",
"7  c #F10AC7383C75",
"8  c #FFFFD48732AD",
"9  c #FFFFD28938C5",
"0  c #FC9FD3EB3D93",
"q  c #FFFFD6AA3E1B",
"w  c #811FB8274F0D",
"e  c #85ADBFA4509E",
"r  c #80F9B43858CF",
"t  c #801AB16C5CC3",
"y  c #88A6A1B5635D",
"u  c #8CBCA6186745",
"i  c #8E91B42669F7",
"p  c #9A43AFDC7811",
"a  c #9478B3927E32",
"s  c #CCF894A142FE",
"d  c #D2469F9C5470",
"f  c #F76B89F541A2",
"g  c #F901962C4552",
"h  c #F82C94BD4AD1",
"j  c #F9A39C5547C9",
"k  c #F9F99FFA4B94",
"l  c #D787A82E4A22",
"z  c #FB53A6DE4A6A",
"x  c #FB1CA97F4D93",
"c  c #FBD4AD304CBE",
"v  c #FB9BAC884D57",
"b  c #D88589817EC6",
"n  c #E07B88D06F42",
"m  c #F6AB932561B2",
"M  c #F7D09A696048",
"N  c #DCFBC00A6FA4",
"B  c #FAFBB35C6C47",
"V  c #E8BFA3967C16",
"C  c #F814A2B070AC",
"Z  c #82E5C112541F",
"A  c #89DDC3BF516E",
"S  c #8B71C4ED51D8",
"D  c #8F36C68652F8",
"F  c #899FC3E554DC",
"G  c #8F42C60555E0",
"H  c #9341C7C95409",
"J  c #91D1C65D5618",
"K  c #96ECC8FA555C",
"L  c #97C0C91F55AF",
"P  c #966EC86156E3",
"I  c #98E2C93656C6",
"U  c #972EC91B740A",
"Y  c #EB45C28A449A",
"T  c #F5B3C8D148AA",
"R  c #FFC0D4D841B8",
"E  c #FFFFD60D45A4",
"W  c #FFFFD7EF4D87",
"Q  c #FDC0D68E4E0E",
"!  c #FFFFD8D34A29",
"~  c #FFFFD9565188",
"^  c #FCE4DBAC69BC",
"/  c #FACCDC9A6FB6",
"(  c #49C76886AE60",
")  c #473E69FEB061",
"_  c #482672B2B723",
"`  c #4A867C9DBEE5",
"'  c #68DB7DA1B415",
"]  c #7B7F8F39BD8C",
"[  c #4D4A86CCC648",
"{  c #502A8ACEC8A7",
"}  c #5362948DCF91",
"|  c #5AC59CB3D4F7",
" . c #62519BC7D1B8",
".. c #5FB0A02ED4C0",
"X. c #64D2A26AD75A",
"o. c #6518A449D98E",
"O. c #7059A5F1D778",
"+. c #7478AD89DDD4",
"@. c #7661AF0FDEBC",
"#. c #7BDCAE17DCC4",
"$. c #B0B0BD4BA6FC",
"%. c #DA0696FF8E4B",
"&. c #DB23B9248530",
"*. c #D8FDBEE1958B",
"=. c #F27CA3BC8AD6",
"-. c #D98AB51AA72D",
";. c #DABBBA14A161",
":. c #D505BEE9AE55",
">. c #D21EBF0FB7E5",
",. c #AB81C3748276",
"<. c #AB0FC5808413",
"1. c #B267C1498CA5",
"2. c #BBE0C781A348",
"3. c #BFF3CC48A209",
"4. c #BF78DE4EA1A4",
"5. c #E00CC9C4901B",
"6. c #FCA5CACE92A8",
"7. c #C935C959ABB8",
"8. c #D601C932AB14",
"9. c #DFFDCF13A8E6",
"0. c #DE6CCF89A871",
"q. c #C232DF1BA040",
"w. c #C7A1C0DFB77A",
"e. c #D8FACFEFBB3C",
"r. c #DB67D121B865",
"t. c #DE05D282BF83",
"y. c #FA19C16FA441",
"u. c #E804D464B1CA",
"i. c #E302D739B997",
"p. c #CFF5E683B350",
"a. c #99A3A42EC412",
"s. c #92E8AA13D0C4",
"d. c #8460B662DDF4",
"f. c #941EBC72DFF0",
"g. c #834CB6DCE2C0",
"h. c #8641B73AE2A1",
"j. c #8FFEBEE9E6C0",
"k. c #9690BDBFE30D",
"l. c #B432C154D80C",
"z. c #B48CC95DE020",
"x. c #9594C1BEE812",
"c. c #9951C36EE392",
"v. c #9A22C562EA09",
"b. c #9CA6C5B4E8C7",
"n. c #D44ED926CE64",
"m. c #C0D5C984D8C5",
"M. c #D4FAD7FED36E",
"N. c #D7C2D7BBD7F3",
"B. c #D65ED90AE05A",
"V. c #E2AAE089DABC",
"C. c #E504EB38D9F3",
"Z. c #FD28E26BD171",
"A. c #FD12E457D8FB",
"S. c #D6C2DA3FE233",
"D. c #CF8EE38FF243",
"F. c #D1F0E4C4F2EA",
"G. c #E19BE2EBE206",
"H. c #E501E38EE0EB",
"J. c #E798E436E4C5",
"K. c #FAE9E711E203",
"L. c #F15EEF0DE9A7",
"P. c #F149F1ABF21D",
"I. c #F239F28AF2D4",
"U. c #F290F2EDF33C",
"Y. c #F30EF35EF3AE",
"T. c #F5A7F580F5A0",
"R. c #FE64F6DAF32F",
"E. c #F9E4FB90F7C3",
"W. c #FF33FA13F7CD",
"Q. c #F8F6F940FA0C",
"!. c #FB69FC74FA53",
"~. c #FCDCFE72FBCB",
"^. c #F90DFBDEFDC1",
"/. c #FCCBFCDEFCF0",
"(. c #FD4DFD8CFD9B",
"). c #FFB9FE14FD5E",
"_. c #FF08FF0BFF0F",
"`. c #FFF7FFF9FFF8",
/* pixels */
"`.`.`.Z.6.B m =.K.`.`.`.`.`.`.`.",
"`.`.W.M z g # o & C.E.`.`.`.!.!.",
"`.`.A.h z f + . %.u i q.p.q.U n.",
"`.`.y.k z $ O   :.* : S L G t G.",
"`.`.M x k # o % 2.= e G L F ,.P.",
"`.R.=.*.>.-.n b p = e J P e $.Q.",
"`.F.f.b.+.| s.H.y : F I J : M.^.",
"`.d.h.j.o.[ ( n.9.3.<.<.1.7.U.^.",
"^...v.#.} ` ' &.l T ^ / 0 5./.`.",
"D.o.v.@.} _ a.d < 3 E ! 5 e.`.`.",
"c.#.k.O.{ ) >.s 1 6 W q Y V.`.`.",
"z.z.S.S.l.] *.> 2 6 ~ 8 N P.`.`.",
").`.`.`.`.!.u.l 3 R W 7 8.N.T.`.",
"`.`.`.`.`.`.`.L.i.0.e.V.U.`.`.`."
};
