/* XPM */
static char *xp_locked[] = {
/* columns rows colors chars-per-pixel */
"16 14 188 2",
"   c #DDCE520F3BC9",
".  c #E198576E3BDF",
"X  c #E52A5CEB3BCE",
"o  c #E6EE5F103BF8",
"O  c #EA4364C63BAF",
"+  c #EE486A883BE3",
"@  c #F1F871323CA1",
"#  c #F32175463D85",
"$  c #F5C67EA53ED5",
"%  c #D8A05BD34B45",
"&  c #DCE274956753",
"*  c #D1DD9A7B3EF3",
"=  c #DDBEA8B33ABA",
"-  c #E747B2CF36C8",
";  c #F0D7BD78326B",
":  c #F843C6A42FAC",
">  c #F6E6C9E52FEC",
",  c #FAD6C9BA3078",
"<  c #FF1FCFA33214",
"1  c #F10AC7383C75",
"2  c #FFFFD48732AD",
"3  c #FFFFD28938C5",
"4  c #FFFFD6AA3E1B",
"5  c #99C182AA4C74",
"6  c #9A3B831E4CE8",
"7  c #9B9F84964E60",
"8  c #9C5684B34E36",
"9  c #98DA83075150",
"0  c #99B984495147",
"q  c #9AFD85735269",
"w  c #9C99870853CF",
"e  c #9FBA88745151",
"r  c #9F538A33582F",
"t  c #A0F1878F51A0",
"y  c #A2E8883E5273",
"u  c #A97E8E775777",
"i  c #A35D8C0E580E",
"p  c #A19F8C3A5BD4",
"a  c #A5CE8E2B5A30",
"s  c #ABB28ED25817",
"d  c #B28C96195C2C",
"f  c #892397846737",
"g  c #8D5D9C416D8B",
"h  c #974A9AC37FA9",
"j  c #AAE796D56833",
"k  c #8B9AA2E665DA",
"l  c #8B68AC0D638B",
"z  c #91AFB1E96730",
"x  c #9A91A9117C4C",
"c  c #9D2FB1267A7F",
"v  c #B3CCA1756EB3",
"b  c #B9F6A6566E58",
"n  c #CCF894A142FE",
"m  c #D5E5A008414E",
"M  c #D2469F9C5470",
"N  c #F76B89F541A2",
"B  c #F901962C4552",
"V  c #F82C94BD4AD1",
"C  c #F9A39C5547C9",
"Z  c #F9F99FFA4B94",
"A  c #D787A82E4A22",
"S  c #FB53A6DE4A6A",
"D  c #FB1CA97F4D93",
"F  c #FBD4AD304CBE",
"G  c #FB9BAC884D57",
"H  c #D88589817EC6",
"J  c #E07B88D06F42",
"K  c #F6AB932561B2",
"L  c #F7D09A696048",
"P  c #CB9DAE4E6749",
"I  c #DCFBC00A6FA4",
"U  c #C162AB967708",
"Y  c #FAFBB35C6C47",
"T  c #E8BFA3967C16",
"R  c #F814A2B070AC",
"E  c #8B71C4ED51D8",
"W  c #97C0C91F55AF",
"Q  c #92E1C6E35ACC",
"!  c #94A8C75959F4",
"~  c #9DF3CA075E11",
"^  c #9388C61460C6",
"/  c #EB45C28A449A",
"(  c #FFC0D4D841B8",
")  c #FEBBD536469F",
"_  c #FE59D7A74B15",
"`  c #FFFFD7EF4D87",
"'  c #FDC0D68E4E0E",
"]  c #FFFFD9565188",
"[  c #49C76886AE60",
"{  c #473E69FEB061",
"}  c #482672B2B723",
"|  c #4A867C9DBEE5",
" . c #68DB7DA1B415",
".. c #7B7F8F39BD8C",
"X. c #4D4A86CCC648",
"o. c #502A8ACEC8A7",
"O. c #5362948DCF91",
"+. c #5AC59CB3D4F7",
"@. c #62519BC7D1B8",
"#. c #5FB0A02ED4C0",
"$. c #64D2A26AD75A",
"%. c #6518A449D98E",
"&. c #7059A5F1D778",
"*. c #7478AD89DDD4",
"=. c #7661AF0FDEBC",
"-. c #7BDCAE17DCC4",
";. c #98F6A550820C",
":. c #A887B50387CB",
">. c #A6E8A7499141",
",. c #A5E5A2AA9531",
"<. c #DA0696FF8E4B",
"1. c #DB23B9248530",
"2. c #D8FDBEE1958B",
"3. c #F27CA3BC8AD6",
"4. c #D98AB51AA72D",
"5. c #DABBBA14A161",
"6. c #D505BEE9AE55",
"7. c #C25CBDCDB3DB",
"8. c #C256C005B4C1",
"9. c #D21EBF0FB7E5",
"0. c #BEE1D5E89D38",
"q. c #BC00C794A36A",
"w. c #BF5CDE33A189",
"e. c #FCA5CACE92A8",
"r. c #D601C932AB14",
"t. c #E041CED7A87C",
"y. c #DE6CCF89A871",
"u. c #C7A1C0DFB77A",
"i. c #D839CF2FBAA6",
"p. c #DB67D121B865",
"a. c #DE05D282BF83",
"s. c #FA19C16FA441",
"d. c #E804D464B1CA",
"f. c #E302D739B997",
"g. c #CFF5E683B350",
"h. c #99A3A42EC412",
"j. c #92E8AA13D0C4",
"k. c #8460B662DDF4",
"l. c #941EBC72DFF0",
"z. c #834CB6DCE2C0",
"x. c #8641B73AE2A1",
"c. c #8FFEBEE9E6C0",
"v. c #9690BDBFE30D",
"b. c #B432C154D80C",
"n. c #B48CC95DE020",
"m. c #9594C1BEE812",
"M. c #9951C36EE392",
"N. c #9A22C562EA09",
"B. c #9CA6C5B4E8C7",
"V. c #CE2ACAA8C295",
"C. c #D235D17BCD83",
"Z. c #D4BDD948CEEC",
"A. c #C0D5C984D8C5",
"S. c #D7C2D7BBD7F3",
"D. c #D65ED90AE05A",
"F. c #DF88DEA5DBB1",
"G. c #E2AAE089DABC",
"H. c #E685EC04DBA4",
"J. c #ED08E88DD95A",
"K. c #FD28E26BD171",
"L. c #FD12E457D8FB",
"P. c #F108ECA1DDCA",
"I. c #D6C2DA3FE233",
"U. c #CF8EE38FF243",
"Y. c #D1F0E4C4F2EA",
"T. c #E25EE370E2C8",
"R. c #E501E38EE0EB",
"E. c #E748E85EE341",
"W. c #E798E436E4C5",
"Q. c #FAE9E711E203",
"!. c #F317EFE9E1E7",
"~. c #F15EEF0DE9A7",
"^. c #F66BF3F8E9A1",
"/. c #F149F1ABF21D",
"(. c #F22BF25FF216",
"). c #F239F28AF2D4",
"_. c #F48DF471F377",
"`. c #F5A7F580F5A0",
"'. c #FE64F6DAF32F",
"]. c #FF33FA13F7CD",
"[. c #F8F6F940FA0C",
"{. c #FB69FC74FA53",
"}. c #F90DFBDEFDC1",
"|. c #FD89FD51FCC1",
" X c #FDB1FDA9FD5B",
".X c #FFB9FE14FD5E",
"XX c #FF1FFF21FF24",
"oX c #FFF6FFF7FFF6",
/* pixels */
"oXoXoXK.e.Y K 3.Q.oX XF.C._.oXoX",
"oXoX].L G B @ X & H.8.7.V.,.E.{.",
"oXoXL.V F N + . <.:.x w.g.0.;.Z.",
"oXoXs.Z S $ O   6.f l E W Q h T.",
"oX.XR D C # o % q.g z ! ~ ^ >.(.",
"oX'.T 5.9.4.J H c v i w 0 q 9 J.",
"oXY.l.B.*.@.j.W.k b u t 6 5 8 P.",
"oXk.x.c.%.X.[ a.t.U s y 7 7 e !.",
"}.#.m.z.+.|  .1.m P d a r p j ^.",
"U.$.N.=.O.} h.M = , ) _ > i.|.oX",
"M.-.v.&.o.{ u.n - < ` 4 / R.oXoX",
"n.A.D.I.b...2.* ; 3 ] 2 I /.oXoX",
"XXXXoXoXoX[.d.A : ( ' 1 r.S.`.oX",
"oXoXoXoXoXoXXX~.f.y.p.G.).oXoXoX"
};
