/* XPM */
static const char * bsd_32_xpm[] = {
"32 32 679 2",
"  	c #FFFFFF",
". 	c #FEFEFE",
"+ 	c #FCFCFB",
"@ 	c #F2F2F2",
"# 	c #E6EAEA",
"$ 	c #E9ECED",
"% 	c #F4F4F4",
"& 	c #FBFBFB",
"* 	c #FDFDFD",
"= 	c #FAFAFA",
"- 	c #F5F5F5",
"; 	c #F0F0F0",
"> 	c #EDEDED",
", 	c #EFEFEF",
"' 	c #F8F8F8",
") 	c #FCFCFC",
"! 	c #F8F8F7",
"~ 	c #EDEFEF",
"{ 	c #EBEEED",
"] 	c #F8F8F9",
"^ 	c #E8E8EA",
"/ 	c #B2A5A5",
"( 	c #A26868",
"_ 	c #A67D79",
": 	c #AFAFB0",
"< 	c #D1D1D1",
"[ 	c #ECECEC",
"} 	c #F6F6F6",
"| 	c #E8E8E8",
"1 	c #D8D8D8",
"2 	c #C9C9C9",
"3 	c #BBBBBB",
"4 	c #B3B3B3",
"5 	c #B8B8B8",
"6 	c #C4C4C4",
"7 	c #D5D5D5",
"8 	c #E7E7E7",
"9 	c #F1F1F1",
"0 	c #DDDDDD",
"a 	c #BDBEBE",
"b 	c #AA908F",
"c 	c #A66966",
"d 	c #A58384",
"e 	c #D5D6D6",
"f 	c #C7CCCC",
"g 	c #8D0605",
"h 	c #AF2824",
"i 	c #E98783",
"j 	c #F19B95",
"k 	c #CB8A7D",
"l 	c #BDA097",
"m 	c #BDBCBA",
"n 	c #BABABA",
"o 	c #BCBCBC",
"p 	c #CDCDCD",
"q 	c #E4E4E4",
"r 	c #FBF8F8",
"s 	c #ECEAEA",
"t 	c #D9DAD9",
"u 	c #C9CACA",
"v 	c #C3C3C3",
"w 	c #C3C5C6",
"x 	c #B9ABA5",
"y 	c #C29B93",
"z 	c #E3978E",
"A 	c #F69992",
"B 	c #C53F3A",
"C 	c #8A0000",
"D 	c #AE9A99",
"E 	c #F2F3F3",
"F 	c #F9F9F9",
"G 	c #BCC3C3",
"H 	c #A50000",
"I 	c #910502",
"J 	c #C72A22",
"K 	c #F3A09A",
"L 	c #FFCEC7",
"M 	c #F6C1AE",
"N 	c #D9B49F",
"O 	c #E3E4E1",
"P 	c #FFFFFE",
"Q 	c #F8ECEB",
"R 	c #F7DBD9",
"S 	c #F8DCDB",
"T 	c #FAEAE7",
"U 	c #FDF7F5",
"V 	c #F2F1F2",
"W 	c #CCA88D",
"X 	c #F2D9CC",
"Y 	c #FEE7E1",
"Z 	c #FCE9E6",
"` 	c #E27670",
" .	c #AB1613",
"..	c #930000",
"+.	c #A78B8B",
"@.	c #F0F2F2",
"#.	c #CBD5D5",
"$.	c #AB2728",
"%.	c #8B0000",
"&.	c #AE0601",
"*.	c #DC2116",
"=.	c #FA6758",
"-.	c #FAD5CC",
";.	c #FDFFFF",
">.	c #FDFDFC",
",.	c #FEFEFC",
"'.	c #FFFFFC",
").	c #FEFEFA",
"!.	c #FEFDF9",
"~.	c #FEFDFC",
"{.	c #F6ECEB",
"].	c #F3DDDC",
"^.	c #B62C2C",
"/.	c #B5221B",
"(.	c #F3C4AA",
"_.	c #FCF6F3",
":.	c #FDD9D5",
"<.	c #F38B84",
"[.	c #C9302A",
"}.	c #940000",
"|.	c #9E0F0F",
"1.	c #B1B1B1",
"2.	c #E4E7E6",
"3.	c #A37A7A",
"4.	c #9E0808",
"5.	c #9D0502",
"6.	c #C91B13",
"7.	c #F3A6A1",
"8.	c #FCFDFB",
"9.	c #FDFAF8",
"0.	c #FEF9F7",
"a.	c #FEFBF8",
"b.	c #FEFAF6",
"c.	c #FDF8F0",
"d.	c #FDF8F2",
"e.	c #FDF6F6",
"f.	c #FDF7F6",
"g.	c #FCF7F6",
"h.	c #FBF7F7",
"i.	c #F6EDED",
"j.	c #AA1617",
"k.	c #F1C8AE",
"l.	c #FFFAF8",
"m.	c #FEE3DC",
"n.	c #FBB5B0",
"o.	c #DC3B34",
"p.	c #AC0601",
"q.	c #8D0707",
"r.	c #A85453",
"s.	c #CDCECE",
"t.	c #B9B9B9",
"u.	c #AD3D3D",
"v.	c #900C0A",
"w.	c #CF7875",
"x.	c #FCF6F5",
"y.	c #FEF2F0",
"z.	c #FEF5F1",
"A.	c #FDF3F2",
"B.	c #FBEFE9",
"C.	c #FDF0DE",
"D.	c #FCEEE7",
"E.	c #FBEDEB",
"F.	c #FAECEC",
"G.	c #FAEEE9",
"H.	c #FBEFE3",
"I.	c #FCF5E6",
"J.	c #E3AAA6",
"K.	c #F8D7C3",
"L.	c #FCFEFD",
"M.	c #FDF0EB",
"N.	c #FCC3BD",
"O.	c #E92E24",
"P.	c #BF0500",
"Q.	c #960000",
"R.	c #A43D3C",
"S.	c #B59291",
"T.	c #E9E9E9",
"U.	c #AF7F7F",
"V.	c #B65F5E",
"W.	c #FAF7F6",
"X.	c #FDF4F0",
"Y.	c #FCEEE9",
"Z.	c #FEF6F3",
"`.	c #FFF8EC",
" +	c #FCEBEB",
".+	c #FBE3E0",
"++	c #FCE4CE",
"@+	c #FCE1D8",
"#+	c #FBE1D3",
"$+	c #FBE2C9",
"%+	c #FCE2C9",
"&+	c #F8E1D1",
"*+	c #F4E0DC",
"=+	c #F3DEDE",
"-+	c #E49B8D",
";+	c #FDCBC0",
">+	c #FD9788",
",+	c #F13023",
"'+	c #CD0800",
")+	c #A60300",
"!+	c #972726",
"~+	c #CA7E7E",
"{+	c #C0BABA",
"]+	c #A4A0A0",
"^+	c #E7D1D2",
"/+	c #FDF8F5",
"(+	c #FCE6DC",
"_+	c #FDF3EF",
":+	c #FEF7EE",
"<+	c #FCE2DD",
"[+	c #FAD0D1",
"}+	c #FCCEC0",
"|+	c #FCCEAF",
"1+	c #FBCAAC",
"2+	c #FACAAB",
"3+	c #F3C8BD",
"4+	c #EFC7C6",
"5+	c #EDC6C8",
"6+	c #EBC8C7",
"7+	c #D49998",
"8+	c #EB6756",
"9+	c #F74437",
"0+	c #D70E02",
"a+	c #B10600",
"b+	c #920D0B",
"c+	c #D28181",
"d+	c #9F7C7D",
"e+	c #CFD2D1",
"f+	c #E0E0E0",
"g+	c #B7B2B3",
"h+	c #F4E8E8",
"i+	c #F9DACD",
"j+	c #FBE3D8",
"k+	c #FEFAF7",
"l+	c #FEFDFA",
"m+	c #FDE8D5",
"n+	c #FAC9C4",
"o+	c #FCB8A5",
"p+	c #FBAC85",
"q+	c #F99876",
"r+	c #F67B59",
"s+	c #E95E4E",
"t+	c #D84F4F",
"u+	c #D04C4B",
"v+	c #CA5251",
"w+	c #C96867",
"x+	c #CC8888",
"y+	c #B15F5F",
"z+	c #CB1E15",
"A+	c #B10200",
"B+	c #920201",
"C+	c #AF5455",
"D+	c #D18582",
"E+	c #CAD1D1",
"F+	c #CDC0C0",
"G+	c #F7DFD8",
"H+	c #F5BCA7",
"I+	c #FBE5DB",
"J+	c #FEF4E7",
"K+	c #FDE9D2",
"L+	c #FCC4A3",
"M+	c #F89E86",
"N+	c #FC6941",
"O+	c #FA3A1B",
"P+	c #F51F06",
"Q+	c #EA1100",
"R+	c #D60F0F",
"S+	c #CB0D0C",
"T+	c #C00C0D",
"U+	c #B60D0D",
"V+	c #AC1111",
"W+	c #A61819",
"X+	c #A03131",
"Y+	c #943A39",
"Z+	c #8D2828",
"`+	c #861314",
" @	c #B54A4A",
".@	c #965C4F",
"+@	c #CCC1C0",
"@@	c #B2B3B3",
"#@	c #A6A5A5",
"$@	c #ECDADA",
"%@	c #EDA48D",
"&@	c #F2B79E",
"*@	c #FDF4E8",
"=@	c #FEF4E9",
"-@	c #FBC49B",
";@	c #F47E53",
">@	c #F4320D",
",@	c #F61501",
"'@	c #F50900",
")@	c #F30300",
"!@	c #DF0201",
"~@	c #D10101",
"{@	c #C60000",
"]@	c #BB0100",
"^@	c #A70101",
"/@	c #9D0403",
"(@	c #940A09",
"_@	c #8B1312",
":@	c #812525",
"<@	c #7B4544",
"[@	c #6D4140",
"}@	c #7F4D4D",
"|@	c #BE9681",
"1@	c #B1B2B4",
"2@	c #DCDCDC",
"3@	c #A6A6A6",
"4@	c #EDC2BE",
"5@	c #E78558",
"6@	c #F7C287",
"7@	c #FDF3E8",
"8@	c #FBD8B9",
"9@	c #F37639",
"0@	c #ED1D00",
"a@	c #EE0B00",
"b@	c #F00300",
"c@	c #F00000",
"d@	c #EA0000",
"e@	c #D60000",
"f@	c #CB0000",
"g@	c #C20100",
"h@	c #B70000",
"i@	c #AD0000",
"j@	c #A30000",
"k@	c #980000",
"l@	c #8F0100",
"m@	c #850304",
"n@	c #7B0A0A",
"o@	c #6D1615",
"p@	c #6D3332",
"q@	c #773D40",
"r@	c #AD694C",
"s@	c #B9B5B6",
"t@	c #CBCBCB",
"u@	c #B8B7B7",
"v@	c #DF9890",
"w@	c #E76C26",
"x@	c #F4A369",
"y@	c #F8B78E",
"z@	c #F57E3E",
"A@	c #EE3A02",
"B@	c #E60701",
"C@	c #E80100",
"D@	c #EA0001",
"E@	c #E10000",
"F@	c #CD0000",
"G@	c #C40000",
"H@	c #BC0000",
"I@	c #B20000",
"J@	c #A90100",
"K@	c #9F0000",
"L@	c #950000",
"M@	c #8C0000",
"N@	c #820000",
"O@	c #770202",
"P@	c #790706",
"Q@	c #650C0B",
"R@	c #6A1112",
"S@	c #9E3C27",
"T@	c #C8C3B9",
"U@	c #BDBDBD",
"V@	c #C0C0C0",
"W@	c #D67C73",
"X@	c #E03904",
"Y@	c #E95014",
"Z@	c #EC5115",
"`@	c #ED3D02",
" #	c #EC3002",
".#	c #E20301",
"+#	c #E20000",
"@#	c #E30000",
"##	c #E30001",
"$#	c #D70001",
"%#	c #C20000",
"&#	c #B50000",
"*#	c #AC0000",
"=#	c #9A0001",
"-#	c #900100",
";#	c #8F0101",
">#	c #A40001",
",#	c #810100",
"'#	c #6B0302",
")#	c #710101",
"!#	c #A42A1E",
"~#	c #D8D6C4",
"{#	c #B2B2B2",
"]#	c #BFBEBE",
"^#	c #CD736B",
"/#	c #DA2202",
"(#	c #E32801",
"_#	c #E62B01",
":#	c #EA2F02",
"<#	c #EC3303",
"[#	c #DC0501",
"}#	c #DB0000",
"|#	c #DE0000",
"1#	c #CE0001",
"2#	c #B90000",
"3#	c #B40000",
"4#	c #9C0000",
"5#	c #940100",
"6#	c #A40101",
"7#	c #B00101",
"8#	c #B10100",
"9#	c #960101",
"0#	c #6C0000",
"a#	c #790000",
"b#	c #BB3A2D",
"c#	c #DCDDCB",
"d#	c #B0B1B1",
"e#	c #D7D7D7",
"f#	c #B4B3B3",
"g#	c #CC7D79",
"h#	c #CD1702",
"i#	c #DE1E01",
"j#	c #E12402",
"k#	c #E52802",
"l#	c #EA3002",
"m#	c #DF1704",
"n#	c #D50000",
"o#	c #D70000",
"p#	c #C50001",
"q#	c #AF0000",
"r#	c #AB0000",
"s#	c #9D0201",
"t#	c #A00001",
"u#	c #BC0100",
"v#	c #BA0000",
"w#	c #B30000",
"x#	c #AB0001",
"y#	c #7C0001",
"z#	c #730101",
"A#	c #830000",
"B#	c #910000",
"C#	c #EB9967",
"D#	c #D2D0C0",
"E#	c #E3E3E3",
"F#	c #A0A0A0",
"G#	c #D39B9A",
"H#	c #B31202",
"I#	c #D31802",
"J#	c #DD1D02",
"K#	c #E12301",
"L#	c #E42902",
"M#	c #E72D02",
"N#	c #D10502",
"O#	c #D00000",
"P#	c #BD0000",
"Q#	c #A10000",
"R#	c #990100",
"S#	c #BE0100",
"T#	c #A40000",
"U#	c #6F0001",
"V#	c #B9391D",
"W#	c #FFF0A1",
"X#	c #C2BEB4",
"Y#	c #C8C8C8",
"Z#	c #EEEEEE",
"`#	c #A1A1A1",
" $	c #D4B5B6",
".$	c #A3130A",
"+$	c #B81302",
"@$	c #D21802",
"#$	c #DD1E01",
"$$	c #E02301",
"%$	c #DF2203",
"&$	c #C90101",
"*$	c #C90000",
"=$	c #B50101",
"-$	c #9B0000",
";$	c #B00000",
">$	c #AA0100",
",$	c #730000",
"'$	c #850100",
")$	c #A1150B",
"!$	c #F3D369",
"~$	c #FCF4C0",
"{$	c #B3B1AC",
"]$	c #C6C3C2",
"^$	c #912121",
"/$	c #AC0D01",
"($	c #CC1301",
"_$	c #D61802",
":$	c #DA1C02",
"<$	c #DC2202",
"[$	c #E02801",
"}$	c #D41903",
"|$	c #C30202",
"1$	c #AE0000",
"2$	c #910001",
"3$	c #970100",
"4$	c #BA0101",
"5$	c #AA0000",
"6$	c #A80001",
"7$	c #940101",
"8$	c #7E0000",
"9$	c #990404",
"0$	c #E26D37",
"a$	c #FBE789",
"b$	c #F4F2CF",
"c$	c #AAAAAA",
"d$	c #DBDBDB",
"e$	c #B4B7B7",
"f$	c #BE8C8C",
"g$	c #860000",
"h$	c #C60D01",
"i$	c #D01201",
"j$	c #D41702",
"k$	c #D61C02",
"l$	c #DC2701",
"m$	c #D62202",
"n$	c #AE0602",
"o$	c #840002",
"p$	c #A50001",
"q$	c #B10000",
"r$	c #980F06",
"s$	c #C43317",
"t$	c #E25430",
"u$	c #F6C7A6",
"v$	c #D4CFC1",
"w$	c #B5B6B7",
"x$	c #ACACAC",
"y$	c #EBF2F1",
"z$	c #892221",
"A$	c #AE0500",
"B$	c #C90C01",
"C$	c #CD1200",
"D$	c #D01701",
"E$	c #D31C01",
"F$	c #D52201",
"G$	c #D72602",
"H$	c #D52C03",
"I$	c #A31B02",
"J$	c #B20602",
"K$	c #B00301",
"L$	c #AC0201",
"M$	c #A80200",
"N$	c #AF0400",
"O$	c #BD0D05",
"P$	c #CD2F09",
"Q$	c #D34513",
"R$	c #D43F15",
"S$	c #DE644B",
"T$	c #F0C3B7",
"U$	c #96999A",
"V$	c #DDDCDD",
"W$	c #9C9B9C",
"X$	c #DABBBA",
"Y$	c #8B0806",
"Z$	c #C00802",
"`$	c #C70C01",
" %	c #C91101",
".%	c #CC1701",
"+%	c #CF1B02",
"@%	c #D22101",
"#%	c #D22602",
"$%	c #BF2C03",
"%%	c #D93103",
"&%	c #D12D03",
"*%	c #CD2C03",
"=%	c #CE2D03",
"-%	c #D73403",
";%	c #E24004",
">%	c #ED5005",
",%	c #E84D09",
"'%	c #DC4509",
")%	c #E15427",
"!%	c #F3AF9D",
"~%	c #AC9F9C",
"{%	c #9C9C9C",
"]%	c #BE6968",
"^%	c #8E0101",
"/%	c #BC0802",
"(%	c #C20C00",
"_%	c #C61001",
":%	c #C81501",
"<%	c #CA1B02",
"[%	c #CF2001",
"}%	c #B82502",
"|%	c #D52B01",
"1%	c #D63102",
"2%	c #DC3503",
"3%	c #E03A02",
"4%	c #E53F03",
"5%	c #E94503",
"6%	c #EE4A03",
"7%	c #EE4D04",
"8%	c #E8591B",
"9%	c #F4AC91",
"0%	c #CBA89D",
"a%	c #A6A7A7",
"b%	c #B5B5B5",
"c%	c #B0B1B0",
"d%	c #BE5654",
"e%	c #A30300",
"f%	c #BB0500",
"g%	c #C70B00",
"h%	c #CA1001",
"i%	c #CC1501",
"j%	c #D01A01",
"k%	c #C02001",
"l%	c #D72402",
"m%	c #DB2A02",
"n%	c #DF2F02",
"o%	c #E33403",
"p%	c #E83A03",
"q%	c #EB3E01",
"r%	c #F04101",
"s%	c #F1651D",
"t%	c #F8A680",
"u%	c #CBA593",
"v%	c #999A9D",
"w%	c #DDDEDD",
"x%	c #EBEBEB",
"y%	c #B7B7B7",
"z%	c #8E898A",
"A%	c #C57876",
"B%	c #BA0A06",
"C%	c #BA0100",
"D%	c #C70800",
"E%	c #D31000",
"F%	c #D71501",
"G%	c #C71B01",
"H%	c #D71F01",
"I%	c #E02402",
"J%	c #E22902",
"K%	c #E72E03",
"L%	c #EB3001",
"M%	c #EE3E07",
"N%	c #F69425",
"O%	c #FBAB6E",
"P%	c #AB9186",
"Q%	c #A09E9F",
"R%	c #DCDDDC",
"S%	c #878B8C",
"T%	c #B6928F",
"U%	c #C63B37",
"V%	c #CA1812",
"W%	c #C90A08",
"X%	c #D10F05",
"Y%	c #C71505",
"Z%	c #D01A05",
"`%	c #E42305",
" &	c #E72C04",
".&	c #EB3D09",
"+&	c #F2761E",
"@&	c #F3B538",
"#&	c #DDAC5B",
"$&	c #8B8282",
"%&	c #A7A9AA",
"&&	c #F7F7F7",
"*&	c #DFDFDF",
"=&	c #A9ABAC",
"-&	c #939090",
";&	c #8E6966",
">&	c #A04C49",
",&	c #B9413C",
"'&	c #CF423A",
")&	c #DC493F",
"!&	c #E35F3D",
"~&	c #DD8032",
"{&	c #C38E2D",
"]&	c #AB8D42",
"^&	c #9B8E6C",
"/&	c #9D9FA0",
"(&	c #CFD0CF",
"_&	c #E2E2E2",
":&	c #C9C8C9",
"<&	c #ADAEAD",
"[&	c #8C8B8B",
"}&	c #716E6E",
"|&	c #646664",
"1&	c #6B6A6C",
"2&	c #7D7D7B",
"3&	c #A2A3A2",
"4&	c #BFBFBD",
"5&	c #D9D9DA",
"6&	c #E6E6E6",
"    . . . .     . .         . . .           .       . . .     . ",
". + @ # $ % &       . * = - ; > , % ' ) .       * ! ~ # { ] .   ",
". ^ / ( _ : < [ ' } | 1 2 3 4 4 4 5 6 7 8 } = 9 0 a b c d e = . ",
"= f g h i j k l m n o p q }       r s t u v w x y z A B C D E   ",
"F G H I J K L M N O F P P P     Q R S T U V W X Y Z `  ...+.@.  ",
"& #.$.%.&.*.=.-.;.>.,.'.).!.~.* ;.{.].^./.(.  _.:.<.[.}.|.1.-   ",
". 2.3.4.5.6.7.8.9.0.a.b.c.d.e.f.g.h.i.j.k.  l.m.n.o.p.q.r.s.&   ",
". } t.u.v.w.;.x.y.z.A.B.C.D.E.F.G.H.I.J.K.L.M.N.O.P.Q.R.S.T..   ",
"  * 0 U.V.W.X.Y.Z.`. +.+++@+#+$+%+&+*+=+-+;+>+,+'+)+!+~+{+'     ",
"  . [ ]+^+/+(+_+  :+<+[+}+|+1+2+3+4+5+6+7+8+9+0+a+b+c+d+e+&   . ",
"  . f+g+h+i+j+k+l+m+n+o+p+q+r+s+t+u+v+w+x+y+z+A+B+C+D+E+3 '   . ",
"  F v F+G+H+I+J+K+L+M+N+O+P+Q+R+S+T+U+V+W+X+Y+Z+`+ @.@+@@@>     ",
". 9 #@$@%@&@*@=@-@;@>@,@'@)@!@~@{@]@A+^@/@(@_@:@<@[@}@|@1@2@*   ",
". q 3@4@5@6@7@8@9@0@a@b@c@d@e@f@g@h@i@j@k@l@m@n@o@p@q@r@s@t@)   ",
". 1 u@v@w@x@y@z@A@B@C@D@d@E@F@G@H@I@J@K@L@M@N@O@P@Q@R@S@T@U@F   ",
") < V@W@X@Y@Z@`@ #.#+#@###$#%#H@&#*#j@=#-#%.;#>#,#'#)#!#~#{#}   ",
") < ]#^#/#(#_#:#<#[#}#|#|#1#2#3#i@H 4#5#6#7#8#9#0#a#N@b#c#d#- . ",
"* e#f#g#h#i#j#k#l#m#n#o#$#p#q#r#H s#t#u#v#w#x#y#z#A#B#C#D#n '   ",
". E#F#G#H#I#J#K#L#M#N#O#O#P#H Q#R#x#S#2#&#q#T#U#y#%.V#W#X#Y#&   ",
". Z#`# $.$+$@$#$$$(#%$&$*$=$-$L@x#u#v#3#;$>$k@,$'$)$!$~${$1 .   ",
"  ' U@]$^$/$($_$:$<$[$}$|$1$2$3$4$h@3#1$5$6$7$8$9$0$a$b$c$T..   ",
"  * d$e$f$g$h$i$j$k$/#l$m$n$o$p$&#q$i@5$H *#-$r$s$t$u$v$w$}     ",
"    9 x$y$z$A$B$C$D$E$F$G$H$I$J$K$L$J@M$N$O$P$Q$R$S$T$U$V$*     ",
".   ) e#W$X$Y$Z$`$ %.%+%@%#%$%%%&%*%=%-%;%>%,%'%)%!%~%t.- .     ",
"    . - 6 {%]%^%/%(%_%:%<%[%}%|%1%2%3%4%5%6%7%8%9%0%a%T.*   .   ",
"      . , b%c%d%e%f%g%h%i%j%k%l%m%n%o%p%q%r%s%t%u%v%w%&         ",
"        * x%y%z%A%B%C%D%E%F%G%H%I%J%K%L%M%N%O%P%Q%R%F .   .     ",
"      .   * 9 2 S%T%U%V%W%X%Y%Z%`% &.&+&@&#&$&%&q =   .         ",
"        .   . &&*&=&-&;&>&,&'&)&!&~&{&]&^&/&(&; )               ",
"              . ) % _&:&<&[&}&|&1&2&3&4&5&, = . .   .           ",
"                    . = % Z#T.6&8 x%@ ' *       .               ",
"                .       . . . . . . .       .                   "};
