/* XPM */
static const char * gentoo_32_xpm[] = {
"32 32 440 2",
"  	c None",
". 	c #9E97CC",
"+ 	c #9E98CB",
"@ 	c #A29CCD",
"# 	c #A7A1D1",
"$ 	c #A29CD2",
"% 	c #9F98D6",
"& 	c #9C93DC",
"* 	c #B2ACD7",
"= 	c #CDCBE2",
"- 	c #E9E8F2",
"; 	c #FBFBFD",
"> 	c #FFFFFF",
", 	c #FDFDFF",
"' 	c #E4E3F6",
") 	c #C2BEEB",
"! 	c #A69EE6",
"~ 	c #998EEB",
"{ 	c #ADA7DC",
"] 	c #D1CEE8",
"^ 	c #FBFAFC",
"/ 	c #FFFFFE",
"( 	c #FDFDFE",
"_ 	c #F7F7FD",
": 	c #F1F2FD",
"< 	c #E2E2FA",
"[ 	c #C0BAF5",
"} 	c #A299F5",
"| 	c #9387F7",
"1 	c #BAB5E7",
"2 	c #E8E6F5",
"3 	c #FEFEFE",
"4 	c #FEFEFF",
"5 	c #F8F8FD",
"6 	c #EFEFFC",
"7 	c #E8E7FA",
"8 	c #E2E2F9",
"9 	c #D1D0F7",
"0 	c #B6B2F6",
"a 	c #9F97F6",
"b 	c #958AF7",
"c 	c #C0BAF0",
"d 	c #F6F6FC",
"e 	c #FAFAFE",
"f 	c #F2F1FC",
"g 	c #E9E9FB",
"h 	c #E0E0F9",
"i 	c #D9D8F7",
"j 	c #D1D0F5",
"k 	c #C1BFF5",
"l 	c #ADA7F4",
"m 	c #9E96F6",
"n 	c #B4ACF6",
"o 	c #FBFCFE",
"p 	c #FBFBFE",
"q 	c #F2F2FC",
"r 	c #F0F0FC",
"s 	c #EDEDFB",
"t 	c #DAD9F8",
"u 	c #C8C7F4",
"v 	c #BFBEF3",
"w 	c #B4B1F3",
"x 	c #A8A2F5",
"y 	c #A199F3",
"z 	c #A196F9",
"A 	c #F0EFFE",
"B 	c #F1F0FC",
"C 	c #C7C5F6",
"D 	c #BFBBF7",
"E 	c #DBDAF8",
"F 	c #DADAF8",
"G 	c #D2D1F7",
"H 	c #C9C8F4",
"I 	c #C1C0F3",
"J 	c #BBB9F3",
"K 	c #B6B3F4",
"L 	c #B1ADF3",
"M 	c #A8A3F1",
"N 	c #978DF8",
"O 	c #C5BEFB",
"P 	c #E9E7FC",
"Q 	c #D5D1F8",
"R 	c #C3C0F6",
"S 	c #9D95F7",
"T 	c #9B93D8",
"U 	c #C5C3E5",
"V 	c #D2D1F6",
"W 	c #C9C9F4",
"X 	c #B6B4F4",
"Y 	c #B4B0F3",
"Z 	c #B8B5F2",
"` 	c #B0ADF0",
" .	c #9E94F7",
"..	c #E7E4FD",
"+.	c #EEEEFB",
"@.	c #E6E5FA",
"#.	c #9C92EF",
"$.	c #897EEC",
"%.	c #9185EC",
"&.	c #968BF1",
"*.	c #847DBA",
"=.	c #6B658E",
"-.	c #C9C8EE",
";.	c #C9C9F5",
">.	c #C2C1F3",
",.	c #B1ADF4",
"'.	c #B2ADF4",
").	c #C1BEF4",
"!.	c #BDBAF1",
"~.	c #A198F5",
"{.	c #DFDDFB",
"].	c #FCFCFE",
"^.	c #C8C5F7",
"/.	c #B0ABF5",
"(.	c #9388ED",
"_.	c #9489EB",
":.	c #9489E9",
"<.	c #988DEF",
"[.	c #736BAA",
"}.	c #48416C",
"|.	c #BDBCE2",
"1.	c #C9C8F5",
"2.	c #B2AEF4",
"3.	c #ACA6F5",
"4.	c #B0AAF5",
"5.	c #CDCBF6",
"6.	c #CBC9F2",
"7.	c #998FF1",
"8.	c #BBB7F6",
"9.	c #E6E5FB",
"0.	c #A8A1E8",
"a.	c #887ECD",
"b.	c #897FD1",
"c.	c #575086",
"d.	c #716C94",
"e.	c #C9C9EF",
"f.	c #ADA7F5",
"g.	c #A6A0F5",
"h.	c #AFA8F6",
"i.	c #DEDCFA",
"j.	c #D5D2F2",
"k.	c #9388EB",
"l.	c #A097EE",
"m.	c #BBB7F4",
"n.	c #D2D0F7",
"o.	c #F5F5FD",
"p.	c #F0EFF7",
"q.	c #BCB9CE",
"r.	c #716C8E",
"s.	c #48426D",
"t.	c #5D5783",
"u.	c #9894B7",
"v.	c #CAC9EA",
"w.	c #D0D0F6",
"x.	c #C0BFF3",
"y.	c #BBB8F3",
"z.	c #B5B3F4",
"A.	c #A8A1F5",
"B.	c #A098F5",
"C.	c #BCB6F8",
"D.	c #F2F2FD",
"E.	c #CAC7EA",
"F.	c #948AE7",
"G.	c #9E96E9",
"H.	c #B8B5F0",
"I.	c #C5C5F4",
"J.	c #DDDCF8",
"K.	c #FAF9FE",
"L.	c #FDFDFD",
"M.	c #F6F6FB",
"N.	c #ECECF8",
"O.	c #E4E4F7",
"P.	c #DFDEF7",
"Q.	c #D8D8F8",
"R.	c #CFCFF6",
"S.	c #C7C6F4",
"T.	c #BFBEF2",
"U.	c #BAB7F3",
"V.	c #B5B2F4",
"W.	c #B1ACF4",
"X.	c #A7A1F5",
"Y.	c #A39AF5",
"Z.	c #998FF6",
"`.	c #EAE8FD",
" +	c #F5F5FB",
".+	c #958BE3",
"++	c #958BE2",
"@+	c #988FE2",
"#+	c #B0ABEA",
"$+	c #C8C6F3",
"%+	c #E6E6FA",
"&+	c #F9F9FE",
"*+	c #EFEFFB",
"=+	c #E7E7FA",
"-+	c #DEDEF9",
";+	c #D7D6F7",
">+	c #CECDF6",
",+	c #C6C5F4",
"'+	c #BEBDF2",
")+	c #B9B6F3",
"!+	c #B4B1F4",
"~+	c #B0ACF4",
"{+	c #A79FF5",
"]+	c #A29AF6",
"^+	c #988EF6",
"/+	c #DCD8FC",
"(+	c #968DDD",
"_+	c #948BDB",
":+	c #9D95DE",
"<+	c #B9B4E9",
"[+	c #CFCDF1",
"}+	c #DEDDF7",
"|+	c #F5F5FC",
"1+	c #EDECFB",
"2+	c #E5E5FA",
"3+	c #D4D4F7",
"4+	c #CDCCF5",
"5+	c #C4C3F3",
"6+	c #BDBBF2",
"7+	c #B8B5F3",
"8+	c #B3B0F4",
"9+	c #AFAAF4",
"0+	c #AAA4F5",
"a+	c #A69EF5",
"b+	c #9F96F6",
"c+	c #A69DF8",
"d+	c #F2F1FF",
"e+	c #F4F3F9",
"f+	c #9890D8",
"g+	c #9289D4",
"h+	c #A49CDB",
"i+	c #E0DEF5",
"j+	c #EAEAFB",
"k+	c #D2D2F6",
"l+	c #CAC9F5",
"m+	c #C2C2F4",
"n+	c #BCB9F2",
"o+	c #B7B4F3",
"p+	c #B3AFF4",
"q+	c #AEA9F4",
"r+	c #A9A3F5",
"s+	c #A19AF5",
"t+	c #AAA3F7",
"u+	c #E5E2FD",
"v+	c #C1BDDB",
"w+	c #B3ADDF",
"x+	c #DEDBF1",
"y+	c #DFDFF8",
"z+	c #D7D7F7",
"A+	c #D0CFF6",
"B+	c #C7C7F4",
"C+	c #BFBFF3",
"D+	c #BAB8F3",
"E+	c #A49EF5",
"F+	c #B0AAF7",
"G+	c #E3E1FC",
"H+	c #D6D3E5",
"I+	c #9B95C1",
"J+	c #F9F9FC",
"K+	c #FAFAFD",
"L+	c #F3F3FC",
"M+	c #EBEBFB",
"N+	c #E3E4F9",
"O+	c #DCDCF8",
"P+	c #D4D3F7",
"Q+	c #C5C4F4",
"R+	c #BEBCF2",
"S+	c #B9B7F3",
"T+	c #B5B1F4",
"U+	c #B1ABF4",
"V+	c #A8A2F4",
"W+	c #B5B0F7",
"X+	c #E7E6FC",
"Y+	c #DBD9E8",
"Z+	c #9D98C1",
"`+	c #948EBB",
" @	c #FCFCFD",
".@	c #EFEEFB",
"+@	c #E0E0F8",
"@@	c #D8D9F7",
"#@	c #D1D0F6",
"$@	c #BCBAF2",
"%@	c #ACA7F3",
"&@	c #EFEEFD",
"*@	c #DBD8E7",
"=@	c #9B95BE",
"-@	c #8F89B7",
";@	c #E7E7F2",
">@	c #FAFAFC",
",@	c #F8F7FD",
"'@	c #F1F1FC",
")@	c #EAEAFA",
"!@	c #E3E3F9",
"~@	c #D5D4F7",
"{@	c #BFBDF3",
"]@	c #C4C0F7",
"^@	c #F7F7FE",
"/@	c #D5D3E3",
"(@	c #9590B8",
"_@	c #8A84B2",
":@	c #EAE8F2",
"<@	c #F9F8FD",
"[@	c #F2F3FC",
"}@	c #ECECFB",
"|@	c #D8D7F7",
"1@	c #C2C1F4",
"2@	c #BCBBF3",
"3@	c #B8B5F4",
"4@	c #D0CEF8",
"5@	c #FCFCFC",
"6@	c #C8C5DA",
"7@	c #8C86B2",
"8@	c #857FAD",
"9@	c #E8E7F0",
"0@	c #FAFBFC",
"a@	c #F9F9FD",
"b@	c #E1E1F9",
"c@	c #D4D3F6",
"d@	c #C6C5F3",
"e@	c #B8B6F2",
"f@	c #C4C1F6",
"g@	c #E3E1FB",
"h@	c #EFEFF4",
"i@	c #B4B0CC",
"j@	c #827CA9",
"k@	c #817AA8",
"l@	c #FAF9FC",
"m@	c #F3F2FC",
"n@	c #EEECFB",
"o@	c #E2E1F9",
"p@	c #DCDBF8",
"q@	c #D5D5F7",
"r@	c #CFCEF5",
"s@	c #C8C8F4",
"t@	c #BDBBF3",
"u@	c #D6D4F8",
"v@	c #F5F4FE",
"w@	c #D7D5E3",
"x@	c #9B97B9",
"y@	c #7A74A2",
"z@	c #7D77A4",
"A@	c #F1F0F6",
"B@	c #F6F6FD",
"C@	c #D6D6F6",
"D@	c #D0D0F5",
"E@	c #CCCBF6",
"F@	c #FAF9FA",
"G@	c #B1AEC8",
"H@	c #8680A9",
"I@	c #77719E",
"J@	c #7A74A0",
"K@	c #B5B1CE",
"L@	c #FCFDFE",
"M@	c #F4F3FC",
"N@	c #ECEBFB",
"O@	c #E3E3FA",
"P@	c #FAFAFF",
"Q@	c #D3D0DF",
"R@	c #8A85AA",
"S@	c #79739E",
"T@	c #756F9B",
"U@	c #B3AFCB",
"V@	c #F6F5FD",
"W@	c #E1E0F9",
"X@	c #DBDBF7",
"Y@	c #CCCBF4",
"Z@	c #EDEDF2",
"`@	c #9B98B7",
" #	c #736D99",
".#	c #716B97",
"+#	c #9B96BA",
"@#	c #F0EFFB",
"##	c #E9E9FA",
"$#	c #E5E6FA",
"%#	c #E2E2F8",
"&#	c #DEDEF8",
"*#	c #D9D9F7",
"=#	c #D6D5F7",
"-#	c #FFFFFD",
";#	c #EFEFF3",
">#	c #B3B1C7",
",#	c #736E98",
"'#	c #6D6693",
")#	c #6E6894",
"!#	c #7E78A3",
"~#	c #E7E6EE",
"{#	c #E4E3F9",
"]#	c #DEDDF8",
"^#	c #E9E8FC",
"/#	c #F9FAFF",
"(#	c #FBFBFB",
"_#	c #E3E2EA",
":#	c #B7B3C9",
"<#	c #79739B",
"[#	c #655F8D",
"}#	c #6A6490",
"|#	c #78729D",
"1#	c #9894B4",
"2#	c #F6F6F8",
"3#	c #F5F5FE",
"4#	c #F0F0FD",
"5#	c #F1F0FD",
"6#	c #F5F5FF",
"7#	c #E9E8ED",
"8#	c #CAC7D6",
"9#	c #A29FB9",
"0#	c #767198",
"a#	c #615A87",
"b#	c #655F8B",
"c#	c #67618C",
"d#	c #716B96",
"e#	c #9591B1",
"f#	c #CDCBDA",
"g#	c #EDECF1",
"h#	c #F2F1F4",
"i#	c #E3E3E9",
"j#	c #D0CDDA",
"k#	c #B6B3C7",
"l#	c #9995B2",
"m#	c #827DA0",
"n#	c #6A648E",
"o#	c #5F5985",
"p#	c #625C87",
"q#	c #635D88",
"r#	c #69638F",
"s#	c #726C95",
"t#	c #7B769B",
"u#	c #7D789C",
"v#	c #7A759A",
"w#	c #757096",
"x#	c #6F6991",
"y#	c #66608A",
"z#	c #605A85",
"A#	c #5F5984",
"B#	c #605A84",
"C#	c #645E89",
"D#	c #615B86",
"E#	c #5F5983",
"F#	c #5E5882",
"G#	c #5D5782",
"                    . + @ # $ % &                               ",
"                * = - ; > > , ' ) ! ~                           ",
"            { ] ^ > > > / > ( _ : < [ } |                       ",
"          1 2 > > > 3 > 4 > 3 5 6 7 8 9 0 a b                   ",
"        c d > > 3 > > > 4 > 4 e f g h i j k l m                 ",
"      n o > > 3 > > > > > 4 p q r s 8 t 9 u v w x y             ",
"    z A > 3 > > > > > > > > > B C D E F G H I J K L M           ",
"  N O > 3 > > > > > > 3 / ( P Q R S T U V W I J X Y Z `         ",
"   ...> 4 > > > > > > 3 +.@.#.$.%.&.*.=.-.;.>.J X ,.'.).!.      ",
"  ~.{.> > 3 > > > > > ].^./.(._.:.<.[.}.|.1.I J X 2.3.4.5.6.    ",
"  7.8.9.> > 3 4 > > > 3 P 0.a.    b.c.d.e.1.I J K ,.f.g.h.i.j.  ",
"  k.l.m.n.o.> > 3 4 > > > p.q.r.s.t.u.v.w.H x.y.z.,.f.A.B.C.D.E.",
"    F.G.H.I.J.K.> > / 3 > / L.M.N.O.P.Q.R.S.T.U.V.W.3.X.Y.Z.`. +",
"    .+++@+#+$+j %+&+3 > 4 > ( _ *+=+-+;+>+,+'+)+!+~+3.{+]+^+/+4 ",
"        (+_+:+<+[+}+r > / > ].|+1+2+J.3+4+5+6+7+8+9+0+a+b+c+d+e+",
"            f+g+h+i+o.> > 3 e q j+8 F k+l+m+n+o+p+q+r+s+t+u+> v+",
"              w+x+; > 3 > ( d *+=+y+z+A+B+C+D+K '.f.E+F+G+> H+I+",
"              J+> > > > 3 K+L+M+N+O+P+4+Q+R+S+T+U+V+W+X+> Y+Z+`+",
"            J+> > 3 4 3  @d .@7 +@@@#@1.I $@o+p+%@8.&@> *@=@-@  ",
"        ;@>@> 3 > 3 > ( ,@'@)@!@O+~@4+,+{@U.K 2.]@^@> /@(@_@    ",
"      :@^ > 3 > 3 > 3 <@[@}@%+y+|@#@l+1@2@o+3@4@> 5@6@7@8@      ",
"    9@0@> 3 3 > > 3 a@L+s =+b@F c@4+d@'+e@f@g@> h@i@j@k@        ",
"    l@> 3 / > 3 ( 5 m@n@=+o@p@q@r@s@T.t@u@v@> w@x@y@z@          ",
"  A@> / > > 3 K+B@q 1+=+b@O+C@D@H v E@j+> F@G@H@I@J@            ",
"K@> > 4 L@e ,@M@r N@%+b@p@C@j s@B+O@P@> Q@R@S@T@                ",
"U@> a@_ V@L+r }@g 2+W@X@C@D@Y@p@,@> Z@`@T@ #.#                  ",
"+#> o.@#+.}@##$#%#&#*#=#c@J.B@-#;#>#,#'#)#)#                    ",
"!#~#> s 7 {#b@y+&#]#&#^#/#(#_#:#<#[#}#}#                        ",
"|#1#2#> 3#4#&@5#6#, > 7#8#9#0#a#b#c#                            ",
"  d#e#f#g#2#h#i#j#k#l#m#n#o#p#q#                                ",
"    r#s#t#u#v#w#x#y#z#A#A#B#                                    ",
"      C#p#D#z#B#E#F#G#G#                                        "};
