/* XPM */
static char * gentoo_48_xpm[] = {
"48 48 680 2",
"  	c None",
". 	c #948CCC",
"+ 	c #948DC9",
"@ 	c #9790CA",
"# 	c #9B95CC",
"$ 	c #9C95CE",
"% 	c #9A93D0",
"& 	c #9992D4",
"* 	c #9991DA",
"= 	c #968FC6",
"- 	c #9A93C4",
"; 	c #BAB6D7",
"> 	c #D5D3E6",
", 	c #E9E8F2",
"' 	c #F4F3F8",
") 	c #F6F5F9",
"! 	c #F4F3F9",
"~ 	c #EAE9F6",
"{ 	c #CECBEA",
"] 	c #AAA4DE",
"^ 	c #968DD8",
"/ 	c #988EDC",
"( 	c #978CE5",
"_ 	c #9B94CF",
": 	c #B8B3D5",
"< 	c #E3E1EF",
"[ 	c #FFFFFF",
"} 	c #FFFFFE",
"| 	c #FEFEFF",
"1 	c #FAFAFD",
"2 	c #F7F7FE",
"3 	c #F3F4FD",
"4 	c #E1E0F8",
"5 	c #BBB5ED",
"6 	c #9D93E8",
"7 	c #9186E9",
"8 	c #9387F0",
"9 	c #9A93D4",
"0 	c #9E97D0",
"a 	c #EAE8F4",
"b 	c #FEFEFE",
"c 	c #FCFCFD",
"d 	c #F6F6FD",
"e 	c #F1F1FB",
"f 	c #EBECFB",
"g 	c #E7E6F9",
"h 	c #E1E2F9",
"i 	c #BFB9F5",
"j 	c #9185F5",
"k 	c #8F83F7",
"l 	c #9185F8",
"m 	c #968DD7",
"n 	c #C2BDE5",
"o 	c #FBFBFD",
"p 	c #FDFDFE",
"q 	c #F8F8FD",
"r 	c #F3F3FC",
"s 	c #EDEDFB",
"t 	c #E8E7FA",
"u 	c #E2E2F9",
"v 	c #DFDEF9",
"w 	c #D3D1F7",
"x 	c #B2ACF7",
"y 	c #9589F7",
"z 	c #9388F8",
"A 	c #9287F8",
"B 	c #968CE9",
"C 	c #998FDD",
"D 	c #E1DEF4",
"E 	c #F9F9FE",
"F 	c #F5F5FC",
"G 	c #EFEFFC",
"H 	c #EAE9FA",
"I 	c #E4E3FA",
"J 	c #DEDEF8",
"K 	c #D9D8F7",
"L 	c #D3D2F6",
"M 	c #CAC9F5",
"N 	c #A29AF6",
"O 	c #9A90F6",
"P 	c #968BF7",
"Q 	c #9388E9",
"R 	c #9C93E6",
"S 	c #F0EFFB",
"T 	c #FBFBFE",
"U 	c #F6F5FC",
"V 	c #F0F0FC",
"W 	c #EAEAFA",
"X 	c #E5E4FA",
"Y 	c #E0DFF8",
"Z 	c #DAD9F8",
"` 	c #D4D4F6",
" .	c #CFCEF5",
"..	c #CAC9F4",
"+.	c #B7B3F4",
"@.	c #A098F6",
"#.	c #9E95F6",
"$.	c #9389F6",
"%.	c #9A90ED",
"&.	c #FBFAFE",
"*.	c #F7F7FD",
"=.	c #F2F1FC",
"-.	c #ECEBFA",
";.	c #E6E6FA",
">.	c #E0E0F8",
",.	c #DBDAF8",
"'.	c #D5D4F6",
").	c #CFCEF6",
"!.	c #C9C8F4",
"~.	c #C4C4F4",
"{.	c #BEBCF2",
"].	c #AAA3F5",
"^.	c #A7A0F5",
"/.	c #9A91F4",
"(.	c #9386F5",
"_.	c #E8E6FD",
":.	c #FAFAFE",
"<.	c #EDECFB",
"[.	c #E5E4F9",
"}.	c #EFEFFB",
"|.	c #E7E7FA",
"1.	c #E1E1F8",
"2.	c #DBDBF8",
"3.	c #D6D5F6",
"4.	c #D0CFF6",
"5.	c #C4C4F3",
"6.	c #BFBEF2",
"7.	c #BBB9F2",
"8.	c #B1ADF4",
"9.	c #ACA6F5",
"0.	c #A7A1F3",
"a.	c #8C7FF7",
"b.	c #C6C0FC",
"c.	c #BAB8F3",
"d.	c #BEBAF7",
"e.	c #D6D3F9",
"f.	c #DCDBF8",
"g.	c #D0D0F6",
"h.	c #CACAF4",
"i.	c #C5C4F4",
"j.	c #BBBAF3",
"k.	c #B9B6F2",
"l.	c #B3B0F3",
"m.	c #B2AEF3",
"n.	c #ADA8F2",
"o.	c #9B92EE",
"p.	c #9185F7",
"q.	c #A298F8",
"r.	c #F4F4FD",
"s.	c #C9C7F4",
"t.	c #ABA7F5",
"u.	c #958AF7",
"v.	c #AFA8E3",
"w.	c #DCDCF7",
"x.	c #D7D6F6",
"y.	c #D1D0F6",
"z.	c #CBCAF4",
"A.	c #B8B6F3",
"B.	c #B5B2F4",
"C.	c #B3AFF4",
"D.	c #B8B5F2",
"E.	c #A19AED",
"F.	c #D7D3FC",
"G.	c #BCB5F6",
"H.	c #A89FF2",
"I.	c #AFA6F3",
"J.	c #AFA9F1",
"K.	c #A7A0F4",
"L.	c #9489F7",
"M.	c #978FCE",
"N.	c #8F8AB1",
"O.	c #DAD9FA",
"P.	c #C5C5F4",
"Q.	c #C0BFF2",
"R.	c #BCBAF3",
"S.	c #B6B2F4",
"T.	c #B3AFF3",
"U.	c #BCBBF3",
"V.	c #BEBDF2",
"W.	c #A9A2EC",
"X.	c #8E82F6",
"Y.	c #A098F7",
"Z.	c #ECEAFD",
"`.	c #D0CBF7",
" +	c #8E82ED",
".+	c #9287EE",
"++	c #9287EC",
"@+	c #9286ED",
"#+	c #9489EA",
"$+	c #928CBB",
"%+	c #56507B",
"&+	c #8B87AE",
"*+	c #D5D4FA",
"=+	c #CBCBF4",
"-+	c #C6C5F4",
";+	c #B6B3F4",
">+	c #B0AAF4",
",+	c #ADA8F5",
"'+	c #C5C3F5",
")+	c #C9C9F5",
"!+	c #B2AEED",
"~+	c #9387F5",
"{+	c #A79FF6",
"]+	c #EEEDFD",
"^+	c #EEEEFC",
"/+	c #C8C7F5",
"(+	c #D6D6F7",
"_+	c #A59DEF",
":+	c #9286EB",
"<+	c #9288EA",
"[+	c #9388EA",
"}+	c #958AEB",
"|+	c #7770A6",
"1+	c #514B75",
"2+	c #59537D",
"3+	c #CBCAF0",
"4+	c #ACA7F5",
"5+	c #ADA8F4",
"6+	c #B9B3ED",
"7+	c #9186F2",
"8+	c #D8D5FA",
"9+	c #AEA8F7",
"0+	c #A9A3F5",
"a+	c #A099F1",
"b+	c #9388E8",
"c+	c #9489E8",
"d+	c #9489E7",
"e+	c #948AE7",
"f+	c #948AE6",
"g+	c #978CEA",
"h+	c #726AAD",
"i+	c #504A73",
"j+	c #5A547E",
"k+	c #C9C8EE",
"l+	c #AFAAF4",
"m+	c #A8A2F4",
"n+	c #A9A2F5",
"o+	c #E0E0FA",
"p+	c #BCB8EB",
"q+	c #9084EF",
"r+	c #9F97F1",
"s+	c #D0CEF9",
"t+	c #F3F2FE",
"u+	c #9E94EC",
"v+	c #968AEC",
"w+	c #978EE5",
"x+	c #978DE7",
"y+	c #9086DC",
"z+	c #544E79",
"A+	c #49436D",
"B+	c #928FB5",
"C+	c #D3D3F9",
"D+	c #B2AEF4",
"E+	c #A9A2F4",
"F+	c #A59DF5",
"G+	c #B1AAF6",
"H+	c #E7E6FA",
"I+	c #B0AAE4",
"J+	c #9287ED",
"K+	c #9388EC",
"L+	c #AAA4F1",
"M+	c #B2ADF4",
"N+	c #C3C0F6",
"O+	c #F3F2FD",
"P+	c #FBFBFB",
"Q+	c #AEAAC7",
"R+	c #807BA3",
"S+	c #69638F",
"T+	c #504A75",
"U+	c #57517A",
"V+	c #9592B5",
"W+	c #DCDCFD",
"X+	c #BBB9F3",
"Y+	c #B8B5F3",
"Z+	c #B5B1F4",
"`+	c #A69EF6",
" @	c #9F97F5",
".@	c #C1BBF8",
"+@	c #F3F4FC",
"@@	c #A59EDC",
"#@	c #AAA3EF",
"$@	c #B9B7F3",
"%@	c #CDCCF6",
"&@	c #F0EFF3",
"*@	c #B5B2C5",
"=@	c #6F6A8D",
"-@	c #4B4570",
";@	c #524C76",
">@	c #9895B5",
",@	c #D6D6F0",
"'@	c #C9C9F4",
")@	c #C4C3F4",
"!@	c #B7B6F3",
"~@	c #AFA9F4",
"{@	c #ABA6F5",
"]@	c #A8A1F5",
"^@	c #A59EF6",
"/@	c #A299F5",
"(@	c #9D93F6",
"_@	c #DBD8FB",
":@	c #FCFCFE",
"<@	c #E6E4F4",
"[@	c #9389E7",
"}@	c #9389E6",
"|@	c #A49DEB",
"1@	c #BAB8F1",
"2@	c #BFBFF3",
"3@	c #FAFAFF",
"4@	c #F4F4FF",
"5@	c #EAE9FE",
"6@	c #DFDFF8",
"7@	c #D9D9F8",
"8@	c #CECEF5",
"9@	c #C3C2F3",
"0@	c #BDBCF3",
"a@	c #BAB9F3",
"b@	c #B8B4F3",
"c@	c #B4B1F4",
"d@	c #B1ADF3",
"e@	c #ADA9F4",
"f@	c #ABA5F5",
"g@	c #A59DF6",
"h@	c #9F95F6",
"i@	c #AFA8F8",
"j@	c #FDFCFE",
"k@	c #B2ACDC",
"l@	c #948AE4",
"m@	c #958BE4",
"n@	c #968CE3",
"o@	c #978DE3",
"p@	c #B4AFED",
"q@	c #CDCDF6",
"r@	c #D8D7F7",
"s@	c #F4F4FC",
"t@	c #EEEFFC",
"u@	c #E4E4FA",
"v@	c #CDCDF5",
"w@	c #C8C7F4",
"x@	c #C2C1F3",
"y@	c #BDBBF3",
"z@	c #B6B3F2",
"A@	c #B4B0F4",
"B@	c #AEA8F5",
"C@	c #ABA5F4",
"D@	c #A49DF6",
"E@	c #A198F5",
"F@	c #A69DF8",
"G@	c #F7F6FE",
"H@	c #C7C4E4",
"I@	c #968CE1",
"J@	c #968CE0",
"K@	c #948BDF",
"L@	c #9F97E2",
"M@	c #B8B4EC",
"N@	c #D5D4F7",
"O@	c #D7D6F7",
"P@	c #F1F1FC",
"Q@	c #F9F9FD",
"R@	c #EEEDFB",
"S@	c #E8E8FA",
"T@	c #DDDCF8",
"U@	c #D7D7F7",
"V@	c #D1D2F6",
"W@	c #CCCCF5",
"X@	c #C7C6F4",
"Y@	c #C1C0F3",
"Z@	c #B9B7F2",
"`@	c #B7B4F4",
" #	c #B0ACF3",
".#	c #AAA4F5",
"+#	c #A49CF6",
"@#	c #A198F6",
"##	c #9D94F6",
"$#	c #A89FF8",
"%#	c #F9F8FE",
"&#	c #C4C0E0",
"*#	c #978EDD",
"=#	c #988FDC",
"-#	c #978EDC",
";#	c #978EDB",
">#	c #BDB9EA",
",#	c #DDDDF7",
"'#	c #E3E2F9",
")#	c #E5E5FA",
"!#	c #ECEBFB",
"~#	c #E7E7F9",
"{#	c #E1E1F9",
"]#	c #DCDBF7",
"^#	c #D6D5F7",
"/#	c #D1D0F5",
"(#	c #CBCAF5",
"_#	c #C5C4F3",
":#	c #C0BFF3",
"<#	c #B8B6F2",
"[#	c #B3AEF4",
"}#	c #B0ABF3",
"|#	c #ADA7F5",
"1#	c #AAA3F4",
"2#	c #A69FF5",
"3#	c #A39BF6",
"4#	c #A097F6",
"5#	c #9C93F6",
"6#	c #C9C4FB",
"7#	c #FDFCFD",
"8#	c #ACA6D2",
"9#	c #988FDA",
"0#	c #9890D9",
"a#	c #968ED7",
"b#	c #9C94D9",
"c#	c #ADA7E0",
"d#	c #EBEAFA",
"e#	c #F5F5FD",
"f#	c #EAEAFB",
"g#	c #DFDFF9",
"h#	c #DAD9F7",
"i#	c #D4D4F7",
"j#	c #C9C8F5",
"k#	c #BFBDF2",
"l#	c #A39AF5",
"m#	c #9C93F5",
"n#	c #E7E5F1",
"o#	c #9E98C8",
"p#	c #9891D7",
"q#	c #9A91D6",
"r#	c #9991D5",
"s#	c #9E96D7",
"t#	c #D6D3EF",
"u#	c #DDDDF8",
"v#	c #D8D8F7",
"w#	c #CECDF5",
"x#	c #C2C2F3",
"y#	c #BDBDF2",
"z#	c #BAB8F2",
"A#	c #B7B4F3",
"B#	c #B4B0F3",
"C#	c #AEA9F4",
"D#	c #A098F5",
"E#	c #C1BBF9",
"F#	c #A5A0C9",
"G#	c #9C96C4",
"H#	c #B0A9DC",
"I#	c #F0EFF9",
"J#	c #F6F6FC",
"K#	c #CBCBF5",
"L#	c #C0C0F3",
"M#	c #BCBBF2",
"N#	c #B6B4F3",
"O#	c #B1ACF3",
"P#	c #AEA8F4",
"Q#	c #A7A1F4",
"R#	c #A099F5",
"S#	c #CCC7FA",
"T#	c #FFFEFE",
"U#	c #B2ADD0",
"V#	c #9892C0",
"W#	c #F8F8FC",
"X#	c #EEEEFB",
"Y#	c #E9E9FA",
"Z#	c #E4E4F9",
"`#	c #DFDEF8",
" $	c #D9D9F7",
".$	c #B5B2F3",
"+$	c #AFABF4",
"@$	c #A9A3F4",
"#$	c #A49DF5",
"$$	c #CCC8FA",
"%$	c #C9C6DD",
"&$	c #958FBD",
"*$	c #9690BD",
"=$	c #E0DDEF",
"-$	c #FBFAFD",
";$	c #EBEBFB",
">$	c #D2D1F6",
",$	c #CDCCF5",
"'$	c #BDBCF2",
")$	c #A59FF4",
"!$	c #DDDBFC",
"~$	c #C2BFD8",
"{$	c #928BB9",
"]$	c #938DBA",
"^$	c #928CB9",
"/$	c #E3E2F1",
"($	c #F3F2FC",
"_$	c #E9E8FA",
":$	c #DADAF7",
"<$	c #D5D5F7",
"[$	c #D0CFF5",
"}$	c #C6C5F3",
"|$	c #B6B3F3",
"1$	c #B3B0F4",
"2$	c #B0ACF4",
"3$	c #AAA4F4",
"4$	c #E1DFFC",
"5$	c #C8C4DB",
"6$	c #8F89B7",
"7$	c #8F89B6",
"8$	c #EAE9F4",
"9$	c #F0EFFC",
"0$	c #EAEBFA",
"a$	c #DCDCF8",
"b$	c #D2D2F6",
"c$	c #B1ACF5",
"d$	c #F6F6FE",
"e$	c #B7B3CF",
"f$	c #8A84B2",
"g$	c #8C86B3",
"h$	c #EEEDF6",
"i$	c #E3E3F9",
"j$	c #BDBBF2",
"k$	c #ADA9F3",
"l$	c #C2BFF6",
"m$	c #ADA9C8",
"n$	c #8983B0",
"o$	c #8A84B0",
"p$	c #F3F2F7",
"q$	c #FAF9FD",
"r$	c #F2F2FC",
"s$	c #E0E0F9",
"t$	c #DBDBF7",
"u$	c #D2CFF8",
"v$	c #F3F3F7",
"w$	c #938EB6",
"x$	c #8680AD",
"y$	c #F5F4F9",
"z$	c #D4D3F6",
"A$	c #CACAF5",
"B$	c #C6C4F3",
"C$	c #B6B4F2",
"D$	c #B8B5F4",
"E$	c #ECECFC",
"F$	c #DAD8E6",
"G$	c #8B86B0",
"H$	c #847EAB",
"I$	c #847EAA",
"J$	c #837DA9",
"K$	c #F1F1F7",
"L$	c #EFEEFB",
"M$	c #E6E6F9",
"N$	c #E2E1F9",
"O$	c #DEDDF8",
"P$	c #CCCBF5",
"Q$	c #C7C7F4",
"R$	c #B7B5F2",
"S$	c #C7C6F6",
"T$	c #C0BDD3",
"U$	c #7E77A5",
"V$	c #827CA8",
"W$	c #817BA7",
"X$	c #807AA7",
"Y$	c #D9D7E7",
"Z$	c #EBEAFB",
"`$	c #DEDEF9",
" %	c #D7D5F7",
".%	c #BCBAF2",
"+%	c #E8E7FB",
"@%	c #F1F0F5",
"#%	c #8F8AB0",
"$%	c #7E78A4",
"%%	c #7E78A5",
"&%	c #7D77A4",
"*%	c #B9B5D2",
"=%	c #F8F7FD",
"-%	c #BBBAF2",
";%	c #CBC9DB",
">%	c #807AA5",
",%	c #7B75A2",
"'%	c #7B75A1",
")%	c #E9E7F0",
"!%	c #FDFDFD",
"~%	c #F4F3FC",
"{%	c #F1F0FC",
"]%	c #D3D3F6",
"^%	c #F8F8FA",
"/%	c #918CB1",
"(%	c #7A74A0",
"_%	c #79739F",
":%	c #77719D",
"<%	c #9D98BE",
"[%	c #F0F0F5",
"}%	c #ECECFB",
"|%	c #E5E5F9",
"1%	c #C6C6F4",
"2%	c #B9B6CC",
"3%	c #78729D",
"4%	c #756F9B",
"5%	c #76709C",
"6%	c #9893B9",
"7%	c #F7F7FA",
"8%	c #F8F7FE",
"9%	c #F7F7FC",
"0%	c #F2F1FB",
"a%	c #DEDDE7",
"b%	c #79749E",
"c%	c #736D99",
"d%	c #726C98",
"e%	c #918BB3",
"f%	c #F4F4F8",
"g%	c #F5F4FC",
"h%	c #EAEBFB",
"i%	c #DEDDF9",
"j%	c #918CAE",
"k%	c #706A96",
"l%	c #716B97",
"m%	c #706A95",
"n%	c #6F6995",
"o%	c #857FAA",
"p%	c #E9E8EF",
"q%	c #EBEBFA",
"r%	c #E6E5F9",
"s%	c #D5D5F6",
"t%	c #EDEDF2",
"u%	c #9F9CB9",
"v%	c #6A6491",
"w%	c #6F6994",
"x%	c #6E6894",
"y%	c #6E6893",
"z%	c #6D6792",
"A%	c #BDB9D0",
"B%	c #E8E8FB",
"C%	c #E1E0F9",
"D%	c #D1D1F6",
"E%	c #D9D8F8",
"F%	c #E4E3EB",
"G%	c #8F8AAC",
"H%	c #6B6591",
"I%	c #6C6691",
"J%	c #6A6490",
"K%	c #6A648F",
"L%	c #F3F2F6",
"M%	c #F7F7F9",
"N%	c #D4D3DF",
"O%	c #918CAD",
"P%	c #655E8B",
"Q%	c #69638E",
"R%	c #68628D",
"S%	c #756F9A",
"T%	c #8883A9",
"U%	c #FAF9FB",
"V%	c #F1F1F5",
"W%	c #A19DB9",
"X%	c #6E6891",
"Y%	c #67618C",
"Z%	c #66608C",
"`%	c #66608B",
" &	c #655F8B",
".&	c #726C97",
"+&	c #8C87AA",
"@&	c #DBD9E4",
"#&	c #CECCD9",
"$&	c #ABA8C0",
"%&	c #817CA0",
"&&	c #5F5986",
"*&	c #635D89",
"=&	c #655F8A",
"-&	c #645E89",
";&	c #635D88",
">&	c #767098",
",&	c #A4A0BB",
"'&	c #BEBCCE",
")&	c #C2C0D0",
"!&	c #B6B3C8",
"~&	c #9F9BB6",
"{&	c #7D789D",
"]&	c #655E8A",
"^&	c #625C87",
"/&	c #625C86",
"(&	c #615B86",
"_&	c #605A85",
":&	c #625C88",
"<&	c #615B87",
"[&	c #625B87",
"}&	c #5F5984",
"|&	c #5F5983",
"1&	c #5E5883",
"2&	c #5E5882",
"3&	c #5D5782",
"4&	c #5C5681",
"5&	c #5D5781",
"6&	c #5C5680",
"7&	c #5B5580",
"                                . + @ # $ % & *                                                 ",
"                          = - ; > , ' ) ! ~ { ] ^ / (                                           ",
"                      _ : < [ [ [ [ [ } | 1 2 3 4 5 6 7 8                                       ",
"                  9 0 a b [ [ b [ [ [ | [ c d e f g h i j k l                                   ",
"                m n o [ } [ [ [ [ [ [ [ } p q r s t u v w x y z A                               ",
"            B C D [ b [ [ [ [ [ [ [ [ [ [ b E F G H I J K L M N O P                             ",
"          Q R S [ b [ [ [ [ [ [ [ [ [ [ [ [ T U V W X Y Z `  ...+.@.#.$.                        ",
"          %.&.[ [ [ [ [ [ [ [ [ [ [ [ [ | [ p *.=.-.;.>.,.'.).!.~.{.].^./.                      ",
"        (._.[ b [ [ [ [ [ [ [ [ [ [ [ [ [ :.<.[.V }.|.1.2.3.4...5.6.7.8.9.0.                    ",
"      a.b.[ [ [ [ [ [ [ [ [ [ [ [ [ [ [ | [ p >.c.d.e.I f.3.g.h.i.6.j.k.l.m.n.o.                ",
"    p.q.[ [ [ [ [ [ [ [ [ [ [ [ [ [ [ [ b [ [ r.s.t.u.v.w.x.y.z.i.6.j.A.B.C.D.D.E.              ",
"    u.F.[ [ [ [ [ [ [ [ [ [ [ [ [ [ [ } [ G.H.I.J.K.L.M.N.O.y.z.P.Q.R.A.S.T.8.U.V.W.            ",
"  X.Y.Z.| [ [ [ [ [ [ [ [ [ [ [ [ E *.[ `. +.+++@+++#+$+%+&+*+=+-+Q.R.A.;+C.>+,+'+)+!+          ",
"  ~+{+]+b [ [ [ [ [ [ [ [ [ [ [ [ ^+/+(+_+:+<+[+Q Q }+|+1+2+3+z.P.Q.R.A.S.C.>+4+5+).L 6+        ",
"  7+^.8+[ [ [ [ [ [ [ [ [ [ [ [ [ &.9+0+a+b+c+d+e+f+g+h+i+j+k+z.i.6.j.A.S.C.l+4+m+n+Z o+p+      ",
"  q+r+,+s+[ b | [ [ [ [ [ [ [ [ [ [ t+u+v+w+      x+y+z+A+B+C+z.i.6.j.A.S.D+l+9.E+F+G+X H+I+    ",
"  J+K+L+M+N+O+[ [ b [ [ [ [ [ [ [ | b P+Q+R+S+z+    T+U+V+W+4...5.6.X+Y+Z+D+l+9.n+`+ @.@+@=.@@  ",
"    [+Q #@$@c.%@T [ b [ [ [ [ [ [ [ [ [ b &@*@=@-@;@>@,@,.'.).'@)@V.X+!@Z+D+~@{@]@^@/@(@_@:@<@  ",
"    [@e+}@|@1@2@V.f.r [ [ b [ [ [ [ [ [ [ [ [ [ 3@4@5@6@7@` 8@!.9@0@a@b@c@d@e@f@]@g@/@h@i@j@:@k@",
"      l@m@n@o@p@M z.q@r@2 [ [ [ [ [ [ [ [ b :.s@t@H u@J K L v@w@x@y@c.z@A@d@B@C@^.D@E@#.F@G@[ H@",
"        I@J@J@K@L@M@N@7@O@u P@b [ | [ [ b b Q@r R@S@u T@U@V@W@X@Y@U.Z@`@T. #,+.#^.+#@###$#%#[ &#",
"            *#*#=#-#;#>#,#'#)#|.:@[ [ | [ c *.e !#~#{#]#^#/#(#_#:#j.<#B.[#}#|#1#2#3#4#5#6#[ 7#8#",
"                9#0#0#a#b#c#d#V p [ [ } | 1 e#S f#[.g#h#i# .j#5.k#X+<#B.m.l+9.E+`+l#m#6#[ [ n#o#",
"                  p#q#r#s#t#d :@[ [ [ [ p q r s S@'#u#v#L w#w@x#y#z#A#B#d@C#f@m+^@D#E#b [ b F#G#",
"                      H#I#| b [ b [ [ b T J#V -.;.{#f.(+y.K#-+L#M#Z@N#A@O#P#.#Q#R#S#[ } T#U#V#V#",
"                      W#[ } [ [ [ | [ p q r X#Y#Z#`# $'. ...~.6.j.A..$m.+$4+@$#$$$[ b [ %$&$*$  ",
"                  =$b [ b [ [ [ [ } | -$e#P@;$|.{#T@r@>$,$w@x@'$c.A#Z+m.l+9.)$!$[ } [ ~${$]$^$  ",
"                /$p b [ [ [ [ [ | } :@q ($X#_$Z#`#:$<$[$(#}$:#U.Z@|$1$2$5+3$4$[ b [ 5$6$6$7$    ",
"              8$[ b [ [ [ [ [ b [ p Q@s@9$0$;.1.a$r@b$w#!.9@k#X+D.B.D+l+c$d$[ [ [ e$f$g$g$      ",
"            h$[ b [ [ [ [ [ [ [ b Q@e#P@<.|.i$`#Z '.4.z.-+Y@j$z#A#c@k$l$G@[ [ [ m$n$o$n$        ",
"          p$[ b [ [ [ [ [ b [ b q$J#r$s Y#Z#s$t$O@b$,$!.9@6.X+A..$1$u$[ b [ v$w$x$x$x$          ",
"        y$[ b [ [ [ [ [ [ [ p 1 d r$X#W ;.{#u#v#z$ .A$B$L#U.c.C$D$E$[ | [ F$G$H$I$J$            ",
"      K$[ b [ [ [ [ b [ [ p 1 J#r$L$f#M$N$O$h#'.y.P$Q$x@V.7.R$S$:.[ [ c T$U$V$W$X$              ",
"    Y$[ b [ [ [ [ [ [ b :@Q@e#r$X#Z$;.'#`$:$ %>$w#!.i.6..%Z@+%b [ [ @%#%$%%%&%                  ",
"  *%[ b [ [ [ b [ b p 1 =%s@P@X#Z$;.i$`#,.O@b$ .A$}$x@-%).E [ [ [ ;%>%,%,%'%                    ",
"  )%[ b [ | [ [ !%T Q@d ~%{%s H ;.u v t$U@]%).z.-+x@:#V [ } [ ^%/%(%_%_%:%                      ",
"<%[%T#| b p :@1 q d s@P@}.}%_$|%u J ,.U@]%[$K#1%_#s$p [ [ [ 2%3%4%5%4%4%                        ",
"6%7%| :.Q@8%9%U r 0%}.<.W |.Z#4 O$:$U@]%[$=+!.'.p [ [ b a%b%c%c%c%d%                            ",
"e%f%b d g%r P@V ^+}%h%t ;.i$s$u#Z (+L  .w@i%e#[ } [ a%j%k%l%k%m%n%                              ",
"o%p%[ F }.X#s q%W t r%i$1.J ]#K s%>$b$2.T [ [ [ t%u%v%w%x%y%z%                                  ",
",%A%[ } }%B%t H+u@i$C%`#a$Z ^#D%E%L$:.[ [ [ F%G%m%H%I%H%J%K%                                    ",
"_%5%L%[ [ }.;.u g#O$T@O$v N$;$1 [ [ [ M%N%O%P%S+K%Q%R%R%                                        ",
"  S%T%U%b | b p p p p p b | [ [ [ V%W%X%Q%Y%Y%Z%`% &                                            ",
"  .&n%+&@&[ [ [ [ [ [ [ [ p%#&$&%&&&*&`%=&-&;&;&                                                ",
"    z%z%v%>&,&'&)&!&~&{&]&=&=&-&;&;&^&/&(&_&                                                    ",
"      Q%R%Y%-&:&<&<&[&:&;&^&(&(&_&}&|&1&                                                        ",
"        -&-&;&^&^&(&_&_&}&|&2&3&4&4&                                                            ",
"              }&1&2&5&4&6&7&                                                                    "};
