/* XPM */
static const char * linux_48_xpm[] = {
"48 48 536 2",
"  	c #FFFFFF",
". 	c #FDFDFD",
"+ 	c #E6E6E6",
"@ 	c #B7B7B7",
"# 	c #979797",
"$ 	c #888888",
"% 	c #898989",
"& 	c #9A9A9A",
"* 	c #BDBDBD",
"= 	c #EDEDED",
"- 	c #FEFEFE",
"; 	c #F7F7F7",
"> 	c #A9A9A9",
", 	c #8D8D8D",
"' 	c #ACACAC",
") 	c #D9D9D9",
"! 	c #EEEEEE",
"~ 	c #F8F8F8",
"{ 	c #F5F5F5",
"] 	c #E8E8E8",
"^ 	c #C8C8C8",
"/ 	c #939393",
"( 	c #757575",
"_ 	c #FCFCFC",
": 	c #C1C1C1",
"< 	c #5D5D5D",
"[ 	c #BEBEBE",
"} 	c #868686",
"| 	c #4E4E4E",
"1 	c #8C8C8C",
"2 	c #4C4C4C",
"3 	c #D7D7D7",
"4 	c #E0E0E0",
"5 	c #ADADAD",
"6 	c #202020",
"7 	c #AEAEAE",
"8 	c #7D7D7D",
"9 	c #2F2F2F",
"0 	c #D0D0D0",
"a 	c #D1D1D1",
"b 	c #0A0A0A",
"c 	c #A2A2A2",
"d 	c #9D9D9D",
"e 	c #050505",
"f 	c #C0C0C0",
"g 	c #BBBBBB",
"h 	c #BFBFBF",
"i 	c #4D4D4D",
"j 	c #C4C4C4",
"k 	c #DDDDDD",
"l 	c #0F0F0F",
"m 	c #333333",
"n 	c #9B9B9B",
"o 	c #6E6E6E",
"p 	c #6C6C6C",
"q 	c #727272",
"r 	c #6A6A6A",
"s 	c #767676",
"t 	c #A4A4A4",
"u 	c #949494",
"v 	c #020202",
"w 	c #2A2A2A",
"x 	c #F3F3F3",
"y 	c #5F5F5F",
"z 	c #000000",
"A 	c #595959",
"B 	c #7C7C7C",
"C 	c #5E5E5E",
"D 	c #646464",
"E 	c #626262",
"F 	c #8B8B8B",
"G 	c #999999",
"H 	c #1B1B1B",
"I 	c #8F8F8F",
"J 	c #E3E3E3",
"K 	c #080808",
"L 	c #515151",
"M 	c #4A4A4A",
"N 	c #404040",
"O 	c #797979",
"P 	c #DADADA",
"Q 	c #F0F0F0",
"R 	c #D8D8D8",
"S 	c #7A7A7A",
"T 	c #484848",
"U 	c #818181",
"V 	c #606060",
"W 	c #676767",
"X 	c #2E2E2E",
"Y 	c #212121",
"Z 	c #929292",
"` 	c #232323",
" .	c #696969",
"..	c #C9C9C9",
"+.	c #F4F4F4",
"@.	c #ECECEC",
"#.	c #7E7E7E",
"$.	c #2C2C2C",
"%.	c #2D2D2D",
"&.	c #616161",
"*.	c #434343",
"=.	c #3D3D3D",
"-.	c #5C5C5C",
";.	c #272727",
">.	c #505050",
",.	c #171717",
"'.	c #313131",
").	c #A1A1A1",
"!.	c #EAEAEA",
"~.	c #CECECE",
"{.	c #363636",
"].	c #151515",
"^.	c #1F1F1F",
"/.	c #B5B5B5",
"(.	c #E7E7E7",
"_.	c #DFDFDF",
":.	c #A3A3A3",
"<.	c #373737",
"[.	c #181818",
"}.	c #0B0B0B",
"|.	c #FBFBFB",
"1.	c #222222",
"2.	c #010101",
"3.	c #070707",
"4.	c #686868",
"5.	c #D4D4D4",
"6.	c #DEDEDE",
"7.	c #656565",
"8.	c #878787",
"9.	c #B0B0B0",
"0.	c #D2D2D2",
"a.	c #CBCBCB",
"b.	c #343434",
"c.	c #0C0C0C",
"d.	c #8E8E8E",
"e.	c #A7A7A7",
"f.	c #A5A5A5",
"g.	c #B4B4B4",
"h.	c #DBDBDB",
"i.	c #DCDCDC",
"j.	c #E2E2E2",
"k.	c #919191",
"l.	c #030303",
"m.	c #C3C3C3",
"n.	c #D5D5D5",
"o.	c #0D0D0D",
"p.	c #2B2B2B",
"q.	c #747474",
"r.	c #7F7F7F",
"s.	c #131313",
"t.	c #C6C6C6",
"u.	c #040404",
"v.	c #636363",
"w.	c #D3D3D3",
"x.	c #CDCDCD",
"y.	c #090909",
"z.	c #E9E9E9",
"A.	c #9E9E9E",
"B.	c #C2C2C2",
"C.	c #CFCFCF",
"D.	c #444545",
"E.	c #1C1D1C",
"F.	c #252525",
"G.	c #C7C7C7",
"H.	c #CACACA",
"I.	c #707070",
"J.	c #CCC6BB",
"K.	c #CCB376",
"L.	c #CFB15F",
"M.	c #CCB262",
"N.	c #C6AF65",
"O.	c #CEB96E",
"P.	c #C8B677",
"Q.	c #BFBCB1",
"R.	c #AFAFAF",
"S.	c #0E0E0E",
"T.	c #393939",
"U.	c #B8B8B8",
"V.	c #C7BDA6",
"W.	c #DEA725",
"X.	c #E9BF32",
"Y.	c #F3DE7F",
"Z.	c #F7ECAA",
"`.	c #FAF3C6",
" +	c #FCF9DF",
".+	c #FBF6DE",
"++	c #E4CD79",
"@+	c #969284",
"#+	c #3A3A3A",
"$+	c #060606",
"%+	c #1C1C1C",
"&+	c #848484",
"*+	c #BAA16D",
"=+	c #E9BB41",
"-+	c #E7BA01",
";+	c #EAC705",
">+	c #F1DA46",
",+	c #F7EC94",
"'+	c #F9F2B3",
")+	c #FBF6CD",
"!+	c #F2E09E",
"~+	c #AAA286",
"{+	c #9F9F9F",
"]+	c #383838",
"^+	c #BCBCBC",
"/+	c #8A8883",
"(+	c #C69D3B",
"_+	c #EBC333",
":+	c #E9C201",
"<+	c #EBCB01",
"[+	c #EFD831",
"}+	c #F5E77F",
"|+	c #F4E38E",
"1+	c #C7B163",
"2+	c #EBEBEB",
"3+	c #777777",
"4+	c #828282",
"5+	c #E4E4E4",
"6+	c #C8C8C7",
"7+	c #A6A298",
"8+	c #D5AB41",
"9+	c #EAC32D",
"0+	c #E9C401",
"a+	c #EAC801",
"b+	c #ECCE39",
"c+	c #D2B349",
"d+	c #C7C7C4",
"e+	c #F9F9F9",
"f+	c #5B5B5B",
"g+	c #F6F6F6",
"h+	c #F1F1F1",
"i+	c #BCB6A9",
"j+	c #DDB348",
"k+	c #E9C02A",
"l+	c #E5B601",
"m+	c #DAAF23",
"n+	c #C0BDB3",
"o+	c #666666",
"p+	c #EFEFEF",
"q+	c #DCDDDC",
"r+	c #CDC6B6",
"s+	c #DFB450",
"t+	c #DDAD35",
"u+	c #CFC7B2",
"v+	c #DCDBDB",
"w+	c #FAFAFA",
"x+	c #787878",
"y+	c #D6D6D6",
"z+	c #E1E1E1",
"A+	c #DDDCDB",
"B+	c #1E1E1E",
"C+	c #5A5A5A",
"D+	c #E5E5E5",
"E+	c #3F3F3F",
"F+	c #3C3C3C",
"G+	c #ABABAB",
"H+	c #A0A0A0",
"I+	c #161616",
"J+	c #909090",
"K+	c #969696",
"L+	c #3E3E3E",
"M+	c #8A8A8A",
"N+	c #323232",
"O+	c #F2F2F2",
"P+	c #141414",
"Q+	c #717171",
"R+	c #B3B3B3",
"S+	c #555555",
"T+	c #585858",
"U+	c #CCCCCC",
"V+	c #B9B9B9",
"W+	c #565656",
"X+	c #A8A8A8",
"Y+	c #959595",
"Z+	c #121212",
"`+	c #C5C5C5",
" @	c #AAAAAA",
".@	c #BABABA",
"+@	c #535353",
"@@	c #B6B6B6",
"#@	c #B2B2B2",
"$@	c #B1B1B1",
"%@	c #60605E",
"&@	c #A8A391",
"*@	c #A99F76",
"=@	c #A89B68",
"-@	c #A6996A",
";@	c #A3997B",
">@	c #A19E95",
",@	c #A5A5A6",
"'@	c #A2A19B",
")@	c #A29B82",
"!@	c #A6996D",
"~@	c #A89A66",
"{@	c #A99D70",
"]@	c #A7A189",
"^@	c #686662",
"/@	c #CFCECE",
"(@	c #FFFFFE",
"_@	c #FBF9F0",
":@	c #E5D48C",
"<@	c #C5AD43",
"[@	c #CFBB5F",
"}@	c #CFBE6E",
"|@	c #C9B65D",
"1@	c #BCA228",
"2@	c #B18F02",
"3@	c #AA8706",
"4@	c #A28629",
"5@	c #9B8E6A",
"6@	c #9C9B9A",
"7@	c #9B937E",
"8@	c #9F8739",
"9@	c #A8870C",
"0@	c #AF8E01",
"a@	c #B79A0F",
"b@	c #C5B049",
"c@	c #CEBD6B",
"d@	c #D1BF6B",
"e@	c #C8B252",
"f@	c #DFCB75",
"g@	c #F7F2DD",
"h@	c #F0E7C5",
"i@	c #D7B930",
"j@	c #E5D892",
"k@	c #EFEDDA",
"l@	c #EEECDB",
"m@	c #EBE9D9",
"n@	c #E7E5D4",
"o@	c #E0DECD",
"p@	c #D1C68F",
"q@	c #B79C13",
"r@	c #AC8B01",
"s@	c #A68101",
"t@	c #9D802E",
"u@	c #939089",
"v@	c #999998",
"w@	c #98834A",
"x@	c #A48004",
"y@	c #AA8A01",
"z@	c #B39601",
"A@	c #C7B550",
"B@	c #DDD9BF",
"C@	c #E6E4D4",
"D@	c #EBE8D8",
"E@	c #EEEBDA",
"F@	c #F0EDDC",
"G@	c #EDE7C4",
"H@	c #DBC34E",
"I@	c #E9D998",
"J@	c #E5DDC1",
"K@	c #D6B511",
"L@	c #ECDF89",
"M@	c #F4EFC1",
"N@	c #F3EEC1",
"O@	c #F2ECC0",
"P@	c #F0E9BE",
"Q@	c #EBE5BA",
"R@	c #E4DDB4",
"S@	c #D5C989",
"T@	c #B79903",
"U@	c #AC8D00",
"V@	c #A58200",
"W@	c #9B7C21",
"X@	c #8C8A87",
"Y@	c #937E43",
"Z@	c #A47F00",
"`@	c #AA8A00",
" #	c #B59700",
".#	c #C9B33B",
"+#	c #E2DBB2",
"@#	c #EAE4B9",
"##	c #EFE9BD",
"$#	c #F2EBC0",
"%#	c #F3EDC1",
"&#	c #F4EEC1",
"*#	c #F3EDBE",
"=#	c #DBBF29",
"-#	c #E0D08D",
";#	c #D4D3D2",
">#	c #D3B737",
",#	c #DDC213",
"'#	c #F1E998",
")#	c #F2E999",
"!#	c #F2E899",
"~#	c #F2E798",
"{#	c #F1E698",
"]#	c #F1E498",
"^#	c #EFE297",
"/#	c #EADD94",
"(#	c #E2D48E",
"_#	c #C8AD24",
":#	c #A98A00",
"<#	c #A37F01",
"[#	c #8B7947",
"}#	c #8E8D8E",
"|#	c #857E6C",
"1#	c #A17B04",
"2#	c #A78700",
"3#	c #B39400",
"4#	c #C1A200",
"5#	c #DBC969",
"6#	c #E9DC93",
"7#	c #EEE196",
"8#	c #F0E497",
"9#	c #F1E798",
"0#	c #F2E898",
"a#	c #F2E998",
"b#	c #E9D861",
"c#	c #D6B30E",
"d#	c #D1CEBF",
"e#	c #C1BAA0",
"f#	c #D6B405",
"g#	c #DFC70D",
"h#	c #EDE06C",
"i#	c #EDDF6C",
"j#	c #EDDE6C",
"k#	c #EDDC6C",
"l#	c #ECDA6C",
"m#	c #ECD96C",
"n#	c #ECD76C",
"o#	c #EAD56B",
"p#	c #E5D068",
"q#	c #D1B21B",
"r#	c #BE9E00",
"s#	c #AE9100",
"t#	c #A58301",
"u#	c #96761B",
"v#	c #808080",
"w#	c #8C7639",
"x#	c #A48000",
"y#	c #AC8E00",
"z#	c #BB9C00",
"A#	c #CAA900",
"B#	c #E0C84D",
"C#	c #E9D56A",
"D#	c #EBD86C",
"E#	c #ECD96B",
"F#	c #ECDD6C",
"G#	c #ECE06B",
"H#	c #E7D445",
"I#	c #D9B801",
"J#	c #C4B57A",
"K#	c #BFB488",
"L#	c #D7B201",
"M#	c #DDC100",
"N#	c #E4CF2E",
"O#	c #E7D240",
"P#	c #E7D040",
"Q#	c #E7CF40",
"R#	c #E7CD40",
"S#	c #E7CC40",
"T#	c #E7CA40",
"U#	c #E6C940",
"V#	c #E1C332",
"W#	c #D2AE01",
"X#	c #C4A200",
"Y#	c #B39300",
"Z#	c #A78500",
"`#	c #9A7713",
" $	c #90752D",
".$	c #A68201",
"+$	c #B09000",
"@$	c #C09F00",
"#$	c #D0AC00",
"$$	c #DCBA16",
"%$	c #E5C93F",
"&$	c #E6CB40",
"*$	c #E6CC40",
"=$	c #E7CE40",
"-$	c #E7D140",
";$	c #E7D23E",
">$	c #DFC50E",
",$	c #D9B501",
"'$	c #C2B06B",
")$	c #C3C2BA",
"!$	c #D1AC20",
"~$	c #D8B201",
"{$	c #DAB602",
"]$	c #DDBA14",
"^$	c #DEBA1B",
"/$	c #DEB91B",
"($	c #DEB71B",
"_$	c #DEB61B",
":$	c #DEB51B",
"<$	c #DDB315",
"[$	c #D8AB03",
"}$	c #D1A500",
"|$	c #C49B00",
"1$	c #B48D00",
"2$	c #A98001",
"3$	c #A68D4B",
"4$	c #9A9B9A",
"5$	c #A09370",
"6$	c #A87E04",
"7$	c #B28B00",
"8$	c #C19900",
"9$	c #CFA400",
"0$	c #D7AA01",
"a$	c #DBB00D",
"b$	c #DDB41A",
"c$	c #DEB81B",
"d$	c #DEBA19",
"e$	c #DBB70A",
"f$	c #D9B200",
"g$	c #D4AA08",
"h$	c #C4BC9C",
"i$	c #DDDDDE",
"j$	c #D2CEC0",
"k$	c #CEBD83",
"l$	c #CBB875",
"m$	c #C7B371",
"n$	c #C5B170",
"o$	c #C4AF70",
"p$	c #C3AE6F",
"q$	c #C2AC6E",
"r$	c #C1AB6C",
"s$	c #C1AA6B",
"t$	c #C0AA6A",
"u$	c #BEA86B",
"v$	c #B9A46A",
"w$	c #B4A06A",
"x$	c #B1A37D",
"y$	c #B2B1AF",
"z$	c #B2B3B2",
"A$	c #B1A78C",
"B$	c #B3A06C",
"C$	c #B8A46A",
"D$	c #BDA76A",
"E$	c #C0A96B",
"F$	c #C1AB6B",
"G$	c #C3AD6F",
"H$	c #C5B171",
"I$	c #CAB674",
"J$	c #CEBB7D",
"K$	c #D1C8AC",
"                                      . + @ # $ % & * = -                                       ",
"                                  ; > , ' ) ! ~ { ] ^ / ( @ _                                   ",
"                                : < [ = ! ! ! ! ! ! ! ! + } | )                                 ",
"                            . 1 2 3 4 4 4 4 4 4 4 4 4 4 4 4 5 6 7                               ",
"                          . 8 9 ^ 0 0 0 0 0 0 0 0 0 0 0 0 0 a # b c                             ",
"                          d e d f f * g [ f f f f f f f f f f h i b j                           ",
"                        k l m 5 n o p q r s t 5 5 5 5 5 5 5 5 5 u v w x                         ",
"                        y z A B C o C D E p A F & G & & & & & & G H z I                         ",
"                      J K z L M N O P Q R S T T U } S V < < W U } X z Y ~                       ",
"                      Z z z ` w  ...= { +.@.#.$.M M %.M &.A *.=.-.;.z z [                       ",
"                      >.z z ,.'.).^ P !.Q ] ~.{.].^.p /.(._.:.<.[.}.z z B                       ",
"                    |.1.z 2.3.4./.5.6.4 (.J g 7.H 8.9.j 0.@.= a.b.2.z z M                       ",
"                    ! c.z z z d.h 3 k k 6.e.S 1 >.f.g.R h.i.j.0.k.l.z z w .                     ",
"                    6.e z z z n m.n.P P P D o.p.` q.r.) ) ) 3 m.G s.z z [.;                     ",
"                    j 2.z z z , t.a 3 R R ( K 2.w u.v.w.5.5.x./.1 o.z z y.z.                    ",
"                    A.z z z z E B.C.w.n.w.9.D.E.F.< > t...G.f 7 E z z z 2.H.                    ",
"                    I.z z z z F.5 x.~.x.J.K.L.M.N.O.P.Q.f * R.( S.z z z z d                     ",
"                  - T.z z z z 2.A U...V.W.X.Y.Z.`. +.+++@+$ #+$+z z z z z -.                    ",
"                  a %+z z z z z ,.&+d *+=+-+;+>+,+'+)+!+~+g.{+Y z z z z z {.5.                  ",
"                . I.]+z z z z F.^+[ :./+(+_+:+<+[+}+|+1+~.J 2+6.]+z z z z | 3+_                 ",
"                / 4+6 z z z [.3 Q 5+3 6+7+8+9+0+a+b+c+d+Q ; ~ e+] p.z z z ;.8.u -               ",
"              t O f+v z z e U.; g++.h+= i.i+j+k+l+m+n+5+g+; ; ; ; 0 o.z z 2.i &+:.-             ",
"          . # B p b z z z o+x +.+.+.+.+.p+q+r+s+t+u+v+! +.+.+.+.+.+.&+z z z u.-.F & w+          ",
"        = x+I I.S.z z z c.y+Q Q Q Q Q Q Q 2+z+A+A+4 z.p+Q Q Q Q Q Q (.B+z z z $+C+d I D+        ",
"      4 q e.&.y.z z z z C+@.@.@.@.@.@.@.@.@.z.(.(.z.2+@.@.@.@.@.@.@.@.B z z z z 2.E+:., R       ",
"    z.q.e.F+2.z z z z 2.G+] ] ] ] ] ] ] ] ] ] (.] ] ] ] ] ] ] ] ] ] ] G.$+z z z z z %+u } 5+    ",
"  e+q.H+6 z e 1.l.z z %+a 5+5+5+J J 5+5+5+5+J J J J 5+J J J 5+J J 5+J i.m z z l.9 I+z S.J+r.~   ",
"  & K+%+S.L+1 9.c.z z 2 0._._._._._._._._._._._._._._._._._._._._._._.h.7.z z u.[ 5 -.^.S.M+&   ",
"  q N+#+/ D+  O+P+z z Q+C.) ) ) ) ) ) ) ) ) ) ) ) ) ) ) ) ) ) ) ) ) ) R % z z $+z+  ; R+S+'.T+  ",
"  :.J+k       . w z z u U+5.5.5.5.5.5.5.5.5.5.5.5.5.5.5.5.5.5.5.5.5.5.5.c z z s.+.      +.V+C.  ",
"                W+z z X+^ C.C.C.C.C.C.C.C.C.C.C.C.C.C.C.C.C.C.C.C.C.C.C.7 z z ]+-               ",
"                Y+z z G+j H.H.H.H.H.H.H.H.H.H.H.H.H.H.H.H.H.H.H.H.H.H...7 z z x+                ",
"                4 Z+z :.h `+j j j j j j j j j j `+j j `+j j j j j j j B. @2.I+^                 ",
"                  v.]+d..@h h h h h h h h h h h h h h h h h h h h h h * d #++@_                 ",
"                  m.W+Y+@@.@.@.@.@.@.@.@.@g .@.@g g .@.@.@.@.@.@.@.@.@U.{+C  @                  ",
"                  . Q+1 9.#@9.9.$@$@R+g./.@@@@@@@@@@@@/./.R+#@$@$@9.$@9.Y+&.e+                  ",
"                    + %@&@*@=@-@;@>@:.X+' R.$@#@#@#@9.7  @,@'@)@!@~@{@]@^@/@(@                  ",
"                - _@:@<@[@}@|@1@2@3@4@5@6@t G+7 R.5 X+).7@8@9@0@a@b@c@d@e@f@g@-                 ",
"          - . w+h@i@j@k@l@m@n@o@p@q@r@s@t@u@A.e.> t v@w@x@y@z@A@B@C@D@E@F@G@H@I@e+_ -           ",
"        _ ; Q J@K@L@M@M@N@O@P@Q@R@S@T@U@V@W@X@& A.u Y@Z@`@ #.#+#@###$#%#&#M@*#=#-#= g+|.-       ",
"      _ O+J ;#>#,#'#)#!#~#{#]#^#/#(#_# #:#<#[#8.}#|#1#2#3#4#5#6#7#8#{#9#0#)#a#b#c#d#_.p+w+-     ",
"    - { j.a.e#f#g#h#i#j#k#l#m#n#o#p#q#r#s#t#u#O v#w#x#y#z#A#B#C#D#E#l#k#F#j#G#H#I#J#t.h.Q _     ",
"    . x i.j K#L#M#N#O#P#Q#R#S#T#U#V#W#X#Y#Z#`#s 8  $.$+$@$#$$$%$&$*$R#=$Q#-$;$>$,$'$h 5.= |.    ",
"    - ~ (.0.)$!$~${$]$^$/$($_$:$<$[$}$|$1$2$3$& 4$5$6$7$8$9$0$a$b$_$($c$^$d$e$f$g$h$x.z++..     ",
"      . ; 2+i$j$k$l$m$n$o$p$q$r$s$t$u$v$w$x$y$z$#@#@A$B$C$D$E$s$F$q$G$o$H$m$I$J$K$P (.+._       ",
"        - |.g+p++ 6.3 0 H.t.m.f * ^+.@.@V+V+V+U.U.U.V+V+V+.@g * h B.`+..C.n.i.5+= +.w+.         ",
"            - . w+; +.p+2+(.j.6.h.R n.5.0.0.a a a a a 0.w.n.3 P k z++ !.! O+g+w+_ -             ",
"                    - . _ |.e+~ g+{ x O+h+h+Q Q Q Q h+h+O+x +.g+; e+w+_ . - -                   "};
