/* XPM */
static const char * linux_32_xpm[] = {
"32 32 327 2",
"  	c #FFFFFF",
". 	c #F4F4F4",
"+ 	c #BDBDBD",
"@ 	c #B7B7B7",
"# 	c #AEAEAE",
"$ 	c #ADADAD",
"% 	c #B1B1B1",
"& 	c #BCBCBC",
"* 	c #F8F8F8",
"= 	c #FAFAFA",
"- 	c #9D9D9D",
"; 	c #A9A9A9",
"> 	c #ECECEC",
", 	c #F1F1F1",
"' 	c #DFDFDF",
") 	c #8A8A8A",
"! 	c #A0A0A0",
"~ 	c #FDFDFD",
"{ 	c #EFEFEF",
"] 	c #5D5D5D",
"^ 	c #C1C1C1",
"/ 	c #DCDCDC",
"( 	c #999999",
"_ 	c #5C5C5C",
": 	c #F7F7F7",
"< 	c #F9F9F9",
"[ 	c #3F3F3F",
"} 	c #989898",
"| 	c #C4C4C4",
"1 	c #C2C2C2",
"2 	c #616161",
"3 	c #585858",
"4 	c #FEFEFE",
"5 	c #858585",
"6 	c #292929",
"7 	c #9C9C9C",
"8 	c #787878",
"9 	c #757575",
"0 	c #797979",
"a 	c #A2A2A2",
"b 	c #A8A8A8",
"c 	c #050505",
"d 	c #A6A6A6",
"e 	c #F2F2F2",
"f 	c #111111",
"g 	c #393939",
"h 	c #515151",
"i 	c #626262",
"j 	c #ABABAB",
"k 	c #666666",
"l 	c #545454",
"m 	c #898989",
"n 	c #717171",
"o 	c #707070",
"p 	c #7B7B7B",
"q 	c #1D1D1D",
"r 	c #272727",
"s 	c #FCFCFC",
"t 	c #000000",
"u 	c #161616",
"v 	c #EAEAEA",
"w 	c #F3F3F3",
"x 	c #DDDDDD",
"y 	c #404040",
"z 	c #3C3C3C",
"A 	c #323232",
"B 	c #828282",
"C 	c #444444",
"D 	c #414141",
"E 	c #151515",
"F 	c #C9C9C9",
"G 	c #080808",
"H 	c #737373",
"I 	c #CACACA",
"J 	c #DEDEDE",
"K 	c #E7E7E7",
"L 	c #2B2B2B",
"M 	c #9A9A9A",
"N 	c #C8C8C8",
"O 	c #464646",
"P 	c #020202",
"Q 	c #8E8E8E",
"R 	c #4F4F4F",
"S 	c #9F9F9F",
"T 	c #D1D1D1",
"U 	c #7F7F7F",
"V 	c #D9D9D9",
"W 	c #DBDBDB",
"X 	c #6C6C6C",
"Y 	c #343434",
"Z 	c #CFCFCF",
"` 	c #D8D8D8",
" .	c #4C4C4C",
"..	c #010101",
"+.	c #1F1F1F",
"@.	c #4B4B4B",
"#.	c #D5D5D5",
"$.	c #CBCBCB",
"%.	c #0B0B0B",
"&.	c #FBFBFB",
"*.	c #747474",
"=.	c #CCCCCC",
"-.	c #D2D2D2",
";.	c #9F9D97",
">.	c #504525",
",.	c #574C2C",
"'.	c #9E9C96",
").	c #C6C6C6",
"!.	c #C7C7C7",
"~.	c #B9B9B9",
"{.	c #D2B36A",
"].	c #E7BF41",
"^.	c #F6E6A0",
"/.	c #F9F1C5",
"(.	c #F2E5AE",
"_.	c #C6B988",
":.	c #4E4E4E",
"<.	c #060606",
"[.	c #070707",
"}.	c #EBEBEB",
"|.	c #939393",
"1.	c #0D0D0D",
"2.	c #D4A940",
"3.	c #E8BE07",
"4.	c #EDD122",
"5.	c #F6EA88",
"6.	c #F9F2BB",
"7.	c #D5C483",
"8.	c #141414",
"9.	c #CECECE",
"0.	c #696969",
"a.	c #BFBFBF",
"b.	c #ABA18B",
"c.	c #E1B93D",
"d.	c #E9C405",
"e.	c #ECCE19",
"f.	c #E3C859",
"g.	c #CECABC",
"h.	c #131313",
"i.	c #D6D6D6",
"j.	c #7C7C7C",
"k.	c #2E2E2E",
"l.	c #F6F6F6",
"m.	c #E6E6E6",
"n.	c #C7BCA1",
"o.	c #E5BB3C",
"p.	c #E1B110",
"q.	c #CAC0A4",
"r.	c #ACACAC",
"s.	c #252525",
"t.	c #BABABA",
"u.	c #848484",
"v.	c #F0F0F0",
"w.	c #E5E5E5",
"x.	c #DBD2BF",
"y.	c #DBD2BD",
"z.	c #E3E3E3",
"A.	c #4A4A4A",
"B.	c #2D2D2D",
"C.	c #8C8C8C",
"D.	c #C0C0C0",
"E.	c #909090",
"F.	c #2F2F2F",
"G.	c #E8E8E8",
"H.	c #AFAFAF",
"I.	c #B5B5B5",
"J.	c #121212",
"K.	c #090909",
"L.	c #0A0A0A",
"M.	c #D3D3D3",
"N.	c #E4E4E4",
"O.	c #1A1A1A",
"P.	c #727272",
"Q.	c #1C1C1C",
"R.	c #595959",
"S.	c #484848",
"T.	c #494949",
"U.	c #3D3D3D",
"V.	c #202020",
"W.	c #636363",
"X.	c #6D6D6D",
"Y.	c #6A6A6A",
"Z.	c #D0D0D0",
"`.	c #686868",
" +	c #EDEDED",
".+	c #CDCDCD",
"++	c #6E6E6E",
"@+	c #C5C5C5",
"#+	c #BBBBBB",
"$+	c #BEBEBE",
"%+	c #7E7E7E",
"&+	c #606060",
"*+	c #B3B3B3",
"=+	c #B4B4B4",
"-+	c #B6B6B6",
";+	c #9C967C",
">+	c #AFA05D",
",+	c #AE9A47",
"'+	c #A99649",
")+	c #A49562",
"!+	c #A19D90",
"~+	c #A7A7A7",
"{+	c #AAAAAA",
"]+	c #A3A099",
"^+	c #A49769",
"/+	c #A9964C",
"(+	c #AD9A46",
"_+	c #AF9E57",
":+	c #948B68",
"<+	c #FDFDFC",
"[+	c #F7F3E4",
"}+	c #E0CB6A",
"|+	c #E3D79A",
"1+	c #E9E7D3",
"2+	c #E4E1D0",
"3+	c #D3C994",
"4+	c #B89E21",
"5+	c #A98603",
"6+	c #9D8540",
"7+	c #9A9996",
"8+	c #A0A09F",
"9+	c #9B8954",
"0+	c #A78508",
"a+	c #B3960A",
"b+	c #CEC076",
"c+	c #E2DEC5",
"d+	c #EAE8D9",
"e+	c #E7DFB4",
"f+	c #E2CF77",
"g+	c #F3ECCF",
"h+	c #F5F5F5",
"i+	c #E6E5E0",
"j+	c #D9BD2D",
"k+	c #F0E69E",
"l+	c #F4EDB7",
"m+	c #F3ECB7",
"n+	c #F1E9B5",
"o+	c #EBE3B1",
"p+	c #DDD297",
"q+	c #B89A08",
"r+	c #A88700",
"s+	c #987E30",
"t+	c #929292",
"u+	c #93814C",
"v+	c #A68400",
"w+	c #B59700",
"x+	c #D5C46A",
"y+	c #EAE2B0",
"z+	c #F0E8B5",
"A+	c #F3EDB7",
"B+	c #F3EDB6",
"C+	c #DDC338",
"D+	c #E4DFCC",
"E+	c #C9BA7D",
"F+	c #DDC20B",
"G+	c #EEE277",
"H+	c #EEE177",
"I+	c #EEDF77",
"J+	c #EEDD77",
"K+	c #ECDA76",
"L+	c #E6D373",
"M+	c #CAAC16",
"N+	c #B19300",
"O+	c #A48001",
"P+	c #7F796A",
"Q+	c #81807C",
"R+	c #9F7C09",
"S+	c #AE9000",
"T+	c #C4A400",
"U+	c #E2CD60",
"V+	c #EBDA76",
"W+	c #EDDD76",
"X+	c #EEDE77",
"Y+	c #EEE077",
"Z+	c #E3CE35",
"`+	c #CCB75C",
" @	c #EEEEEE",
".@	c #C6B365",
"+@	c #DBBB00",
"@@	c #E3CA27",
"#@	c #E5CC36",
"$@	c #E5C936",
"%@	c #E5C736",
"&@	c #E5C536",
"*@	c #E0BF29",
"=@	c #CFAA01",
"-@	c #B79600",
";@	c #A78100",
">@	c #827963",
",@	c #807D76",
"'@	c #A47E04",
")@	c #B49300",
"!@	c #CCA800",
"~@	c #DDBA19",
"{@	c #E4C536",
"]@	c #E5C937",
"^@	c #E5CB36",
"/@	c #E4CC32",
"(@	c #DCBD06",
"_@	c #C9B04D",
":@	c #D4D2C9",
"<@	c #D1BA62",
"[@	c #CFB44E",
"}@	c #CDB250",
"|@	c #CBB051",
"1@	c #CBAD50",
"2@	c #CAAC4D",
"3@	c #C8A947",
"4@	c #C2A447",
"5@	c #B69B47",
"6@	c #AF9B63",
"7@	c #B2B2B1",
"8@	c #B2B2B2",
"9@	c #AF9F75",
"0@	c #B59A48",
"a@	c #C1A347",
"b@	c #C7A847",
"c@	c #C9AB4B",
"d@	c #CBAF51",
"e@	c #CDB251",
"f@	c #CEB34E",
"g@	c #D1B759",
"h@	c #D3CCB8",
"i@	c #DADADA",
"j@	c #C3C3C3",
"k@	c #E2E2E2",
"l@	c #E9E9E9",
"                        . + @ # $ % & *                         ",
"                    = - ; > , , , , ' ) ! ~                     ",
"                  { ] ^ / / / / / / / / ( _ :                   ",
"                < [ } | 1 1 | | | | | | | 2 3 4                 ",
"                5 6 7 8 9 9 0 a b b b b b - c d                 ",
"              e f g h i j j k l m 5 n o p ) q r s               ",
"              j t u g @ v w x y z A 9 B C D E t F               ",
"              n t G H I J K x 0 L M N > x O P t Q               ",
"              R t t S T / x o U i $ V W W d c t X               ",
"              Y t t a Z ` `  ...+.@.#.#.$.M %.t h               ",
"            &.f t t *.=.-.-.;.>.,.'.).!.~.k t t L               ",
"            ` ..t t +.% I {.].^./.(._.M :.<.t t [.}.            ",
"            |.t t t 1.B M 2.3.4.5.6.7.& a 8.t t G S             ",
"          9.0.t t %.a.' !.b.c.d.e.f.g.e : T h.t ..H 9.          ",
"        i.j.k.t t ( l.. e m.n.o.p.q.> l.l.l.r...t s.B #.        ",
"      t.u.z t t Y v., , , , w.x.y.z.v., , , , A.t t B.C.D.      ",
"    b E.F.t t t } }.}.}.}.}.v G.G.v }.}.}.}.}.H.t t t q ) r.    ",
"  I.u.J.K.L.t 1.M.w.w.w.w.w.w.N.N.w.w.w.w.w.w.x O.t %.E G 0 @   ",
"v P.Q.R.& S.t g #.x x x J x x x x J x x x x x / T.t U.T 8 V.W.}.",
"z.X.^ 4   Y.t ] Z.i.i.i.i.i.i.i.i.i.i.i.i.i.i.#.`.t l     ` 5  +",
"          } t n F 9.9.9.9.9.9.9.9.9.9.9.9.9.9..+*.t u.          ",
"          J G ++1 ).).).).).).).).).).).).).).@+P.L..+          ",
"            Y.9 #+$+$+$+$+$+$+$+$+$+$+$+$+$+$+& %+&+4           ",
"            =.0 *+*+*+=+I.-+@ @ @ @ @ I.=+*+*+*+B &             ",
"              ;+>+,+'+)+!+~+# % % H.{+]+^+/+(+_+:+<+            ",
"        ~ [+}+|+1+2+3+4+5+6+7+b {+8+9+0+a+b+c+d+e+f+g+~         ",
"    ~ h+i+j+k+l+m+n+o+p+q+r+s+t+} u+v+w+x+y+z+m+A+B+C+D+w s     ",
"  4 w i.E+F+G+H+I+J+K+L+M+N+O+P+Q+R+S+T+U+V+W+X+Y+G+Z+`+T  @~   ",
"  4 { =..@+@@@#@$@%@&@*@=@-@;@>@,@'@)@!@~@{@%@]@^@/@(@_@).G.s   ",
"    = G.:@<@[@}@|@1@2@3@4@5@6@7@8@9@0@a@b@c@1@d@e@f@g@h@N.* 4   ",
"      ~ :  @N.i@-.$.).j@D.a.$+$+$+$+$+D.1 ).I T ` k@> l.s       ",
"          4 ~ &.* h+e { > v l@l@l@l@v }. @, . * &.~ 4           "};
