/* XPM */
static const char * macos_32_xpm[] = {
"32 32 523 2",
"  	c #FFFFFF",
". 	c #FEFEFE",
"+ 	c #C3C3C3",
"@ 	c #FCFCFC",
"# 	c #B3B3B3",
"$ 	c #5B5B5B",
"% 	c #D2D2D2",
"& 	c #EBEBEB",
"* 	c #5C5C5C",
"= 	c #AAAAAA",
"- 	c #F9F9F9",
"; 	c #FBFCFC",
"> 	c #616161",
", 	c #767676",
"' 	c #F3F3F3",
") 	c #FBFAF9",
"! 	c #B3C6E5",
"~ 	c #B9CEEB",
"{ 	c #BACEEA",
"] 	c #B9CEEA",
"^ 	c #BACDEA",
"/ 	c #BACDEB",
"( 	c #828C99",
"_ 	c #4F4F4E",
": 	c #DDE0E8",
"< 	c #E4E7EF",
"[ 	c #E3E6EE",
"} 	c #E7E7EA",
"| 	c #F3F2F1",
"1 	c #A6BEE3",
"2 	c #D1E0F9",
"3 	c #CFDFF9",
"4 	c #CEDFF9",
"5 	c #CEDDF7",
"6 	c #515151",
"7 	c #C5C7CC",
"8 	c #F3F5FC",
"9 	c #F2F5FD",
"0 	c #F2F5FC",
"a 	c #F2F5FB",
"b 	c #EBEFF7",
"c 	c #D6D7DA",
"d 	c #FDFDFD",
"e 	c #F4F3F1",
"f 	c #95B4E2",
"g 	c #BFD5F6",
"h 	c #BDD4F5",
"i 	c #BED3F5",
"j 	c #BED5F6",
"k 	c #6C747E",
"l 	c #4A4A49",
"m 	c #ECF0FB",
"n 	c #EEF2FC",
"o 	c #EDF1FC",
"p 	c #EEF1FC",
"q 	c #E7EBF6",
"r 	c #D5D7DA",
"s 	c #F5F4F2",
"t 	c #83AAE0",
"u 	c #ABC8F2",
"v 	c #ABC7F1",
"w 	c #AAC7F1",
"x 	c #A2BCE4",
"y 	c #747F93",
"z 	c #A2BCE3",
"A 	c #A5C1EA",
"B 	c #424141",
"C 	c #C8CCD6",
"D 	c #EAEEF9",
"E 	c #E9EDF9",
"F 	c #BCBFC7",
"G 	c #999CA2",
"H 	c #EEF2FE",
"I 	c #E9ECFA",
"J 	c #E3E8F5",
"K 	c #D4D6DB",
"L 	c #F6F4F2",
"M 	c #719FDF",
"N 	c #99BBEE",
"O 	c #97BBEE",
"P 	c #97BAEF",
"Q 	c #98BBEE",
"R 	c #97BAEE",
"S 	c #88A6D2",
"T 	c #2B2823",
"U 	c #88A6D1",
"V 	c #98BBEF",
"W 	c #96B9ED",
"X 	c #667893",
"Y 	c #353534",
"Z 	c #E4E8F7",
"` 	c #E4E8F8",
" .	c #E5E9F8",
"..	c #85878E",
"+.	c #3D3D3D",
"@.	c #F0F3FF",
"#.	c #E7E9F8",
"$.	c #E5EAF9",
"%.	c #E6E9F9",
"&.	c #E4E9F9",
"*.	c #E5E8F8",
"=.	c #DFE5F6",
"-.	c #6192D9",
";.	c #7BA2E4",
">.	c #799FE3",
",.	c #799FE2",
"'.	c #7B9EE2",
").	c #7C9EE2",
"!.	c #6D8AC3",
"~.	c #15120D",
"{.	c #6C88C2",
"].	c #7B9CE0",
"^.	c #7C9DE1",
"/.	c #7D9BDE",
"(.	c #171614",
"_.	c #7A7F8C",
":.	c #D2D9F3",
"<.	c #D1D9F3",
"[.	c #CFD8F2",
"}.	c #6F7480",
"|.	c #272729",
"1.	c #D9E3FE",
"2.	c #D1DAF2",
"3.	c #D2DAF3",
"4.	c #D3DBF4",
"5.	c #D4DCF4",
"6.	c #D6DEF4",
"7.	c #D4DDF2",
"8.	c #D1D3DB",
"9.	c #F6F5F2",
"0.	c #5C84CE",
"a.	c #678EDA",
"b.	c #6B91DC",
"c.	c #6F95DD",
"d.	c #7398DE",
"e.	c #799AE0",
"f.	c #6D8AC5",
"g.	c #1A1C20",
"h.	c #6E8AC5",
"i.	c #7C9DE0",
"j.	c #7D9EE1",
"k.	c #6E8AC2",
"l.	c #151515",
"m.	c #D6E0F8",
"n.	c #D2DAF4",
"o.	c #D0DBF3",
"p.	c #D0D9F2",
"q.	c #797C8B",
"r.	c #35373B",
"s.	c #D7E2FE",
"t.	c #CDD7F3",
"u.	c #CDD7F2",
"v.	c #CDD8F2",
"w.	c #C9D3F0",
"x.	c #CDD0D9",
"y.	c #648CD8",
"z.	c #678EDB",
"A.	c #6C92DD",
"B.	c #7096DD",
"C.	c #7499DF",
"D.	c #7A9BE0",
"E.	c #7FA3EA",
"F.	c #7C9DE2",
"G.	c #7FA0E4",
"H.	c #455371",
"I.	c #242527",
"J.	c #D1DBF4",
"K.	c #D1DAF4",
"L.	c #D0D8F2",
"M.	c #D3DDF8",
"N.	c #D5E0FC",
"O.	c #CCD6F1",
"P.	c #CBD4F1",
"Q.	c #CBD5F0",
"R.	c #C8D1EE",
"S.	c #CDD1D9",
"T.	c #5A82CD",
"U.	c #5F87D7",
"V.	c #618BD7",
"W.	c #678DDA",
"X.	c #6C92DA",
"Y.	c #6F96DD",
"Z.	c #7497DE",
"`.	c #779ADF",
" +	c #799ADF",
".+	c #7A9BDF",
"++	c #7FA0E5",
"@+	c #151616",
"#+	c #676A75",
"$+	c #D1D9F2",
"%+	c #CFDAF3",
"&+	c #D0D8F1",
"*+	c #CED8F2",
"=+	c #CED8F3",
"-+	c #CBD5F1",
";+	c #CAD3F0",
">+	c #C9D2F0",
",+	c #C8D2EF",
"'+	c #C7D0ED",
")+	c #CED1DA",
"!+	c #F7F5F2",
"~+	c #5A83CE",
"{+	c #5B84D4",
"]+	c #5D87D5",
"^+	c #688ED9",
"/+	c #6C92D9",
"(+	c #6F95DC",
"_+	c #7296DD",
":+	c #7597DD",
"<+	c #7699DE",
"[+	c #718FCF",
"}+	c #0E0C09",
"|+	c #BAC1D7",
"1+	c #D0DAF2",
"2+	c #CFD9F2",
"3+	c #C8D3F1",
"4+	c #C6D1EF",
"5+	c #C3CEEC",
"6+	c #5981CD",
"7+	c #5681D1",
"8+	c #5A84D4",
"9+	c #5D86D5",
"0+	c #638AD6",
"a+	c #688ED7",
"b+	c #6C91D9",
"c+	c #6F94DB",
"d+	c #7095DC",
"e+	c #7196DD",
"f+	c #607EB7",
"g+	c #161514",
"h+	c #D7E2FC",
"i+	c #CFD9F5",
"j+	c #CFD8F4",
"k+	c #CED8F4",
"l+	c #CCD5F2",
"m+	c #CCD5F1",
"n+	c #C9D3F1",
"o+	c #C7D2F0",
"p+	c #C7D2F1",
"q+	c #C4CFEE",
"r+	c #C3CEED",
"s+	c #C1CCEA",
"t+	c #5881CD",
"u+	c #557FD1",
"v+	c #5983D2",
"w+	c #5C84D4",
"x+	c #6288D5",
"y+	c #678DD6",
"z+	c #6B90D8",
"A+	c #6E93DA",
"B+	c #6E93DB",
"C+	c #7095DB",
"D+	c #5771A6",
"E+	c #232425",
"F+	c #D6DDFA",
"G+	c #CDD8F3",
"H+	c #C9D4F1",
"I+	c #C4CFEF",
"J+	c #C1CCEC",
"K+	c #BFCAEA",
"L+	c #5881CC",
"M+	c #547ED0",
"N+	c #5881D1",
"O+	c #5C84D3",
"P+	c #6187D4",
"Q+	c #678CD5",
"R+	c #6B90D7",
"S+	c #6D92D9",
"T+	c #6F94DC",
"U+	c #4E638F",
"V+	c #171717",
"W+	c #2A2B2E",
"X+	c #292A2D",
"Y+	c #1D1E1F",
"Z+	c #C8D1F0",
"`+	c #C5D0F0",
" @	c #C2CDED",
".@	c #C0CBEB",
"+@	c #BDC9E9",
"@@	c #CED0D9",
"#@	c #5982CD",
"$@	c #537DCF",
"%@	c #567FCF",
"&@	c #5B82D1",
"*@	c #6086D3",
"=@	c #648AD4",
"-@	c #698ED6",
";@	c #6D91D7",
">@	c #6E93D9",
",@	c #7093DA",
"'@	c #5B76AA",
")@	c #3D4B68",
"!@	c #3D4B67",
"~@	c #3E4B67",
"{@	c #181A1C",
"]@	c #4B4F57",
"^@	c #CBD6F5",
"/@	c #C5D0EE",
"(@	c #C2CEEE",
"_@	c #BECBEB",
":@	c #BDC8E8",
"<@	c #BAC6E6",
"[@	c #CDD1D8",
"}@	c #517BCD",
"|@	c #557DCD",
"1@	c #577FCF",
"2@	c #6085D3",
"3@	c #658AD4",
"4@	c #6C91D7",
"5@	c #6F91D7",
"6@	c #7193D9",
"7@	c #7394D9",
"8@	c #7496DA",
"9@	c #7495DB",
"0@	c #7497DD",
"a@	c #1C1E22",
"b@	c #8B91A6",
"c@	c #C6D2EF",
"d@	c #C4CFED",
"e@	c #C2CDEE",
"f@	c #BFCBEB",
"g@	c #BCC9E9",
"h@	c #B9C6E6",
"i@	c #B6C3E3",
"j@	c #CDCFD8",
"k@	c #5680CB",
"l@	c #4E78CA",
"m@	c #517ACC",
"n@	c #537CCC",
"o@	c #4866A3",
"p@	c #3F5583",
"q@	c #6289D9",
"r@	c #658AD6",
"s@	c #668BD4",
"t@	c #688DD4",
"u@	c #6A8ED5",
"v@	c #6C8FD6",
"w@	c #6F8FD6",
"x@	c #18191B",
"y@	c #A8B1CA",
"z@	c #C2CDEB",
"A@	c #C6D2F2",
"B@	c #B5BFDD",
"C@	c #5A5F6C",
"D@	c #C3CFF0",
"E@	c #B8C3E3",
"F@	c #B4BFDF",
"G@	c #CCCFD7",
"H@	c #557FC9",
"I@	c #4B75C7",
"J@	c #507ACC",
"K@	c #304265",
"L@	c #12110D",
"M@	c #141414",
"N@	c #2F3D59",
"O@	c #465F91",
"P@	c #5978BB",
"Q@	c #658BD9",
"R@	c #6890DC",
"S@	c #6A90DC",
"T@	c #6B92DC",
"U@	c #6E96E1",
"V@	c #141415",
"W@	c #B5BEDA",
"X@	c #BEC9E7",
"Y@	c #9CA5BD",
"Z@	c #72788A",
"`@	c #3A3C44",
" #	c #050401",
".#	c #28292C",
"+#	c #A2ACC8",
"@#	c #B8C4E4",
"##	c #B3C0E0",
"$#	c #B0BDDD",
"%#	c #CBCED6",
"&#	c #527CC7",
"*#	c #4772C4",
"=#	c #4A74C6",
"-#	c #4D77C9",
";#	c #547ED2",
">#	c #38507E",
",#	c #252E42",
"'#	c #161819",
")#	c #0F0B04",
"!#	c #0F0C04",
"~#	c #17191C",
"{#	c #20252F",
"]#	c #232A38",
"^#	c #232936",
"/#	c #10100E",
"(#	c #090806",
"_#	c #27282C",
":#	c #4C505A",
"<#	c #919AB2",
"[#	c #C1CCEE",
"}#	c #B6C1E1",
"|#	c #B4C0E0",
"1#	c #B2BDDD",
"2#	c #AFBADA",
"3#	c #CBCED7",
"4#	c #507BC5",
"5#	c #446EC0",
"6#	c #4670C2",
"7#	c #4873C5",
"8#	c #4C76C8",
"9#	c #4F79CB",
"0#	c #527BCB",
"a#	c #5985DA",
"b#	c #557BC8",
"c#	c #45629C",
"d#	c #3A507C",
"e#	c #344669",
"f#	c #324161",
"g#	c #344463",
"h#	c #6E7585",
"i#	c #9AA2BB",
"j#	c #BFCBEA",
"k#	c #BECAE9",
"l#	c #B6C1E0",
"m#	c #B5C0DE",
"n#	c #B4BFDD",
"o#	c #B3BEDE",
"p#	c #B1BCDC",
"q#	c #ABB6D6",
"r#	c #CBCDD6",
"s#	c #507AC4",
"t#	c #426DBB",
"u#	c #436EBD",
"v#	c #456FC1",
"w#	c #4973C5",
"x#	c #4C76C6",
"y#	c #4F79C9",
"z#	c #527BCD",
"A#	c #537CCE",
"B#	c #557ECF",
"C#	c #557ECE",
"D#	c #587FCE",
"E#	c #587FCD",
"F#	c #5B81CD",
"G#	c #161719",
"H#	c #9DA7C0",
"I#	c #B6C1DF",
"J#	c #B3BEDC",
"K#	c #B2BDDB",
"L#	c #B2BCDB",
"M#	c #B0BBD9",
"N#	c #ADB8D8",
"O#	c #A9B4D3",
"P#	c #4E79C3",
"Q#	c #406BBA",
"R#	c #416CBC",
"S#	c #426DBC",
"T#	c #4670BF",
"U#	c #4972C2",
"V#	c #4D76C6",
"W#	c #4F78C8",
"X#	c #527BCA",
"Y#	c #547CCC",
"Z#	c #557CCC",
"`#	c #557CC9",
" $	c #557AC8",
".$	c #547BC6",
"+$	c #191B20",
"@$	c #828AA0",
"#$	c #B1BCDA",
"$$	c #AFBAD8",
"%$	c #ADB8D6",
"&$	c #ABB6D4",
"*$	c #AAB5D5",
"=$	c #A8B3D3",
"-$	c #A7B2D2",
";$	c #CACDD5",
">$	c #3F6AB9",
",$	c #406CBB",
"'$	c #436CBC",
")$	c #466FBF",
"!$	c #4B72C1",
"~$	c #4E75C4",
"{$	c #4F77C6",
"]$	c #5178C6",
"^$	c #5177C5",
"/$	c #5076C3",
"($	c #5074C2",
"_$	c #4E72BF",
":$	c #1B1E26",
"<$	c #4F535F",
"[$	c #B0BBDA",
"}$	c #ACB7D5",
"|$	c #AAB5D3",
"1$	c #A7B2D1",
"2$	c #A6B1CF",
"3$	c #F6F6F5",
"4$	c #919BAF",
"5$	c #7F889E",
"6$	c #7F899E",
"7$	c #80899E",
"8$	c #808A9F",
"9$	c #828A9F",
"0$	c #828BA0",
"a$	c #828B9F",
"b$	c #818A9D",
"c$	c #45484F",
"d$	c #121213",
"e$	c #9A9DA6",
"f$	c #999CA5",
"g$	c #989BA5",
"h$	c #999BA5",
"i$	c #989AA5",
"j$	c #CECED2",
"k$	c #F3F3F2",
"l$	c #EFEFEF",
"m$	c #EFEEEE",
"n$	c #0B0B0B",
"o$	c #CACACA",
"p$	c #EEEEEE",
"q$	c #F7F7F7",
"r$	c #F8F8F8",
"s$	c #272727",
"t$	c #888888",
"u$	c #7A7A7A",
"v$	c #050505",
"w$	c #F0F0F0",
"x$	c #BDBDBD",
"                                    .   .                       ",
"                                  .   + @                       ",
"                                    # $ %                       ",
"                              .   & * = -                       ",
". . . . . . . . . . . . . . . . ; > , ' . . . . . . . . . . .   ",
"  ) ! ~ { { { ] ] ^ ] ] ] ] ] / ( _ : < < < < < < < < < [ } .   ",
"  | 1 2 3 3 4 3 3 3 3 3 3 3 3 5 6 7 8 9 0 9 0 0 a 0 0 9 b c d   ",
"  e f g h h h h h h h h i h j k l m n n o p o n n o n n q r d   ",
"  s t u v w w v x y z w v w A B C D E E F G H I E E I E J K d   ",
"  L M N O P Q R S T U V W P X Y Z `  . ...+.@.#.$.%.&.*.=.K d   ",
"  L -.;.>.,.'.).!.~.{.].^./.(._.:.<.<.[.}.|.1.2.3.4.5.6.7.8.d   ",
"  9.0.a.b.c.d.e.f.g.h.i.j.k.l.m.n.o.<.p.q.r.s.t.u.v.u.u.w.x.d   ",
"  9.0.y.z.A.B.C.D.E.F.i.G.H.I.J.K.p.p.L.M.N.u.O.O.O.P.Q.R.S.d   ",
"  9.T.U.V.W.X.Y.Z.`. +.+++@+#+:.$+%+&+*+=+u.O.O.-+;+>+,+'+)+d   ",
"  !+~+{+]+V.^+/+(+_+:+<+[+}+|+:.1+2+*+=+O.O.P.;+>+3+4+4+5+)+d   ",
"  9.6+7+8+9+0+a+b+c+d+e+f+g+h+i+j+k+*+l+m+P.n+o+p+4+q+r+s+)+d   ",
"  !+t+u+v+w+x+y+z+A+B+C+D+E+F+G+=+u.l+P.H+o+o+4+4+I+I+J+K+)+d   ",
"  !+L+M+N+O+P+Q+R+S+A+T+U+V+W+X+X+X+Y+>+Z+o+4+`+`+I+ @.@+@@@d   ",
"  !+#@$@%@&@*@=@-@;@>@,@'@)@!@~@~@{@]@^@4+/@I+I+(@ @_@:@<@[@d   ",
"  9.L+}@|@1@&@2@3@-@4@5@6@7@8@9@0@a@b@c@d@5+e@ @ @f@g@h@i@j@d   ",
"  9.k@l@m@n@o@p@q@r@s@t@u@v@w@5@,@x@y@5+z@s+A@B@C@D@h@E@F@G@d   ",
"  !+H@I@l@J@K@L@M@N@O@P@Q@R@S@T@U@V@W@X@Y@Z@`@ #.#+#@###$#%#d   ",
"  !+&#*#=#-#J@;#>#,#'#)#!#~#{#]#^#l./# #(#_#:#<#[#}#|#1#2#3#d   ",
"  9.4#5#6#7#8#9#0#u+a#b#c#d#e#f#g#V@h#i#j#k#l#m#n#o#p#2#q#r#d   ",
"  !+s#t#u#v#w#x#y#z#A#B#C#%@D#E#F#G#H#I#m#J#K#L#M#2#N#q#O#r#d   ",
"  !+P#Q#R#S#T#U#V#W#X#n@Y#Z#`# $.$+$@$K##$M#$$N#%$&$*$=$-$;$d   ",
"  !+P#>$>$,$'$)$!$~${$]$]$^$/$($_$:$<$[$}$}$&$|$|$=$-$1$2$;$d   ",
"  3$4$5$5$6$7$7$8$9$0$a$a$0$0$a$b$c$d$e$f$f$f$g$h$g$i$h$h$j$d   ",
"  @ k$l$l$l$l$m$l$l$l$l$l$l$l$l$l$% n$o$l$p$l$p$l$l$l$l$l$q$.   ",
".                                 r$s$t$                        ",
"                                  . u$v$q$                      ",
"                                    w$x$@                       "};
