/* XPM */
static const char * suse_32_xpm[] = {
"32 32 447 2",
"  	c None",
". 	c #5A7157",
"+ 	c #A1AE9F",
"@ 	c #BCC6BA",
"# 	c #BCC6B9",
"$ 	c #BDC6BA",
"% 	c #BBC6B9",
"& 	c #B4BFB3",
"* 	c #7A8D78",
"= 	c #294623",
"- 	c #294725",
"; 	c #98A695",
"> 	c #BCC7BA",
", 	c #BDC9BA",
"' 	c #BFCBBA",
") 	c #C0CBBA",
"! 	c #C0CCBA",
"~ 	c #BECABA",
"{ 	c #BDC8BA",
"] 	c #B2BDB0",
"^ 	c #586F54",
"/ 	c #324F2D",
"( 	c #9DAD99",
"_ 	c #B9C7B3",
": 	c #B9C7B1",
"< 	c #BBCAB3",
"[ 	c #BDCBB3",
"} 	c #BDCCB3",
"| 	c #BDCDB3",
"1 	c #BCCCB3",
"2 	c #BBCBB2",
"3 	c #BAC7B1",
"4 	c #B7C5B2",
"5 	c #B5C2B2",
"6 	c #5E755B",
"7 	c #0E3009",
"8 	c #22461A",
"9 	c #8DA286",
"0 	c #AFC2AA",
"a 	c #ABBFA4",
"b 	c #AFC5A6",
"c 	c #B3C8A8",
"d 	c #B5CAA8",
"e 	c #B8CEAA",
"f 	c #BBCFAB",
"g 	c #BACEAC",
"h 	c #B8CBAA",
"i 	c #B5C7A9",
"j 	c #B3C4A9",
"k 	c #B0C1A8",
"l 	c #ADBCA8",
"m 	c #45603F",
"n 	c #092C04",
"o 	c #0C3104",
"p 	c #57764E",
"q 	c #AAC2A0",
"r 	c #9BB096",
"s 	c #94A895",
"t 	c #94AB95",
"u 	c #96B195",
"v 	c #9BBA96",
"w 	c #9FC098",
"x 	c #A4C59A",
"y 	c #AAC99C",
"z 	c #B0CB9E",
"A 	c #B4CDA0",
"B 	c #AFC49E",
"C 	c #A9BD9C",
"D 	c #A7B99E",
"E 	c #91A58B",
"F 	c #193B14",
"G 	c #062901",
"H 	c #072800",
"I 	c #0B200C",
"J 	c #7B8C7B",
"K 	c #8BA388",
"L 	c #87A186",
"M 	c #86A286",
"N 	c #86A886",
"O 	c #86AF86",
"P 	c #85B385",
"Q 	c #85B585",
"R 	c #82B484",
"S 	c #84B584",
"T 	c #8BB887",
"U 	c #8FB688",
"V 	c #9EC08E",
"W 	c #A6C191",
"X 	c #9DB48E",
"Y 	c #9EB293",
"Z 	c #47653D",
"` 	c #092B03",
" .	c #175901",
"..	c #011601",
"+.	c #1E391E",
"@.	c #7B907B",
"#.	c #749075",
"$.	c #759475",
"%.	c #759E75",
"&.	c #75A875",
"*.	c #75AF75",
"=.	c #76B476",
"-.	c #72B574",
";.	c #8CC47E",
">.	c #A7D387",
",.	c #A2CF84",
"'.	c #A5CF86",
").	c #84B17A",
"!.	c #85AC79",
"~.	c #97B680",
"{.	c #90AA80",
"].	c #6A865D",
"^.	c #103407",
"/.	c #072902",
"(.	c #062601",
"_.	c #011B01",
":.	c #284728",
"<.	c #678367",
"[.	c #628562",
"}.	c #628F62",
"|.	c #639C63",
"1.	c #63A763",
"2.	c #63AF63",
"3.	c #62B363",
"4.	c #7DC16C",
"5.	c #91CD73",
"6.	c #6AB965",
"7.	c #63B263",
"8.	c #66AE64",
"9.	c #96C876",
"0.	c #6C9D66",
"a.	c #79A369",
"b.	c #87A86F",
"c.	c #729062",
"d.	c #19400A",
"e.	c #082C03",
"f.	c #021901",
"g.	c #021F02",
"h.	c #244624",
"i.	c #537553",
"j.	c #507B50",
"k.	c #508B50",
"l.	c #509950",
"m.	c #51A551",
"n.	c #51AD51",
"o.	c #52B351",
"p.	c #78C65F",
"q.	c #6CC15B",
"r.	c #53B552",
"s.	c #9ED46D",
"t.	c #81C261",
"u.	c #5AA753",
"v.	c #7EB361",
"w.	c #538850",
"x.	c #749D5C",
"y.	c #6B8E55",
"z.	c #214A0D",
"A.	c #0E3105",
"B.	c #072A02",
"C.	c #031B02",
"D.	c #032303",
"E.	c #153D15",
"F.	c #3F683F",
"G.	c #3D723D",
"H.	c #3D853D",
"I.	c #3C943D",
"J.	c #3CA03D",
"K.	c #3EA93E",
"L.	c #44B040",
"M.	c #6CC24F",
"N.	c #56BA47",
"O.	c #43B140",
"P.	c #88CB59",
"Q.	c #6DBB4F",
"R.	c #46A140",
"S.	c #74B151",
"T.	c #35723B",
"U.	c #5D9147",
"V.	c #5B843F",
"W.	c #255110",
"X.	c #123708",
"Y.	c #082A04",
"Z.	c #154C04",
"`.	c #041D03",
" +	c #042604",
".+	c #0A360A",
"++	c #295829",
"@+	c #2B692B",
"#+	c #2B7C2C",
"$+	c #3C9931",
"%+	c #40A533",
"&+	c #2AA22D",
"*+	c #2CA72D",
"=+	c #5BBB3E",
"-+	c #62BE41",
";+	c #2BA92D",
">+	c #23A12A",
",+	c #289C2C",
"'+	c #5DAF3E",
")+	c #549E3B",
"!+	c #266D2A",
"~+	c #427D32",
"{+	c #48762A",
"]+	c #295513",
"^+	c #153B0A",
"/+	c #092B05",
"(+	c #164A05",
"_+	c #051E04",
":+	c #062706",
"<+	c #093509",
"[+	c #144814",
"}+	c #1C5E1C",
"|+	c #1B721D",
"1+	c #369726",
"2+	c #71B83C",
"3+	c #53B231",
"4+	c #2BA824",
"5+	c #27A523",
"6+	c #5BBA36",
"7+	c #67BD3A",
"8+	c #5FB837",
"9+	c #64B738",
"0+	c #53A832",
"a+	c #1F7D1F",
"b+	c #18631B",
"c+	c #2A691E",
"d+	c #3D6F1D",
"e+	c #2B5714",
"f+	c #173C0B",
"g+	c #0A2C06",
"h+	c #195307",
"i+	c #061F05",
"j+	c #072807",
"k+	c #0A340A",
"l+	c #0D410D",
"m+	c #125412",
"n+	c #146B14",
"o+	c #147D15",
"p+	c #5DAE2E",
"q+	c #7CB83C",
"r+	c #6CB837",
"s+	c #4CB22A",
"t+	c #29A51E",
"u+	c #2CA220",
"v+	c #30A121",
"w+	c #2E9A20",
"x+	c #188417",
"y+	c #127214",
"z+	c #287519",
"A+	c #448021",
"B+	c #3D6D1D",
"C+	c #2B5515",
"D+	c #173B0B",
"E+	c #0B2D07",
"F+	c #081E06",
"G+	c #092609",
"H+	c #0C340C",
"I+	c #0F3F0F",
"J+	c #124E12",
"K+	c #156515",
"L+	c #177718",
"M+	c #1D881B",
"N+	c #65B334",
"O+	c #7FB640",
"P+	c #7AB53F",
"Q+	c #75B83B",
"R+	c #55B12F",
"S+	c #34A123",
"T+	c #2B971F",
"U+	c #3E9825",
"V+	c #579C2C",
"W+	c #5D962D",
"X+	c #4B8423",
"Y+	c #3B691D",
"Z+	c #285015",
"`+	c #14380C",
" @	c #0D2E09",
".@	c #092008",
"+@	c #0A240A",
"@@	c #0E300E",
"#@	c #123D12",
"$@	c #154915",
"%@	c #195B19",
"&@	c #1B6F1B",
"*@	c #1E7E1E",
"=@	c #218920",
"-@	c #52A831",
";@	c #79B440",
">@	c #79B041",
",@	c #78AF41",
"'@	c #78AE40",
")@	c #74AA3D",
"!@	c #6CA239",
"~@	c #5D9930",
"{@	c #336F1F",
"]@	c #3C741F",
"^@	c #38631E",
"/@	c #244A14",
"(@	c #11330B",
"_@	c #17440A",
":@	c #0A1F0B",
"<@	c #0E2D0E",
"[@	c #133A13",
"}@	c #174417",
"|@	c #1B511B",
"1@	c #1E631E",
"2@	c #217221",
"3@	c #237D23",
"4@	c #218323",
"5@	c #2F8E28",
"6@	c #4D9E32",
"7@	c #5CA337",
"8@	c #5AA035",
"9@	c #4A932F",
"0@	c #2F7924",
"a@	c #1A581C",
"b@	c #31691F",
"c@	c #416F23",
"d@	c #30581C",
"e@	c #1D4112",
"f@	c #10310B",
"g@	c #0D250B",
"h@	c #112B0F",
"i@	c #183C14",
"j@	c #1C4819",
"k@	c #21501D",
"l@	c #245B21",
"m@	c #266824",
"n@	c #277225",
"o@	c #287728",
"p@	c #267928",
"q@	c #237727",
"r@	c #217426",
"s@	c #206F24",
"t@	c #276E25",
"u@	c #2E6B25",
"v@	c #3E7328",
"w@	c #4A782A",
"x@	c #3A6122",
"y@	c #274C19",
"z@	c #163610",
"A@	c #153510",
"B@	c #1F4E11",
"C@	c #193F0F",
"D@	c #244D17",
"E@	c #2F5C1F",
"F@	c #396825",
"G@	c #42712B",
"H@	c #477B30",
"I@	c #4B8233",
"J@	c #4D8735",
"K@	c #4D8936",
"L@	c #4B8835",
"M@	c #488533",
"N@	c #498333",
"O@	c #4D8132",
"P@	c #528232",
"Q@	c #4F7A2F",
"R@	c #3E6427",
"S@	c #2E521E",
"T@	c #1C3E14",
"U@	c #14340F",
"V@	c #1D4115",
"W@	c #2C4F1E",
"X@	c #3A6026",
"Y@	c #476E2E",
"Z@	c #517A34",
"`@	c #598238",
" #	c #5E883C",
".#	c #618B3D",
"+#	c #628C3D",
"@#	c #5F8A3C",
"##	c #5C8639",
"$#	c #547C36",
"%#	c #4A7030",
"&#	c #3F6429",
"*#	c #315421",
"=#	c #214118",
"-#	c #163611",
";#	c #1A3716",
">#	c #1C3D16",
",#	c #294A1E",
"'#	c #365926",
")#	c #40652C",
"!#	c #486D31",
"~#	c #4E7334",
"{#	c #507736",
"]#	c #4E7535",
"^#	c #4B7032",
"/#	c #44692E",
"(#	c #3B5E29",
"_#	c #2F5222",
":#	c #224219",
"<#	c #183813",
"[#	c #182D14",
"}#	c #1B3A17",
"|#	c #25451D",
"1#	c #2F5022",
"2#	c #375928",
"3#	c #3D5F2B",
"4#	c #3F622D",
"5#	c #40632D",
"6#	c #3E612C",
"7#	c #3A5C29",
"8#	c #325425",
"9#	c #294A1F",
"0#	c #1F3E19",
"a#	c #183415",
"b#	c #182317",
"c#	c #100F10",
"d#	c #0F0F10",
"e#	c #141E12",
"f#	c #193215",
"g#	c #1E3B19",
"h#	c #23411E",
"i#	c #294720",
"j#	c #2C4B22",
"k#	c #2C4C22",
"l#	c #2A4A21",
"m#	c #26451F",
"n#	c #213D1B",
"o#	c #1B3617",
"p#	c #162714",
"q#	c #111311",
"r#	c #0D0D0D",
"s#	c #0E0D0E",
"t#	c #110F11",
"u#	c #151D13",
"v#	c #192916",
"w#	c #1A3017",
"x#	c #1C3319",
"y#	c #1C3419",
"z#	c #1B3118",
"A#	c #192C16",
"B#	c #162314",
"C#	c #121512",
"D#	c #0F0D0F",
"E#	c #0D0D0E",
"F#	c #101010",
"G#	c #121212",
"H#	c #131113",
"I#	c #141214",
"J#	c #151415",
"K#	c #161616",
"L#	c #151315",
"M#	c #121112",
"N#	c #111111",
"                                                                ",
"                                                                ",
"                                                                ",
"                                                                ",
"                                                                ",
"                        . + @ # $ % & * =                       ",
"                    - ; > , ' ) ! ' ~ { ] ^                     ",
"                  / ( _ : < [ } | 1 2 3 4 5 6 7                 ",
"                8 9 0 a b c d e f g h i j k l m n               ",
"              o p q r s t u v w x y z A B C D E F G             ",
"            H I J K L M N O P Q R S T U V W X Y Z `             ",
"           ...+.@.#.$.%.&.*.=.-.;.>.,.'.).!.~.{.].^./.          ",
"          (._.:.<.[.}.|.1.2.3.4.5.6.7.8.9.0.a.b.c.d.e.          ",
"          f.g.h.i.j.k.l.m.n.o.p.q.r.s.t.u.v.w.x.y.z.A.B.        ",
"          C.D.E.F.G.H.I.J.K.L.M.N.O.P.Q.R.S.T.U.V.W.X.Y.        ",
"        Z.`. +.+++@+#+$+%+&+*+=+-+;+>+,+'+)+!+~+{+]+^+/+        ",
"        (+_+:+<+[+}+|+1+2+3+4+5+6+7+8+9+0+a+b+c+d+e+f+g+        ",
"        h+i+j+k+l+m+n+o+p+q+r+s+t+u+v+w+x+y+z+A+B+C+D+E+        ",
"          F+G+H+I+J+K+L+M+N+O+P+Q+R+S+T+U+V+W+X+Y+Z+`+ @        ",
"          .@+@@@#@$@%@&@*@=@-@;@>@,@'@)@!@~@{@]@^@/@(@          ",
"          _@:@<@[@}@|@1@2@3@4@5@6@7@8@9@0@a@b@c@d@e@f@          ",
"            g@h@i@j@k@l@m@n@o@p@q@r@s@t@u@v@w@x@y@z@A@          ",
"            B@C@D@E@F@G@H@I@J@K@L@M@N@O@P@Q@R@S@T@U@            ",
"              V@T@W@X@Y@Z@`@ #.#+#@###$#%#&#*#=#-#              ",
"                ;#>#,#'#)#!#~#{#{#]#^#/#(#_#:#<#                ",
"                  [#}#|#1#2#3#4#5#6#7#8#9#0#a#b#                ",
"                c#d#e#f#g#h#i#j#k#l#m#n#o#p#q#c#                ",
"                r#r#s#t#u#v#w#x#y#z#A#B#C#D#E#r#                ",
"                    F#G#H#I#I#J#K#L#I#H#M#N#                    ",
"                                                                ",
"                                                                ",
"                                                                "};
