/* XPM */
static char * suse_48_xpm[] = {
"48 48 823 2",
"  	c None",
". 	c #385434",
"+ 	c #5A7156",
"@ 	c #82937F",
"# 	c #99A796",
"$ 	c #395535",
"% 	c #163711",
"& 	c #889986",
"* 	c #AFBBAE",
"= 	c #BFC8BE",
"- 	c #C2CCC0",
"; 	c #C2CCBF",
"> 	c #C2CBBF",
", 	c #899986",
"' 	c #173712",
") 	c #092C04",
"! 	c #526A4F",
"~ 	c #C0C9BE",
"{ 	c #BEC8BC",
"] 	c #BDC7B9",
"^ 	c #BEC9BA",
"/ 	c #BECBBB",
"( 	c #BFCBBB",
"_ 	c #536C50",
": 	c #0A2C04",
"< 	c #072A02",
"[ 	c #092C05",
"} 	c #90A18E",
"| 	c #B6C1B3",
"1 	c #B7C4B4",
"2 	c #BAC6B5",
"3 	c #BCC8B5",
"4 	c #BCCAB6",
"5 	c #BECBB6",
"6 	c #BFCDB7",
"7 	c #92A190",
"8 	c #062901",
"9 	c #0A2D05",
"0 	c #849781",
"a 	c #B7C7B0",
"b 	c #B6C8AE",
"c 	c #B7C6AF",
"d 	c #B9C7B0",
"e 	c #BACAB0",
"f 	c #BBCCB1",
"g 	c #BCCCB1",
"h 	c #BCCDB1",
"i 	c #B9C8B0",
"j 	c #B5C3AF",
"k 	c #B3C1AD",
"l 	c #B4C0B0",
"m 	c #879884",
"n 	c #0B2E06",
"o 	c #072A01",
"p 	c #72886E",
"q 	c #ACBBA6",
"r 	c #A7B7A4",
"s 	c #A7BAA3",
"t 	c #AEC7A5",
"u 	c #B6D1A7",
"v 	c #BBD6A9",
"w 	c #BAD1AA",
"x 	c #B9CEAA",
"y 	c #B9CEAB",
"z 	c #BBCEAB",
"A 	c #B9CCAB",
"B 	c #B9CCAA",
"C 	c #B8CAAA",
"D 	c #B6C8A9",
"E 	c #B4C6A9",
"F 	c #B2C3A8",
"G 	c #B0C0A8",
"H 	c #ADBDA6",
"I 	c #AAB8A6",
"J 	c #748970",
"K 	c #144F00",
"L 	c #134F00",
"M 	c #356923",
"N 	c #A7B9A0",
"O 	c #A7B99E",
"P 	c #A0B49C",
"Q 	c #9AAB9B",
"R 	c #9AAD9B",
"S 	c #9AAE9A",
"T 	c #9AB09B",
"U 	c #9FB89C",
"V 	c #A3BF9D",
"W 	c #A8C59F",
"X 	c #B1CEA1",
"Y 	c #BAD7A4",
"Z 	c #BCD5A6",
"` 	c #B7CDA5",
" .	c #B5CAA4",
"..	c #B3C9A4",
"+.	c #B2C6A3",
"@.	c #AFC3A2",
"#.	c #ACBFA1",
"$.	c #A9BBA0",
"%.	c #A6B79E",
"&.	c #A6B5A0",
"*.	c #2D4C27",
"=.	c #042800",
"-.	c #001400",
";.	c #000E00",
">.	c #869286",
",.	c #9AB492",
"'.	c #A6C795",
").	c #97B192",
"!.	c #90A690",
"~.	c #90A990",
"{.	c #90AA90",
"].	c #90AD90",
"^.	c #90B090",
"/.	c #90B390",
"(.	c #90B490",
"_.	c #8EB390",
":.	c #98BE92",
"<.	c #ABD098",
"[.	c #B3D39C",
"}.	c #B1CC9C",
"|.	c #AEC79B",
"1.	c #ACC39B",
"2.	c #A8BF99",
"3.	c #A4BA97",
"4.	c #A1B597",
"5.	c #9EB096",
"6.	c #92A48C",
"7.	c #072C00",
"8.	c #082D00",
"9.	c #223922",
"0.	c #879787",
"a.	c #859885",
"b.	c #859B85",
"c.	c #869F86",
"d.	c #85A085",
"e.	c #85A485",
"f.	c #85A885",
"g.	c #85AD85",
"h.	c #85B185",
"i.	c #85B385",
"j.	c #85B585",
"k.	c #85B685",
"l.	c #84B285",
"m.	c #87B286",
"n.	c #8EB788",
"o.	c #9FC68D",
"p.	c #AFCF93",
"q.	c #A4BD90",
"r.	c #A1B98F",
"s.	c #9CB38E",
"t.	c #97AD8C",
"u.	c #94A88C",
"v.	c #33542A",
"w.	c #082B03",
"x.	c #072902",
"y.	c #1C6901",
"z.	c #000F01",
"A.	c #001900",
"B.	c #3F563F",
"C.	c #7B8D7B",
"D.	c #7B927B",
"E.	c #7B957B",
"F.	c #7B987B",
"G.	c #7B9B7B",
"H.	c #7BA27B",
"I.	c #7BA87B",
"J.	c #7BAD7B",
"K.	c #7BB17B",
"L.	c #7BB47B",
"M.	c #7BB57B",
"N.	c #7BB67B",
"O.	c #78B57A",
"P.	c #84BB7E",
"Q.	c #91C282",
"R.	c #95C384",
"S.	c #8AB880",
"T.	c #7FA87C",
"U.	c #9CC385",
"V.	c #9EBC87",
"W.	c #97B285",
"X.	c #92AB82",
"Y.	c #8CA481",
"Z.	c #547148",
"`.	c #0F3204",
" +	c #082A03",
".+	c #062400",
"++	c #001601",
"@+	c #001C00",
"#+	c #506750",
"$+	c #6F866F",
"%+	c #6F8B6F",
"&+	c #6F8E6F",
"*+	c #6F926F",
"=+	c #6F996F",
"-+	c #6FA16F",
";+	c #6FA86F",
">+	c #6FAD6F",
",+	c #6FB16F",
"'+	c #70B570",
")+	c #70B670",
"!+	c #6FB66F",
"~+	c #A3D382",
"{+	c #BDE28C",
"]+	c #93CA7C",
"^+	c #89C378",
"/+	c #A0D080",
"(+	c #B6DE89",
"_+	c #75A770",
":+	c #86B076",
"<+	c #93B37C",
"[+	c #8DA97A",
"}+	c #86A177",
"|+	c #67845A",
"1+	c #133A06",
"2+	c #0A2C03",
"3+	c #021900",
"4+	c #011901",
"5+	c #001F00",
"6+	c #516C51",
"7+	c #617F61",
"8+	c #628362",
"9+	c #628662",
"0+	c #628E62",
"a+	c #639863",
"b+	c #639F63",
"c+	c #63A763",
"d+	c #63AD63",
"e+	c #63B163",
"f+	c #63B463",
"g+	c #60B462",
"h+	c #8ACA71",
"i+	c #A6D87B",
"j+	c #61B362",
"k+	c #5FAF62",
"l+	c #5EAA61",
"m+	c #78B56A",
"n+	c #B1DB7F",
"o+	c #689C64",
"p+	c #638F62",
"q+	c #89B76D",
"r+	c #87A76F",
"s+	c #7F9D6D",
"t+	c #6D8C5D",
"u+	c #194208",
"v+	c #0E3305",
"w+	c #1D6B00",
"x+	c #021C02",
"y+	c #002300",
"z+	c #496849",
"A+	c #557655",
"B+	c #557A55",
"C+	c #568056",
"D+	c #568C56",
"E+	c #569656",
"F+	c #569E56",
"G+	c #56A656",
"H+	c #56AB56",
"I+	c #56B056",
"J+	c #56B356",
"K+	c #54B455",
"L+	c #BEE37C",
"M+	c #5CB858",
"N+	c #56B456",
"O+	c #54B255",
"P+	c #7EC464",
"Q+	c #70BB5F",
"R+	c #53A455",
"S+	c #74B561",
"T+	c #7EB464",
"U+	c #548A55",
"V+	c #558155",
"W+	c #86B464",
"X+	c #799A62",
"Y+	c #6A8B57",
"Z+	c #1F490A",
"`+	c #133907",
" @	c #092B03",
".@	c #0D3D01",
"+@	c #011601",
"@@	c #022002",
"#@	c #012601",
"$@	c #3C5E3C",
"%@	c #486D48",
"&@	c #497249",
"*@	c #497D49",
"=@	c #498849",
"-@	c #499349",
";@	c #4A9C4A",
">@	c #4AA44A",
",@	c #4AA94A",
"'@	c #4AAF4A",
")@	c #4AB14A",
"!@	c #6AC055",
"~@	c #A9DA6C",
"{@	c #48B34A",
"]@	c #48B149",
"^@	c #82CA5E",
"/@	c #CCE77A",
"(@	c #C4E576",
"_@	c #5FAF51",
":@	c #51A14C",
"<@	c #8FC662",
"[@	c #458548",
"}@	c #497C49",
"|@	c #669851",
"1@	c #719757",
"2@	c #61844A",
"3@	c #234F0D",
"4@	c #183F0A",
"5@	c #0B2E04",
"6@	c #021901",
"7@	c #032203",
"8@	c #032A03",
"9@	c #2A502A",
"0@	c #3B643B",
"a@	c #3C6A3C",
"b@	c #3C783C",
"c@	c #3C843C",
"d@	c #3C8F3C",
"e@	c #3D993D",
"f@	c #3DA03D",
"g@	c #3EA63E",
"h@	c #3EAB3E",
"i@	c #3EAE3E",
"j@	c #63BF4B",
"k@	c #9FD661",
"l@	c #3CB03D",
"m@	c #3EB03E",
"n@	c #3DAD3D",
"o@	c #83CA56",
"p@	c #74C050",
"q@	c #3B9F3C",
"r@	c #459E40",
"s@	c #8AC559",
"t@	c #37803A",
"u@	c #4A7F3F",
"v@	c #6B984B",
"w@	c #547C3A",
"x@	c #28540F",
"y@	c #1B430C",
"z@	c #0E3206",
"A@	c #001001",
"B@	c #021B02",
"C@	c #032403",
"D@	c #052D05",
"E@	c #194419",
"F@	c #2E5B2E",
"G@	c #306330",
"H@	c #307230",
"I@	c #317F31",
"J@	c #318B31",
"K@	c #2C9130",
"L@	c #319C32",
"M@	c #32A332",
"N@	c #32A732",
"O@	c #33AA33",
"P@	c #38AE34",
"Q@	c #B5DD62",
"R@	c #36AE34",
"S@	c #33AC33",
"T@	c #2FA531",
"U@	c #2FA231",
"V@	c #309B31",
"W@	c #4EA63B",
"X@	c #6DB246",
"Y@	c #2E7D30",
"Z@	c #326830",
"`@	c #6BA341",
" #	c #48722B",
".#	c #2B5813",
"+#	c #1E470D",
"@#	c #103507",
"##	c #082C04",
"$#	c #011202",
"%#	c #031C03",
"&#	c #052505",
"*#	c #062E06",
"=#	c #0C3B0C",
"-#	c #235323",
";#	c #255C25",
">#	c #256C25",
",#	c #267926",
"'#	c #258427",
")#	c #79C93F",
"!#	c #43A731",
"~#	c #2AA029",
"{#	c #28A328",
"]#	c #28A628",
"^#	c #23A626",
"/#	c #79C846",
"(#	c #65C03F",
"_#	c #27A728",
":#	c #27A628",
"<#	c #279E28",
"[#	c #309C2B",
"}#	c #9DD052",
"|#	c #378E2D",
"1#	c #277A27",
"2#	c #225924",
"3#	c #5E9F33",
"4#	c #3E6D20",
"5#	c #2D5A14",
"6#	c #20490F",
"7#	c #123609",
"8#	c #0A2C05",
"9#	c #021203",
"0#	c #041D04",
"a#	c #062506",
"b#	c #072F07",
"c#	c #083708",
"d#	c #164916",
"e#	c #1A541A",
"f#	c #1B651B",
"g#	c #1D731D",
"h#	c #1B7F1C",
"i#	c #59B130",
"j#	c #7FBA42",
"k#	c #76C23C",
"l#	c #33AA26",
"m#	c #1CA01F",
"n#	c #20A320",
"o#	c #22A521",
"p#	c #89CB46",
"q#	c #98CF4C",
"r#	c #4BB22F",
"s#	c #3BA929",
"t#	c #66B938",
"u#	c #A1D24E",
"v#	c #3B9A29",
"w#	c #1C801D",
"x#	c #175119",
"y#	c #468A23",
"z#	c #3B6C1B",
"A#	c #2F5B15",
"B#	c #21490F",
"C#	c #133709",
"D#	c #021304",
"E#	c #051D05",
"F#	c #072707",
"G#	c #082F08",
"H#	c #093809",
"I#	c #0C3F0C",
"J#	c #134D13",
"K#	c #145D14",
"L#	c #156D15",
"M#	c #167917",
"N#	c #1A8717",
"O#	c #79BD39",
"P#	c #79B33C",
"Q#	c #86C13F",
"R#	c #5EBA30",
"S#	c #2EA720",
"T#	c #179D19",
"U#	c #119B17",
"V#	c #47B02A",
"W#	c #82C43F",
"X#	c #88C641",
"Y#	c #68B835",
"Z#	c #20911B",
"`#	c #168417",
" $	c #177917",
".$	c #146C15",
"+$	c #125B13",
"@$	c #266617",
"#$	c #47861E",
"$$	c #3B691C",
"%$	c #2E5A16",
"&$	c #214810",
"*$	c #12360A",
"=$	c #0B2D05",
"-$	c #051C04",
";$	c #061C06",
">$	c #082608",
",$	c #092F09",
"'$	c #0B370B",
")$	c #0D400D",
"!$	c #104810",
"~$	c #125712",
"{$	c #136713",
"]$	c #157415",
"^$	c #158015",
"/$	c #399E21",
"($	c #7AB63B",
"_$	c #78B43B",
":$	c #7AB63D",
"<$	c #7DBC3D",
"[$	c #6EC235",
"}$	c #26A31C",
"|$	c #159817",
"1$	c #189818",
"2$	c #189518",
"3$	c #178F17",
"4$	c #178917",
"5$	c #127214",
"6$	c #1E7415",
"7$	c #57A126",
"8$	c #538927",
"9$	c #467622",
"0$	c #3A671C",
"a$	c #2D5816",
"b$	c #204610",
"c$	c #12340A",
"d$	c #0B2D06",
"e$	c #123F06",
"f$	c #061A07",
"g$	c #092509",
"h$	c #0B2E0B",
"i$	c #0D360D",
"j$	c #0F3F0F",
"k$	c #114611",
"l$	c #135413",
"m$	c #156415",
"n$	c #177017",
"o$	c #187C18",
"p$	c #178419",
"q$	c #48A728",
"r$	c #7CB93E",
"s$	c #79B33E",
"t$	c #7AB53F",
"u$	c #7CB53F",
"v$	c #85BE41",
"w$	c #69B936",
"x$	c #49AB2A",
"y$	c #33A022",
"z$	c #29971F",
"A$	c #329721",
"B$	c #439A26",
"C$	c #5AA22C",
"D$	c #69A232",
"E$	c #5A8D2D",
"F$	c #508C25",
"G$	c #477B21",
"H$	c #38631C",
"I$	c #2B5416",
"J$	c #1D4310",
"K$	c #10320A",
"L$	c #0D2F08",
"M$	c #226D08",
"N$	c #071A07",
"O$	c #092209",
"P$	c #0B2C0B",
"Q$	c #0E350E",
"R$	c #113E11",
"S$	c #134413",
"T$	c #154E15",
"U$	c #175E17",
"V$	c #1A6B1A",
"W$	c #1B761B",
"X$	c #1D811D",
"Y$	c #1D871E",
"Z$	c #359B25",
"`$	c #7EBE3F",
" %	c #7AB241",
".%	c #79B141",
"+%	c #78B040",
"@%	c #79B13F",
"#%	c #78B03D",
"$%	c #72A93B",
"%%	c #6B9F38",
"&%	c #659935",
"*%	c #649E31",
"=%	c #4B9024",
"-%	c #266017",
";%	c #437522",
">%	c #355F1C",
",%	c #294F15",
"'%	c #1A3E0F",
")%	c #0E2F09",
"!%	c #091E08",
"~%	c #0A200A",
"{%	c #0C2A0C",
"]%	c #0F330F",
"^%	c #123B12",
"/%	c #144314",
"(%	c #174A17",
"_%	c #1A561A",
":%	c #1B641B",
"<%	c #1D701D",
"[%	c #1F791F",
"}%	c #218121",
"|%	c #208621",
"1%	c #268D23",
"2%	c #4BA32F",
"3%	c #71B53D",
"4%	c #81B843",
"5%	c #7CB043",
"6%	c #79AD42",
"7%	c #77AB40",
"8%	c #78AD40",
"9%	c #72AF3B",
"0%	c #599D30",
"a%	c #3C8226",
"b%	c #24621C",
"c%	c #114215",
"d%	c #468322",
"e%	c #3D6921",
"f%	c #325A1B",
"g%	c #254A15",
"h%	c #16390E",
"i%	c #0E2A09",
"j%	c #0A1E0A",
"k%	c #0D270D",
"l%	c #0F300F",
"m%	c #133813",
"n%	c #164016",
"o%	c #194719",
"p%	c #1B4E1B",
"q%	c #1D5B1D",
"r%	c #206820",
"s%	c #217121",
"t%	c #237923",
"u%	c #247F24",
"v%	c #258325",
"w%	c #258526",
"x%	c #228525",
"y%	c #2F8E28",
"z%	c #489E30",
"A%	c #53A432",
"B%	c #4D9E30",
"C%	c #388B29",
"D%	c #1E6F20",
"E%	c #1D651F",
"F%	c #1C4F1B",
"G%	c #478725",
"H%	c #467526",
"I%	c #386121",
"J%	c #2C531A",
"K%	c #1F4413",
"L%	c #12340D",
"M%	c #0F300A",
"N%	c #266D0C",
"O%	c #08180A",
"P%	c #0D230D",
"Q%	c #102C10",
"R%	c #143414",
"S%	c #173D17",
"T%	c #1A441A",
"U%	c #1C4A1C",
"V%	c #1F511F",
"W%	c #215D21",
"X%	c #236723",
"Y%	c #246F24",
"Z%	c #267626",
"`%	c #277C27",
" &	c #287E28",
".&	c #267B27",
"+&	c #267927",
"@&	c #247525",
"#&	c #1E5A20",
"$&	c #2B6322",
"%&	c #508C2B",
"&&	c #4A772A",
"*&	c #3E6624",
"=&	c #33591F",
"-&	c #264B18",
";&	c #1A3B11",
">&	c #11310C",
",&	c #12350A",
"'&	c #0E220D",
")&	c #153310",
"!&	c #193D14",
"~&	c #1D4518",
"{&	c #204C1B",
"]&	c #23521E",
"^&	c #265621",
"/&	c #295C24",
"(&	c #2A6425",
"_&	c #2A6A27",
":&	c #2A6F28",
"<&	c #2A7328",
"[&	c #2A7329",
"}&	c #297329",
"|&	c #287329",
"1&	c #287129",
"2&	c #266E27",
"3&	c #276B27",
"4&	c #2C6D27",
"5&	c #336E28",
"6&	c #4C862E",
"7&	c #5C9032",
"8&	c #4A732D",
"9&	c #426A28",
"0&	c #375E22",
"a&	c #2C511C",
"b&	c #204215",
"c&	c #14340F",
"d&	c #12330D",
"e&	c #24640E",
"f&	c #215112",
"g&	c #2B5818",
"h&	c #34621F",
"i&	c #3E6D24",
"j&	c #477629",
"k&	c #4E7E2E",
"l&	c #558632",
"m&	c #5B8D36",
"n&	c #609439",
"o&	c #63993B",
"p&	c #669D3D",
"q&	c #69A03D",
"r&	c #69A33D",
"s&	c #66A33D",
"t&	c #63A03B",
"u&	c #609D39",
"v&	c #649E3A",
"w&	c #5F9139",
"x&	c #5A8837",
"y&	c #537E34",
"z&	c #4C742F",
"A&	c #446B2B",
"B&	c #3A6124",
"C&	c #2F541F",
"D&	c #254719",
"E&	c #183912",
"F&	c #13330F",
"G&	c #183316",
"H&	c #143310",
"I&	c #1B3B15",
"J&	c #27481B",
"K&	c #315521",
"L&	c #3A5F27",
"M&	c #436A2C",
"N&	c #4B7130",
"O&	c #507934",
"P&	c #557E37",
"Q&	c #5A823A",
"R&	c #5D853C",
"S&	c #5F873D",
"T&	c #5F893E",
"U&	c #60893E",
"V&	c #5F883D",
"W&	c #5D863C",
"X&	c #517934",
"Y&	c #4B7230",
"Z&	c #446A2C",
"`&	c #3B6027",
" *	c #27491B",
".*	c #1B3C15",
"+*	c #143410",
"@*	c #193816",
"#*	c #193814",
"$*	c #173713",
"%*	c #1E3D16",
"&*	c #28491C",
"**	c #315422",
"=*	c #3A5F28",
"-*	c #42672C",
";*	c #486E30",
">*	c #4E7533",
",*	c #527936",
"'*	c #557C38",
")*	c #567E39",
"!*	c #58803A",
"~*	c #59803A",
"{*	c #1E3D17",
"]*	c #193515",
"^*	c #1D3D17",
"/*	c #27471D",
"(*	c #2F5222",
"_*	c #375A26",
":*	c #3E622A",
"<*	c #44682E",
"[*	c #486D31",
"}*	c #4B7133",
"|*	c #4D7334",
"1*	c #4E7335",
"2*	c #182E14",
"3*	c #183715",
"4*	c #1C3B17",
"5*	c #24431C",
"6*	c #2B4C21",
"7*	c #325424",
"8*	c #385A28",
"9*	c #3C5F2B",
"0*	c #40632C",
"a*	c #41652E",
"b*	c #43672F",
"c*	c #193715",
"d*	c #182F15",
"e*	c #131313",
"f*	c #131213",
"g*	c #141C12",
"h*	c #183314",
"i*	c #1B3B17",
"j*	c #1F3D19",
"k*	c #25441E",
"l*	c #2A4A21",
"m*	c #2F5024",
"n*	c #335325",
"o*	c #345627",
"p*	c #365727",
"q*	c #141414",
"r*	c #0F0F0F",
"s*	c #0E0E0E",
"t*	c #100F11",
"u*	c #142213",
"v*	c #193416",
"w*	c #1C3A17",
"x*	c #1E3C1A",
"y*	c #213F1C",
"z*	c #24431E",
"A*	c #27451F",
"B*	c #274620",
"C*	c #21401C",
"D*	c #0D0D0D",
"E*	c #111011",
"F*	c #121312",
"G*	c #141913",
"H*	c #172616",
"I*	c #1B3217",
"J*	c #1C3B18",
"K*	c #1E3D19",
"L*	c #1E3E19",
"M*	c #0F0F0E",
"N*	c #101010",
"O*	c #111111",
"P*	c #141214",
"Q*	c #151215",
"R*	c #161715",
"S*	c #161A16",
"T*	c #151615",
"U*	c #121212",
"V*	c #151515",
"                                                                                                ",
"                                                                                                ",
"                                                                                                ",
"                                                                                                ",
"                                                                                                ",
"                                                                                                ",
"                                                                                                ",
"                                        . + @ # # @ + $                                         ",
"                                  % & * = - ; > > ; - = * , '                                   ",
"                              ) ! ~ { ] ^ / ( ( ( ( / ^ ] { ~ _ :                               ",
"                          < [ } | 1 2 3 4 5 5 6 6 5 5 4 3 2 1 | 7 [ <                           ",
"                        8 9 0 a b c c d e f g h h g f e i c j k l m n 8                         ",
"                      o < p q r s t u v w x y z z A B C D E F G H I J < 8                       ",
"                    K L M N O P Q R S T U V W X Y Z `  ...+.@.#.$.%.&.*.=.<                     ",
"                    -.;.>.,.'.).!.~.{.].^./.(.(._.:.<.[.}.|.1.2.3.4.5.6.7.8                     ",
"                  8.-.9.0.a.b.c.d.e.f.g.h.i.j.k.k.j.l.m.n.o.p.q.r.s.t.u.v.w.x.                  ",
"                y.z.A.B.C.D.E.F.G.H.I.J.K.L.M.N.O.P.Q.R.S.I.T.U.V.W.X.Y.Z.`. +                  ",
"                .+++@+#+$+%+&+*+=+-+;+>+,+'+)+!+~+{+]+^+/+(+_+=+:+<+[+}+|+1+2+ +                ",
"                3+4+5+6+7+8+9+0+a+b+c+d+e+f+g+h+i+g+j+k+l+m+n+o+p+q+r+s+t+u+v+x.                ",
"              w+-.x+y+z+A+B+C+D+E+F+G+H+I+J+K+L+M+N+O+P+Q+R+S+T+U+V+W+X+Y+Z+`+ @                ",
"              .@+@@@#@$@%@&@*@=@-@;@>@,@'@)@!@~@{@]@^@/@(@_@:@<@[@}@|@1@2@3@4@5@w.              ",
"              6@4+7@8@9@0@a@b@c@d@e@f@g@h@i@j@k@l@m@n@o@p@q@r@s@t@b@u@v@w@x@y@z@ +              ",
"              A@B@C@D@E@F@G@H@I@J@K@L@M@N@O@P@Q@R@S@O@T@U@V@W@X@Y@H@Z@`@ #.#+#@###              ",
"              $#%#&#*#=#-#;#>#,#'#)#!#~#{#]#^#/#(#_#:#{#<#[#}#|#1#>#2#3#4#5#6#7#8#              ",
"              9#0#a#b#c#d#e#f#g#h#i#j#k#l#m#n#o#p#q#r#s#t#u#v#w#g#f#x#y#z#A#B#C#8#              ",
"              D#E#F#G#H#I#J#K#L#M#N#O#P#Q#R#S#T#U#V#W#X#Y#Z#`# $.$+$@$#$$$%$&$*$=$              ",
"              -$;$>$,$'$)$!$~${$]$^$/$($_$:$<$[$}$|$1$2$3$4$^$5$6$7$8$9$0$a$b$c$d$              ",
"              e$f$g$h$i$j$k$l$m$n$o$p$q$r$s$t$u$v$w$x$y$z$A$B$C$D$E$F$G$H$I$J$K$L$              ",
"              M$N$O$P$Q$R$S$T$U$V$W$X$Y$Z$`$ %.%.%.%+%@%#%$%%%&%*%=%-%;%>%,%'%)%                ",
"                !%~%{%]%^%/%(%_%:%<%[%}%|%1%2%3%4%5%6%7%8%9%0%a%b%c%d%e%f%g%h%)%                ",
"                i%j%k%l%m%n%o%p%q%r%s%t%u%v%w%x%y%z%A%B%C%D%E%q%F%G%H%I%J%K%L%M%                ",
"                N%O%P%Q%R%S%T%U%V%W%X%Y%Z%1#`% & &.&+&@&Y%X%#&$&%&&&*&=&-&;&>&                  ",
"                  ,&'&)&!&~&{&]&^&/&(&_&:&<&[&}&|&1&2&3&4&5&6&7&8&9&0&a&b&c&d&                  ",
"                    e&f&g&h&i&j&k&l&m&n&o&p&q&r&s&t&u&v&w&x&y&z&A&B&C&D&E&F&                    ",
"                    G&H&I&J&K&L&M&N&O&P&Q&R&S&T&U&V&W&Q&P&X&Y&Z&`&K& *.*+*@*                    ",
"                      #*$*%*&***=*-*;*>*,*'*)*!*~*)*'*,*>*;*-*=***&*{*$*#*                      ",
"                        ]*$*^*/*(*_*:*<*[*}*|*1*1*|*}*[*<*:*_*(*/*^*$*]*                        ",
"                          2*3*4*5*6*7*8*9*0*a*b*b*a*0*9*8*7*6*5*4*c*d*                          ",
"                        e*f*g*h*i*j*k*l*m*n*o*p*p*o*n*m*l*k*j*i*h*g*f*q*                        ",
"                        r*s*r*t*u*v*w*x*y*z*A*B*B*A*z*C*x*w*v*u*t*r*s*r*                        ",
"                        D*D*D*r*E*F*G*H*I*J*K*L*L*K*J*I*H*G*F*E*M*s*D*D*                        ",
"                          D*s*s*N*O*e*f*P*Q*R*S*S*T*Q*P*f*e*O*N*s*s*D*                          ",
"                                O*U*e*e*V*q*V*V*V*V*q*V*e*e*U*O*                                ",
"                                                                                                ",
"                                                                                                ",
"                                                                                                ",
"                                                                                                ",
"                                                                                                "};
