/* XPM */
static const char * ubuntu_32_xpm[] = {
"32 32 368 2",
"  	c None",
". 	c #D83B23",
"+ 	c #E44836",
"@ 	c #E54938",
"# 	c #E44736",
"$ 	c #D93A23",
"% 	c #FB9343",
"& 	c #DF3F2E",
"* 	c #E04031",
"= 	c #E04030",
"- 	c #FDA25D",
"; 	c #FDA665",
"> 	c #FDA767",
", 	c #FCA461",
"' 	c #FBA059",
") 	c #FB9C53",
"! 	c #FA994C",
"~ 	c #D56C27",
"{ 	c #DD3629",
"] 	c #DB3729",
"^ 	c #DB372A",
"/ 	c #DD382B",
"( 	c #F6C16E",
"_ 	c #AF6016",
": 	c #FEAA6D",
"< 	c #FCA561",
"[ 	c #FBA25C",
"} 	c #FA9F55",
"| 	c #F99B4D",
"1 	c #F18D3C",
"2 	c #BD2710",
"3 	c #D92F24",
"4 	c #D72F23",
"5 	c #D72F24",
"6 	c #CF2C1B",
"7 	c #FCD487",
"8 	c #FEDD95",
"9 	c #E1AA5C",
"0 	c #C76E22",
"a 	c #FFAE72",
"b 	c #FCA96A",
"c 	c #FCA765",
"d 	c #FBA45F",
"e 	c #F9A158",
"f 	c #F89D51",
"g 	c #F89A4A",
"h 	c #ED8636",
"i 	c #C44214",
"j 	c #C43112",
"k 	c #C13611",
"l 	c #C45012",
"m 	c #FCD483",
"n 	c #FDD88B",
"o 	c #FDDA8F",
"p 	c #FED98F",
"q 	c #B6732C",
"r 	c #E98C42",
"s 	c #FDAF74",
"t 	c #FFB47A",
"u 	c #FFB172",
"v 	c #FDAE6E",
"w 	c #FAA761",
"x 	c #F79C4B",
"y 	c #F79845",
"z 	c #F89740",
"A 	c #FB9339",
"B 	c #FB8D30",
"C 	c #F98427",
"D 	c #FA7F1F",
"E 	c #FBCD75",
"F 	c #FDD683",
"G 	c #FED788",
"H 	c #FED98D",
"I 	c #FDDA90",
"J 	c #F7C97C",
"K 	c #AC5A13",
"L 	c #D9833B",
"M 	c #C26815",
"N 	c #B9600D",
"O 	c #BD6210",
"P 	c #CB7224",
"Q 	c #E79147",
"R 	c #FBA358",
"S 	c #F7943F",
"T 	c #F89139",
"U 	c #F88B31",
"V 	c #F98629",
"W 	c #FB8121",
"X 	c #FA7D1B",
"Y 	c #F3BA5D",
"Z 	c #FED37C",
"` 	c #FED480",
" .	c #FED585",
"..	c #FFDF99",
"+.	c #DAA457",
"@.	c #B26623",
"#.	c #B16725",
"$.	c #A85D18",
"%.	c #C36A1B",
"&.	c #F99E54",
"*.	c #F8903A",
"=.	c #F98C34",
"-.	c #FA872C",
";.	c #FA8224",
">.	c #FB7D1D",
",.	c #FECF71",
"'.	c #FDD178",
").	c #FED27B",
"!.	c #FED481",
"~.	c #FED88B",
"{.	c #DFAA5B",
"].	c #9A641E",
"^.	c #BA6317",
"/.	c #FD9C4F",
"(.	c #F98D36",
"_.	c #FB892F",
":.	c #FC8327",
"<.	c #FC7E1F",
"[.	c #F97B1B",
"}.	c #FD8235",
"|.	c #FD863C",
"1.	c #EA7F36",
"2.	c #CF8B32",
"3.	c #FFD275",
"4.	c #FED278",
"5.	c #FED37E",
"6.	c #FED589",
"7.	c #9D6319",
"8.	c #D87A2C",
"9.	c #FB8428",
"0.	c #FB7F1E",
"a.	c #FB7B1B",
"b.	c #FC7816",
"c.	c #FC7614",
"d.	c #FD7E32",
"e.	c #FD823A",
"f.	c #FE8742",
"g.	c #FD8D4C",
"h.	c #EE853D",
"i.	c #DEA342",
"j.	c #FDC450",
"k.	c #FDC044",
"l.	c #DC9D3C",
"m.	c #AC5C17",
"n.	c #FF7D19",
"o.	c #FD6E03",
"p.	c #FE6E03",
"q.	c #FF6D02",
"r.	c #FF6C02",
"s.	c #F67727",
"t.	c #FD7D32",
"u.	c #FE823A",
"v.	c #FE7A2D",
"w.	c #FE6E1A",
"x.	c #FF6207",
"y.	c #CF8923",
"z.	c #FDB72A",
"A.	c #FDB930",
"B.	c #C88B30",
"C.	c #C86916",
"D.	c #C76613",
"E.	c #C66513",
"F.	c #C56413",
"G.	c #C56312",
"H.	c #E36D20",
"I.	c #FD6E1B",
"J.	c #FE6308",
"K.	c #FE6208",
"L.	c #FE6309",
"M.	c #FF670B",
"N.	c #CB8923",
"O.	c #FDB72B",
"P.	c #FDBA31",
"Q.	c #D49534",
"R.	c #CF3927",
"S.	c #D22C21",
"T.	c #D22D23",
"U.	c #D12C22",
"V.	c #D12C23",
"W.	c #AB5511",
"X.	c #FF6509",
"Y.	c #FD6208",
"Z.	c #FF6308",
"`.	c #D16414",
" +	c #F8B12D",
".+	c #FCB72D",
"++	c #FDB82E",
"@+	c #ECAC40",
"#+	c #E9303E",
"$+	c #E7192F",
"%+	c #E71A30",
"&+	c #E71A32",
"*+	c #E91934",
"=+	c #BA1E19",
"-+	c #B05914",
";+	c #D96211",
">+	c #DB6310",
",+	c #CA6E1A",
"'+	c #F2AC2E",
")+	c #FCB931",
"!+	c #FDB931",
"~+	c #FDBA32",
"{+	c #FABD49",
"]+	c #E92435",
"^+	c #E81A2C",
"/+	c #E81A2F",
"(+	c #E81A30",
"_+	c #EB1934",
":+	c #9F1F0D",
"<+	c #954C10",
"[+	c #9A4E10",
"}+	c #C47E22",
"|+	c #FEBD37",
"1+	c #FDBC37",
"2+	c #FDBC38",
"3+	c #FDBD3A",
"4+	c #F4B54C",
"5+	c #E6383E",
"6+	c #E71826",
"7+	c #E81A2A",
"8+	c #E81A2D",
"9+	c #E91B2E",
"0+	c #905315",
"a+	c #FEBD3C",
"b+	c #FCBE3E",
"c+	c #FDBF40",
"d+	c #FDC147",
"e+	c #FDC858",
"f+	c #F3B653",
"g+	c #E63E3E",
"h+	c #E71B24",
"i+	c #E71A25",
"j+	c #E81A28",
"k+	c #E8192D",
"l+	c #CB1F1D",
"m+	c #CF8E2C",
"n+	c #FDC347",
"o+	c #FDC249",
"p+	c #FDC34C",
"q+	c #FDC550",
"r+	c #FDC654",
"s+	c #E6A843",
"t+	c #DD3934",
"u+	c #E0433A",
"v+	c #E8393B",
"w+	c #E71A1F",
"x+	c #E71A21",
"y+	c #E71A23",
"z+	c #EB1A2D",
"A+	c #971E09",
"B+	c #945C17",
"C+	c #F6B846",
"D+	c #FCC551",
"E+	c #FDC755",
"F+	c #FCC858",
"G+	c #FDC659",
"H+	c #A6641D",
"I+	c #DC1D22",
"J+	c #EA263A",
"K+	c #EA3343",
"L+	c #E7353C",
"M+	c #E8363B",
"N+	c #EA323A",
"O+	c #E81F24",
"P+	c #E6181C",
"Q+	c #E61A1D",
"R+	c #E7191F",
"S+	c #E81922",
"T+	c #E81925",
"U+	c #E81928",
"V+	c #C72016",
"W+	c #A96A1D",
"X+	c #FDC556",
"Y+	c #FCC95D",
"Z+	c #FECE63",
"`+	c #C6872C",
" @	c #BE3D1F",
".@	c #E81930",
"+@	c #E81A2E",
"@@	c #E7192B",
"#@	c #E71927",
"$@	c #E71924",
"%@	c #E61921",
"&@	c #E7191D",
"*@	c #DF1C19",
"=@	c #BB1D0D",
"-@	c #C12F11",
";@	c #BC1A10",
">@	c #D51E1B",
",@	c #861D06",
"'@	c #AE6F1F",
")@	c #FAC45C",
"!@	c #EBB04D",
"~@	c #9C5719",
"{@	c #E41D2B",
"]@	c #E81A2B",
"^@	c #E71A22",
"/@	c #E61920",
"(@	c #D81B17",
"_@	c #C2611C",
":@	c #FDC34B",
"<@	c #FFCD5A",
"[@	c #FAC053",
"}@	c #B55A1E",
"|@	c #A7691C",
"1@	c #A76F20",
"2@	c #D62C24",
"3@	c #E81934",
"4@	c #E81A31",
"5@	c #E81A27",
"6@	c #E71A24",
"7@	c #EA1923",
"8@	c #B83B0F",
"9@	c #FFC53B",
"0@	c #FDC142",
"a@	c #FCC553",
"b@	c #FEC858",
"c@	c #A7220B",
"d@	c #D01F1F",
"e@	c #E81B2F",
"f@	c #EA1932",
"g@	c #E8192E",
"h@	c #E8192B",
"i@	c #E81929",
"j@	c #E81927",
"k@	c #EC1926",
"l@	c #C47017",
"m@	c #FEBC2C",
"n@	c #FEBE36",
"o@	c #FDC03F",
"p@	c #FCC249",
"q@	c #FDC551",
"r@	c #EEAD43",
"s@	c #931E09",
"t@	c #9B2305",
"u@	c #AE230A",
"v@	c #BC2211",
"w@	c #C12215",
"x@	c #C12113",
"y@	c #B9220F",
"z@	c #AB2408",
"A@	c #B26917",
"B@	c #FFBA21",
"C@	c #FEBA2A",
"D@	c #FDBD33",
"E@	c #FDBF3C",
"F@	c #FDC145",
"G@	c #DD9E38",
"H@	c #9C1E0D",
"I@	c #9C1F0B",
"J@	c #9B1E0A",
"K@	c #9B1E0C",
"L@	c #935619",
"M@	c #FBB11B",
"N@	c #FDB81F",
"O@	c #FEB927",
"P@	c #FEBC2F",
"Q@	c #FFC23A",
"R@	c #AF7020",
"S@	c #AD6E1C",
"T@	c #E9A01C",
"U@	c #FFB51F",
"V@	c #F8AF25",
"W@	c #C47F21",
"X@	c #9A621A",
"Y@	c #9F631B",
"Z@	c #975F1A",
"`@	c #99651B",
"                                                                ",
"                                                                ",
"                                          . + @ # $             ",
"                                  %       & * = = =             ",
"                          - ; > , ' ) ! ~ { ] ] ^ /             ",
"                      ( _ ; : > < [ } | 1 2 3 4 5 6             ",
"                    7 8 9 0 a b c d e f g h i j k l             ",
"                  m n o p q r s t u v w x y z A B C D           ",
"                E F G H I J K L M N O P Q R S T U V W X         ",
"              Y Z `  .G ..+.  @.      #.$.%.&.*.=.-.;.>.        ",
"              ,.'.).!.~.{.].                ^./.(._.:.<.[.      ",
"        }.|.1.2.3.4.5.6.7.                    8.9.0.a.b.c.      ",
"      d.e.f.g.h.i.j.k.l.                      m.n.o.p.q.r.      ",
"    s.t.u.v.w.x.y.z.A.B.                        C.D.E.F.G.      ",
"    H.I.J.K.L.M.N.O.P.Q.                        R.S.T.U.V.      ",
"    W.X.Y.Y.Z.`. +.+++@+                        #+$+%+&+*+=+    ",
"      -+;+>+,+'+)+!+~+{+                        ]+^+/+(+_+:+    ",
"        <+[+}+|+1+2+3+k.4+                    5+6+7+8+/+9+      ",
"            0+a+b+c+k.d+e+f+                g+h+i+j+7+k+l+      ",
"              m+n+o+p+q+r+s+  t+        u+v+w+x+y+i+j+z+A+      ",
"              B+C+D+E+F+G+H+I+J+K+L+M+N+O+P+Q+R+S+T+U+V+        ",
"                W+X+Y+Z+`+ @.@+@@@#@$@%@w+&@*@=@-@;@>@,@        ",
"                  '@)@!@~@{@%++@]@j+i+^@/@(@_@:@<@[@}@          ",
"                    |@1@2@3@4@/+^+7+5@6@7@8@9@0@:@a@b@          ",
"                        c@d@e@f@g@h@i@j@k@l@m@n@o@p@q@r@        ",
"                          s@t@u@v@w@x@y@z@A@B@C@D@E@F@G@        ",
"                                H@I@J@K@  L@M@N@O@P@Q@R@        ",
"                                            S@T@U@V@W@          ",
"                                              X@Y@Z@`@          ",
"                                                                ",
"                                                                ",
"                                                                "};
