/* XPM */
static char * ubuntu_48_xpm[] = {
"48 48 778 2",
"  	c None",
". 	c #D6381D",
"+ 	c #D93C22",
"@ 	c #D5371D",
"# 	c #E24632",
"$ 	c #E64B3A",
"% 	c #E64A39",
"& 	c #E54A38",
"* 	c #DC3E28",
"= 	c #E14433",
"- 	c #E34535",
"; 	c #E34534",
"> 	c #E34636",
", 	c #DA3C26",
"' 	c #FB9140",
") 	c #FB9546",
"! 	c #FB9545",
"~ 	c #FB9344",
"{ 	c #FB913F",
"] 	c #FA8E3A",
"^ 	c #FB8A33",
"/ 	c #D53924",
"( 	c #DF3E2F",
"_ 	c #FC984D",
": 	c #FDA05B",
"< 	c #FEA869",
"[ 	c #FEA665",
"} 	c #FCA461",
"| 	c #FCA25D",
"1 	c #FBA057",
"2 	c #FB9D53",
"3 	c #FA9A4F",
"4 	c #FA984A",
"5 	c #F48835",
"6 	c #C6331D",
"7 	c #DC382B",
"8 	c #DC392B",
"9 	c #DC382A",
"0 	c #DD392B",
"a 	c #BD2B15",
"b 	c #F1954F",
"c 	c #FEAD72",
"d 	c #FEAA6E",
"e 	c #FEA868",
"f 	c #FDA665",
"g 	c #FCA562",
"h 	c #FBA25D",
"i 	c #FCA059",
"j 	c #FA9E54",
"k 	c #FA9C50",
"l 	c #FA9A4B",
"m 	c #F18D3D",
"n 	c #B83411",
"o 	c #D83225",
"p 	c #D83226",
"q 	c #DC3325",
"r 	c #922007",
"s 	c #F6C472",
"t 	c #F7C676",
"u 	c #CC7124",
"v 	c #FCAA6C",
"w 	c #FDAA6E",
"x 	c #FDA96A",
"y 	c #FDA867",
"z 	c #FCA563",
"A 	c #FBA45F",
"B 	c #FBA25B",
"C 	c #FA9F57",
"D 	c #F99D52",
"E 	c #F99B4D",
"F 	c #F99848",
"G 	c #D15F20",
"H 	c #C22911",
"I 	c #D92E23",
"J 	c #D62E22",
"K 	c #D62D22",
"L 	c #D92E22",
"M 	c #B7270F",
"N 	c #731905",
"O 	c #F7C572",
"P 	c #FEDD94",
"Q 	c #FEDE97",
"R 	c #EAAF5B",
"S 	c #A86019",
"T 	c #EB8D42",
"U 	c #FEAD71",
"V 	c #FDAA6C",
"W 	c #FCA968",
"X 	c #FCA665",
"Y 	c #FBA561",
"Z 	c #FBA35D",
"` 	c #F9A058",
" .	c #F99F54",
"..	c #F99C4F",
"+.	c #F79A4A",
"@.	c #FC9B44",
"#.	c #CE5C1D",
"$.	c #B32C0C",
"%.	c #CB2D16",
"&.	c #D02C19",
"*.	c #B52E0C",
"=.	c #A02F0B",
"-.	c #F9CC79",
";.	c #FEDB8F",
">.	c #FDDA8F",
",.	c #FEDA91",
"'.	c #FCD68C",
").	c #CC8F44",
"!.	c #B76215",
"~.	c #F99E57",
"{.	c #FDAD70",
"].	c #FCA765",
"^.	c #FAA35D",
"/.	c #F9A158",
"(.	c #F99D50",
"_.	c #F89C4C",
":.	c #F79947",
"<.	c #FB9A44",
"[.	c #F08934",
"}.	c #DB6F25",
"|.	c #D96920",
"1.	c #D96A1F",
"2.	c #EF7C23",
"3.	c #FB8522",
"4.	c #F5791D",
"5.	c #F8C872",
"6.	c #FED788",
"7.	c #FDD88A",
"8.	c #FED98D",
"9.	c #FEDB92",
"0.	c #F4C373",
"a.	c #AA6A2A",
"b.	c #CA6F1F",
"c.	c #FFAA6A",
"d.	c #FDB37B",
"e.	c #FFBA84",
"f.	c #FFB980",
"g.	c #FFB57A",
"h.	c #FEB478",
"i.	c #FCB275",
"j.	c #F9A965",
"k.	c #F79E50",
"l.	c #F69A49",
"m.	c #F69844",
"n.	c #F79540",
"o.	c #F8923B",
"p.	c #F88F35",
"q.	c #F88C30",
"r.	c #F9872A",
"s.	c #F98426",
"t.	c #FA8020",
"u.	c #F4BA5E",
"v.	c #FED785",
"w.	c #FDD685",
"x.	c #FED888",
"y.	c #FED88B",
"z.	c #FED98E",
"A.	c #FED990",
"B.	c #FFDC93",
"C.	c #E2A14F",
"D.	c #A55917",
"E.	c #E28A41",
"F.	c #E89049",
"G.	c #D17220",
"H.	c #C36510",
"I.	c #BE620E",
"J.	c #C26310",
"K.	c #CE6F1C",
"L.	c #E3873A",
"M.	c #F4A35F",
"N.	c #F8A35C",
"O.	c #F89A49",
"P.	c #F69541",
"Q.	c #F7933C",
"R.	c #F88F37",
"S.	c #F88C32",
"T.	c #F9882D",
"U.	c #F98527",
"V.	c #FB8122",
"W.	c #FA7F1D",
"X.	c #F0AF4F",
"Y.	c #FED57E",
"Z.	c #FDD57F",
"`.	c #FED582",
" +	c #FED686",
".+	c #FED789",
"++	c #FDD98E",
"@+	c #FFE19D",
"#+	c #F5C479",
"$+	c #AB621D",
"%+	c #AC5B13",
"&+	c #AB5C13",
"*+	c #AC6019",
"=+	c #AE621C",
"-+	c #AF631D",
";+	c #AE611C",
">+	c #AB5F18",
",+	c #A85B14",
"'+	c #B96111",
")+	c #D37B2D",
"!+	c #F59B50",
"~+	c #F89F52",
"{+	c #F7933D",
"]+	c #F89039",
"^+	c #F88D34",
"/+	c #F9892E",
"(+	c #F9862A",
"_+	c #FB8224",
":+	c #FB7F1F",
"<+	c #FA7D1C",
"[+	c #FBCC70",
"}+	c #FED27A",
"|+	c #FDD37C",
"1+	c #FED480",
"2+	c #FED583",
"3+	c #FEDC93",
"4+	c #F3C67E",
"5+	c #B87A29",
"6+	c #A35E21",
"7+	c #AA5C15",
"8+	c #BA6417",
"9+	c #F19040",
"0+	c #FA9D50",
"a+	c #F8913B",
"b+	c #F98D37",
"c+	c #F98930",
"d+	c #FA872B",
"e+	c #FA8326",
"f+	c #FB8021",
"g+	c #FC7D1D",
"h+	c #F1B557",
"i+	c #FDCF72",
"j+	c #FDD178",
"k+	c #FED37D",
"l+	c #FED481",
"m+	c #FDD583",
"n+	c #FED78A",
"o+	c #F8D28E",
"p+	c #BB7B28",
"q+	c #9C641D",
"r+	c #A55B18",
"s+	c #B66015",
"t+	c #F19346",
"u+	c #FA9442",
"v+	c #F98E38",
"w+	c #FA8B32",
"x+	c #FA872D",
"y+	c #FC8428",
"z+	c #FC8023",
"A+	c #FC7E1E",
"B+	c #FA7B1B",
"C+	c #D3973D",
"D+	c #FDCD6E",
"E+	c #FED075",
"F+	c #FDD177",
"G+	c #FED27B",
"H+	c #FED37E",
"I+	c #FDD582",
"J+	c #FFDE99",
"K+	c #CE8F3A",
"L+	c #99641F",
"M+	c #A25A1A",
"N+	c #C56B1E",
"O+	c #F99D54",
"P+	c #FA903C",
"Q+	c #FA8D37",
"R+	c #FB8A32",
"S+	c #FC862C",
"T+	c #FB8326",
"U+	c #FC7F22",
"V+	c #FC7C1D",
"W+	c #FB7E27",
"X+	c #FD8239",
"Y+	c #FD853F",
"Z+	c #FD8843",
"`+	c #FD8A46",
" @	c #DA792A",
".@	c #C7822B",
"+@	c #FFD172",
"@@	c #FDD075",
"#@	c #FED279",
"$@	c #FED27D",
"%@	c #FED88A",
"&@	c #F4BF6E",
"*@	c #9E6419",
"=@	c #A15716",
"-@	c #EA812C",
";@	c #FA760F",
">@	c #FB760F",
",@	c #FC740F",
"'@	c #FC740E",
")@	c #FC720D",
"!@	c #FD720D",
"~@	c #F57210",
"{@	c #FB7D28",
"]@	c #FD7F34",
"^@	c #FD823A",
"/@	c #FE853F",
"(@	c #FE8844",
"_@	c #FD8B49",
":@	c #FF914F",
"<@	c #D8963B",
"[@	c #FFD171",
"}@	c #FDCC69",
"|@	c #FDC75B",
"1@	c #FFCC5F",
"2@	c #CD892E",
"3@	c #C66717",
"4@	c #FE8325",
"5@	c #FB6E02",
"6@	c #FC6E04",
"7@	c #FD6D03",
"8@	c #FE6D03",
"9@	c #FE6C03",
"0@	c #F66E0A",
"a@	c #FC7B2D",
"b@	c #FE7E34",
"c@	c #FE8139",
"d@	c #FE853E",
"e@	c #FE8946",
"f@	c #FE8741",
"g@	c #FE7F36",
"h@	c #FF7722",
"i@	c #B2711D",
"j@	c #FFB830",
"k@	c #FCB526",
"l@	c #FCB628",
"m@	c #FFBC3B",
"n@	c #AB7022",
"o@	c #9D5415",
"p@	c #F57F22",
"q@	c #F4700B",
"r@	c #F4700A",
"s@	c #F5700A",
"t@	c #F56F0A",
"u@	c #F56E0A",
"v@	c #EC6C0D",
"w@	c #E6731F",
"x@	c #FE7A2E",
"y@	c #FD7E33",
"z@	c #FE7B30",
"A@	c #FE6C17",
"B@	c #FE660D",
"C@	c #FD630A",
"D@	c #FF6408",
"E@	c #B56F1F",
"F@	c #FDB42B",
"G@	c #FDB629",
"H@	c #FDB72A",
"I@	c #FBB63B",
"J@	c #9E6B25",
"K@	c #B66115",
"L@	c #B35F13",
"M@	c #B25E13",
"N@	c #B05D13",
"O@	c #AF5C13",
"P@	c #AF5B13",
"Q@	c #AE5A12",
"R@	c #A85612",
"S@	c #D0671A",
"T@	c #FF792C",
"U@	c #FD7424",
"V@	c #FE670F",
"W@	c #FE6106",
"X@	c #FE6208",
"Y@	c #FE6309",
"Z@	c #FF680B",
"`@	c #A7681C",
" #	c #FFB72C",
".#	c #FDB72B",
"+#	c #FAB73B",
"@#	c #A36F27",
"##	c #BC4418",
"$#	c #C13E17",
"%#	c #C03C16",
"&#	c #BF3C16",
"*#	c #BE3B16",
"=#	c #BD3B16",
"-#	c #BA3914",
";#	c #A15011",
">#	c #FF6B12",
",#	c #FE6107",
"'#	c #FD6208",
")#	c #FF6308",
"!#	c #E16612",
"~#	c #C78121",
"{#	c #FFBA2D",
"]#	c #FDB62C",
"^#	c #FDB72D",
"/#	c #FCBB3E",
"(#	c #BF8129",
"_#	c #E3353B",
":#	c #EC1C37",
"<#	c #EB1732",
"[#	c #EB1734",
"}#	c #EB1735",
"|#	c #E41B2C",
"1#	c #DC6612",
"2#	c #FF6309",
"3#	c #F0670F",
"4#	c #C36B1A",
"5#	c #FBB52E",
"6#	c #FDB82E",
"7#	c #FCB72D",
"8#	c #FEBF40",
"9#	c #E19B34",
"0#	c #EB3C49",
"a#	c #E7192D",
"b#	c #E7192F",
"c#	c #E71A30",
"d#	c #E71A31",
"e#	c #E71A32",
"f#	c #E81933",
"g#	c #DE1D28",
"h#	c #9B5011",
"i#	c #CF6414",
"j#	c #F4690F",
"k#	c #F6650C",
"l#	c #F5680E",
"m#	c #DC6914",
"n#	c #C5721D",
"o#	c #F8B22F",
"p#	c #FDB931",
"q#	c #FCB930",
"r#	c #FDB930",
"s#	c #FDBA31",
"t#	c #FDBE3D",
"u#	c #F4B244",
"v#	c #D4352A",
"w#	c #EB3142",
"x#	c #E7182A",
"y#	c #E81A2D",
"z#	c #E81A2F",
"A#	c #E81A30",
"B#	c #E81932",
"C#	c #D41D23",
"D#	c #944C11",
"E#	c #A15413",
"F#	c #AF5B15",
"G#	c #A65714",
"H#	c #AB6118",
"I#	c #FCB634",
"J#	c #FDBB34",
"K#	c #FCBB33",
"L#	c #FDBA34",
"M#	c #FDBB36",
"N#	c #FCBC38",
"O#	c #FDC653",
"P#	c #ECA43C",
"Q#	c #E73F46",
"R#	c #E81D2C",
"S#	c #E7192A",
"T#	c #E81A2C",
"U#	c #C41D1E",
"V#	c #9A5916",
"W#	c #F1AC31",
"X#	c #FDBD37",
"Y#	c #FDBB38",
"Z#	c #FDBC38",
"`#	c #FDBD3A",
" $	c #FDBD3C",
".$	c #FCBE3D",
"+$	c #FDC045",
"@$	c #FAC45A",
"#$	c #DF3E37",
"$$	c #E82935",
"%$	c #E71926",
"&$	c #E81A28",
"*$	c #E81A2A",
"=$	c #E71A2F",
"-$	c #B21E16",
";$	c #D4922B",
">$	c #FDBE3C",
",$	c #FCBE3C",
"'$	c #FDBE3E",
")$	c #FDBF3F",
"!$	c #FDC041",
"~$	c #FDC044",
"{$	c #FDC145",
"]$	c #F7BE59",
"^$	c #DA3729",
"/$	c #E9363C",
"($	c #E71A25",
"_$	c #E81A26",
":$	c #E8192D",
"<$	c #E21B2B",
"[$	c #9A1F0B",
"}$	c #B07120",
"|$	c #F9BB3E",
"1$	c #FCC042",
"2$	c #FDC043",
"3$	c #FDC247",
"4$	c #FDC249",
"5$	c #FDC34C",
"6$	c #FCC44F",
"7$	c #FECC60",
"8$	c #F0B14E",
"9$	c #E14139",
"0$	c #EA353A",
"a$	c #E71C23",
"b$	c #E61922",
"c$	c #E71A23",
"d$	c #E81A25",
"e$	c #E81A27",
"f$	c #E71A29",
"g$	c #E71A2B",
"h$	c #E9192E",
"i$	c #D01F1D",
"j$	c #7C1C04",
"k$	c #8F5917",
"l$	c #E39E33",
"m$	c #FEC448",
"n$	c #FCC249",
"o$	c #FDC34B",
"p$	c #FDC34D",
"q$	c #FDC550",
"r$	c #FDC552",
"s$	c #FDC655",
"t$	c #FFC757",
"u$	c #C58328",
"v$	c #DE3732",
"w$	c #DC3832",
"x$	c #D63522",
"y$	c #E1423B",
"z$	c #E94446",
"A$	c #E8272B",
"B$	c #E71A1F",
"C$	c #E6191F",
"D$	c #E71A21",
"E$	c #E71A22",
"F$	c #E81A24",
"G$	c #E8192A",
"H$	c #EA1B2B",
"I$	c #9E2107",
"J$	c #A7651A",
"K$	c #F9BA46",
"L$	c #FDC54F",
"M$	c #FCC550",
"N$	c #FCC858",
"O$	c #FDC95B",
"P$	c #E3A43F",
"Q$	c #A1621D",
"R$	c #C71C1C",
"S$	c #E52330",
"T$	c #EB3447",
"U$	c #EC4051",
"V$	c #E84149",
"W$	c #E53F41",
"X$	c #E64142",
"Y$	c #EA444B",
"Z$	c #EB3F47",
"`$	c #E92B31",
" %	c #E7181D",
".%	c #E6191D",
"+%	c #E71A1D",
"@%	c #E7191E",
"#%	c #E7191F",
"$%	c #E71921",
"%%	c #E81923",
"&%	c #E81925",
"*%	c #E81927",
"=%	c #EA192A",
"-%	c #C12211",
";%	c #7C1A06",
">%	c #8C5A19",
",%	c #BE7B25",
"'%	c #FBC14F",
")%	c #FDC757",
"!%	c #FDC858",
"~%	c #FDC85B",
"{%	c #FDCA5D",
"]%	c #F8C057",
"^%	c #B57523",
"/%	c #AF461F",
"(%	c #E01F25",
"_%	c #E81830",
":%	c #E7182B",
"<%	c #E81B2B",
"[%	c #E81D2B",
"}%	c #E81D28",
"|%	c #E71922",
"1%	c #E6171E",
"2%	c #E6181E",
"3%	c #E6191E",
"4%	c #E61A1D",
"5%	c #E7191D",
"6%	c #E91A1E",
"7%	c #E51B1C",
"8%	c #E31A1C",
"9%	c #E41B1F",
"0%	c #EA1A24",
"a%	c #EA1928",
"b%	c #D51F1C",
"c%	c #8F1E07",
"d%	c #935E1A",
"e%	c #CD892D",
"f%	c #FCC85B",
"g%	c #FCC95E",
"h%	c #FCCA60",
"i%	c #FFCF66",
"j%	c #D08B2D",
"k%	c #A25A1D",
"l%	c #D52A20",
"m%	c #E8192F",
"n%	c #E81A2E",
"o%	c #E7192B",
"p%	c #E71929",
"q%	c #E71927",
"r%	c #E71925",
"s%	c #E61923",
"t%	c #E61921",
"u%	c #E61A1E",
"v%	c #E21C19",
"w%	c #B31D0A",
"x%	c #A82A0A",
"y%	c #B43F10",
"z%	c #AA310C",
"A%	c #A61B08",
"B%	c #CD2016",
"C%	c #9E2109",
"D%	c #83190B",
"E%	c #975F18",
"F%	c #D48F30",
"G%	c #FBC860",
"H%	c #FECF67",
"I%	c #EBAC48",
"J%	c #A06219",
"K%	c #BD3A1B",
"L%	c #E71B30",
"M%	c #E81A2B",
"N%	c #E71A24",
"O%	c #E61920",
"P%	c #DD1E18",
"Q%	c #AA300A",
"R%	c #D6832B",
"S%	c #FDC34E",
"T%	c #FFCD5A",
"U%	c #FFCB5A",
"V%	c #EBA441",
"W%	c #A84413",
"X%	c #932C0F",
"Y%	c #996019",
"Z%	c #C5822A",
"`%	c #EDB04C",
" &	c #B27321",
".&	c #9D531C",
"+&	c #DD2425",
"@&	c #E71932",
"#&	c #E81A31",
"$&	c #E71A27",
"%&	c #E31B1D",
"&&	c #AB250A",
"*&	c #E89C2F",
"=&	c #FFC746",
"-&	c #FDC44A",
";&	c #FDC654",
">&	c #FEC95A",
",&	c #FCC355",
"'&	c #DD8934",
")&	c #99621B",
"!&	c #AB6C1D",
"~&	c #90641F",
"{&	c #D2351D",
"]&	c #E71A26",
"^&	c #E71923",
"/&	c #CB1A14",
"(&	c #C9671A",
"_&	c #FFC236",
":&	c #FDBF3C",
"<&	c #FCC142",
"[&	c #FDC248",
"}&	c #FCC553",
"|&	c #FDC657",
"1&	c #F4B449",
"2&	c #976522",
"3&	c #AB260B",
"4&	c #D42020",
"5&	c #E31B2E",
"6&	c #E81930",
"7&	c #E8192E",
"8&	c #E8192C",
"9&	c #E81929",
"0&	c #BB1813",
"a&	c #E89A24",
"b&	c #FEBC2D",
"c&	c #FEBD33",
"d&	c #FEBF3A",
"e&	c #FDC040",
"f&	c #FDC246",
"g&	c #FCC34C",
"h&	c #FDC551",
"i&	c #FBC252",
"j&	c #861E07",
"k&	c #972105",
"l&	c #AB230A",
"m&	c #BE2214",
"n&	c #CE201D",
"o&	c #DA1E23",
"p&	c #E21D27",
"q&	c #E61D28",
"r&	c #E71C28",
"s&	c #E71C26",
"t&	c #E51D24",
"u&	c #E01D20",
"v&	c #D61F1B",
"w&	c #A41A0F",
"x&	c #EC9F20",
"y&	c #FEBA25",
"z&	c #FEBB2B",
"A&	c #FDBC31",
"B&	c #FEBE37",
"C&	c #FDBF3E",
"D&	c #FDC144",
"E&	c #FDC34A",
"F&	c #FFC651",
"G&	c #D28A2C",
"H&	c #8E1E0A",
"I&	c #972007",
"J&	c #A12206",
"K&	c #A32208",
"L&	c #A62209",
"M&	c #AA230A",
"N&	c #AB230B",
"O&	c #AB220A",
"P&	c #A82209",
"Q&	c #A12207",
"R&	c #801906",
"S&	c #D98D1F",
"T&	c #FFBA1E",
"U&	c #FDB923",
"V&	c #FEBA2A",
"W&	c #FDBC2F",
"X&	c #FEBD35",
"Y&	c #FFC347",
"Z&	c #B07321",
"`&	c #911B11",
" *	c #931D0C",
".*	c #971E0A",
"+*	c #9A2108",
"@*	c #9C2207",
"#*	c #9B2107",
"$*	c #982009",
"%*	c #931E09",
"&*	c #911C0B",
"**	c #AD6B1E",
"=*	c #FDB31B",
"-*	c #FEB81C",
";*	c #FDB922",
">*	c #FEB927",
",*	c #FDBB2D",
"'*	c #FDBF3A",
")*	c #F4B037",
"!*	c #8D5A19",
"~*	c #8C5817",
"{*	c #C9821F",
"]*	c #FBB11A",
"^*	c #FFB91B",
"/*	c #FEB920",
"(*	c #FFBD2B",
"_*	c #C58124",
":*	c #9C6419",
"<*	c #B8751E",
"[*	c #E3971E",
"}*	c #FBAE1F",
"|*	c #FCB021",
"1*	c #E89C24",
"2*	c #B7741F",
"3*	c #965F19",
"4*	c #9D651A",
"5*	c #9E641B",
"6*	c #A2651B",
"7*	c #A2651C",
"8*	c #9A611A",
"9*	c #9B621A",
"0*	c #A56C19",
"a*	c #A1681A",
"b*	c #9F671A",
"c*	c #A26A1C",
"                                                                                                ",
"                                                                                                ",
"                                                                    . +                         ",
"                                                                @ # $ % & *                     ",
"                                                                = - ; ; ; > ,                   ",
"                                              ' ) ! ~ { ] ^   / ( ( ( ( ( ( (                   ",
"                                        _ : < [ } | 1 2 3 4 5 6 7 8 9 8 8 7 0 a                 ",
"                                      b c d e f g h i j k l m n o o p p p p q r                 ",
"                                s t   u v w x y z A B C D E F G H I J K J L M N                 ",
"                              O P Q R S T U V W X Y Z `  ...+.@.#.$.%.&.%.*.=.                  ",
"                            -.;.>.,.'.).!.~.{.W ].Y ^./. .(._.:.<.[.}.|.1.2.3.4.                ",
"                          5.6.7.8.>.9.0.a.b.c.d.e.f.g.h.i.j.k.l.m.n.o.p.q.r.s.t.                ",
"                        u.v.w.x.y.z.A.B.C.D.E.F.G.H.I.J.K.L.M.N.O.P.Q.R.S.T.U.V.W.              ",
"                      X.Y.Z.`. +.+y.++@+#+$+%+&+*+=+-+;+>+,+'+)+!+~+{+]+^+/+(+_+:+<+            ",
"                      [+}+|+1+2+ +.+3+4+5+                  6+7+8+9+0+a+b+c+d+e+f+g+            ",
"                    h+i+j+}+k+l+m+n+o+p+q+                      r+s+t+u+v+w+x+y+z+A+B+          ",
"                    C+D+E+F+G+H+I+J+K+L+                          M+N+O+P+Q+R+S+T+U+V+          ",
"          W+X+Y+Z+`+ @.@+@@@#@$@%@&@*@                              =@-@f+;@>@,@'@)@!@~@        ",
"        {@]@^@/@(@_@:@u <@[@}@|@1@2@                                  3@4@5@6@6@7@8@9@0@        ",
"        a@b@c@d@e@f@g@h@i@j@k@l@m@n@                                  o@p@q@r@s@t@u@0@v@        ",
"      w@x@y@c@z@A@B@C@D@E@F@G@H@I@J@                                    K@L@M@N@O@P@Q@R@        ",
"      S@T@U@V@W@X@Y@X@Z@`@ #.#.#+#@#                                    ##$#%#&#&#*#=#-#        ",
"      ;#>#,#X@Y@Y@'#)#!#~#{#]#^#/#(#                                    _#:#<#[#[#}#}#|#        ",
"        1#2#X@'#'#)#3#4#5#6#7#^#8#9#                                    0#a#b#c#d#e#f#g#        ",
"        h#i#j#k#l#m#n#o#p#q#r#s#t#u#                                  v#w#x#y#z#z#A#B#C#        ",
"          D#E#F#G#H#I#J#K#L#J#M#N#O#P#                                Q#R#S#T#y#z#A#B#U#        ",
"                  V#W#X#Y#Z#`# $.$+$@$                              #$$$%$&$*$T#y#z#=$-$        ",
"                    ;$>$,$'$)$!$~${$O#]$                          ^$/$($($_$&$*$T#:$<$[$        ",
"                    }$|$1$2${$3$4$5$6$7$8$                      9$0$a$b$c$d$e$f$g$h$i$j$        ",
"                    k$l$m$n$o$p$q$r$s$t$u$  v$w$          x$y$z$A$B$C$D$E$F$($&$G$H$I$          ",
"                      J$K$L$M$O#s$N$O$P$Q$R$S$T$U$V$W$X$Y$Z$`$ %.%+%@%#%$%%%&%*%=%-%;%          ",
"                      >%,%'%)%!%~%{%]%^%/%(%_%:%x#<%[%}%|%1%2%3%4%5%6%7%8%9%0%a%b%c%            ",
"                        d%e%f%g%h%i%j%k%l%B#m%n%o%p%q%r%s%t%B$u%5%v%w%x%y%z%A%B%C%D%            ",
"                          E%F%G%H%I%J%K%L%d#z#n%M%*$&$d$N%E$O%#%P%Q%R%S%T%U%V%W%X%              ",
"                            Y%Z%`% &.&+&@&#&A#n%T#*$&$$&N%E$$%%&&&*&=&-&6$;&>&,&'&              ",
"                              )&!&~&{&f#f##&A#z#T#M%*$e$]&N%^&/&(&_&:&<&[&p$}&|&1&              ",
"                                2&  3&4&5&c#6&m%7&8&G$9&*%%$($0&a&b&c&d&e&f&g&h&i&              ",
"                                    j&k&l&m&n&o&p&q&r&s&t&u&v&w&x&y&z&A&B&C&D&E&F&G&            ",
"                                        H&I&J&K&L&M&N&O&P&K&Q&R&S&T&U&V&W&X&:&!$Y&Z&            ",
"                                            `& *.*+*@*#*$*%*&*  **=*-*;*>*,*c&'*)*!*            ",
"                                                                ~*{*]*^*/*y&(*r#_*              ",
"                                                                  :*<*[*}*|*1*2*3*              ",
"                                                                    4*5*6*7*8*9*                ",
"                                                                      0*a*b*c*                  ",
"                                                                                                ",
"                                                                                                ",
"                                                                                                ",
"                                                                                                "};
