/* XPM */
static const char * vmware_32_xpm[] = {
"32 32 400 2",
"  	c None",
". 	c #B4B4B4",
"+ 	c #C7C7C7",
"@ 	c #D5D5D5",
"# 	c #D9D9D9",
"$ 	c #CCCCCC",
"% 	c #B8B9B9",
"& 	c #C3C3C3",
"* 	c #DEDEDE",
"= 	c #E4E4E4",
"- 	c #E1E1E1",
"; 	c #E9E9E9",
"> 	c #ECECEC",
", 	c #EBEBEB",
"' 	c #EEEEEE",
") 	c #E8E8E8",
"! 	c #CBCBCB",
"~ 	c #B5B5B6",
"{ 	c #D4D4D4",
"] 	c #D1D1D1",
"^ 	c #D3D3D3",
"/ 	c #DCDCDC",
"( 	c #E0E0E0",
"_ 	c #DFDFDF",
": 	c #E0E1E1",
"< 	c #C0C0C0",
"[ 	c #BCBCBC",
"} 	c #C5C5C5",
"| 	c #C4C4C4",
"1 	c #C2C2C2",
"2 	c #D0D0D0",
"3 	c #D1D0D0",
"4 	c #CACACA",
"5 	c #B7B7B7",
"6 	c #C5CAD1",
"7 	c #C4C9D3",
"8 	c #C3C8D1",
"9 	c #C3C9D1",
"0 	c #C4C9D2",
"a 	c #C4C9D1",
"b 	c #C6CBD3",
"c 	c #C5CAD2",
"d 	c #C5CBD2",
"e 	c #BFC1C3",
"f 	c #C6C6C6",
"g 	c #B6B6B6",
"h 	c #B4BDCE",
"i 	c #A7B1C6",
"j 	c #ABB5C6",
"k 	c #AFB7C8",
"l 	c #B2BAC9",
"m 	c #B5BCCB",
"n 	c #B7BDCB",
"o 	c #B7BECC",
"p 	c #B7BFCC",
"q 	c #B6BECB",
"r 	c #B6BDCB",
"s 	c #BBC3D4",
"t 	c #B3B5B8",
"u 	c #BDBDBD",
"v 	c #BFBFBF",
"w 	c #B2B3B3",
"x 	c #A7A8A8",
"y 	c #BFC0C0",
"z 	c #8999B8",
"A 	c #98A5BE",
"B 	c #9DA9C0",
"C 	c #A1ADC3",
"D 	c #A4AFC5",
"E 	c #A9B2C6",
"F 	c #AAB3C7",
"G 	c #AAB4C7",
"H 	c #A9B3C6",
"I 	c #A1A7B3",
"J 	c #B1B1B1",
"K 	c #B9B9B9",
"L 	c #BBBBBB",
"M 	c #BABABA",
"N 	c #A2A2A2",
"O 	c #C5C5C6",
"P 	c #7B8DAF",
"Q 	c #94A2BD",
"R 	c #939FB6",
"S 	c #A9AEB7",
"T 	c #A8ADB6",
"U 	c #ABB0B9",
"V 	c #ADB2BA",
"W 	c #A9ADB5",
"X 	c #AAAEB6",
"Y 	c #A8ADB5",
"Z 	c #A2ADC1",
"` 	c #A3AFC4",
" .	c #A6B0C5",
"..	c #8E97A8",
"+.	c #BEBEBE",
"@.	c #ACACAD",
"#.	c #C9C9CA",
"$.	c #7A8CAF",
"%.	c #93A2BE",
"&.	c #95A1B8",
"*.	c #CBCBCA",
"=.	c #C9C9C9",
"-.	c #B3B7BF",
";.	c #A2AEC5",
">.	c #838EA4",
",.	c #BCBCBB",
"'.	c #C8C8C8",
").	c #A6A6A6",
"!.	c #CDCDCD",
"~.	c #DDDDDD",
"{.	c #D2D2D2",
"].	c #7E90B2",
"^.	c #93A2BF",
"/.	c #96A3BA",
"(.	c #D5D5D4",
"_.	c #CECECE",
":.	c #CBCCCC",
"<.	c #CECFCF",
"[.	c #BABFC7",
"}.	c #A1AFC7",
"|.	c #798CB1",
"1.	c #8B95A9",
"2.	c #C3C4C4",
"3.	c #C1C2C2",
"4.	c #BABBBB",
"5.	c #939494",
"6.	c #D6D5D5",
"7.	c #D7D7D7",
"8.	c #DDDEDE",
"9.	c #8494B6",
"0.	c #94A5C1",
"a.	c #99A6BE",
"b.	c #D9D9D8",
"c.	c #D3C3C3",
"d.	c #D5B7B7",
"e.	c #CFB4B8",
"f.	c #BBA6B3",
"g.	c #B59FAD",
"h.	c #BDA3AA",
"i.	c #D4B5B5",
"j.	c #D3B3B3",
"k.	c #D2B3B3",
"l.	c #D1B4B4",
"m.	c #C7C2C2",
"n.	c #CAC9C9",
"o.	c #CFCFCF",
"p.	c #919192",
"q.	c #ABACAC",
"r.	c #8B9BBB",
"s.	c #98A7C4",
"t.	c #9DA9C1",
"u.	c #E0E0DF",
"v.	c #DBDBDB",
"w.	c #DADADA",
"x.	c #D4CCCC",
"y.	c #D69292",
"z.	c #D48A8A",
"A.	c #D28484",
"B.	c #D38787",
"C.	c #D89494",
"D.	c #E1AAAA",
"E.	c #E2ADAD",
"F.	c #E1ABAB",
"G.	c #E1A9A9",
"H.	c #DFA8A8",
"I.	c #CDCBCB",
"J.	c #A3A3A3",
"K.	c #BDBEBE",
"L.	c #E6E6E6",
"M.	c #E5E5E5",
"N.	c #E2E3E3",
"O.	c #93A1BF",
"P.	c #9BAAC8",
"Q.	c #A1ADC5",
"R.	c #EBEBEA",
"S.	c #E3E3E3",
"T.	c #E1E3E3",
"U.	c #D6DADA",
"V.	c #BCAFAF",
"W.	c #CA6F6F",
"X.	c #D37474",
"Y.	c #D27574",
"Z.	c #D17272",
"`.	c #CE6C6C",
" +	c #D78787",
".+	c #E4AFAF",
"++	c #E3AFAF",
"@+	c #E5AEAE",
"#+	c #D3BDBD",
"$+	c #D6D6D6",
"%+	c #B0B0B1",
"&+	c #CBCBCC",
"*+	c #9CA8C0",
"=+	c #A3AFC8",
"-+	c #ABB6CA",
";+	c #E3E3E2",
">+	c #C8A4A4",
",+	c #C35F5F",
"'+	c #C8C9C9",
")+	c #BBB2B1",
"!+	c #55465F",
"~+	c #564861",
"{+	c #75616F",
"]+	c #BBA2A2",
"^+	c #BB9B9B",
"/+	c #C96767",
"(+	c #DF9D9D",
"_+	c #E8B6B6",
":+	c #D8BEBE",
"<+	c #B9BABB",
"[+	c #D2D3D3",
"}+	c #F4F4F4",
"|+	c #F1F1F1",
"1+	c #EFEFEF",
"2+	c #8E9AB3",
"3+	c #667899",
"4+	c #374E77",
"5+	c #D7D5D3",
"6+	c #CC9F9E",
"7+	c #CE4746",
"8+	c #C85E5C",
"9+	c #D3D3D2",
"0+	c #ACB0B6",
"a+	c #324974",
"b+	c #636F87",
"c+	c #CACAC9",
"d+	c #C48B8B",
"e+	c #C95555",
"f+	c #D36B6B",
"g+	c #DBC5C5",
"h+	c #243B68",
"i+	c #334873",
"j+	c #344A75",
"k+	c #3F5479",
"l+	c #5E6D8C",
"m+	c #565E7D",
"n+	c #4F4668",
"o+	c #50496A",
"p+	c #575A78",
"q+	c #ABAFB5",
"r+	c #8E94A0",
"s+	c #CCCBCB",
"t+	c #C9CACA",
"u+	c #C48888",
"v+	c #C64747",
"w+	c #BB1212",
"x+	c #B28080",
"y+	c #B2B2B3",
"z+	c #E2E2E2",
"A+	c #E3E2E1",
"B+	c #2F446C",
"C+	c #2F446B",
"D+	c #2F456C",
"E+	c #31466E",
"F+	c #31476E",
"G+	c #32476F",
"H+	c #31476F",
"I+	c #415375",
"J+	c #C07B7B",
"K+	c #B91515",
"L+	c #B01212",
"M+	c #AA7C7C",
"N+	c #8D8E8E",
"O+	c #A0A6B3",
"P+	c #34476E",
"Q+	c #31456C",
"R+	c #31466C",
"S+	c #32466D",
"T+	c #33496F",
"U+	c #354D74",
"V+	c #344B72",
"W+	c #455573",
"X+	c #DCDBDA",
"Y+	c #B86A6A",
"Z+	c #AC1313",
"`+	c #A41010",
" @	c #A47979",
".@	c #D9D8D8",
"+@	c #B7B9BC",
"@@	c #B6B8BB",
"#@	c #9D888C",
"$@	c #851B1F",
"%@	c #872126",
"&@	c #874B4F",
"*@	c #B3B6BA",
"=@	c #B5B6B8",
"-@	c #AF6969",
";@	c #9D1212",
">@	c #970F0F",
",@	c #9F7676",
"'@	c #C1C1C1",
")@	c #B29595",
"!@	c #970D0D",
"~@	c #9C1111",
"{@	c #9C4646",
"]@	c #CFD1D1",
"^@	c #A76767",
"/@	c #8D0F0F",
"(@	c #890E0E",
"_@	c #997474",
":@	c #A5A4A5",
"<@	c #B0B0B0",
"[@	c #B2B2B2",
"}@	c #A48A8A",
"|@	c #7E0A0A",
"1@	c #820F0F",
"2@	c #802020",
"3@	c #C0C7C7",
"4@	c #C5C8C8",
"5@	c #C4C8C8",
"6@	c #C3C7C7",
"7@	c #C0C4C4",
"8@	c #996363",
"9@	c #7D0D0D",
"0@	c #7A0C0C",
"a@	c #8F6E6E",
"b@	c #B5B5B5",
"c@	c #8E8F8F",
"d@	c #A0A09F",
"e@	c #A0A0A0",
"f@	c #A1A1A1",
"g@	c #A8A8A8",
"h@	c #ACACAC",
"i@	c #967E7E",
"j@	c #6D0909",
"k@	c #700C0C",
"l@	c #730C0C",
"m@	c #721111",
"n@	c #772121",
"o@	c #762121",
"p@	c #742020",
"q@	c #6F1616",
"r@	c #6C0C0C",
"s@	c #6A0A0A",
"t@	c #836666",
"u@	c #989898",
"v@	c #8F8F8F",
"w@	c #8E8E8E",
"x@	c #909090",
"y@	c #959595",
"z@	c #8F8585",
"A@	c #5C0303",
"B@	c #600B0B",
"C@	c #610B0B",
"D@	c #620B0B",
"E@	c #630B0B",
"F@	c #5E0A0A",
"G@	c #5C0A0A",
"H@	c #590707",
"I@	c #7B6868",
"J@	c #9A9A9A",
"K@	c #818181",
"L@	c #7C7C7C",
"M@	c #7D7D7D",
"N@	c #7E7E7E",
"O@	c #838484",
"P@	c #693E3E",
"Q@	c #560303",
"R@	c #570606",
"S@	c #580606",
"T@	c #560505",
"U@	c #540505",
"V@	c #540404",
"W@	c #562323",
"X@	c #8D9090",
"Y@	c #757575",
"Z@	c #696969",
"`@	c #6A6A6A",
" #	c #6B6B6B",
".#	c #6E7070",
"+#	c #6D6D6D",
"@#	c #686363",
"##	c #6A6565",
"$#	c #6B6767",
"%#	c #6B6666",
"&#	c #6A6969",
"*#	c #838586",
"=#	c #6E6E6E",
"-#	c #5C5C5C",
";#	c #595959",
">#	c #5A5A5A",
",#	c #5B5B5B",
"'#	c #656565",
")#	c #666666",
"!#	c #676767",
"~#	c #747575",
"{#	c #626262",
"]#	c #535353",
"^#	c #474747",
"/#	c #494949",
"(#	c #4B4B4B",
"_#	c #565656",
":#	c #575757",
"<#	c #585858",
"[#	c #5F6060",
"}#	c #6A6A6B",
"|#	c #585959",
"1#	c #606061",
"2#	c #5E5E5E",
"3#	c #5A5B5B",
"                                                                ",
"                        . + @ # # @ $ %                         ",
"                    & * = - - ; > , , ' ) !                     ",
"                ~ { { { ] ^ ^ ^ / ( ( _ * * : <                 ",
"              [ } | & & } } 1 | & ! ^ { { ] 2 3 4               ",
"            5 6 7 8 9 0 9 a b a c d e } f + + } | 1             ",
"          g h i j k l m n o p p q r s t [ u v v u u w           ",
"        x y z A B C D i E F G G H E F I J K K L L M K N         ",
"        v O P Q R S T U V W X Y Z `  ...M L +.+.u v +.5         ",
"      @.4 #.$.%.&.*.f | f =.& < -.;.;.>.,.M < '.+ 1 & & ).      ",
"      !.~.{.].^./.(._.!.$ =.:.<.[.}.|.1.2.1 3.3.=.2 $ + 4.      ",
"    5.6.7.8.9.0.a.b.7.@ ^ {.c.d.e.f.g.h.i.j.k.l.m.n.o.^ o.p.    ",
"    q.( * ~.r.s.t.u.v./ v.w.x.y.z.A.B.C.D.E.F.G.H.I.] ^ ^ J.    ",
"    K.L.M.N.O.P.Q.R.S.T.U.=.1 V.W.X.Y.Z.`. +.+++@+#+$+$+w.%+    ",
"    &+> , ; *+=+-+;+( >+,+'+4 + )+!+~+{+]+^+/+(+_+:+* ~.* <+    ",
"    [+}+|+1+2+3+4+5+(.6+7+8+9+] ! 0+a+b+c+'.d+e+f+g+L.M.= ~     ",
"    < = L.- h+i+j+k+l+m+n+o+p+{.7.] q+r+s+t+u+v+w+x+- ; = %+    ",
"    y+_ z+A+B+C+D+E+F+G+G+G+H+I+_.$+@ 2 4 ! J+K+L+M+4 o.4 J.    ",
"    N+/ w.- O+P+Q+R+S+T+U+U+V+S+W+X+{.{.2 <.Y+Z+`+ @f | } N+    ",
"      4 o.o..@4 +@+@@@#@$@%@&@*@=@@ $+_.o.:.-@;@>@,@1 1 v       ",
"      ).'@'@'@'.! $ !.)@!@~@{@]@'.+ + o.=.'.^@/@(@_@1 < :@      ",
"        <@[@[@[@K u +.}@|@1@2@3@4@5@6@7@6@5@8@9@0@a@5 b@        ",
"        c@d@e@f@e@g@h@i@j@k@l@m@n@n@n@n@o@p@q@r@s@t@[@u@        ",
"          v@w@w@x@w@y@z@A@B@C@D@E@E@E@D@C@B@F@G@H@I@J@          ",
"            K@L@L@M@N@O@P@Q@R@S@S@S@S@S@R@T@U@V@W@X@            ",
"              Y@Z@Z@`@ #.#+#@###$#$#$#$#%#%#%#&#*#              ",
"                =#-#;#;#>#,#'#)#!#Z@Z@Z@Z@Z@`@~#                ",
"                    {#]#^#/#(#]#_#:#<#:#[#}#                    ",
"                        _#|#<#:#-#1#2#3#                        ",
"                                                                ",
"                                                                ",
"                                                                "};
