/* XPM */
static char * vmware_48_xpm[] = {
"48 48 754 2",
"  	c None",
". 	c #939393",
"+ 	c #B9B9B9",
"@ 	c #D1D1D1",
"# 	c #E0E0E0",
"$ 	c #E9E9E9",
"% 	c #EBEBEB",
"& 	c #EAEAEA",
"* 	c #D8D8D8",
"= 	c #BDBEBE",
"- 	c #969696",
"; 	c #A5A5A5",
"> 	c #C5C5C6",
", 	c #E3E3E3",
"' 	c #E6E6E6",
") 	c #E4E4E4",
"! 	c #E2E2E2",
"~ 	c #EDEDED",
"{ 	c #EEEEEE",
"] 	c #EFEFEF",
"^ 	c #CDCDCD",
"/ 	c #A9A9A9",
"( 	c #ADADAD",
"_ 	c #C6C6C6",
": 	c #DADADA",
"< 	c #DCDCDC",
"[ 	c #D9D9D9",
"} 	c #DBDBDB",
"| 	c #DFDFDF",
"1 	c #E5E5E5",
"2 	c #E7E7E7",
"3 	c #CECECE",
"4 	c #B4B4B4",
"5 	c #BABABB",
"6 	c #D0D0D0",
"7 	c #D3D3D3",
"8 	c #D2D2D2",
"9 	c #CFCFCF",
"0 	c #DDDDDD",
"a 	c #DEDEDE",
"b 	c #C7C7C8",
"c 	c #989899",
"d 	c #BEBFBF",
"e 	c #C9C9C9",
"f 	c #C5C5C5",
"g 	c #C7C7C7",
"h 	c #C8C8C8",
"i 	c #C8C8C7",
"j 	c #D5D5D5",
"k 	c #D6D6D6",
"l 	c #D0D1D1",
"m 	c #9D9D9D",
"n 	c #9B9C9C",
"o 	c #BABAB9",
"p 	c #C2C1C0",
"q 	c #BFBFBE",
"r 	c #BEBDBC",
"s 	c #BDBCBB",
"t 	c #BCBCBB",
"u 	c #BBBBBA",
"v 	c #BCBBBB",
"w 	c #BDBCBC",
"x 	c #C6C5C5",
"y 	c #CCCCCC",
"z 	c #CBCBCB",
"A 	c #CACACA",
"B 	c #A2A3A3",
"C 	c #989898",
"D 	c #C2C5CB",
"E 	c #C9D3E1",
"F 	c #C8D1E1",
"G 	c #C8D1E0",
"H 	c #C9D1E0",
"I 	c #C9D2E1",
"J 	c #CAD2E1",
"K 	c #CAD3E2",
"L 	c #CBD3E2",
"M 	c #CCD4E2",
"N 	c #CCD4E1",
"O 	c #CCD5E3",
"P 	c #CDD6E3",
"Q 	c #C5CAD2",
"R 	c #BCBCBC",
"S 	c #C4C4C4",
"T 	c #C3C3C3",
"U 	c #9F9F9F",
"V 	c #BBBABA",
"W 	c #BCC0C7",
"X 	c #B3BED4",
"Y 	c #AAB4C7",
"Z 	c #ADB7C8",
"` 	c #B0B8C9",
" .	c #B2BACA",
"..	c #B4BCCB",
"+.	c #B6BECB",
"@.	c #B8BFCC",
"#.	c #B9BFCC",
"$.	c #B9BFCD",
"%.	c #BAC1CD",
"&.	c #BAC1CE",
"*.	c #B9C1CD",
"=.	c #B9BECC",
"-.	c #BCC4D3",
";.	c #BBC1CA",
">.	c #B7B8B8",
",.	c #BEBEBE",
"'.	c #BDBDBD",
").	c #C0C0C0",
"!.	c #BFBFBF",
"~.	c #AFAFB0",
"{.	c #9EABC3",
"].	c #9CA8BF",
"^.	c #A0ACC2",
"/.	c #A3AEC4",
"(.	c #A6B0C5",
"_.	c #A8B2C5",
":.	c #AAB4C6",
"<.	c #ACB6C8",
"[.	c #AEB7C8",
"}.	c #AFB8C9",
"|.	c #B0B9C9",
"1.	c #B1B9C9",
"2.	c #AFB8C8",
"3.	c #AFB7C9",
"4.	c #B0B9CA",
"5.	c #ACADAF",
"6.	c #B1B1B1",
"7.	c #BABABA",
"8.	c #BBBBBB",
"9.	c #AAAAAB",
"0.	c #9FA0A0",
"a.	c #C1C1C1",
"b.	c #BABCBF",
"c.	c #7C8EB1",
"d.	c #97A5BE",
"e.	c #97A4BE",
"f.	c #9AA7BE",
"g.	c #9DA9C1",
"h.	c #9FACC2",
"i.	c #A2ADC4",
"j.	c #A4AEC4",
"k.	c #A7B1C5",
"l.	c #A7B2C6",
"m.	c #A8B2C6",
"n.	c #A8B3C7",
"o.	c #9CA0A7",
"p.	c #B5B5B5",
"q.	c #B0B0B0",
"r.	c #B6B5B6",
"s.	c #C5C5C4",
"t.	c #C0C0C4",
"u.	c #6F83A9",
"v.	c #95A3BD",
"w.	c #94A2BD",
"x.	c #959FB2",
"y.	c #98A1B1",
"z.	c #9AA3B3",
"A.	c #9CA5B4",
"B.	c #9DA5B5",
"C.	c #9DA5B3",
"D.	c #A0A9B9",
"E.	c #A3AEC2",
"F.	c #A3AFC4",
"G.	c #A4AFC4",
"H.	c #A5B0C4",
"I.	c #979BA2",
"J.	c #B6B6B6",
"K.	c #898989",
"L.	c #A7A8A8",
"M.	c #C1C3C6",
"N.	c #6C7FA5",
"O.	c #94A3BE",
"P.	c #94A2BE",
"Q.	c #95A2BC",
"R.	c #AFB2B8",
"S.	c #C6C5C3",
"T.	c #C4C3C2",
"U.	c #C2C2C1",
"V.	c #C5C4C3",
"W.	c #C8C7C6",
"X.	c #C7C6C5",
"Y.	c #C1C0BF",
"Z.	c #BFBEBD",
"`.	c #BBBAB9",
" +	c #AEB2B9",
".+	c #A1ADC4",
"++	c #A3AEC5",
"@+	c #A4AEC5",
"#+	c #8E9CB8",
"$+	c #9A9EA7",
"%+	c #B8B8B7",
"&+	c #C2C2C2",
"*+	c #A3A4A4",
"=+	c #BDBDBE",
"-+	c #CCCCCB",
";+	c #C5C6C9",
">+	c #6E81A6",
",+	c #94A2BF",
"'+	c #93A2BE",
")+	c #95A3BE",
"!+	c #B4B8BE",
"~+	c #CACAC9",
"{+	c #BFC0C2",
"]+	c #A3ADC3",
"^+	c #A2AEC5",
"/+	c #7789AD",
"(+	c #9CA1A9",
"_+	c #B3B3B3",
":+	c #A5A6A6",
"<+	c #CACBCD",
"[+	c #7385AA",
"}+	c #93A3C0",
"|+	c #93A2BF",
"1+	c #95A3BF",
"2+	c #B8BCC4",
"3+	c #C2C4C6",
"4+	c #A2AEC6",
"5+	c #8E9DBB",
"6+	c #667BA2",
"7+	c #A2A6AE",
"8+	c #B0B1B1",
"9+	c #D6D7D9",
"0+	c #788AAC",
"a+	c #94A3C1",
"b+	c #94A4C1",
"c+	c #96A5C0",
"d+	c #BBBFC6",
"e+	c #CDCCCC",
"f+	c #CAC9CB",
"g+	c #A2ADC3",
"h+	c #8E9DB9",
"i+	c #7586AA",
"j+	c #7181A5",
"k+	c #A4A6AD",
"l+	c #C5C3C3",
"m+	c #C3C0C0",
"n+	c #C2BFBF",
"o+	c #C1BFBF",
"p+	c #C4C6C6",
"q+	c #C8C7C7",
"r+	c #AAAAAA",
"s+	c #C0C1C1",
"t+	c #7D8FB1",
"u+	c #95A4C2",
"v+	c #95A5C2",
"w+	c #97A6C2",
"x+	c #BDC1C9",
"y+	c #D8D8D7",
"z+	c #D7D7D7",
"A+	c #D4D4D4",
"B+	c #D2C8C8",
"C+	c #DEADAD",
"D+	c #DDB0B0",
"E+	c #DDB1B1",
"F+	c #DBB0B2",
"G+	c #D8ADB0",
"H+	c #D8ADAF",
"I+	c #D7ACAE",
"J+	c #DBADAE",
"K+	c #DDAFAF",
"L+	c #DDAEAE",
"M+	c #D7AAAA",
"N+	c #CAB3B3",
"O+	c #C8CBCB",
"P+	c #BCBDBD",
"Q+	c #8D8D8D",
"R+	c #DEDEDD",
"S+	c #D7D8DA",
"T+	c #8595B5",
"U+	c #97A5C4",
"V+	c #98A7C4",
"W+	c #9AA8C4",
"X+	c #C2C6CD",
"Y+	c #D6D1D1",
"Z+	c #D9AAAA",
"`+	c #DEA4A4",
" @	c #DA9B9B",
".@	c #D79292",
"+@	c #D58E8E",
"@@	c #D69191",
"#@	c #D99B9B",
"$@	c #DEA7A7",
"%@	c #E0ABAB",
"&@	c #E1ACAC",
"*@	c #E2ABAB",
"=@	c #E1AAAA",
"-@	c #E1A9A9",
";@	c #E1ABAB",
">@	c #CFB8B8",
",@	c #C4C5C5",
"'@	c #DCDCDD",
")@	c #E1E1E1",
"!@	c #DBDCDD",
"~@	c #8B9BB8",
"{@	c #98A8C6",
"]@	c #9AA9C6",
"^@	c #9CAAC6",
"/@	c #C7CBD2",
"(@	c #E1E1E0",
"_@	c #CACBCB",
":@	c #C0B5B5",
"<@	c #C37676",
"[@	c #CF7171",
"}@	c #CD7474",
"|@	c #CE7575",
"1@	c #CD7575",
"2@	c #CD7373",
"3@	c #CF7777",
"4@	c #D48686",
"5@	c #DC9A9A",
"6@	c #E3B0B0",
"7@	c #E3AEAE",
"8@	c #E3ADAD",
"9@	c #E2ACAC",
"0@	c #D9ADAD",
"a@	c #D3CFCF",
"b@	c #999999",
"c@	c #AAABAB",
"d@	c #DFE0E2",
"e@	c #929FBB",
"f@	c #9BABC8",
"g@	c #9CABC8",
"h@	c #9EADC8",
"i@	c #CED2D9",
"j@	c #ECECEB",
"k@	c #E4E3E3",
"l@	c #DEE1E1",
"m@	c #CFD6D6",
"n@	c #C2C3C3",
"o@	c #BDB7B7",
"p@	c #BF7171",
"q@	c #D27070",
"r@	c #D27272",
"s@	c #D27373",
"t@	c #D0706F",
"u@	c #CE6E6E",
"v@	c #CF6D6D",
"w@	c #D27979",
"x@	c #E1A6A6",
"y@	c #E5B3B3",
"z@	c #E4AFAF",
"A@	c #DAA3A3",
"B@	c #D8D2D2",
"C@	c #B5B6B7",
"D@	c #E4E4E6",
"E@	c #99A6BE",
"F@	c #A0ADC6",
"G@	c #A0AEC8",
"H@	c #A3B0C9",
"I@	c #CDD0D7",
"J@	c #D6DADA",
"K@	c #C08C8C",
"L@	c #C35959",
"M@	c #C1B2B2",
"N@	c #CBCCCC",
"O@	c #BDBABA",
"P@	c #87595F",
"Q@	c #734550",
"R@	c #734650",
"S@	c #70434D",
"T@	c #96686A",
"U@	c #B18383",
"V@	c #AF8282",
"W@	c #BA7474",
"X@	c #CB6666",
"Y@	c #DB9191",
"Z@	c #E5B0B0",
"`@	c #E6B3B3",
" #	c #DDD6D6",
".#	c #A9AAAB",
"+#	c #BEBFC0",
"@#	c #F1F1F1",
"##	c #E7E8E9",
"$#	c #A2ADC2",
"%#	c #ABB6C9",
"&#	c #9BA9C0",
"*#	c #7F8EAB",
"=#	c #AEB3BD",
"-#	c #DEE4E4",
";#	c #C17070",
">#	c #CA4A4A",
",#	c #C36060",
"'#	c #C5B7B7",
")#	c #D3D4D4",
"!#	c #A9B1B9",
"~#	c #405981",
"{#	c #2F4D7C",
"]#	c #294677",
"^#	c #88919B",
"/#	c #CACDCD",
"(#	c #C9CDCD",
"_#	c #C5CCCC",
":#	c #BD8B8B",
"<#	c #CB5858",
"[#	c #D27676",
"}#	c #E2A3A3",
"|#	c #DCAAAA",
"1#	c #E1DBDB",
"2#	c #ACADAE",
"3#	c #B9BBBB",
"4#	c #F3F3F3",
"5#	c #F6F6F6",
"6#	c #F4F4F4",
"7#	c #EBECED",
"8#	c #8694AD",
"9#	c #5A6C90",
"0#	c #40567F",
"a#	c #374F7B",
"b#	c #758197",
"c#	c #D6D5D4",
"d#	c #D6D5D5",
"e#	c #D7DDDC",
"f#	c #C0706F",
"g#	c #CD4240",
"h#	c #CE4C4B",
"i#	c #C75453",
"j#	c #C7BEBD",
"k#	c #DADBDB",
"l#	c #B8BABD",
"m#	c #3C4F75",
"n#	c #2B4371",
"o#	c #8A8E98",
"p#	c #CBCBCA",
"q#	c #C4B4B4",
"r#	c #C84F4F",
"s#	c #C95555",
"t#	c #CA5555",
"u#	c #CB6868",
"v#	c #E2DDDD",
"w#	c #A8A9AA",
"x#	c #AAABAC",
"y#	c #E8E8E8",
"z#	c #EFEEEE",
"A#	c #D4D6D8",
"B#	c #243C69",
"C#	c #324872",
"D#	c #334974",
"E#	c #344A75",
"F#	c #314773",
"G#	c #62718B",
"H#	c #818B9F",
"I#	c #808DA1",
"J#	c #6A5B71",
"K#	c #66425C",
"L#	c #674761",
"M#	c #694861",
"N#	c #675069",
"O#	c #B4B9BE",
"P#	c #B8B9BD",
"Q#	c #405275",
"R#	c #9B9FA5",
"S#	c #C54848",
"T#	c #C74C4C",
"U#	c #BF1C1C",
"V#	c #A31515",
"W#	c #CCC0C0",
"X#	c #A2A2A3",
"Y#	c #9C9C9C",
"Z#	c #D4D4D6",
"`#	c #28406A",
" $	c #30466E",
".$	c #31476F",
"+$	c #324871",
"@$	c #2F4670",
"#$	c #2E4470",
"$$	c #304774",
"%$	c #304975",
"&$	c #2F4773",
"*$	c #45587A",
"=$	c #B1B3B9",
"-$	c #D3D3D2",
";$	c #C6C6C4",
">$	c #C5B5B5",
",$	c #C13A3A",
"'$	c #BE1F1F",
")$	c #B91313",
"!$	c #9D1818",
"~$	c #C3B8B8",
"{$	c #969798",
"]$	c #868686",
"^$	c #E4E3E1",
"/$	c #43577B",
"($	c #2B4067",
"_$	c #2F436A",
":$	c #2F446B",
"<$	c #2F456C",
"[$	c #30456C",
"}$	c #30466D",
"|$	c #31466D",
"1$	c #2E446C",
"2$	c #364A6E",
"3$	c #B2B4B8",
"4$	c #D7D7D6",
"5$	c #C3AFAF",
"6$	c #B81313",
"7$	c #B51414",
"8$	c #B11313",
"9$	c #981717",
"0$	c #BFB4B4",
"a$	c #C3C4C4",
"b$	c #838384",
"c$	c #E5E4E4",
"d$	c #A8AEB9",
"e$	c #3B4D72",
"f$	c #2F4268",
"g$	c #2F4269",
"h$	c #2F4369",
"i$	c #30446A",
"j$	c #30456B",
"k$	c #35486B",
"l$	c #B7B9BD",
"m$	c #C1ACAC",
"n$	c #AE0A0A",
"o$	c #AD1313",
"p$	c #A81212",
"q$	c #921616",
"r$	c #BCB1B1",
"s$	c #ABB0B9",
"t$	c #717C92",
"u$	c #636F86",
"v$	c #637087",
"w$	c #647289",
"x$	c #51566E",
"y$	c #4A425B",
"z$	c #4B445D",
"A$	c #4B455D",
"B$	c #4C4760",
"C$	c #5C677F",
"D$	c #626F86",
"E$	c #636F85",
"F$	c #A7ABB2",
"G$	c #DCDCDB",
"H$	c #C1ADAD",
"I$	c #A30808",
"J$	c #A41212",
"K$	c #A01212",
"L$	c #8B1515",
"M$	c #BAB0B0",
"N$	c #ACACAC",
"O$	c #9B9B9B",
"P$	c #CECFCF",
"Q$	c #CDCECF",
"R$	c #D0D5D6",
"S$	c #9F6869",
"T$	c #9E1213",
"U$	c #A21718",
"V$	c #A31A1B",
"W$	c #A22829",
"X$	c #B1ACAC",
"Y$	c #C6C7C8",
"Z$	c #BBA9A9",
"`$	c #990707",
" %	c #991212",
".%	c #961010",
"+%	c #841313",
"@%	c #B7ADAD",
"#%	c #D2D6D6",
"$%	c #9F6868",
"%%	c #990E0E",
"&%	c #9E1212",
"*%	c #A01111",
"=%	c #A31F1F",
"-%	c #B6B0B0",
";%	c #BCABAB",
">%	c #8D0606",
",%	c #8E0F0F",
"'%	c #8D0F0F",
")%	c #7B1212",
"!%	c #B8AFAF",
"~%	c #B6B6B7",
"{%	c #9E9F9F",
"]%	c #976363",
"^%	c #890B0B",
"/%	c #8C1010",
"(%	c #8E1010",
"_%	c #911B1B",
":%	c #AFA6A6",
"<%	c #B3A3A3",
"[%	c #830505",
"}%	c #840E0E",
"|%	c #820E0E",
"1%	c #731111",
"2%	c #ACA4A4",
"3%	c #A3A3A4",
"4%	c #AEAEAE",
"5%	c #AFAFAF",
"6%	c #B2B2B2",
"7%	c #BFC3C3",
"8%	c #8E5E5E",
"9%	c #7B0A0A",
"0%	c #7E0E0E",
"a%	c #800E0E",
"b%	c #801010",
"c%	c #946868",
"d%	c #BEC2C2",
"e%	c #C0C4C4",
"f%	c #C1C5C5",
"g%	c #C2C6C6",
"h%	c #C0C3C3",
"i%	c #BFC2C2",
"j%	c #C1C4C4",
"k%	c #C3C7C7",
"l%	c #ADA2A2",
"m%	c #780404",
"n%	c #790D0D",
"o%	c #780D0D",
"p%	c #6B0F0F",
"q%	c #B7B7B7",
"r%	c #AFB0B0",
"s%	c #6C6B6C",
"t%	c #8C8C8C",
"u%	c #A3A3A3",
"v%	c #A2A2A2",
"w%	c #A4A4A4",
"x%	c #A7A7A7",
"y%	c #B4B7B7",
"z%	c #865959",
"A%	c #6F0909",
"B%	c #730C0C",
"C%	c #740C0C",
"D%	c #750C0C",
"E%	c #740808",
"F%	c #792A2A",
"G%	c #7F3737",
"H%	c #7E3737",
"I%	c #7E3636",
"J%	c #7D3737",
"K%	c #7C3636",
"L%	c #752D2D",
"M%	c #700B0B",
"N%	c #6E0C0C",
"O%	c #6C0C0C",
"P%	c #620F0F",
"Q%	c #A39C9C",
"R%	c #929393",
"S%	c #919292",
"T%	c #979797",
"U%	c #A7AAAA",
"V%	c #7F5858",
"W%	c #640707",
"X%	c #670C0C",
"Y%	c #680B0B",
"Z%	c #6A0C0C",
"`%	c #6B0C0C",
" &	c #6C0909",
".&	c #6B0909",
"+&	c #6A0909",
"@&	c #690808",
"#&	c #670808",
"$&	c #660909",
"%&	c #650B0B",
"&&	c #640B0B",
"*&	c #620B0B",
"=&	c #590D0D",
"-&	c #979090",
";&	c #9A9A9A",
">&	c #656565",
",&	c #8B8B8B",
"'&	c #969898",
")&	c #887C7C",
"!&	c #5A0101",
"~&	c #5C0A0A",
"{&	c #5D0B0B",
"]&	c #5E0B0B",
"^&	c #5F0B0B",
"/&	c #600B0B",
"(&	c #5A0A0A",
"_&	c #590909",
":&	c #570808",
"<&	c #571B1B",
"[&	c #949090",
"}&	c #6C6D6D",
"|&	c #79797A",
"1&	c #818282",
"2&	c #7F7F7F",
"3&	c #7E7E7E",
"4&	c #808080",
"5&	c #818181",
"6&	c #8C8F8F",
"7&	c #693939",
"8&	c #540808",
"9&	c #550909",
"0&	c #560909",
"a&	c #570909",
"b&	c #540909",
"c&	c #530909",
"d&	c #510808",
"e&	c #500808",
"f&	c #530D0D",
"g&	c #6B5151",
"h&	c #909191",
"i&	c #7A7B7B",
"j&	c #7B7B7B",
"k&	c #737373",
"l&	c #727272",
"m&	c #747474",
"n&	c #797A7A",
"o&	c #6A4B4B",
"p&	c #5D2D2D",
"q&	c #5A2828",
"r&	c #5A2929",
"s&	c #5B2929",
"t&	c #5B2A2A",
"u&	c #5B2828",
"v&	c #592828",
"w&	c #5C2F2F",
"x&	c #695555",
"y&	c #828586",
"z&	c #646464",
"A&	c #676767",
"B&	c #686868",
"C&	c #717070",
"D&	c #706F6F",
"E&	c #716F6F",
"F&	c #737272",
"G&	c #747373",
"H&	c #7E8080",
"I&	c #696969",
"J&	c #757676",
"K&	c #5F5F5F",
"L&	c #5C5C5C",
"M&	c #5D5D5D",
"N&	c #616161",
"O&	c #6B6B6B",
"P&	c #6C6C6C",
"Q&	c #6E6E6E",
"R&	c #7B7C7C",
"S&	c #636363",
"T&	c #585858",
"U&	c #4E4E4E",
"V&	c #505050",
"W&	c #515151",
"X&	c #525252",
"Y&	c #555555",
"Z&	c #5E5E5E",
"`&	c #606060",
" *	c #646465",
".*	c #717171",
"+*	c #6D6D6D",
"@*	c #444444",
"#*	c #454545",
"$*	c #464646",
"%*	c #494949",
"&*	c #545454",
"**	c #5B5B5B",
"=*	c #4B4C4C",
"-*	c #4C4C4C",
";*	c #4F4F4F",
">*	c #666565",
",*	c #707070",
"'*	c #575757",
")*	c #535354",
"!*	c #535353",
"~*	c #575758",
"                                                                                                ",
"                                                                                                ",
"                                  . + @ # $ % % % % & $ * = -                                   ",
"                              ; > , ' ) ! ! & ~ { ~ ~ ~ { ] ~ ^ /                               ",
"                          ( _ : < [ : } } : : | ' ' ' 1 ' ' ' 2 1 3 4                           ",
"                        5 3 6 6 7 8 9 9 6 @ @ 6 7 0 a a 0 0 < < < < < b                         ",
"                    c d e _ _ f f g h i f f _ _ _ e 7 j k k k 7 7 8 8 k l m                     ",
"                  n o p q r s t t u u v r w u u v u s x y y 3 3 y z A e z g B                   ",
"                C + D E F G H I J K K L L M M N O O P Q R S T f f f f T T S S U                 ",
"                V W X Y Z `  ...+.@.#.$.%.%.&.%.*.$.=.-.;.>.,.'.,.).).!.!.,.'.+                 ",
"              ~.!.{.].^./.(._.:.<.[.}.}.|.1.1.1.|.` 2.3.4.5.6.7.8.7.R '.R 8.7.+ 9.              ",
"            0.a.b.c.d.e.f.g.h.i.j.(.k.l.m.n.n.m.l.k.k.m.i.o.p.q.7.7.7.7.R 8.+ + r.m             ",
"            >.s.t.u.v.w.v.x.y.y.z.A.B.A.C.C.C.D.E.F.G.H.v.I.V R J.,.,.'.R ,.,.'.R 6.K.          ",
"          L.S h M.N.O.P.Q.R.S.T.U.V.W.X.Y.s Z.`. +.+++@+#+$+%++ ,.!.S &+!.).a.a.a.8.*+          ",
"          =+z -+;+>+,+'+)+!+~+h g _ S _ z z &+).{+]+^+^+/+(+'.R 8.,.a.z 3 f T T S f _+          ",
"        :+} : 7 <+[+}+|+1+2+6 ^ ^ z A e h A 6 A 3+F.4+5+6+7+&+).).).).a.h 7 y e _ g !.n         ",
"        8+8 } | 9+0+a+b+c+d+j 7 8 6 6 9 3 y A e+f+g+h+i+j+k+l+m+m+n+o+p+p+q+6 8 @ 3 g r+        ",
"        s+* * : 9+t+u+v+w+x+y+z+* k A+7 7 B+C+D+E+F+G+H+I+J+D+K+L+L+L+M+N+O+A 9 6 @ j P+        ",
"      Q+6 a 0 R+S+T+U+V+W+X+: : } : : * z+Y+Z+`+ @.@+@@@#@$@%@&@*@=@-@-@;@>@3 9 8 8 @ ,@Q+      ",
"      n '@! )@)@!@~@{@]@^@/@(@# | | # } 8 _@:@<@[@}@|@1@2@3@4@5@6@7@8@9@*@0@a@7 A+k k y b@      ",
"      c@1 ' ' ' d@e@f@g@h@i@j@! k@l@m@z q+S n@o@p@q@r@r@s@t@u@v@w@x@y@z@z@A@B@z+k k : A+B       ",
"      C@% & & & D@E@F@G@H@I@2 $ J@K@L@M@N@z g _ O@P@Q@R@S@T@U@V@W@X@Y@Z@`@A@ #a 0 } < * .#      ",
"      +#@#~ ~ { ##$#%#&#*#=#7 6 -#;#>#,#'#)#y A e !#~#{#]#^#/#(#_#:#<#[#}#|#1#, ! # )@* 2#      ",
"      3#4#5#6#@#7#8#9#0#a#b#c#d#e#f#g#h#i#j#k#6 ^ -+l#m#n#o#p#g h q#r#s#t#u#v#1 ' ' , j w#      ",
"      x#) y#% z#A#B#C#D#E#F#G#H#I#J#K#L#M#N#O#: * 6 3 P#Q#R#-+A e q#S#T#U#V#W#' ' y#$ 7 X#      ",
"      Y## # # # Z#`# $.$+$+$@$#$#$$$%$%$%$&$*$=$y+* k -$;$z y A A >$,$'$)$!$~$6 0 a k h {$      ",
"      ]$[ | )@! ^$/$($_$:$<$[$}$|$|$|$|$|$|$1$2$3$4$A+A+* 9 A A A 5$6$7$8$9$0$h g 9 6 a$b$      ",
"        A } : | c$d$e$f$g$g$h$_$i$i$j$j$j$j$h$h$k$l$7 8 8 7 7 ^ z m$n$o$p$q$r$_ _ T T ).        ",
"        >.k j j [ 0 s$t$u$v$v$v$w$x$y$z$A$B$C$D$E$F$G$8 6 8 9 9 3 H$I$J$K$L$M$T T f T N$        ",
"        O$_@^ ^ y @ k @ P$P$P$Q$R$S$T$U$V$W$X$Y$> A 9 * 8 ^ 3 9 y Z$`$ %.%+%@%T a.).!.b@        ",
"          '.T T T T h y 3 3 3 9 #%$%%%&%*%=%-%z e g g e @ 9 h e z ;%>%,%'%)%!%S !.,.~%          ",
"          {%7.7.7.7.+ ,.T S f _ (#]%^%/%(%_%:%e h _ S T &+_ e _ T <%[%}%|%1%2%R '.!.3%          ",
"            r+4%q.q.5%5%6%7.7.R 7%8%9%0%a%b%c%d%e%f%g%g%h%d%i%j%k%l%m%n%o%p%2%q%4 r%s%          ",
"            t%u%v%u%w%u%u%x%4%4%y%z%A%B%C%D%E%F%G%H%G%G%G%I%J%K%K%L%M%N%O%P%Q%J.J.R%            ",
"              S%C T%T%C b@C O$v%U%V%W%X%Y%Z%`% &.&.&.&.&.&+&@&@&#&$&%&&&*&=&-&; ;&              ",
"              >&,&,&,&,&t%t%t%t%'&)&!&~&{&]&^&^&/&/&/&/&^&^&]&{&{&~&(&_&:&<&[&C }&              ",
"                |&1&2&2&3&4&5&5&5&6&7&8&8&9&0&0&0&a&a&a&a&0&0&9&b&c&d&e&f&g&h&i&                ",
"                  }&j&k&k&l&k&m&m&m&n&o&p&q&r&s&s&t&s&s&s&t&s&u&q&v&v&w&x&y&l&                  ",
"                    z&k&>&A&A&A&A&B&B&}&C&D&E&F&G&G&G&G&G&G&G&G&G&G&G&k&H&I&                    ",
"                        J&K&L&L&L&L&M&M&N&B&I&I&O&P&P&P&P&P&P&P&P&P&Q&R&                        ",
"                          S&B&T&U&V&W&W&X&Y&L&Z&M&K&`&N&`&`&`&Z& *.*A&                          ",
"                              >&+*U&@*#*$*%*%*W&&*&*&*Y&Y&Y&**m&I&                              ",
"                                  S&+*K&=*@*$*#*-*V&;*Y&>*,*S&                                  ",
"                                          Y&'*)*!*T&~*                                          ",
"                                                                                                ",
"                                                                                                ",
"                                                                                                ",
"                                                                                                "};
